G04 #@! TF.FileFunction,Soldermask,Bot*
%FSLAX46Y46*%
G04 Gerber Fmt 4.6, Leading zero omitted, Abs format (unit mm)*
G04 Created by KiCad (PCBNEW 4.0.3-stable) date 07/17/17 20:12:38*
%MOMM*%
%LPD*%
G01*
G04 APERTURE LIST*
%ADD10C,0.100000*%
%ADD11R,2.000000X2.700000*%
%ADD12O,2.000000X2.700000*%
%ADD13C,4.800000*%
%ADD14R,2.432000X2.127200*%
%ADD15O,2.432000X2.127200*%
%ADD16R,1.200100X1.200100*%
%ADD17R,2.000000X2.400000*%
%ADD18R,2.127200X2.432000*%
%ADD19O,2.127200X2.432000*%
%ADD20R,2.100000X2.400000*%
%ADD21R,2.432000X2.432000*%
%ADD22O,2.432000X2.432000*%
%ADD23R,2.400000X2.000000*%
%ADD24R,1.600000X2.600000*%
%ADD25R,3.900000X2.600000*%
%ADD26R,2.400000X2.900000*%
%ADD27R,2.900000X2.400000*%
%ADD28C,1.924000*%
%ADD29C,1.900000*%
%ADD30C,4.400000*%
%ADD31C,4.700000*%
%ADD32O,3.414980X1.906220*%
%ADD33C,1.901140*%
%ADD34O,3.410000X1.910000*%
%ADD35R,2.100000X2.100000*%
%ADD36O,2.100000X2.100000*%
%ADD37R,1.670000X1.370000*%
G04 APERTURE END LIST*
D10*
D11*
X87530000Y-114650000D03*
D12*
X90070000Y-114650000D03*
X92610000Y-114650000D03*
X95150000Y-114650000D03*
D13*
X75438000Y-96520000D03*
D12*
X60588000Y-96520000D03*
D13*
X54838000Y-96520000D03*
D12*
X63128000Y-96520000D03*
X65668000Y-96520000D03*
D11*
X68208000Y-96520000D03*
D14*
X51810100Y-112824200D03*
D15*
X51810100Y-115364200D03*
X51810100Y-117904200D03*
X51810100Y-120444200D03*
X51810100Y-122984200D03*
X51810100Y-125524200D03*
X51810100Y-128064200D03*
X51810100Y-130604200D03*
X51810100Y-133144200D03*
X51810100Y-135684200D03*
X51810100Y-138224200D03*
X51810100Y-140764200D03*
X51810100Y-143304200D03*
D16*
X68606100Y-141866720D03*
X66706100Y-141866720D03*
X67656100Y-139867740D03*
X63842080Y-139941200D03*
X63842080Y-141841200D03*
X61843100Y-140891200D03*
D17*
X55239100Y-120825200D03*
X55239100Y-116825200D03*
X64786100Y-137144200D03*
X64786100Y-133144200D03*
D18*
X70506100Y-112865200D03*
D19*
X67966100Y-112865200D03*
X65426100Y-112865200D03*
X62886100Y-112865200D03*
X60346100Y-112865200D03*
X57806100Y-112865200D03*
D14*
X72206100Y-117265200D03*
D15*
X72206100Y-119805200D03*
X72206100Y-122345200D03*
D20*
X70120100Y-133144200D03*
X70120100Y-137144200D03*
X67453100Y-133144200D03*
X67453100Y-137144200D03*
X59452100Y-133081200D03*
X59452100Y-137081200D03*
X62119100Y-133081200D03*
X62119100Y-137081200D03*
X72914100Y-133081200D03*
X72914100Y-137081200D03*
D21*
X68193100Y-119809200D03*
D22*
X68193100Y-117269200D03*
D23*
X62922100Y-116888200D03*
X58922100Y-116888200D03*
X63325100Y-129983200D03*
X59325100Y-129983200D03*
D24*
X58781100Y-119959200D03*
X61081100Y-119959200D03*
X63381100Y-119959200D03*
D25*
X61081100Y-126159200D03*
D14*
X77210100Y-143304200D03*
D15*
X77210100Y-140764200D03*
X77210100Y-138224200D03*
X77210100Y-135684200D03*
X77210100Y-133144200D03*
X77210100Y-130604200D03*
X77210100Y-128064200D03*
X77210100Y-125524200D03*
X77210100Y-122984200D03*
X77210100Y-120444200D03*
X77210100Y-117904200D03*
X77210100Y-115364200D03*
X77210100Y-112824200D03*
D20*
X56912100Y-133095200D03*
X56912100Y-137095200D03*
D26*
X65468000Y-82423000D03*
X61468000Y-82423000D03*
D27*
X65151000Y-65246000D03*
X65151000Y-61246000D03*
D18*
X59436000Y-54356000D03*
D19*
X61976000Y-54356000D03*
X64516000Y-54356000D03*
X67056000Y-54356000D03*
X69596000Y-54356000D03*
D28*
X56642000Y-58674000D03*
X56642000Y-61214000D03*
X56642000Y-63754000D03*
X56642000Y-66294000D03*
X56642000Y-68834000D03*
X56642000Y-71374000D03*
X56642000Y-73914000D03*
X56642000Y-76454000D03*
X56642000Y-78994000D03*
X56642000Y-81534000D03*
X56642000Y-84074000D03*
X56642000Y-86614000D03*
X71882000Y-58674000D03*
X71882000Y-61214000D03*
X71882000Y-63754000D03*
X71882000Y-66294000D03*
X71882000Y-68834000D03*
X71882000Y-71374000D03*
X71882000Y-73914000D03*
X71882000Y-76454000D03*
X71882000Y-78994000D03*
X71882000Y-81534000D03*
X71882000Y-84074000D03*
X71882000Y-86614000D03*
D29*
X68961000Y-67437000D03*
X68961000Y-69977000D03*
X68961000Y-77851000D03*
X68961000Y-80391000D03*
D14*
X51816000Y-86614000D03*
D15*
X51816000Y-84074000D03*
X51816000Y-81534000D03*
X51816000Y-78994000D03*
X51816000Y-76454000D03*
X51816000Y-73914000D03*
X51816000Y-71374000D03*
X51816000Y-68834000D03*
X51816000Y-66294000D03*
D14*
X76962000Y-66294000D03*
D15*
X76962000Y-68834000D03*
X76962000Y-71374000D03*
X76962000Y-73914000D03*
X76962000Y-76454000D03*
X76962000Y-78994000D03*
X76962000Y-81534000D03*
X76962000Y-84074000D03*
X76962000Y-86614000D03*
D16*
X68131000Y-89706000D03*
X68131000Y-91606000D03*
X66132020Y-90656000D03*
D26*
X72531000Y-90706000D03*
X76531000Y-90706000D03*
D30*
X91043000Y-71270000D03*
X91043000Y-91590000D03*
X122793000Y-91590000D03*
D11*
X117713000Y-70000000D03*
D12*
X115173000Y-70000000D03*
X112633000Y-70000000D03*
X110093000Y-70000000D03*
X107553000Y-70000000D03*
X105013000Y-70000000D03*
X102473000Y-70000000D03*
X99933000Y-70000000D03*
X97393000Y-70000000D03*
X94853000Y-70000000D03*
X117713000Y-92860000D03*
X115173000Y-92860000D03*
X112633000Y-92860000D03*
X110093000Y-92860000D03*
X107553000Y-92860000D03*
X105013000Y-92860000D03*
X102473000Y-92860000D03*
X99933000Y-92860000D03*
X97393000Y-92860000D03*
X94853000Y-92860000D03*
D30*
X122793000Y-71270000D03*
D31*
X122428000Y-59078000D03*
D11*
X104140000Y-63650000D03*
D12*
X106680000Y-63650000D03*
X109220000Y-63650000D03*
X111760000Y-63650000D03*
D32*
X144733000Y-85240000D03*
X144733000Y-82700000D03*
D28*
X137007600Y-83970000D03*
X134467600Y-83970000D03*
X139547600Y-83970000D03*
D11*
X87630000Y-63650000D03*
D12*
X90170000Y-63650000D03*
X92710000Y-63650000D03*
X95250000Y-63650000D03*
D32*
X144733000Y-77620000D03*
X144733000Y-75080000D03*
X144733000Y-72540000D03*
D18*
X126873000Y-64920000D03*
D19*
X124333000Y-64920000D03*
X121793000Y-64920000D03*
X119253000Y-64920000D03*
D33*
X131953000Y-63650000D03*
X134493000Y-63650000D03*
D14*
X139733000Y-52220000D03*
D15*
X139733000Y-54760000D03*
X139733000Y-57300000D03*
X139733000Y-59840000D03*
X139733000Y-62380000D03*
D11*
X118433000Y-52855000D03*
D12*
X120973000Y-52855000D03*
X123513000Y-52855000D03*
X126053000Y-52855000D03*
X128593000Y-52855000D03*
X131133000Y-52855000D03*
X133673000Y-52855000D03*
X136213000Y-52855000D03*
D34*
X145415000Y-96540000D03*
X145415000Y-94000000D03*
D35*
X142080000Y-89000000D03*
D36*
X139540000Y-89000000D03*
X137000000Y-89000000D03*
X134460000Y-89000000D03*
X131920000Y-89000000D03*
D37*
X141478000Y-92606000D03*
X141478000Y-93876000D03*
X141478000Y-95146000D03*
D30*
X90543000Y-122270000D03*
X90543000Y-142590000D03*
X122293000Y-142590000D03*
D11*
X117213000Y-121000000D03*
D12*
X114673000Y-121000000D03*
X112133000Y-121000000D03*
X109593000Y-121000000D03*
X107053000Y-121000000D03*
X104513000Y-121000000D03*
X101973000Y-121000000D03*
X99433000Y-121000000D03*
X96893000Y-121000000D03*
X94353000Y-121000000D03*
X117213000Y-143860000D03*
X114673000Y-143860000D03*
X112133000Y-143860000D03*
X109593000Y-143860000D03*
X107053000Y-143860000D03*
X104513000Y-143860000D03*
X101973000Y-143860000D03*
X99433000Y-143860000D03*
X96893000Y-143860000D03*
X94353000Y-143860000D03*
D30*
X122293000Y-122270000D03*
D31*
X122328000Y-110078000D03*
D11*
X104040000Y-114650000D03*
D12*
X106580000Y-114650000D03*
X109120000Y-114650000D03*
X111660000Y-114650000D03*
D32*
X144633000Y-136240000D03*
X144633000Y-133700000D03*
D28*
X136907600Y-134970000D03*
X134367600Y-134970000D03*
X139447600Y-134970000D03*
D32*
X144633000Y-128620000D03*
X144633000Y-126080000D03*
X144633000Y-123540000D03*
D18*
X126773000Y-115920000D03*
D19*
X124233000Y-115920000D03*
X121693000Y-115920000D03*
X119153000Y-115920000D03*
D33*
X131853000Y-114650000D03*
X134393000Y-114650000D03*
D14*
X139633000Y-103220000D03*
D15*
X139633000Y-105760000D03*
X139633000Y-108300000D03*
X139633000Y-110840000D03*
X139633000Y-113380000D03*
D11*
X118333000Y-103855000D03*
D12*
X120873000Y-103855000D03*
X123413000Y-103855000D03*
X125953000Y-103855000D03*
X128493000Y-103855000D03*
X131033000Y-103855000D03*
X133573000Y-103855000D03*
X136113000Y-103855000D03*
D34*
X145315000Y-147540000D03*
X145315000Y-145000000D03*
D35*
X141980000Y-140000000D03*
D36*
X139440000Y-140000000D03*
X136900000Y-140000000D03*
X134360000Y-140000000D03*
X131820000Y-140000000D03*
D37*
X141378000Y-143606000D03*
X141378000Y-144876000D03*
X141378000Y-146146000D03*
M02*
