M48
;DRILL file {KiCad 4.0.3-stable} date 07/17/17 20:12:44
;FORMAT={-:-/ absolute / inch / decimal}
FMAT,2
INCH,TZ
T1C0.016
T2C0.024
T3C0.030
T4C0.031
T5C0.032
T6C0.039
T7C0.039
T8C0.040
%
G90
G05
M72
T1
X2.0987Y-5.487
X2.1198Y-4.3919
X2.1198Y-4.4419
X2.1267Y-5.6025
X2.1528Y-4.9399
X2.1528Y-4.9899
X2.1538Y-5.0564
X2.1768Y-4.6794
X2.1776Y-4.81
X2.1798Y-4.3919
X2.1798Y-4.4419
X2.1823Y-5.129
X2.1834Y-5.2827
X2.1878Y-4.9399
X2.2256Y-4.9399
X2.2468Y-4.5429
X2.2477Y-4.7044
X2.2499Y-4.6585
X2.2578Y-4.9399
X2.3056Y-5.3124
X2.3185Y-5.5017
X2.3185Y-5.551
X2.3185Y-5.6002
X2.3579Y-5.5017
X2.3579Y-5.551
X2.3579Y-5.6002
X2.385Y-3.125
X2.3966Y-5.6004
X2.415Y-2.995
X2.4642Y-5.6002
X2.5325Y-5.1807
X2.5565Y-5.0106
X2.5674Y-5.5853
X2.5698Y-5.4919
X2.6336Y-5.0092
X2.7648Y-5.5669
X2.803Y-4.5415
X2.8493Y-4.5415
X2.8498Y-4.3919
X2.8498Y-4.4419
X2.8498Y-4.4919
X2.8998Y-4.3919
X2.8998Y-4.4419
X2.8998Y-4.4919
X2.9198Y-4.6119
X2.9374Y-5.4094
X2.9483Y-5.0409
X2.9493Y-4.9889
X2.9498Y-4.3919
X2.9498Y-4.4419
X2.9498Y-4.6519
X2.9649Y-4.5879
X4.0863Y-4.2528
X4.0902Y-2.2449
X4.1274Y-5.375
X4.1313Y-3.3671
X4.1431Y-5.186
X4.1471Y-3.1781
X4.151Y-5.0522
X4.1549Y-3.0443
X4.3911Y-4.3138
X4.395Y-2.3059
X5.1011Y-4.7675
X5.105Y-2.7596
X5.1107Y-4.3576
X5.1146Y-2.3497
T2
X2.715Y-2.655
X2.715Y-2.755
X2.715Y-3.065
X2.715Y-3.165
T3
X2.23Y-2.31
X2.23Y-2.41
X2.23Y-2.51
X2.23Y-2.61
X2.23Y-2.71
X2.23Y-2.81
X2.23Y-2.91
X2.23Y-3.01
X2.23Y-3.11
X2.23Y-3.21
X2.23Y-3.31
X2.23Y-3.41
X2.83Y-2.31
X2.83Y-2.41
X2.83Y-2.51
X2.83Y-2.61
X2.83Y-2.71
X2.83Y-2.81
X2.83Y-2.91
X2.83Y-3.01
X2.83Y-3.11
X2.83Y-3.21
X2.83Y-3.31
X2.83Y-3.41
T4
X2.3854Y-3.8
X2.4854Y-3.8
X2.5854Y-3.8
X2.6854Y-3.8
X3.4461Y-4.5138
X3.45Y-2.5059
X3.5461Y-4.5138
X3.55Y-2.5059
X3.6461Y-4.5138
X3.65Y-2.5059
X3.7147Y-4.7638
X3.7147Y-5.6638
X3.7344Y-2.7559
X3.7344Y-3.6559
X3.7461Y-4.5138
X3.75Y-2.5059
X3.8147Y-4.7638
X3.8147Y-5.6638
X3.8344Y-2.7559
X3.8344Y-3.6559
X3.9147Y-4.7638
X3.9147Y-5.6638
X3.9344Y-2.7559
X3.9344Y-3.6559
X4.0147Y-4.7638
X4.0147Y-5.6638
X4.0344Y-2.7559
X4.0344Y-3.6559
X4.0961Y-4.5138
X4.1Y-2.5059
X4.1147Y-4.7638
X4.1147Y-5.6638
X4.1344Y-2.7559
X4.1344Y-3.6559
X4.1961Y-4.5138
X4.2Y-2.5059
X4.2147Y-4.7638
X4.2147Y-5.6638
X4.2344Y-2.7559
X4.2344Y-3.6559
X4.2961Y-4.5138
X4.3Y-2.5059
X4.3147Y-4.7638
X4.3147Y-5.6638
X4.3344Y-2.7559
X4.3344Y-3.6559
X4.3961Y-4.5138
X4.4Y-2.5059
X4.4147Y-4.7638
X4.4147Y-5.6638
X4.4344Y-2.7559
X4.4344Y-3.6559
X4.5147Y-4.7638
X4.5147Y-5.6638
X4.5344Y-2.7559
X4.5344Y-3.6559
X4.6147Y-4.7638
X4.6147Y-5.6638
X4.6344Y-2.7559
X4.6344Y-3.6559
X4.6588Y-4.0888
X4.6627Y-2.0809
X4.7588Y-4.0888
X4.7627Y-2.0809
X4.8588Y-4.0888
X4.8627Y-2.0809
X4.9588Y-4.0888
X4.9627Y-2.0809
X5.0588Y-4.0888
X5.0627Y-2.0809
X5.1588Y-4.0888
X5.1627Y-2.0809
X5.2588Y-4.0888
X5.2627Y-2.0809
X5.2901Y-5.3138
X5.294Y-3.3059
X5.3588Y-4.0888
X5.3627Y-2.0809
X5.3901Y-5.3138
X5.394Y-3.3059
X5.4901Y-5.3138
X5.494Y-3.3059
T5
X5.1911Y-4.5138
X5.195Y-2.5059
X5.2911Y-4.5138
X5.295Y-2.5059
T6
X5.6942Y-4.8638
X5.6942Y-4.9638
X5.6942Y-5.0638
X5.6942Y-5.2638
X5.6942Y-5.3638
X5.6981Y-2.8559
X5.6981Y-2.9559
X5.6981Y-3.0559
X5.6981Y-3.2559
X5.6981Y-3.3559
T7
X5.1898Y-5.5118
X5.1937Y-3.5039
X5.2898Y-5.5118
X5.2937Y-3.5039
X5.3898Y-5.5118
X5.3937Y-3.5039
X5.4898Y-5.5118
X5.4937Y-3.5039
X5.5898Y-5.5118
X5.5937Y-3.5039
X5.7211Y-5.7087
X5.7211Y-5.8087
X5.725Y-3.7008
X5.725Y-3.8008
T8
X2.0398Y-4.4419
X2.0398Y-4.5419
X2.0398Y-4.6419
X2.0398Y-4.7419
X2.0398Y-4.8419
X2.0398Y-4.9419
X2.0398Y-5.0419
X2.0398Y-5.1419
X2.0398Y-5.2419
X2.0398Y-5.3419
X2.0398Y-5.4419
X2.0398Y-5.5419
X2.0398Y-5.6419
X2.04Y-2.61
X2.04Y-2.71
X2.04Y-2.81
X2.04Y-2.91
X2.04Y-3.01
X2.04Y-3.11
X2.04Y-3.21
X2.04Y-3.31
X2.04Y-3.41
X2.2758Y-4.4435
X2.34Y-2.14
X2.3758Y-4.4435
X2.44Y-2.14
X2.4758Y-4.4435
X2.54Y-2.14
X2.5758Y-4.4435
X2.64Y-2.14
X2.6758Y-4.4435
X2.6848Y-4.6169
X2.6848Y-4.7169
X2.74Y-2.14
X2.7758Y-4.4435
X2.8428Y-4.6167
X2.8428Y-4.7167
X2.8428Y-4.8167
X3.03Y-2.61
X3.03Y-2.71
X3.03Y-2.81
X3.03Y-2.91
X3.03Y-3.01
X3.03Y-3.11
X3.03Y-3.21
X3.03Y-3.31
X3.03Y-3.41
X3.0398Y-4.4419
X3.0398Y-4.5419
X3.0398Y-4.6419
X3.0398Y-4.7419
X3.0398Y-4.8419
X3.0398Y-4.9419
X3.0398Y-5.0419
X3.0398Y-5.1419
X3.0398Y-5.2419
X3.0398Y-5.3419
X3.0398Y-5.4419
X3.0398Y-5.5419
X3.0398Y-5.6419
X4.6911Y-4.5638
X4.695Y-2.5559
X4.7911Y-4.5638
X4.795Y-2.5559
X4.8911Y-4.5638
X4.895Y-2.5559
X4.9911Y-4.5638
X4.995Y-2.5559
X5.4974Y-4.0638
X5.4974Y-4.1638
X5.4974Y-4.2638
X5.4974Y-4.3638
X5.4974Y-4.4638
X5.5013Y-2.0559
X5.5013Y-2.1559
X5.5013Y-2.2559
X5.5013Y-2.3559
X5.5013Y-2.4559
T0
M30
