G04 #@! TF.FileFunction,Soldermask,Top*
%FSLAX46Y46*%
G04 Gerber Fmt 4.6, Leading zero omitted, Abs format (unit mm)*
G04 Created by KiCad (PCBNEW 4.0.3-stable) date 07/17/17 20:12:38*
%MOMM*%
%LPD*%
G01*
G04 APERTURE LIST*
%ADD10C,0.100000*%
%ADD11R,2.000000X2.700000*%
%ADD12O,2.000000X2.700000*%
%ADD13C,4.800000*%
%ADD14R,2.432000X2.127200*%
%ADD15O,2.432000X2.127200*%
%ADD16R,2.127200X2.432000*%
%ADD17O,2.127200X2.432000*%
%ADD18O,1.500000X2.800000*%
%ADD19R,2.800000X1.500000*%
%ADD20O,2.800000X1.500000*%
%ADD21R,2.432000X2.432000*%
%ADD22O,2.432000X2.432000*%
%ADD23R,3.150000X1.400000*%
%ADD24C,1.924000*%
%ADD25C,1.900000*%
%ADD26R,1.365200X1.670000*%
%ADD27C,4.400000*%
%ADD28C,4.700000*%
%ADD29R,2.400000X2.100000*%
%ADD30R,2.400000X2.000000*%
%ADD31R,2.000000X2.400000*%
%ADD32R,3.900120X2.701240*%
%ADD33O,3.414980X1.906220*%
%ADD34R,1.000000X1.950000*%
%ADD35C,1.901140*%
%ADD36R,2.100000X2.400000*%
%ADD37O,3.410000X1.910000*%
%ADD38R,1.400000X2.000000*%
%ADD39R,2.100000X2.100000*%
%ADD40O,2.100000X2.100000*%
G04 APERTURE END LIST*
D10*
D11*
X87530000Y-114650000D03*
D12*
X90070000Y-114650000D03*
X92610000Y-114650000D03*
X95150000Y-114650000D03*
D13*
X75438000Y-96520000D03*
D12*
X60588000Y-96520000D03*
D13*
X54838000Y-96520000D03*
D12*
X63128000Y-96520000D03*
X65668000Y-96520000D03*
D11*
X68208000Y-96520000D03*
D14*
X51810100Y-112824200D03*
D15*
X51810100Y-115364200D03*
X51810100Y-117904200D03*
X51810100Y-120444200D03*
X51810100Y-122984200D03*
X51810100Y-125524200D03*
X51810100Y-128064200D03*
X51810100Y-130604200D03*
X51810100Y-133144200D03*
X51810100Y-135684200D03*
X51810100Y-138224200D03*
X51810100Y-140764200D03*
X51810100Y-143304200D03*
D16*
X70506100Y-112865200D03*
D17*
X67966100Y-112865200D03*
X65426100Y-112865200D03*
X62886100Y-112865200D03*
X60346100Y-112865200D03*
X57806100Y-112865200D03*
D14*
X72206100Y-117265200D03*
D15*
X72206100Y-119805200D03*
X72206100Y-122345200D03*
D18*
X69773100Y-125553200D03*
X67773100Y-125553200D03*
X65773100Y-125553200D03*
X63773100Y-125553200D03*
X61773100Y-125553200D03*
X59773100Y-125553200D03*
D19*
X72763100Y-141303200D03*
D20*
X72763100Y-139303200D03*
X72763100Y-137303200D03*
X72763100Y-135303200D03*
X72763100Y-133303200D03*
X72763100Y-131303200D03*
X72763100Y-129303200D03*
X72763100Y-127303200D03*
X56763100Y-127303200D03*
X56763100Y-129303200D03*
X56763100Y-131303200D03*
X56763100Y-133303200D03*
X56763100Y-135303200D03*
X56763100Y-137303200D03*
X56763100Y-139303200D03*
X56763100Y-141303200D03*
D21*
X68193100Y-119809200D03*
D22*
X68193100Y-117269200D03*
D14*
X77210100Y-143304200D03*
D15*
X77210100Y-140764200D03*
X77210100Y-138224200D03*
X77210100Y-135684200D03*
X77210100Y-133144200D03*
X77210100Y-130604200D03*
X77210100Y-128064200D03*
X77210100Y-125524200D03*
X77210100Y-122984200D03*
X77210100Y-120444200D03*
X77210100Y-117904200D03*
X77210100Y-115364200D03*
X77210100Y-112824200D03*
D23*
X64319600Y-116799800D03*
X58569600Y-116799800D03*
X58569600Y-120799800D03*
X64319600Y-120799800D03*
D16*
X59436000Y-54356000D03*
D17*
X61976000Y-54356000D03*
X64516000Y-54356000D03*
X67056000Y-54356000D03*
X69596000Y-54356000D03*
D24*
X56642000Y-58674000D03*
X56642000Y-61214000D03*
X56642000Y-63754000D03*
X56642000Y-66294000D03*
X56642000Y-68834000D03*
X56642000Y-71374000D03*
X56642000Y-73914000D03*
X56642000Y-76454000D03*
X56642000Y-78994000D03*
X56642000Y-81534000D03*
X56642000Y-84074000D03*
X56642000Y-86614000D03*
X71882000Y-58674000D03*
X71882000Y-61214000D03*
X71882000Y-63754000D03*
X71882000Y-66294000D03*
X71882000Y-68834000D03*
X71882000Y-71374000D03*
X71882000Y-73914000D03*
X71882000Y-76454000D03*
X71882000Y-78994000D03*
X71882000Y-81534000D03*
X71882000Y-84074000D03*
X71882000Y-86614000D03*
D25*
X68961000Y-67437000D03*
X68961000Y-69977000D03*
X68961000Y-77851000D03*
X68961000Y-80391000D03*
D14*
X51816000Y-86614000D03*
D15*
X51816000Y-84074000D03*
X51816000Y-81534000D03*
X51816000Y-78994000D03*
X51816000Y-76454000D03*
X51816000Y-73914000D03*
X51816000Y-71374000D03*
X51816000Y-68834000D03*
X51816000Y-66294000D03*
D14*
X76962000Y-66294000D03*
D15*
X76962000Y-68834000D03*
X76962000Y-71374000D03*
X76962000Y-73914000D03*
X76962000Y-76454000D03*
X76962000Y-78994000D03*
X76962000Y-81534000D03*
X76962000Y-84074000D03*
X76962000Y-86614000D03*
D26*
X60071000Y-77470000D03*
X61341000Y-77470000D03*
X62611000Y-77470000D03*
X60071000Y-74930000D03*
X61341000Y-74930000D03*
X62611000Y-74930000D03*
D27*
X91043000Y-71270000D03*
X91043000Y-91590000D03*
X122793000Y-91590000D03*
D11*
X117713000Y-70000000D03*
D12*
X115173000Y-70000000D03*
X112633000Y-70000000D03*
X110093000Y-70000000D03*
X107553000Y-70000000D03*
X105013000Y-70000000D03*
X102473000Y-70000000D03*
X99933000Y-70000000D03*
X97393000Y-70000000D03*
X94853000Y-70000000D03*
X117713000Y-92860000D03*
X115173000Y-92860000D03*
X112633000Y-92860000D03*
X110093000Y-92860000D03*
X107553000Y-92860000D03*
X105013000Y-92860000D03*
X102473000Y-92860000D03*
X99933000Y-92860000D03*
X97393000Y-92860000D03*
X94853000Y-92860000D03*
D27*
X122793000Y-71270000D03*
D28*
X122428000Y-59078000D03*
D11*
X104140000Y-63650000D03*
D12*
X106680000Y-63650000D03*
X109220000Y-63650000D03*
X111760000Y-63650000D03*
D29*
X142303000Y-68730000D03*
X138303000Y-68730000D03*
D30*
X126778000Y-85494000D03*
X130778000Y-85494000D03*
D31*
X83820000Y-61300000D03*
X83820000Y-57300000D03*
X99733000Y-61020000D03*
X99733000Y-57020000D03*
X116335454Y-78524756D03*
X116335454Y-82524756D03*
X115233000Y-57020000D03*
X115233000Y-61020000D03*
D30*
X138303000Y-72540000D03*
X134303000Y-72540000D03*
D32*
X139573000Y-77620000D03*
X134172960Y-77620000D03*
D33*
X144733000Y-85240000D03*
X144733000Y-82700000D03*
D24*
X137007600Y-83970000D03*
X134467600Y-83970000D03*
X139547600Y-83970000D03*
D29*
X126746000Y-81938000D03*
X130746000Y-81938000D03*
X138303000Y-66190000D03*
X142303000Y-66190000D03*
D34*
X108630454Y-82624756D03*
X109900454Y-82624756D03*
X111170454Y-82624756D03*
X112440454Y-82624756D03*
X112440454Y-77224756D03*
X111170454Y-77224756D03*
X109900454Y-77224756D03*
X108630454Y-77224756D03*
D11*
X87630000Y-63650000D03*
D12*
X90170000Y-63650000D03*
X92710000Y-63650000D03*
X95250000Y-63650000D03*
D33*
X144733000Y-77620000D03*
X144733000Y-75080000D03*
X144733000Y-72540000D03*
D16*
X126873000Y-64920000D03*
D17*
X124333000Y-64920000D03*
X121793000Y-64920000D03*
X119253000Y-64920000D03*
D35*
X131953000Y-63650000D03*
X134493000Y-63650000D03*
D36*
X126898400Y-89164800D03*
X126898400Y-93164800D03*
D26*
X146050000Y-68730000D03*
X144780000Y-68730000D03*
D14*
X139733000Y-52220000D03*
D15*
X139733000Y-54760000D03*
X139733000Y-57300000D03*
X139733000Y-59840000D03*
X139733000Y-62380000D03*
D26*
X134874000Y-58824000D03*
X133604000Y-58824000D03*
X132334000Y-58824000D03*
X101465454Y-77324756D03*
X102735454Y-77324756D03*
X104005454Y-77324756D03*
X101346000Y-80668000D03*
X102616000Y-80668000D03*
X103886000Y-80668000D03*
X101346000Y-84224000D03*
X102616000Y-84224000D03*
X103886000Y-84224000D03*
X144780000Y-66190000D03*
X146050000Y-66190000D03*
D11*
X118433000Y-52855000D03*
D12*
X120973000Y-52855000D03*
X123513000Y-52855000D03*
X126053000Y-52855000D03*
X128593000Y-52855000D03*
X131133000Y-52855000D03*
X133673000Y-52855000D03*
X136213000Y-52855000D03*
D37*
X145415000Y-96540000D03*
X145415000Y-94000000D03*
D38*
X134620000Y-95781000D03*
X131620000Y-95781000D03*
X134620000Y-93368000D03*
X131620000Y-93368000D03*
D29*
X99822500Y-89939000D03*
X103822500Y-89939000D03*
X99886000Y-87272000D03*
X103886000Y-87272000D03*
D39*
X142080000Y-89000000D03*
D40*
X139540000Y-89000000D03*
X137000000Y-89000000D03*
X134460000Y-89000000D03*
X131920000Y-89000000D03*
D27*
X90543000Y-122270000D03*
X90543000Y-142590000D03*
X122293000Y-142590000D03*
D11*
X117213000Y-121000000D03*
D12*
X114673000Y-121000000D03*
X112133000Y-121000000D03*
X109593000Y-121000000D03*
X107053000Y-121000000D03*
X104513000Y-121000000D03*
X101973000Y-121000000D03*
X99433000Y-121000000D03*
X96893000Y-121000000D03*
X94353000Y-121000000D03*
X117213000Y-143860000D03*
X114673000Y-143860000D03*
X112133000Y-143860000D03*
X109593000Y-143860000D03*
X107053000Y-143860000D03*
X104513000Y-143860000D03*
X101973000Y-143860000D03*
X99433000Y-143860000D03*
X96893000Y-143860000D03*
X94353000Y-143860000D03*
D27*
X122293000Y-122270000D03*
D28*
X122328000Y-110078000D03*
D11*
X104040000Y-114650000D03*
D12*
X106580000Y-114650000D03*
X109120000Y-114650000D03*
X111660000Y-114650000D03*
D29*
X142203000Y-119730000D03*
X138203000Y-119730000D03*
D30*
X126678000Y-136494000D03*
X130678000Y-136494000D03*
D31*
X83720000Y-112300000D03*
X83720000Y-108300000D03*
X99633000Y-112020000D03*
X99633000Y-108020000D03*
X116235454Y-129524756D03*
X116235454Y-133524756D03*
X115133000Y-108020000D03*
X115133000Y-112020000D03*
D30*
X138203000Y-123540000D03*
X134203000Y-123540000D03*
D32*
X139473000Y-128620000D03*
X134072960Y-128620000D03*
D33*
X144633000Y-136240000D03*
X144633000Y-133700000D03*
D24*
X136907600Y-134970000D03*
X134367600Y-134970000D03*
X139447600Y-134970000D03*
D29*
X126646000Y-132938000D03*
X130646000Y-132938000D03*
X138203000Y-117190000D03*
X142203000Y-117190000D03*
D34*
X108530454Y-133624756D03*
X109800454Y-133624756D03*
X111070454Y-133624756D03*
X112340454Y-133624756D03*
X112340454Y-128224756D03*
X111070454Y-128224756D03*
X109800454Y-128224756D03*
X108530454Y-128224756D03*
D33*
X144633000Y-128620000D03*
X144633000Y-126080000D03*
X144633000Y-123540000D03*
D16*
X126773000Y-115920000D03*
D17*
X124233000Y-115920000D03*
X121693000Y-115920000D03*
X119153000Y-115920000D03*
D35*
X131853000Y-114650000D03*
X134393000Y-114650000D03*
D36*
X126798400Y-140164800D03*
X126798400Y-144164800D03*
D26*
X145950000Y-119730000D03*
X144680000Y-119730000D03*
D14*
X139633000Y-103220000D03*
D15*
X139633000Y-105760000D03*
X139633000Y-108300000D03*
X139633000Y-110840000D03*
X139633000Y-113380000D03*
D26*
X134774000Y-109824000D03*
X133504000Y-109824000D03*
X132234000Y-109824000D03*
X101365454Y-128324756D03*
X102635454Y-128324756D03*
X103905454Y-128324756D03*
X101246000Y-131668000D03*
X102516000Y-131668000D03*
X103786000Y-131668000D03*
X101246000Y-135224000D03*
X102516000Y-135224000D03*
X103786000Y-135224000D03*
X144680000Y-117190000D03*
X145950000Y-117190000D03*
D11*
X118333000Y-103855000D03*
D12*
X120873000Y-103855000D03*
X123413000Y-103855000D03*
X125953000Y-103855000D03*
X128493000Y-103855000D03*
X131033000Y-103855000D03*
X133573000Y-103855000D03*
X136113000Y-103855000D03*
D37*
X145315000Y-147540000D03*
X145315000Y-145000000D03*
D38*
X134520000Y-146781000D03*
X131520000Y-146781000D03*
X134520000Y-144368000D03*
X131520000Y-144368000D03*
D29*
X99722500Y-140939000D03*
X103722500Y-140939000D03*
X99786000Y-138272000D03*
X103786000Y-138272000D03*
D39*
X141980000Y-140000000D03*
D40*
X139440000Y-140000000D03*
X136900000Y-140000000D03*
X134360000Y-140000000D03*
X131820000Y-140000000D03*
M02*
