G04 #@! TF.FileFunction,Legend,Top*
%FSLAX46Y46*%
G04 Gerber Fmt 4.6, Leading zero omitted, Abs format (unit mm)*
G04 Created by KiCad (PCBNEW 4.0.3-stable) date 07/17/17 20:12:38*
%MOMM*%
%LPD*%
G01*
G04 APERTURE LIST*
%ADD10C,0.100000*%
%ADD11C,0.200000*%
%ADD12C,0.150000*%
%ADD13C,0.010000*%
%ADD14C,0.120000*%
G04 APERTURE END LIST*
D10*
D11*
X80115000Y-109587000D02*
X50016000Y-109587000D01*
X80115000Y-149973000D02*
X80115000Y-50024000D01*
X50016000Y-100062000D02*
X149965000Y-100062000D01*
D12*
X53850100Y-112959057D02*
X53802481Y-113054295D01*
X53802481Y-113197152D01*
X53850100Y-113340010D01*
X53945338Y-113435248D01*
X54040576Y-113482867D01*
X54231052Y-113530486D01*
X54373910Y-113530486D01*
X54564386Y-113482867D01*
X54659624Y-113435248D01*
X54754862Y-113340010D01*
X54802481Y-113197152D01*
X54802481Y-113101914D01*
X54754862Y-112959057D01*
X54707243Y-112911438D01*
X54373910Y-112911438D01*
X54373910Y-113101914D01*
X54135814Y-112482867D02*
X54802481Y-112482867D01*
X54231052Y-112482867D02*
X54183433Y-112435248D01*
X54135814Y-112340010D01*
X54135814Y-112197152D01*
X54183433Y-112101914D01*
X54278671Y-112054295D01*
X54802481Y-112054295D01*
X54802481Y-111149533D02*
X53802481Y-111149533D01*
X54754862Y-111149533D02*
X54802481Y-111244771D01*
X54802481Y-111435248D01*
X54754862Y-111530486D01*
X54707243Y-111578105D01*
X54612005Y-111625724D01*
X54326290Y-111625724D01*
X54231052Y-111578105D01*
X54183433Y-111530486D01*
X54135814Y-111435248D01*
X54135814Y-111244771D01*
X54183433Y-111149533D01*
X54707243Y-115530866D02*
X54754862Y-115578485D01*
X54802481Y-115721342D01*
X54802481Y-115816580D01*
X54754862Y-115959438D01*
X54659624Y-116054676D01*
X54564386Y-116102295D01*
X54373910Y-116149914D01*
X54231052Y-116149914D01*
X54040576Y-116102295D01*
X53945338Y-116054676D01*
X53850100Y-115959438D01*
X53802481Y-115816580D01*
X53802481Y-115721342D01*
X53850100Y-115578485D01*
X53897719Y-115530866D01*
X54754862Y-115149914D02*
X54802481Y-115007057D01*
X54802481Y-114768961D01*
X54754862Y-114673723D01*
X54707243Y-114626104D01*
X54612005Y-114578485D01*
X54516767Y-114578485D01*
X54421529Y-114626104D01*
X54373910Y-114673723D01*
X54326290Y-114768961D01*
X54278671Y-114959438D01*
X54231052Y-115054676D01*
X54183433Y-115102295D01*
X54088195Y-115149914D01*
X53992957Y-115149914D01*
X53897719Y-115102295D01*
X53850100Y-115054676D01*
X53802481Y-114959438D01*
X53802481Y-114721342D01*
X53850100Y-114578485D01*
X54802481Y-118221628D02*
X53802481Y-118221628D01*
X54516767Y-117888294D01*
X53802481Y-117554961D01*
X54802481Y-117554961D01*
X54802481Y-117078771D02*
X53802481Y-117078771D01*
X54802481Y-120793343D02*
X53802481Y-120793343D01*
X54516767Y-120460009D01*
X53802481Y-120126676D01*
X54802481Y-120126676D01*
X53802481Y-119460010D02*
X53802481Y-119269533D01*
X53850100Y-119174295D01*
X53945338Y-119079057D01*
X54135814Y-119031438D01*
X54469148Y-119031438D01*
X54659624Y-119079057D01*
X54754862Y-119174295D01*
X54802481Y-119269533D01*
X54802481Y-119460010D01*
X54754862Y-119555248D01*
X54659624Y-119650486D01*
X54469148Y-119698105D01*
X54135814Y-119698105D01*
X53945338Y-119650486D01*
X53850100Y-119555248D01*
X53802481Y-119460010D01*
X54707243Y-123325438D02*
X54754862Y-123373057D01*
X54802481Y-123515914D01*
X54802481Y-123611152D01*
X54754862Y-123754010D01*
X54659624Y-123849248D01*
X54564386Y-123896867D01*
X54373910Y-123944486D01*
X54231052Y-123944486D01*
X54040576Y-123896867D01*
X53945338Y-123849248D01*
X53850100Y-123754010D01*
X53802481Y-123611152D01*
X53802481Y-123515914D01*
X53850100Y-123373057D01*
X53897719Y-123325438D01*
X54802481Y-122420676D02*
X54802481Y-122896867D01*
X53802481Y-122896867D01*
X54802481Y-122087343D02*
X53802481Y-122087343D01*
X54802481Y-121515914D02*
X54231052Y-121944486D01*
X53802481Y-121515914D02*
X54373910Y-122087343D01*
X53850100Y-126167057D02*
X53802481Y-126262295D01*
X53802481Y-126405152D01*
X53850100Y-126548010D01*
X53945338Y-126643248D01*
X54040576Y-126690867D01*
X54231052Y-126738486D01*
X54373910Y-126738486D01*
X54564386Y-126690867D01*
X54659624Y-126643248D01*
X54754862Y-126548010D01*
X54802481Y-126405152D01*
X54802481Y-126309914D01*
X54754862Y-126167057D01*
X54707243Y-126119438D01*
X54373910Y-126119438D01*
X54373910Y-126309914D01*
X54135814Y-125690867D02*
X54802481Y-125690867D01*
X54231052Y-125690867D02*
X54183433Y-125643248D01*
X54135814Y-125548010D01*
X54135814Y-125405152D01*
X54183433Y-125309914D01*
X54278671Y-125262295D01*
X54802481Y-125262295D01*
X54802481Y-124357533D02*
X53802481Y-124357533D01*
X54754862Y-124357533D02*
X54802481Y-124452771D01*
X54802481Y-124643248D01*
X54754862Y-124738486D01*
X54707243Y-124786105D01*
X54612005Y-124833724D01*
X54326290Y-124833724D01*
X54231052Y-124786105D01*
X54183433Y-124738486D01*
X54135814Y-124643248D01*
X54135814Y-124452771D01*
X54183433Y-124357533D01*
X54802481Y-129016581D02*
X53802481Y-129016581D01*
X54802481Y-128016581D02*
X54802481Y-128588010D01*
X54802481Y-128302296D02*
X53802481Y-128302296D01*
X53945338Y-128397534D01*
X54040576Y-128492772D01*
X54088195Y-128588010D01*
X53802481Y-127111819D02*
X53802481Y-127588010D01*
X54278671Y-127635629D01*
X54231052Y-127588010D01*
X54183433Y-127492772D01*
X54183433Y-127254676D01*
X54231052Y-127159438D01*
X54278671Y-127111819D01*
X54373910Y-127064200D01*
X54612005Y-127064200D01*
X54707243Y-127111819D01*
X54754862Y-127159438D01*
X54802481Y-127254676D01*
X54802481Y-127492772D01*
X54754862Y-127588010D01*
X54707243Y-127635629D01*
X54802481Y-131556581D02*
X53802481Y-131556581D01*
X53802481Y-130889915D02*
X53802481Y-130794676D01*
X53850100Y-130699438D01*
X53897719Y-130651819D01*
X53992957Y-130604200D01*
X54183433Y-130556581D01*
X54421529Y-130556581D01*
X54612005Y-130604200D01*
X54707243Y-130651819D01*
X54754862Y-130699438D01*
X54802481Y-130794676D01*
X54802481Y-130889915D01*
X54754862Y-130985153D01*
X54707243Y-131032772D01*
X54612005Y-131080391D01*
X54421529Y-131128010D01*
X54183433Y-131128010D01*
X53992957Y-131080391D01*
X53897719Y-131032772D01*
X53850100Y-130985153D01*
X53802481Y-130889915D01*
X53897719Y-130175629D02*
X53850100Y-130128010D01*
X53802481Y-130032772D01*
X53802481Y-129794676D01*
X53850100Y-129699438D01*
X53897719Y-129651819D01*
X53992957Y-129604200D01*
X54088195Y-129604200D01*
X54231052Y-129651819D01*
X54802481Y-130223248D01*
X54802481Y-129604200D01*
X54802481Y-134096581D02*
X53802481Y-134096581D01*
X53802481Y-133429915D02*
X53802481Y-133334676D01*
X53850100Y-133239438D01*
X53897719Y-133191819D01*
X53992957Y-133144200D01*
X54183433Y-133096581D01*
X54421529Y-133096581D01*
X54612005Y-133144200D01*
X54707243Y-133191819D01*
X54754862Y-133239438D01*
X54802481Y-133334676D01*
X54802481Y-133429915D01*
X54754862Y-133525153D01*
X54707243Y-133572772D01*
X54612005Y-133620391D01*
X54421529Y-133668010D01*
X54183433Y-133668010D01*
X53992957Y-133620391D01*
X53897719Y-133572772D01*
X53850100Y-133525153D01*
X53802481Y-133429915D01*
X53802481Y-132477534D02*
X53802481Y-132382295D01*
X53850100Y-132287057D01*
X53897719Y-132239438D01*
X53992957Y-132191819D01*
X54183433Y-132144200D01*
X54421529Y-132144200D01*
X54612005Y-132191819D01*
X54707243Y-132239438D01*
X54754862Y-132287057D01*
X54802481Y-132382295D01*
X54802481Y-132477534D01*
X54754862Y-132572772D01*
X54707243Y-132620391D01*
X54612005Y-132668010D01*
X54421529Y-132715629D01*
X54183433Y-132715629D01*
X53992957Y-132668010D01*
X53897719Y-132620391D01*
X53850100Y-132572772D01*
X53802481Y-132477534D01*
X54802481Y-136636581D02*
X53802481Y-136636581D01*
X53802481Y-135969915D02*
X53802481Y-135874676D01*
X53850100Y-135779438D01*
X53897719Y-135731819D01*
X53992957Y-135684200D01*
X54183433Y-135636581D01*
X54421529Y-135636581D01*
X54612005Y-135684200D01*
X54707243Y-135731819D01*
X54754862Y-135779438D01*
X54802481Y-135874676D01*
X54802481Y-135969915D01*
X54754862Y-136065153D01*
X54707243Y-136112772D01*
X54612005Y-136160391D01*
X54421529Y-136208010D01*
X54183433Y-136208010D01*
X53992957Y-136160391D01*
X53897719Y-136112772D01*
X53850100Y-136065153D01*
X53802481Y-135969915D01*
X54135814Y-134779438D02*
X54802481Y-134779438D01*
X53754862Y-135017534D02*
X54469148Y-135255629D01*
X54469148Y-134636581D01*
D10*
X54802481Y-139176581D02*
X53802481Y-139176581D01*
X53802481Y-138509915D02*
X53802481Y-138414676D01*
X53850100Y-138319438D01*
X53897719Y-138271819D01*
X53992957Y-138224200D01*
X54183433Y-138176581D01*
X54421529Y-138176581D01*
X54612005Y-138224200D01*
X54707243Y-138271819D01*
X54754862Y-138319438D01*
X54802481Y-138414676D01*
X54802481Y-138509915D01*
X54754862Y-138605153D01*
X54707243Y-138652772D01*
X54612005Y-138700391D01*
X54421529Y-138748010D01*
X54183433Y-138748010D01*
X53992957Y-138700391D01*
X53897719Y-138652772D01*
X53850100Y-138605153D01*
X53802481Y-138509915D01*
X53802481Y-137271819D02*
X53802481Y-137748010D01*
X54278671Y-137795629D01*
X54231052Y-137748010D01*
X54183433Y-137652772D01*
X54183433Y-137414676D01*
X54231052Y-137319438D01*
X54278671Y-137271819D01*
X54373910Y-137224200D01*
X54612005Y-137224200D01*
X54707243Y-137271819D01*
X54754862Y-137319438D01*
X54802481Y-137414676D01*
X54802481Y-137652772D01*
X54754862Y-137748010D01*
X54707243Y-137795629D01*
D12*
X54802481Y-140930866D02*
X54326290Y-141264200D01*
X54802481Y-141502295D02*
X53802481Y-141502295D01*
X53802481Y-141121342D01*
X53850100Y-141026104D01*
X53897719Y-140978485D01*
X53992957Y-140930866D01*
X54135814Y-140930866D01*
X54231052Y-140978485D01*
X54278671Y-141026104D01*
X54326290Y-141121342D01*
X54326290Y-141502295D01*
X53802481Y-140597533D02*
X54802481Y-139930866D01*
X53802481Y-139930866D02*
X54802481Y-140597533D01*
X53802481Y-144066105D02*
X53802481Y-143494676D01*
X54802481Y-143780391D02*
X53802481Y-143780391D01*
X53802481Y-143256581D02*
X54802481Y-142589914D01*
X53802481Y-142589914D02*
X54802481Y-143256581D01*
X74471719Y-126857819D02*
X75471719Y-126857819D01*
X74471719Y-127857819D02*
X74471719Y-127286390D01*
X74471719Y-127572104D02*
X75471719Y-127572104D01*
X75328862Y-127476866D01*
X75233624Y-127381628D01*
X75186005Y-127286390D01*
X75471719Y-128191152D02*
X75471719Y-128810200D01*
X75090767Y-128476866D01*
X75090767Y-128619724D01*
X75043148Y-128714962D01*
X74995529Y-128762581D01*
X74900290Y-128810200D01*
X74662195Y-128810200D01*
X74566957Y-128762581D01*
X74519338Y-128714962D01*
X74471719Y-128619724D01*
X74471719Y-128334009D01*
X74519338Y-128238771D01*
X74566957Y-128191152D01*
X74471719Y-129397819D02*
X75471719Y-129397819D01*
X74471719Y-130397819D02*
X74471719Y-129826390D01*
X74471719Y-130112104D02*
X75471719Y-130112104D01*
X75328862Y-130016866D01*
X75233624Y-129921628D01*
X75186005Y-129826390D01*
X75376481Y-130778771D02*
X75424100Y-130826390D01*
X75471719Y-130921628D01*
X75471719Y-131159724D01*
X75424100Y-131254962D01*
X75376481Y-131302581D01*
X75281243Y-131350200D01*
X75186005Y-131350200D01*
X75043148Y-131302581D01*
X74471719Y-130731152D01*
X74471719Y-131350200D01*
X74471719Y-132191819D02*
X75471719Y-132191819D01*
X74471719Y-133191819D02*
X74471719Y-132620390D01*
X74471719Y-132906104D02*
X75471719Y-132906104D01*
X75328862Y-132810866D01*
X75233624Y-132715628D01*
X75186005Y-132620390D01*
X75138386Y-134048962D02*
X74471719Y-134048962D01*
X75519338Y-133810866D02*
X74805052Y-133572771D01*
X74805052Y-134191819D01*
X74471719Y-134731819D02*
X75471719Y-134731819D01*
X74471719Y-135731819D02*
X74471719Y-135160390D01*
X74471719Y-135446104D02*
X75471719Y-135446104D01*
X75328862Y-135350866D01*
X75233624Y-135255628D01*
X75186005Y-135160390D01*
X75471719Y-136588962D02*
X75471719Y-136398485D01*
X75424100Y-136303247D01*
X75376481Y-136255628D01*
X75233624Y-136160390D01*
X75043148Y-136112771D01*
X74662195Y-136112771D01*
X74566957Y-136160390D01*
X74519338Y-136208009D01*
X74471719Y-136303247D01*
X74471719Y-136493724D01*
X74519338Y-136588962D01*
X74566957Y-136636581D01*
X74662195Y-136684200D01*
X74900290Y-136684200D01*
X74995529Y-136636581D01*
X75043148Y-136588962D01*
X75090767Y-136493724D01*
X75090767Y-136303247D01*
X75043148Y-136208009D01*
X74995529Y-136160390D01*
X74900290Y-136112771D01*
X74995529Y-137486105D02*
X74995529Y-137819439D01*
X74471719Y-137962296D02*
X74471719Y-137486105D01*
X75471719Y-137486105D01*
X75471719Y-137962296D01*
X74471719Y-138390867D02*
X75471719Y-138390867D01*
X74471719Y-138962296D01*
X75471719Y-138962296D01*
X74757433Y-139526105D02*
X74757433Y-140002296D01*
X74471719Y-139430867D02*
X75471719Y-139764200D01*
X74471719Y-140097534D01*
X74471719Y-140430867D02*
X75471719Y-140430867D01*
X75471719Y-140668962D01*
X75424100Y-140811820D01*
X75328862Y-140907058D01*
X75233624Y-140954677D01*
X75043148Y-141002296D01*
X74900290Y-141002296D01*
X74709814Y-140954677D01*
X74614576Y-140907058D01*
X74519338Y-140811820D01*
X74471719Y-140668962D01*
X74471719Y-140430867D01*
X74566957Y-142002296D02*
X74519338Y-141954677D01*
X74471719Y-141811820D01*
X74471719Y-141716582D01*
X74519338Y-141573724D01*
X74614576Y-141478486D01*
X74709814Y-141430867D01*
X74900290Y-141383248D01*
X75043148Y-141383248D01*
X75233624Y-141430867D01*
X75328862Y-141478486D01*
X75424100Y-141573724D01*
X75471719Y-141716582D01*
X75471719Y-141811820D01*
X75424100Y-141954677D01*
X75376481Y-142002296D01*
X74217719Y-143264581D02*
X74693910Y-142931247D01*
X74217719Y-142693152D02*
X75217719Y-142693152D01*
X75217719Y-143074105D01*
X75170100Y-143169343D01*
X75122481Y-143216962D01*
X75027243Y-143264581D01*
X74884386Y-143264581D01*
X74789148Y-143216962D01*
X74741529Y-143169343D01*
X74693910Y-143074105D01*
X74693910Y-142693152D01*
X74265338Y-143645533D02*
X74217719Y-143788390D01*
X74217719Y-144026486D01*
X74265338Y-144121724D01*
X74312957Y-144169343D01*
X74408195Y-144216962D01*
X74503433Y-144216962D01*
X74598671Y-144169343D01*
X74646290Y-144121724D01*
X74693910Y-144026486D01*
X74741529Y-143836009D01*
X74789148Y-143740771D01*
X74836767Y-143693152D01*
X74932005Y-143645533D01*
X75027243Y-143645533D01*
X75122481Y-143693152D01*
X75170100Y-143740771D01*
X75217719Y-143836009D01*
X75217719Y-144074105D01*
X75170100Y-144216962D01*
X75217719Y-144502676D02*
X75217719Y-145074105D01*
X74217719Y-144788390D02*
X75217719Y-144788390D01*
X74471719Y-124317819D02*
X75471719Y-124317819D01*
X75471719Y-124984485D02*
X75471719Y-125079724D01*
X75424100Y-125174962D01*
X75376481Y-125222581D01*
X75281243Y-125270200D01*
X75090767Y-125317819D01*
X74852671Y-125317819D01*
X74662195Y-125270200D01*
X74566957Y-125222581D01*
X74519338Y-125174962D01*
X74471719Y-125079724D01*
X74471719Y-124984485D01*
X74519338Y-124889247D01*
X74566957Y-124841628D01*
X74662195Y-124794009D01*
X74852671Y-124746390D01*
X75090767Y-124746390D01*
X75281243Y-124794009D01*
X75376481Y-124841628D01*
X75424100Y-124889247D01*
X75471719Y-124984485D01*
X74471719Y-125794009D02*
X74471719Y-125984485D01*
X74519338Y-126079724D01*
X74566957Y-126127343D01*
X74709814Y-126222581D01*
X74900290Y-126270200D01*
X75281243Y-126270200D01*
X75376481Y-126222581D01*
X75424100Y-126174962D01*
X75471719Y-126079724D01*
X75471719Y-125889247D01*
X75424100Y-125794009D01*
X75376481Y-125746390D01*
X75281243Y-125698771D01*
X75043148Y-125698771D01*
X74947910Y-125746390D01*
X74900290Y-125794009D01*
X74852671Y-125889247D01*
X74852671Y-126079724D01*
X74900290Y-126174962D01*
X74947910Y-126222581D01*
X75043148Y-126270200D01*
X74471719Y-121777819D02*
X75471719Y-121777819D01*
X74471719Y-122777819D02*
X74471719Y-122206390D01*
X74471719Y-122492104D02*
X75471719Y-122492104D01*
X75328862Y-122396866D01*
X75233624Y-122301628D01*
X75186005Y-122206390D01*
X75471719Y-123396866D02*
X75471719Y-123492105D01*
X75424100Y-123587343D01*
X75376481Y-123634962D01*
X75281243Y-123682581D01*
X75090767Y-123730200D01*
X74852671Y-123730200D01*
X74662195Y-123682581D01*
X74566957Y-123634962D01*
X74519338Y-123587343D01*
X74471719Y-123492105D01*
X74471719Y-123396866D01*
X74519338Y-123301628D01*
X74566957Y-123254009D01*
X74662195Y-123206390D01*
X74852671Y-123158771D01*
X75090767Y-123158771D01*
X75281243Y-123206390D01*
X75376481Y-123254009D01*
X75424100Y-123301628D01*
X75471719Y-123396866D01*
X75471719Y-117729724D02*
X75471719Y-118348772D01*
X75090767Y-118015438D01*
X75090767Y-118158296D01*
X75043148Y-118253534D01*
X74995529Y-118301153D01*
X74900290Y-118348772D01*
X74662195Y-118348772D01*
X74566957Y-118301153D01*
X74519338Y-118253534D01*
X74471719Y-118158296D01*
X74471719Y-117872581D01*
X74519338Y-117777343D01*
X74566957Y-117729724D01*
X75138386Y-118682105D02*
X74471719Y-118920200D01*
X75138386Y-119158296D01*
X75471719Y-119444010D02*
X75471719Y-120063058D01*
X75090767Y-119729724D01*
X75090767Y-119872582D01*
X75043148Y-119967820D01*
X74995529Y-120015439D01*
X74900290Y-120063058D01*
X74662195Y-120063058D01*
X74566957Y-120015439D01*
X74519338Y-119967820D01*
X74471719Y-119872582D01*
X74471719Y-119586867D01*
X74519338Y-119491629D01*
X74566957Y-119444010D01*
X75424100Y-114975343D02*
X75471719Y-114880105D01*
X75471719Y-114737248D01*
X75424100Y-114594390D01*
X75328862Y-114499152D01*
X75233624Y-114451533D01*
X75043148Y-114403914D01*
X74900290Y-114403914D01*
X74709814Y-114451533D01*
X74614576Y-114499152D01*
X74519338Y-114594390D01*
X74471719Y-114737248D01*
X74471719Y-114832486D01*
X74519338Y-114975343D01*
X74566957Y-115022962D01*
X74900290Y-115022962D01*
X74900290Y-114832486D01*
X75138386Y-115451533D02*
X74471719Y-115451533D01*
X75043148Y-115451533D02*
X75090767Y-115499152D01*
X75138386Y-115594390D01*
X75138386Y-115737248D01*
X75090767Y-115832486D01*
X74995529Y-115880105D01*
X74471719Y-115880105D01*
X74471719Y-116784867D02*
X75471719Y-116784867D01*
X74519338Y-116784867D02*
X74471719Y-116689629D01*
X74471719Y-116499152D01*
X74519338Y-116403914D01*
X74566957Y-116356295D01*
X74662195Y-116308676D01*
X74947910Y-116308676D01*
X75043148Y-116356295D01*
X75090767Y-116403914D01*
X75138386Y-116499152D01*
X75138386Y-116689629D01*
X75090767Y-116784867D01*
X75471719Y-111800391D02*
X74471719Y-112133724D01*
X75471719Y-112467058D01*
X74471719Y-112800391D02*
X75138386Y-112800391D01*
X75471719Y-112800391D02*
X75424100Y-112752772D01*
X75376481Y-112800391D01*
X75424100Y-112848010D01*
X75471719Y-112800391D01*
X75376481Y-112800391D01*
X75138386Y-113276581D02*
X74471719Y-113276581D01*
X75043148Y-113276581D02*
X75090767Y-113324200D01*
X75138386Y-113419438D01*
X75138386Y-113562296D01*
X75090767Y-113657534D01*
X74995529Y-113705153D01*
X74471719Y-113705153D01*
X84990000Y-101950000D02*
X84990000Y-115920000D01*
X84990000Y-101950000D02*
X84990000Y-115950000D01*
X84990000Y-115950000D02*
X96990000Y-115950000D01*
X96990000Y-115950000D02*
X96990000Y-101950000D01*
X96990000Y-101950000D02*
X84990000Y-101950000D01*
X50540100Y-114094200D02*
X50540100Y-144574200D01*
X50540100Y-144574200D02*
X53080100Y-144574200D01*
X53080100Y-144574200D02*
X53080100Y-114094200D01*
X53360100Y-111274200D02*
X53360100Y-112824200D01*
X53080100Y-114094200D02*
X50540100Y-114094200D01*
X50260100Y-112824200D02*
X50260100Y-111274200D01*
X50260100Y-111274200D02*
X53360100Y-111274200D01*
X69236100Y-114135200D02*
X56536100Y-114135200D01*
X56536100Y-114135200D02*
X56536100Y-111595200D01*
X56536100Y-111595200D02*
X69236100Y-111595200D01*
X72056100Y-114415200D02*
X70506100Y-114415200D01*
X69236100Y-114135200D02*
X69236100Y-111595200D01*
X70506100Y-111315200D02*
X72056100Y-111315200D01*
X72056100Y-111315200D02*
X72056100Y-114415200D01*
X70936100Y-118535200D02*
X70936100Y-123615200D01*
X70936100Y-123615200D02*
X73476100Y-123615200D01*
X73476100Y-123615200D02*
X73476100Y-118535200D01*
X73756100Y-115715200D02*
X73756100Y-117265200D01*
X73476100Y-118535200D02*
X70936100Y-118535200D01*
X70656100Y-117265200D02*
X70656100Y-115715200D01*
X70656100Y-115715200D02*
X73756100Y-115715200D01*
X66923100Y-118539200D02*
X66923100Y-115999200D01*
X66643100Y-121359200D02*
X66643100Y-119809200D01*
X66923100Y-118539200D02*
X69463100Y-118539200D01*
X69743100Y-119809200D02*
X69743100Y-121359200D01*
X69743100Y-121359200D02*
X66643100Y-121359200D01*
X69463100Y-118539200D02*
X69463100Y-115999200D01*
X69463100Y-115999200D02*
X66923100Y-115999200D01*
X78480100Y-142034200D02*
X78480100Y-111554200D01*
X78480100Y-111554200D02*
X75940100Y-111554200D01*
X75940100Y-111554200D02*
X75940100Y-142034200D01*
X75660100Y-144854200D02*
X75660100Y-143304200D01*
X75940100Y-142034200D02*
X78480100Y-142034200D01*
X78760100Y-143304200D02*
X78760100Y-144854200D01*
X78760100Y-144854200D02*
X75660100Y-144854200D01*
X64444600Y-115799800D02*
X64444600Y-115999800D01*
X64444600Y-121799800D02*
X64444600Y-121599800D01*
X58444600Y-121799800D02*
X58444600Y-121599800D01*
X58444600Y-115799800D02*
X58444600Y-115999800D01*
X58444600Y-117599800D02*
X58444600Y-119999800D01*
X64444600Y-117599800D02*
X64444600Y-119999800D01*
X64444600Y-115799800D02*
X58444600Y-115799800D01*
X58444600Y-121799800D02*
X64444600Y-121799800D01*
X63144600Y-118799800D02*
G75*
G03X63144600Y-118799800I-1700000J0D01*
G01*
X57886000Y-55656000D02*
X59436000Y-55656000D01*
X57886000Y-54356000D02*
X57886000Y-55656000D01*
X59309000Y-50165000D02*
X59309000Y-44323000D01*
X59309000Y-44323000D02*
X59563000Y-44323000D01*
X59563000Y-44323000D02*
X59563000Y-50165000D01*
X59563000Y-50165000D02*
X59436000Y-50165000D01*
X59436000Y-50165000D02*
X59436000Y-44323000D01*
X59182000Y-52832000D02*
X59182000Y-53213000D01*
X59690000Y-52832000D02*
X59690000Y-53213000D01*
X61722000Y-52832000D02*
X61722000Y-53213000D01*
X62230000Y-52832000D02*
X62230000Y-53213000D01*
X64262000Y-52832000D02*
X64262000Y-53213000D01*
X64770000Y-52832000D02*
X64770000Y-53213000D01*
X66802000Y-52832000D02*
X66802000Y-53213000D01*
X67310000Y-52832000D02*
X67310000Y-53213000D01*
X69850000Y-52832000D02*
X69850000Y-53213000D01*
X69342000Y-52832000D02*
X69342000Y-53213000D01*
X60706000Y-50292000D02*
X58166000Y-50292000D01*
X59690000Y-44196000D02*
X59690000Y-50292000D01*
X59182000Y-44196000D02*
X59690000Y-44196000D01*
X59182000Y-50292000D02*
X59182000Y-44196000D01*
X60706000Y-52832000D02*
X60706000Y-50292000D01*
X58166000Y-52832000D02*
X60706000Y-52832000D01*
X58166000Y-52832000D02*
X58166000Y-50292000D01*
X63246000Y-52832000D02*
X63246000Y-50292000D01*
X63246000Y-52832000D02*
X65786000Y-52832000D01*
X65786000Y-52832000D02*
X65786000Y-50292000D01*
X64262000Y-50292000D02*
X64262000Y-44196000D01*
X64262000Y-44196000D02*
X64770000Y-44196000D01*
X64770000Y-44196000D02*
X64770000Y-50292000D01*
X65786000Y-50292000D02*
X63246000Y-50292000D01*
X63246000Y-50292000D02*
X60706000Y-50292000D01*
X62230000Y-44196000D02*
X62230000Y-50292000D01*
X61722000Y-44196000D02*
X62230000Y-44196000D01*
X61722000Y-50292000D02*
X61722000Y-44196000D01*
X63246000Y-52832000D02*
X63246000Y-50292000D01*
X60706000Y-52832000D02*
X63246000Y-52832000D01*
X60706000Y-52832000D02*
X60706000Y-50292000D01*
X68326000Y-52832000D02*
X68326000Y-50292000D01*
X68326000Y-52832000D02*
X70866000Y-52832000D01*
X70866000Y-52832000D02*
X70866000Y-50292000D01*
X69342000Y-50292000D02*
X69342000Y-44196000D01*
X69342000Y-44196000D02*
X69850000Y-44196000D01*
X69850000Y-44196000D02*
X69850000Y-50292000D01*
X70866000Y-50292000D02*
X68326000Y-50292000D01*
X68326000Y-50292000D02*
X65786000Y-50292000D01*
X67310000Y-44196000D02*
X67310000Y-50292000D01*
X66802000Y-44196000D02*
X67310000Y-44196000D01*
X66802000Y-50292000D02*
X66802000Y-44196000D01*
X68326000Y-52832000D02*
X68326000Y-50292000D01*
X65786000Y-52832000D02*
X68326000Y-52832000D01*
X65786000Y-52832000D02*
X65786000Y-50292000D01*
X50546000Y-85344000D02*
X50546000Y-65024000D01*
X50546000Y-65024000D02*
X53086000Y-65024000D01*
X53086000Y-65024000D02*
X53086000Y-85344000D01*
X50266000Y-88164000D02*
X50266000Y-86614000D01*
X50546000Y-85344000D02*
X53086000Y-85344000D01*
X53366000Y-86614000D02*
X53366000Y-88164000D01*
X53366000Y-88164000D02*
X50266000Y-88164000D01*
X78232000Y-67564000D02*
X78232000Y-87884000D01*
X78232000Y-87884000D02*
X75692000Y-87884000D01*
X75692000Y-87884000D02*
X75692000Y-67564000D01*
X78512000Y-64744000D02*
X78512000Y-66294000D01*
X78232000Y-67564000D02*
X75692000Y-67564000D01*
X75412000Y-66294000D02*
X75412000Y-64744000D01*
X75412000Y-64744000D02*
X78512000Y-64744000D01*
X59436000Y-78359000D02*
X63246000Y-78359000D01*
X63246000Y-78359000D02*
X63246000Y-76581000D01*
X63246000Y-76581000D02*
X59436000Y-76581000D01*
X59436000Y-78359000D02*
X59436000Y-76581000D01*
X59436000Y-75819000D02*
X63246000Y-75819000D01*
X63246000Y-75819000D02*
X63246000Y-74041000D01*
X63246000Y-74041000D02*
X59436000Y-74041000D01*
X59436000Y-75819000D02*
X59436000Y-74041000D01*
X92839051Y-71270000D02*
G75*
G03X92839051Y-71270000I-1796051J0D01*
G01*
X92839051Y-91590000D02*
G75*
G03X92839051Y-91590000I-1796051J0D01*
G01*
X124589051Y-91590000D02*
G75*
G03X124589051Y-91590000I-1796051J0D01*
G01*
X124589051Y-71270000D02*
G75*
G03X124589051Y-71270000I-1796051J0D01*
G01*
X101600000Y-50950000D02*
X101600000Y-64920000D01*
X101600000Y-50950000D02*
X101600000Y-64950000D01*
X101600000Y-64950000D02*
X113600000Y-64950000D01*
X113600000Y-64950000D02*
X113600000Y-50950000D01*
X113600000Y-50950000D02*
X101600000Y-50950000D01*
X139303000Y-67655000D02*
X141303000Y-67655000D01*
X141303000Y-69805000D02*
X139303000Y-69805000D01*
X129778000Y-84469000D02*
X127778000Y-84469000D01*
X127778000Y-86519000D02*
X129778000Y-86519000D01*
X82795000Y-58300000D02*
X82795000Y-60300000D01*
X84845000Y-60300000D02*
X84845000Y-58300000D01*
X98708000Y-58020000D02*
X98708000Y-60020000D01*
X100758000Y-60020000D02*
X100758000Y-58020000D01*
X117360454Y-81524756D02*
X117360454Y-79524756D01*
X115310454Y-79524756D02*
X115310454Y-81524756D01*
X116258000Y-60020000D02*
X116258000Y-58020000D01*
X114208000Y-58020000D02*
X114208000Y-60020000D01*
X135303000Y-73565000D02*
X137303000Y-73565000D01*
X137303000Y-71515000D02*
X135303000Y-71515000D01*
X137322560Y-77620000D02*
X136474200Y-78620760D01*
X136474200Y-78620760D02*
X136474200Y-76619240D01*
X136474200Y-76619240D02*
X137322560Y-77620000D01*
X137322560Y-77620000D02*
X137322560Y-76619240D01*
X137322560Y-77620000D02*
X137322560Y-78620760D01*
X139179300Y-75820000D02*
X139179300Y-76019800D01*
X138722260Y-75820000D02*
X138722260Y-76019000D01*
X134571740Y-75820000D02*
X134571740Y-75969000D01*
X139174220Y-79420000D02*
X139174220Y-79271000D01*
X138722260Y-79420000D02*
X138722260Y-79271000D01*
X134571740Y-79420000D02*
X134571740Y-79271000D01*
X138722260Y-75671020D02*
X138722260Y-75869140D01*
X138722260Y-79618980D02*
X138722260Y-79420860D01*
X134576820Y-75623560D02*
X134576820Y-75821680D01*
X139179300Y-75623560D02*
X134576820Y-75623560D01*
X139179300Y-75623560D02*
X139179300Y-75821680D01*
X139174220Y-79618980D02*
X139174220Y-79420860D01*
X139174220Y-79618980D02*
X134571740Y-79618980D01*
X134571740Y-79618980D02*
X134571740Y-79420860D01*
X143463000Y-81430000D02*
X143463000Y-86510000D01*
X147908000Y-81430000D02*
X147908000Y-86510000D01*
X141558000Y-86510000D02*
X141558000Y-81430000D01*
X141558000Y-86510000D02*
X147908000Y-86510000D01*
X141558000Y-81430000D02*
X147908000Y-81430000D01*
X139195295Y-82973010D02*
G75*
G03X138707600Y-82270000I-2187695J-996990D01*
G01*
X134819905Y-82973010D02*
G75*
G02X135307600Y-82270000I2187695J-996990D01*
G01*
X138707600Y-82270000D02*
X135307600Y-82270000D01*
X139192479Y-84963127D02*
G75*
G02X137007600Y-86370000I-2184879J993127D01*
G01*
X134822721Y-84963127D02*
G75*
G03X137007600Y-86370000I2184879J993127D01*
G01*
X129746000Y-83013000D02*
X127746000Y-83013000D01*
X127746000Y-80863000D02*
X129746000Y-80863000D01*
X141303000Y-67265000D02*
X139303000Y-67265000D01*
X139303000Y-65115000D02*
X141303000Y-65115000D01*
X107960454Y-81999756D02*
X108105454Y-81999756D01*
X107960454Y-77849756D02*
X108105454Y-77849756D01*
X113110454Y-77849756D02*
X112965454Y-77849756D01*
X113110454Y-81999756D02*
X112965454Y-81999756D01*
X107960454Y-81999756D02*
X107960454Y-77849756D01*
X113110454Y-81999756D02*
X113110454Y-77849756D01*
X108105454Y-81999756D02*
X108105454Y-83399756D01*
X85090000Y-50950000D02*
X85090000Y-64920000D01*
X85090000Y-50950000D02*
X85090000Y-64950000D01*
X85090000Y-64950000D02*
X97090000Y-64950000D01*
X97090000Y-64950000D02*
X97090000Y-50950000D01*
X97090000Y-50950000D02*
X85090000Y-50950000D01*
X141558000Y-78890000D02*
X147908000Y-78890000D01*
X141558000Y-71270000D02*
X147908000Y-71270000D01*
X143463000Y-71270000D02*
X143463000Y-78890000D01*
X141558000Y-78890000D02*
X141558000Y-71270000D01*
X147908000Y-71270000D02*
X147908000Y-78890000D01*
X125603000Y-63650000D02*
X117983000Y-63650000D01*
X125603000Y-66190000D02*
X117983000Y-66190000D01*
X128423000Y-66470000D02*
X126873000Y-66470000D01*
X117983000Y-63650000D02*
X117983000Y-66190000D01*
X125603000Y-66190000D02*
X125603000Y-63650000D01*
X126873000Y-63370000D02*
X128423000Y-63370000D01*
X128423000Y-63370000D02*
X128423000Y-66470000D01*
X134223760Y-65849640D02*
X134223760Y-64848880D01*
X134724140Y-65349260D02*
X133723380Y-65349260D01*
X136372600Y-63650000D02*
G75*
G03X136372600Y-63650000I-3149600J0D01*
G01*
X125823400Y-92164800D02*
X125823400Y-90164800D01*
X127973400Y-90164800D02*
X127973400Y-92164800D01*
X146685000Y-67841000D02*
X144145000Y-67841000D01*
X144145000Y-69619000D02*
X146685000Y-69619000D01*
X144145000Y-69619000D02*
X144145000Y-67841000D01*
X146685000Y-67841000D02*
X146685000Y-69619000D01*
X138433000Y-50670000D02*
X138433000Y-52220000D01*
X139733000Y-50670000D02*
X138433000Y-50670000D01*
X143924000Y-52093000D02*
X149766000Y-52093000D01*
X149766000Y-52093000D02*
X149766000Y-52347000D01*
X149766000Y-52347000D02*
X143924000Y-52347000D01*
X143924000Y-52347000D02*
X143924000Y-52220000D01*
X143924000Y-52220000D02*
X149766000Y-52220000D01*
X141257000Y-51966000D02*
X140876000Y-51966000D01*
X141257000Y-52474000D02*
X140876000Y-52474000D01*
X141257000Y-54506000D02*
X140876000Y-54506000D01*
X141257000Y-55014000D02*
X140876000Y-55014000D01*
X141257000Y-57046000D02*
X140876000Y-57046000D01*
X141257000Y-57554000D02*
X140876000Y-57554000D01*
X141257000Y-59586000D02*
X140876000Y-59586000D01*
X141257000Y-60094000D02*
X140876000Y-60094000D01*
X141257000Y-62634000D02*
X140876000Y-62634000D01*
X141257000Y-62126000D02*
X140876000Y-62126000D01*
X143797000Y-53490000D02*
X143797000Y-50950000D01*
X149893000Y-52474000D02*
X143797000Y-52474000D01*
X149893000Y-51966000D02*
X149893000Y-52474000D01*
X143797000Y-51966000D02*
X149893000Y-51966000D01*
X141257000Y-53490000D02*
X143797000Y-53490000D01*
X141257000Y-50950000D02*
X141257000Y-53490000D01*
X141257000Y-50950000D02*
X143797000Y-50950000D01*
X141257000Y-56030000D02*
X143797000Y-56030000D01*
X141257000Y-56030000D02*
X141257000Y-58570000D01*
X141257000Y-58570000D02*
X143797000Y-58570000D01*
X143797000Y-57046000D02*
X149893000Y-57046000D01*
X149893000Y-57046000D02*
X149893000Y-57554000D01*
X149893000Y-57554000D02*
X143797000Y-57554000D01*
X143797000Y-58570000D02*
X143797000Y-56030000D01*
X143797000Y-56030000D02*
X143797000Y-53490000D01*
X149893000Y-55014000D02*
X143797000Y-55014000D01*
X149893000Y-54506000D02*
X149893000Y-55014000D01*
X143797000Y-54506000D02*
X149893000Y-54506000D01*
X141257000Y-56030000D02*
X143797000Y-56030000D01*
X141257000Y-53490000D02*
X141257000Y-56030000D01*
X141257000Y-53490000D02*
X143797000Y-53490000D01*
X141257000Y-61110000D02*
X143797000Y-61110000D01*
X141257000Y-61110000D02*
X141257000Y-63650000D01*
X141257000Y-63650000D02*
X143797000Y-63650000D01*
X143797000Y-62126000D02*
X149893000Y-62126000D01*
X149893000Y-62126000D02*
X149893000Y-62634000D01*
X149893000Y-62634000D02*
X143797000Y-62634000D01*
X143797000Y-63650000D02*
X143797000Y-61110000D01*
X143797000Y-61110000D02*
X143797000Y-58570000D01*
X149893000Y-60094000D02*
X143797000Y-60094000D01*
X149893000Y-59586000D02*
X149893000Y-60094000D01*
X143797000Y-59586000D02*
X149893000Y-59586000D01*
X141257000Y-61110000D02*
X143797000Y-61110000D01*
X141257000Y-58570000D02*
X141257000Y-61110000D01*
X141257000Y-58570000D02*
X143797000Y-58570000D01*
X135509000Y-57935000D02*
X131699000Y-57935000D01*
X131699000Y-57935000D02*
X131699000Y-59713000D01*
X131699000Y-59713000D02*
X135509000Y-59713000D01*
X135509000Y-57935000D02*
X135509000Y-59713000D01*
X100830454Y-78213756D02*
X104640454Y-78213756D01*
X104640454Y-78213756D02*
X104640454Y-76435756D01*
X104640454Y-76435756D02*
X100830454Y-76435756D01*
X100830454Y-78213756D02*
X100830454Y-76435756D01*
X100711000Y-81557000D02*
X104521000Y-81557000D01*
X104521000Y-81557000D02*
X104521000Y-79779000D01*
X104521000Y-79779000D02*
X100711000Y-79779000D01*
X100711000Y-81557000D02*
X100711000Y-79779000D01*
X100711000Y-85113000D02*
X104521000Y-85113000D01*
X104521000Y-85113000D02*
X104521000Y-83335000D01*
X104521000Y-83335000D02*
X100711000Y-83335000D01*
X100711000Y-85113000D02*
X100711000Y-83335000D01*
X144145000Y-67079000D02*
X146685000Y-67079000D01*
X146685000Y-65301000D02*
X144145000Y-65301000D01*
X146685000Y-65301000D02*
X146685000Y-67079000D01*
X144145000Y-67079000D02*
X144145000Y-65301000D01*
X137233000Y-59635000D02*
X117233000Y-59635000D01*
X117233000Y-59635000D02*
X117294000Y-51253000D01*
X117233000Y-51253000D02*
X137233000Y-51253000D01*
X137233000Y-51253000D02*
X137233000Y-59635000D01*
D13*
G36*
X89575190Y-75471189D02*
X90081854Y-75576045D01*
X90581640Y-75752582D01*
X91127186Y-76011715D01*
X91130662Y-76013519D01*
X91929115Y-76521712D01*
X92621557Y-77156662D01*
X93196054Y-77904336D01*
X93640673Y-78750697D01*
X93788240Y-79139366D01*
X93900823Y-79495210D01*
X93973301Y-79802860D01*
X94014439Y-80121887D01*
X94033004Y-80511864D01*
X94037113Y-80830666D01*
X94032157Y-81326403D01*
X94006188Y-81711668D01*
X93952311Y-82044734D01*
X93863631Y-82383873D01*
X93846758Y-82439333D01*
X93503230Y-83313206D01*
X93036366Y-84086381D01*
X92443918Y-84774585D01*
X91699878Y-85403219D01*
X90875251Y-85883304D01*
X89974925Y-86212468D01*
X89150920Y-86372176D01*
X88841082Y-86429701D01*
X88652416Y-86507470D01*
X88612694Y-86552414D01*
X88489953Y-86640083D01*
X88216061Y-86672535D01*
X88192512Y-86672666D01*
X87949763Y-86658843D01*
X87817997Y-86599036D01*
X87739877Y-86465735D01*
X87735029Y-86453186D01*
X87703367Y-86206655D01*
X88041120Y-86206655D01*
X88067687Y-86334956D01*
X88173018Y-86415431D01*
X88203666Y-86418666D01*
X88326766Y-86350661D01*
X88360243Y-86294378D01*
X88351813Y-86152632D01*
X88229628Y-86091623D01*
X88116372Y-86111625D01*
X88041120Y-86206655D01*
X87703367Y-86206655D01*
X87697479Y-86160815D01*
X87806079Y-85926068D01*
X88039296Y-85782967D01*
X88175056Y-85757868D01*
X88418072Y-85767359D01*
X88572139Y-85864126D01*
X88612620Y-85915829D01*
X88691240Y-86011604D01*
X88785513Y-86056937D01*
X88941242Y-86057458D01*
X89204234Y-86018799D01*
X89306654Y-86001142D01*
X90230787Y-85760429D01*
X91072460Y-85381619D01*
X91819982Y-84877414D01*
X92461660Y-84260513D01*
X92985803Y-83543616D01*
X93380719Y-82739424D01*
X93634715Y-81860635D01*
X93722659Y-81204411D01*
X93704530Y-80328002D01*
X93530311Y-79476187D01*
X93213117Y-78667056D01*
X92766068Y-77918698D01*
X92202280Y-77249201D01*
X91534872Y-76676655D01*
X90776959Y-76219149D01*
X89941661Y-75894772D01*
X89854666Y-75870431D01*
X89125124Y-75742909D01*
X88335329Y-75724815D01*
X87552626Y-75814254D01*
X87011694Y-75950460D01*
X86159667Y-76310500D01*
X85399391Y-76800257D01*
X84743010Y-77403484D01*
X84202670Y-78103937D01*
X83790513Y-78885372D01*
X83518686Y-79731542D01*
X83399332Y-80626203D01*
X83395008Y-80788333D01*
X83424339Y-81511587D01*
X83538801Y-82150658D01*
X83752996Y-82775313D01*
X83862192Y-83020464D01*
X84225649Y-83647852D01*
X84655434Y-84120324D01*
X85154508Y-84439993D01*
X85725829Y-84608972D01*
X86129333Y-84639012D01*
X86650904Y-84580183D01*
X87181353Y-84399447D01*
X87729108Y-84090428D01*
X88302592Y-83646749D01*
X88910234Y-83062034D01*
X89560458Y-82329908D01*
X90139297Y-81604713D01*
X90516858Y-81032610D01*
X90744863Y-80500950D01*
X90767001Y-80365000D01*
X91124666Y-80365000D01*
X91167626Y-80470373D01*
X91215683Y-80475772D01*
X91303157Y-80388363D01*
X91306700Y-80365000D01*
X91240785Y-80265725D01*
X91215683Y-80254227D01*
X91138480Y-80295098D01*
X91124666Y-80365000D01*
X90767001Y-80365000D01*
X90823570Y-80017630D01*
X90753235Y-79590543D01*
X90534113Y-79227583D01*
X90166463Y-78936646D01*
X90050619Y-78875726D01*
X89523465Y-78704132D01*
X88990404Y-78685310D01*
X88485988Y-78818646D01*
X88313223Y-78906604D01*
X88030876Y-79083811D01*
X87884209Y-79215834D01*
X87855547Y-79329298D01*
X87927219Y-79450831D01*
X87941372Y-79466835D01*
X88067320Y-79669157D01*
X88059066Y-79808085D01*
X87947903Y-79856084D01*
X87765121Y-79785619D01*
X87667619Y-79707719D01*
X87231374Y-79343313D01*
X86842558Y-79101031D01*
X86513801Y-78985873D01*
X86257732Y-79002843D01*
X86127252Y-79097507D01*
X86072782Y-79281941D01*
X86148950Y-79502415D01*
X86336930Y-79715385D01*
X86421084Y-79777116D01*
X86567805Y-79915440D01*
X86565896Y-80021595D01*
X86417594Y-80068309D01*
X86397175Y-80068666D01*
X86219417Y-80115481D01*
X86063207Y-80200676D01*
X85935567Y-80351311D01*
X85956451Y-80501780D01*
X86105593Y-80638378D01*
X86362727Y-80747401D01*
X86707585Y-80815143D01*
X86994842Y-80830666D01*
X87244822Y-80839809D01*
X87363201Y-80876684D01*
X87387166Y-80955463D01*
X87383650Y-80978833D01*
X87282588Y-81104838D01*
X87132064Y-81152958D01*
X86977174Y-81202413D01*
X86879125Y-81326886D01*
X86826614Y-81555725D01*
X86808337Y-81918280D01*
X86807822Y-81994833D01*
X86815286Y-82256581D01*
X86849600Y-82390137D01*
X86926000Y-82436244D01*
X86974048Y-82439333D01*
X87137141Y-82505475D01*
X87284418Y-82657561D01*
X87375402Y-82916746D01*
X87330511Y-83153440D01*
X87182868Y-83334538D01*
X86965598Y-83426941D01*
X86711827Y-83397546D01*
X86601276Y-83340231D01*
X86501418Y-83268762D01*
X86440285Y-83188823D01*
X86411639Y-83063676D01*
X86410335Y-82950947D01*
X86721282Y-82950947D01*
X86780208Y-83061986D01*
X86902790Y-83096285D01*
X87002505Y-83012956D01*
X87018333Y-82941437D01*
X86947954Y-82826905D01*
X86870166Y-82794118D01*
X86751311Y-82830450D01*
X86721282Y-82950947D01*
X86410335Y-82950947D01*
X86409242Y-82856585D01*
X86426853Y-82530810D01*
X86437135Y-82373694D01*
X86461781Y-81994208D01*
X86482791Y-81659244D01*
X86497108Y-81418066D01*
X86500920Y-81345523D01*
X86474238Y-81195516D01*
X86347121Y-81104693D01*
X86214000Y-81063143D01*
X85881696Y-80932137D01*
X85692034Y-80737576D01*
X85622743Y-80454352D01*
X85621333Y-80394928D01*
X85659480Y-80123391D01*
X85783149Y-79969049D01*
X85784349Y-79968296D01*
X85890170Y-79880508D01*
X85890845Y-79772030D01*
X85826682Y-79633116D01*
X85717431Y-79314873D01*
X85758902Y-79047507D01*
X85913818Y-78837151D01*
X86188928Y-78663430D01*
X86425191Y-78629333D01*
X86669782Y-78665679D01*
X86956393Y-78757592D01*
X87222300Y-78879388D01*
X87404781Y-79005381D01*
X87435812Y-79043194D01*
X87519009Y-79038232D01*
X87674352Y-78936384D01*
X87759057Y-78862583D01*
X88079122Y-78612945D01*
X88425188Y-78460386D01*
X88847920Y-78387779D01*
X89200323Y-78375333D01*
X89820188Y-78436518D01*
X90329901Y-78618217D01*
X90723481Y-78917641D01*
X90914227Y-79174123D01*
X91038115Y-79408556D01*
X91113787Y-79596145D01*
X91124752Y-79652771D01*
X91193398Y-79756567D01*
X91370502Y-79899446D01*
X91545054Y-80008346D01*
X91782822Y-80149785D01*
X91954735Y-80266707D01*
X92010670Y-80317819D01*
X91965367Y-80392200D01*
X91804144Y-80521896D01*
X91559766Y-80681191D01*
X91510308Y-80710536D01*
X91051716Y-81032547D01*
X90733501Y-81385719D01*
X90712606Y-81417064D01*
X90272421Y-82035889D01*
X89762761Y-82656059D01*
X89211561Y-83249888D01*
X88646755Y-83789690D01*
X88096278Y-84247777D01*
X87588064Y-84596465D01*
X87399333Y-84700903D01*
X87154640Y-84815168D01*
X86934646Y-84885425D01*
X86683967Y-84921917D01*
X86347218Y-84934884D01*
X86129333Y-84935746D01*
X85727439Y-84929272D01*
X85441054Y-84904777D01*
X85216551Y-84852421D01*
X85000304Y-84762365D01*
X84896294Y-84709490D01*
X84367559Y-84337432D01*
X83913666Y-83819078D01*
X83540121Y-83162617D01*
X83252427Y-82376239D01*
X83201581Y-82188103D01*
X83114258Y-81666177D01*
X83082458Y-81050361D01*
X83103357Y-80398984D01*
X83174132Y-79770374D01*
X83291957Y-79222859D01*
X83354383Y-79032215D01*
X83775977Y-78135858D01*
X84327492Y-77345867D01*
X85001228Y-76669939D01*
X85789490Y-76115774D01*
X86684579Y-75691069D01*
X86701548Y-75684686D01*
X86998373Y-75585390D01*
X87295165Y-75517046D01*
X87640970Y-75472074D01*
X88084836Y-75442890D01*
X88330666Y-75432852D01*
X89009007Y-75427097D01*
X89575190Y-75471189D01*
X89575190Y-75471189D01*
G37*
X89575190Y-75471189D02*
X90081854Y-75576045D01*
X90581640Y-75752582D01*
X91127186Y-76011715D01*
X91130662Y-76013519D01*
X91929115Y-76521712D01*
X92621557Y-77156662D01*
X93196054Y-77904336D01*
X93640673Y-78750697D01*
X93788240Y-79139366D01*
X93900823Y-79495210D01*
X93973301Y-79802860D01*
X94014439Y-80121887D01*
X94033004Y-80511864D01*
X94037113Y-80830666D01*
X94032157Y-81326403D01*
X94006188Y-81711668D01*
X93952311Y-82044734D01*
X93863631Y-82383873D01*
X93846758Y-82439333D01*
X93503230Y-83313206D01*
X93036366Y-84086381D01*
X92443918Y-84774585D01*
X91699878Y-85403219D01*
X90875251Y-85883304D01*
X89974925Y-86212468D01*
X89150920Y-86372176D01*
X88841082Y-86429701D01*
X88652416Y-86507470D01*
X88612694Y-86552414D01*
X88489953Y-86640083D01*
X88216061Y-86672535D01*
X88192512Y-86672666D01*
X87949763Y-86658843D01*
X87817997Y-86599036D01*
X87739877Y-86465735D01*
X87735029Y-86453186D01*
X87703367Y-86206655D01*
X88041120Y-86206655D01*
X88067687Y-86334956D01*
X88173018Y-86415431D01*
X88203666Y-86418666D01*
X88326766Y-86350661D01*
X88360243Y-86294378D01*
X88351813Y-86152632D01*
X88229628Y-86091623D01*
X88116372Y-86111625D01*
X88041120Y-86206655D01*
X87703367Y-86206655D01*
X87697479Y-86160815D01*
X87806079Y-85926068D01*
X88039296Y-85782967D01*
X88175056Y-85757868D01*
X88418072Y-85767359D01*
X88572139Y-85864126D01*
X88612620Y-85915829D01*
X88691240Y-86011604D01*
X88785513Y-86056937D01*
X88941242Y-86057458D01*
X89204234Y-86018799D01*
X89306654Y-86001142D01*
X90230787Y-85760429D01*
X91072460Y-85381619D01*
X91819982Y-84877414D01*
X92461660Y-84260513D01*
X92985803Y-83543616D01*
X93380719Y-82739424D01*
X93634715Y-81860635D01*
X93722659Y-81204411D01*
X93704530Y-80328002D01*
X93530311Y-79476187D01*
X93213117Y-78667056D01*
X92766068Y-77918698D01*
X92202280Y-77249201D01*
X91534872Y-76676655D01*
X90776959Y-76219149D01*
X89941661Y-75894772D01*
X89854666Y-75870431D01*
X89125124Y-75742909D01*
X88335329Y-75724815D01*
X87552626Y-75814254D01*
X87011694Y-75950460D01*
X86159667Y-76310500D01*
X85399391Y-76800257D01*
X84743010Y-77403484D01*
X84202670Y-78103937D01*
X83790513Y-78885372D01*
X83518686Y-79731542D01*
X83399332Y-80626203D01*
X83395008Y-80788333D01*
X83424339Y-81511587D01*
X83538801Y-82150658D01*
X83752996Y-82775313D01*
X83862192Y-83020464D01*
X84225649Y-83647852D01*
X84655434Y-84120324D01*
X85154508Y-84439993D01*
X85725829Y-84608972D01*
X86129333Y-84639012D01*
X86650904Y-84580183D01*
X87181353Y-84399447D01*
X87729108Y-84090428D01*
X88302592Y-83646749D01*
X88910234Y-83062034D01*
X89560458Y-82329908D01*
X90139297Y-81604713D01*
X90516858Y-81032610D01*
X90744863Y-80500950D01*
X90767001Y-80365000D01*
X91124666Y-80365000D01*
X91167626Y-80470373D01*
X91215683Y-80475772D01*
X91303157Y-80388363D01*
X91306700Y-80365000D01*
X91240785Y-80265725D01*
X91215683Y-80254227D01*
X91138480Y-80295098D01*
X91124666Y-80365000D01*
X90767001Y-80365000D01*
X90823570Y-80017630D01*
X90753235Y-79590543D01*
X90534113Y-79227583D01*
X90166463Y-78936646D01*
X90050619Y-78875726D01*
X89523465Y-78704132D01*
X88990404Y-78685310D01*
X88485988Y-78818646D01*
X88313223Y-78906604D01*
X88030876Y-79083811D01*
X87884209Y-79215834D01*
X87855547Y-79329298D01*
X87927219Y-79450831D01*
X87941372Y-79466835D01*
X88067320Y-79669157D01*
X88059066Y-79808085D01*
X87947903Y-79856084D01*
X87765121Y-79785619D01*
X87667619Y-79707719D01*
X87231374Y-79343313D01*
X86842558Y-79101031D01*
X86513801Y-78985873D01*
X86257732Y-79002843D01*
X86127252Y-79097507D01*
X86072782Y-79281941D01*
X86148950Y-79502415D01*
X86336930Y-79715385D01*
X86421084Y-79777116D01*
X86567805Y-79915440D01*
X86565896Y-80021595D01*
X86417594Y-80068309D01*
X86397175Y-80068666D01*
X86219417Y-80115481D01*
X86063207Y-80200676D01*
X85935567Y-80351311D01*
X85956451Y-80501780D01*
X86105593Y-80638378D01*
X86362727Y-80747401D01*
X86707585Y-80815143D01*
X86994842Y-80830666D01*
X87244822Y-80839809D01*
X87363201Y-80876684D01*
X87387166Y-80955463D01*
X87383650Y-80978833D01*
X87282588Y-81104838D01*
X87132064Y-81152958D01*
X86977174Y-81202413D01*
X86879125Y-81326886D01*
X86826614Y-81555725D01*
X86808337Y-81918280D01*
X86807822Y-81994833D01*
X86815286Y-82256581D01*
X86849600Y-82390137D01*
X86926000Y-82436244D01*
X86974048Y-82439333D01*
X87137141Y-82505475D01*
X87284418Y-82657561D01*
X87375402Y-82916746D01*
X87330511Y-83153440D01*
X87182868Y-83334538D01*
X86965598Y-83426941D01*
X86711827Y-83397546D01*
X86601276Y-83340231D01*
X86501418Y-83268762D01*
X86440285Y-83188823D01*
X86411639Y-83063676D01*
X86410335Y-82950947D01*
X86721282Y-82950947D01*
X86780208Y-83061986D01*
X86902790Y-83096285D01*
X87002505Y-83012956D01*
X87018333Y-82941437D01*
X86947954Y-82826905D01*
X86870166Y-82794118D01*
X86751311Y-82830450D01*
X86721282Y-82950947D01*
X86410335Y-82950947D01*
X86409242Y-82856585D01*
X86426853Y-82530810D01*
X86437135Y-82373694D01*
X86461781Y-81994208D01*
X86482791Y-81659244D01*
X86497108Y-81418066D01*
X86500920Y-81345523D01*
X86474238Y-81195516D01*
X86347121Y-81104693D01*
X86214000Y-81063143D01*
X85881696Y-80932137D01*
X85692034Y-80737576D01*
X85622743Y-80454352D01*
X85621333Y-80394928D01*
X85659480Y-80123391D01*
X85783149Y-79969049D01*
X85784349Y-79968296D01*
X85890170Y-79880508D01*
X85890845Y-79772030D01*
X85826682Y-79633116D01*
X85717431Y-79314873D01*
X85758902Y-79047507D01*
X85913818Y-78837151D01*
X86188928Y-78663430D01*
X86425191Y-78629333D01*
X86669782Y-78665679D01*
X86956393Y-78757592D01*
X87222300Y-78879388D01*
X87404781Y-79005381D01*
X87435812Y-79043194D01*
X87519009Y-79038232D01*
X87674352Y-78936384D01*
X87759057Y-78862583D01*
X88079122Y-78612945D01*
X88425188Y-78460386D01*
X88847920Y-78387779D01*
X89200323Y-78375333D01*
X89820188Y-78436518D01*
X90329901Y-78618217D01*
X90723481Y-78917641D01*
X90914227Y-79174123D01*
X91038115Y-79408556D01*
X91113787Y-79596145D01*
X91124752Y-79652771D01*
X91193398Y-79756567D01*
X91370502Y-79899446D01*
X91545054Y-80008346D01*
X91782822Y-80149785D01*
X91954735Y-80266707D01*
X92010670Y-80317819D01*
X91965367Y-80392200D01*
X91804144Y-80521896D01*
X91559766Y-80681191D01*
X91510308Y-80710536D01*
X91051716Y-81032547D01*
X90733501Y-81385719D01*
X90712606Y-81417064D01*
X90272421Y-82035889D01*
X89762761Y-82656059D01*
X89211561Y-83249888D01*
X88646755Y-83789690D01*
X88096278Y-84247777D01*
X87588064Y-84596465D01*
X87399333Y-84700903D01*
X87154640Y-84815168D01*
X86934646Y-84885425D01*
X86683967Y-84921917D01*
X86347218Y-84934884D01*
X86129333Y-84935746D01*
X85727439Y-84929272D01*
X85441054Y-84904777D01*
X85216551Y-84852421D01*
X85000304Y-84762365D01*
X84896294Y-84709490D01*
X84367559Y-84337432D01*
X83913666Y-83819078D01*
X83540121Y-83162617D01*
X83252427Y-82376239D01*
X83201581Y-82188103D01*
X83114258Y-81666177D01*
X83082458Y-81050361D01*
X83103357Y-80398984D01*
X83174132Y-79770374D01*
X83291957Y-79222859D01*
X83354383Y-79032215D01*
X83775977Y-78135858D01*
X84327492Y-77345867D01*
X85001228Y-76669939D01*
X85789490Y-76115774D01*
X86684579Y-75691069D01*
X86701548Y-75684686D01*
X86998373Y-75585390D01*
X87295165Y-75517046D01*
X87640970Y-75472074D01*
X88084836Y-75442890D01*
X88330666Y-75432852D01*
X89009007Y-75427097D01*
X89575190Y-75471189D01*
G36*
X89915189Y-79343261D02*
X90089827Y-79438467D01*
X90238248Y-79634042D01*
X90274941Y-79888542D01*
X90194561Y-80129151D01*
X90144952Y-80189619D01*
X89925989Y-80302813D01*
X89661871Y-80304877D01*
X89433115Y-80198173D01*
X89402122Y-80167833D01*
X89275518Y-79918966D01*
X89292859Y-79774528D01*
X89630509Y-79774528D01*
X89638440Y-79891956D01*
X89754625Y-79975872D01*
X89881800Y-79961821D01*
X89939333Y-79861996D01*
X89882922Y-79714697D01*
X89847289Y-79683107D01*
X89720489Y-79679285D01*
X89630509Y-79774528D01*
X89292859Y-79774528D01*
X89307120Y-79655755D01*
X89431333Y-79476000D01*
X89665245Y-79327128D01*
X89915189Y-79343261D01*
X89915189Y-79343261D01*
G37*
X89915189Y-79343261D02*
X90089827Y-79438467D01*
X90238248Y-79634042D01*
X90274941Y-79888542D01*
X90194561Y-80129151D01*
X90144952Y-80189619D01*
X89925989Y-80302813D01*
X89661871Y-80304877D01*
X89433115Y-80198173D01*
X89402122Y-80167833D01*
X89275518Y-79918966D01*
X89292859Y-79774528D01*
X89630509Y-79774528D01*
X89638440Y-79891956D01*
X89754625Y-79975872D01*
X89881800Y-79961821D01*
X89939333Y-79861996D01*
X89882922Y-79714697D01*
X89847289Y-79683107D01*
X89720489Y-79679285D01*
X89630509Y-79774528D01*
X89292859Y-79774528D01*
X89307120Y-79655755D01*
X89431333Y-79476000D01*
X89665245Y-79327128D01*
X89915189Y-79343261D01*
D14*
X144145000Y-92730000D02*
X144145000Y-97810000D01*
X148585000Y-92730000D02*
X148585000Y-97810000D01*
X142245000Y-97810000D02*
X142245000Y-92730000D01*
X142245000Y-97810000D02*
X148585000Y-97810000D01*
X142245000Y-92730000D02*
X148585000Y-92730000D01*
X135320000Y-96841000D02*
X135320000Y-94721000D01*
X132120000Y-96841000D02*
X135320000Y-96841000D01*
X135320000Y-94721000D02*
X132120000Y-94721000D01*
X135320000Y-94428000D02*
X135320000Y-92308000D01*
X132120000Y-94428000D02*
X135320000Y-94428000D01*
X135320000Y-92308000D02*
X132120000Y-92308000D01*
X102822500Y-91009000D02*
X100822500Y-91009000D01*
X100822500Y-88869000D02*
X102822500Y-88869000D01*
X102886000Y-88342000D02*
X100886000Y-88342000D01*
X100886000Y-86202000D02*
X102886000Y-86202000D01*
X140810000Y-87670000D02*
X130590000Y-87670000D01*
X130590000Y-87670000D02*
X130590000Y-90330000D01*
X130590000Y-90330000D02*
X140810000Y-90330000D01*
X140810000Y-90330000D02*
X140810000Y-87670000D01*
X142080000Y-87670000D02*
X143410000Y-87670000D01*
X143410000Y-87670000D02*
X143410000Y-89000000D01*
D12*
X92339051Y-122270000D02*
G75*
G03X92339051Y-122270000I-1796051J0D01*
G01*
X92339051Y-142590000D02*
G75*
G03X92339051Y-142590000I-1796051J0D01*
G01*
X124089051Y-142590000D02*
G75*
G03X124089051Y-142590000I-1796051J0D01*
G01*
X124089051Y-122270000D02*
G75*
G03X124089051Y-122270000I-1796051J0D01*
G01*
X101500000Y-101950000D02*
X101500000Y-115920000D01*
X101500000Y-101950000D02*
X101500000Y-115950000D01*
X101500000Y-115950000D02*
X113500000Y-115950000D01*
X113500000Y-115950000D02*
X113500000Y-101950000D01*
X113500000Y-101950000D02*
X101500000Y-101950000D01*
X139203000Y-118655000D02*
X141203000Y-118655000D01*
X141203000Y-120805000D02*
X139203000Y-120805000D01*
X129678000Y-135469000D02*
X127678000Y-135469000D01*
X127678000Y-137519000D02*
X129678000Y-137519000D01*
X82695000Y-109300000D02*
X82695000Y-111300000D01*
X84745000Y-111300000D02*
X84745000Y-109300000D01*
X98608000Y-109020000D02*
X98608000Y-111020000D01*
X100658000Y-111020000D02*
X100658000Y-109020000D01*
X117260454Y-132524756D02*
X117260454Y-130524756D01*
X115210454Y-130524756D02*
X115210454Y-132524756D01*
X116158000Y-111020000D02*
X116158000Y-109020000D01*
X114108000Y-109020000D02*
X114108000Y-111020000D01*
X135203000Y-124565000D02*
X137203000Y-124565000D01*
X137203000Y-122515000D02*
X135203000Y-122515000D01*
X137222560Y-128620000D02*
X136374200Y-129620760D01*
X136374200Y-129620760D02*
X136374200Y-127619240D01*
X136374200Y-127619240D02*
X137222560Y-128620000D01*
X137222560Y-128620000D02*
X137222560Y-127619240D01*
X137222560Y-128620000D02*
X137222560Y-129620760D01*
X139079300Y-126820000D02*
X139079300Y-127019800D01*
X138622260Y-126820000D02*
X138622260Y-127019000D01*
X134471740Y-126820000D02*
X134471740Y-126969000D01*
X139074220Y-130420000D02*
X139074220Y-130271000D01*
X138622260Y-130420000D02*
X138622260Y-130271000D01*
X134471740Y-130420000D02*
X134471740Y-130271000D01*
X138622260Y-126671020D02*
X138622260Y-126869140D01*
X138622260Y-130618980D02*
X138622260Y-130420860D01*
X134476820Y-126623560D02*
X134476820Y-126821680D01*
X139079300Y-126623560D02*
X134476820Y-126623560D01*
X139079300Y-126623560D02*
X139079300Y-126821680D01*
X139074220Y-130618980D02*
X139074220Y-130420860D01*
X139074220Y-130618980D02*
X134471740Y-130618980D01*
X134471740Y-130618980D02*
X134471740Y-130420860D01*
X143363000Y-132430000D02*
X143363000Y-137510000D01*
X147808000Y-132430000D02*
X147808000Y-137510000D01*
X141458000Y-137510000D02*
X141458000Y-132430000D01*
X141458000Y-137510000D02*
X147808000Y-137510000D01*
X141458000Y-132430000D02*
X147808000Y-132430000D01*
X139095295Y-133973010D02*
G75*
G03X138607600Y-133270000I-2187695J-996990D01*
G01*
X134719905Y-133973010D02*
G75*
G02X135207600Y-133270000I2187695J-996990D01*
G01*
X138607600Y-133270000D02*
X135207600Y-133270000D01*
X139092479Y-135963127D02*
G75*
G02X136907600Y-137370000I-2184879J993127D01*
G01*
X134722721Y-135963127D02*
G75*
G03X136907600Y-137370000I2184879J993127D01*
G01*
X129646000Y-134013000D02*
X127646000Y-134013000D01*
X127646000Y-131863000D02*
X129646000Y-131863000D01*
X141203000Y-118265000D02*
X139203000Y-118265000D01*
X139203000Y-116115000D02*
X141203000Y-116115000D01*
X107860454Y-132999756D02*
X108005454Y-132999756D01*
X107860454Y-128849756D02*
X108005454Y-128849756D01*
X113010454Y-128849756D02*
X112865454Y-128849756D01*
X113010454Y-132999756D02*
X112865454Y-132999756D01*
X107860454Y-132999756D02*
X107860454Y-128849756D01*
X113010454Y-132999756D02*
X113010454Y-128849756D01*
X108005454Y-132999756D02*
X108005454Y-134399756D01*
X141458000Y-129890000D02*
X147808000Y-129890000D01*
X141458000Y-122270000D02*
X147808000Y-122270000D01*
X143363000Y-122270000D02*
X143363000Y-129890000D01*
X141458000Y-129890000D02*
X141458000Y-122270000D01*
X147808000Y-122270000D02*
X147808000Y-129890000D01*
X125503000Y-114650000D02*
X117883000Y-114650000D01*
X125503000Y-117190000D02*
X117883000Y-117190000D01*
X128323000Y-117470000D02*
X126773000Y-117470000D01*
X117883000Y-114650000D02*
X117883000Y-117190000D01*
X125503000Y-117190000D02*
X125503000Y-114650000D01*
X126773000Y-114370000D02*
X128323000Y-114370000D01*
X128323000Y-114370000D02*
X128323000Y-117470000D01*
X134123760Y-116849640D02*
X134123760Y-115848880D01*
X134624140Y-116349260D02*
X133623380Y-116349260D01*
X136272600Y-114650000D02*
G75*
G03X136272600Y-114650000I-3149600J0D01*
G01*
X125723400Y-143164800D02*
X125723400Y-141164800D01*
X127873400Y-141164800D02*
X127873400Y-143164800D01*
X146585000Y-118841000D02*
X144045000Y-118841000D01*
X144045000Y-120619000D02*
X146585000Y-120619000D01*
X144045000Y-120619000D02*
X144045000Y-118841000D01*
X146585000Y-118841000D02*
X146585000Y-120619000D01*
X138333000Y-101670000D02*
X138333000Y-103220000D01*
X139633000Y-101670000D02*
X138333000Y-101670000D01*
X143824000Y-103093000D02*
X149666000Y-103093000D01*
X149666000Y-103093000D02*
X149666000Y-103347000D01*
X149666000Y-103347000D02*
X143824000Y-103347000D01*
X143824000Y-103347000D02*
X143824000Y-103220000D01*
X143824000Y-103220000D02*
X149666000Y-103220000D01*
X141157000Y-102966000D02*
X140776000Y-102966000D01*
X141157000Y-103474000D02*
X140776000Y-103474000D01*
X141157000Y-105506000D02*
X140776000Y-105506000D01*
X141157000Y-106014000D02*
X140776000Y-106014000D01*
X141157000Y-108046000D02*
X140776000Y-108046000D01*
X141157000Y-108554000D02*
X140776000Y-108554000D01*
X141157000Y-110586000D02*
X140776000Y-110586000D01*
X141157000Y-111094000D02*
X140776000Y-111094000D01*
X141157000Y-113634000D02*
X140776000Y-113634000D01*
X141157000Y-113126000D02*
X140776000Y-113126000D01*
X143697000Y-104490000D02*
X143697000Y-101950000D01*
X149793000Y-103474000D02*
X143697000Y-103474000D01*
X149793000Y-102966000D02*
X149793000Y-103474000D01*
X143697000Y-102966000D02*
X149793000Y-102966000D01*
X141157000Y-104490000D02*
X143697000Y-104490000D01*
X141157000Y-101950000D02*
X141157000Y-104490000D01*
X141157000Y-101950000D02*
X143697000Y-101950000D01*
X141157000Y-107030000D02*
X143697000Y-107030000D01*
X141157000Y-107030000D02*
X141157000Y-109570000D01*
X141157000Y-109570000D02*
X143697000Y-109570000D01*
X143697000Y-108046000D02*
X149793000Y-108046000D01*
X149793000Y-108046000D02*
X149793000Y-108554000D01*
X149793000Y-108554000D02*
X143697000Y-108554000D01*
X143697000Y-109570000D02*
X143697000Y-107030000D01*
X143697000Y-107030000D02*
X143697000Y-104490000D01*
X149793000Y-106014000D02*
X143697000Y-106014000D01*
X149793000Y-105506000D02*
X149793000Y-106014000D01*
X143697000Y-105506000D02*
X149793000Y-105506000D01*
X141157000Y-107030000D02*
X143697000Y-107030000D01*
X141157000Y-104490000D02*
X141157000Y-107030000D01*
X141157000Y-104490000D02*
X143697000Y-104490000D01*
X141157000Y-112110000D02*
X143697000Y-112110000D01*
X141157000Y-112110000D02*
X141157000Y-114650000D01*
X141157000Y-114650000D02*
X143697000Y-114650000D01*
X143697000Y-113126000D02*
X149793000Y-113126000D01*
X149793000Y-113126000D02*
X149793000Y-113634000D01*
X149793000Y-113634000D02*
X143697000Y-113634000D01*
X143697000Y-114650000D02*
X143697000Y-112110000D01*
X143697000Y-112110000D02*
X143697000Y-109570000D01*
X149793000Y-111094000D02*
X143697000Y-111094000D01*
X149793000Y-110586000D02*
X149793000Y-111094000D01*
X143697000Y-110586000D02*
X149793000Y-110586000D01*
X141157000Y-112110000D02*
X143697000Y-112110000D01*
X141157000Y-109570000D02*
X141157000Y-112110000D01*
X141157000Y-109570000D02*
X143697000Y-109570000D01*
X135409000Y-108935000D02*
X131599000Y-108935000D01*
X131599000Y-108935000D02*
X131599000Y-110713000D01*
X131599000Y-110713000D02*
X135409000Y-110713000D01*
X135409000Y-108935000D02*
X135409000Y-110713000D01*
X100730454Y-129213756D02*
X104540454Y-129213756D01*
X104540454Y-129213756D02*
X104540454Y-127435756D01*
X104540454Y-127435756D02*
X100730454Y-127435756D01*
X100730454Y-129213756D02*
X100730454Y-127435756D01*
X100611000Y-132557000D02*
X104421000Y-132557000D01*
X104421000Y-132557000D02*
X104421000Y-130779000D01*
X104421000Y-130779000D02*
X100611000Y-130779000D01*
X100611000Y-132557000D02*
X100611000Y-130779000D01*
X100611000Y-136113000D02*
X104421000Y-136113000D01*
X104421000Y-136113000D02*
X104421000Y-134335000D01*
X104421000Y-134335000D02*
X100611000Y-134335000D01*
X100611000Y-136113000D02*
X100611000Y-134335000D01*
X144045000Y-118079000D02*
X146585000Y-118079000D01*
X146585000Y-116301000D02*
X144045000Y-116301000D01*
X146585000Y-116301000D02*
X146585000Y-118079000D01*
X144045000Y-118079000D02*
X144045000Y-116301000D01*
X137133000Y-110635000D02*
X117133000Y-110635000D01*
X117133000Y-110635000D02*
X117194000Y-102253000D01*
X117133000Y-102253000D02*
X137133000Y-102253000D01*
X137133000Y-102253000D02*
X137133000Y-110635000D01*
D13*
G36*
X89475190Y-126471189D02*
X89981854Y-126576045D01*
X90481640Y-126752582D01*
X91027186Y-127011715D01*
X91030662Y-127013519D01*
X91829115Y-127521712D01*
X92521557Y-128156662D01*
X93096054Y-128904336D01*
X93540673Y-129750697D01*
X93688240Y-130139366D01*
X93800823Y-130495210D01*
X93873301Y-130802860D01*
X93914439Y-131121887D01*
X93933004Y-131511864D01*
X93937113Y-131830666D01*
X93932157Y-132326403D01*
X93906188Y-132711668D01*
X93852311Y-133044734D01*
X93763631Y-133383873D01*
X93746758Y-133439333D01*
X93403230Y-134313206D01*
X92936366Y-135086381D01*
X92343918Y-135774585D01*
X91599878Y-136403219D01*
X90775251Y-136883304D01*
X89874925Y-137212468D01*
X89050920Y-137372176D01*
X88741082Y-137429701D01*
X88552416Y-137507470D01*
X88512694Y-137552414D01*
X88389953Y-137640083D01*
X88116061Y-137672535D01*
X88092512Y-137672666D01*
X87849763Y-137658843D01*
X87717997Y-137599036D01*
X87639877Y-137465735D01*
X87635029Y-137453186D01*
X87603367Y-137206655D01*
X87941120Y-137206655D01*
X87967687Y-137334956D01*
X88073018Y-137415431D01*
X88103666Y-137418666D01*
X88226766Y-137350661D01*
X88260243Y-137294378D01*
X88251813Y-137152632D01*
X88129628Y-137091623D01*
X88016372Y-137111625D01*
X87941120Y-137206655D01*
X87603367Y-137206655D01*
X87597479Y-137160815D01*
X87706079Y-136926068D01*
X87939296Y-136782967D01*
X88075056Y-136757868D01*
X88318072Y-136767359D01*
X88472139Y-136864126D01*
X88512620Y-136915829D01*
X88591240Y-137011604D01*
X88685513Y-137056937D01*
X88841242Y-137057458D01*
X89104234Y-137018799D01*
X89206654Y-137001142D01*
X90130787Y-136760429D01*
X90972460Y-136381619D01*
X91719982Y-135877414D01*
X92361660Y-135260513D01*
X92885803Y-134543616D01*
X93280719Y-133739424D01*
X93534715Y-132860635D01*
X93622659Y-132204411D01*
X93604530Y-131328002D01*
X93430311Y-130476187D01*
X93113117Y-129667056D01*
X92666068Y-128918698D01*
X92102280Y-128249201D01*
X91434872Y-127676655D01*
X90676959Y-127219149D01*
X89841661Y-126894772D01*
X89754666Y-126870431D01*
X89025124Y-126742909D01*
X88235329Y-126724815D01*
X87452626Y-126814254D01*
X86911694Y-126950460D01*
X86059667Y-127310500D01*
X85299391Y-127800257D01*
X84643010Y-128403484D01*
X84102670Y-129103937D01*
X83690513Y-129885372D01*
X83418686Y-130731542D01*
X83299332Y-131626203D01*
X83295008Y-131788333D01*
X83324339Y-132511587D01*
X83438801Y-133150658D01*
X83652996Y-133775313D01*
X83762192Y-134020464D01*
X84125649Y-134647852D01*
X84555434Y-135120324D01*
X85054508Y-135439993D01*
X85625829Y-135608972D01*
X86029333Y-135639012D01*
X86550904Y-135580183D01*
X87081353Y-135399447D01*
X87629108Y-135090428D01*
X88202592Y-134646749D01*
X88810234Y-134062034D01*
X89460458Y-133329908D01*
X90039297Y-132604713D01*
X90416858Y-132032610D01*
X90644863Y-131500950D01*
X90667001Y-131365000D01*
X91024666Y-131365000D01*
X91067626Y-131470373D01*
X91115683Y-131475772D01*
X91203157Y-131388363D01*
X91206700Y-131365000D01*
X91140785Y-131265725D01*
X91115683Y-131254227D01*
X91038480Y-131295098D01*
X91024666Y-131365000D01*
X90667001Y-131365000D01*
X90723570Y-131017630D01*
X90653235Y-130590543D01*
X90434113Y-130227583D01*
X90066463Y-129936646D01*
X89950619Y-129875726D01*
X89423465Y-129704132D01*
X88890404Y-129685310D01*
X88385988Y-129818646D01*
X88213223Y-129906604D01*
X87930876Y-130083811D01*
X87784209Y-130215834D01*
X87755547Y-130329298D01*
X87827219Y-130450831D01*
X87841372Y-130466835D01*
X87967320Y-130669157D01*
X87959066Y-130808085D01*
X87847903Y-130856084D01*
X87665121Y-130785619D01*
X87567619Y-130707719D01*
X87131374Y-130343313D01*
X86742558Y-130101031D01*
X86413801Y-129985873D01*
X86157732Y-130002843D01*
X86027252Y-130097507D01*
X85972782Y-130281941D01*
X86048950Y-130502415D01*
X86236930Y-130715385D01*
X86321084Y-130777116D01*
X86467805Y-130915440D01*
X86465896Y-131021595D01*
X86317594Y-131068309D01*
X86297175Y-131068666D01*
X86119417Y-131115481D01*
X85963207Y-131200676D01*
X85835567Y-131351311D01*
X85856451Y-131501780D01*
X86005593Y-131638378D01*
X86262727Y-131747401D01*
X86607585Y-131815143D01*
X86894842Y-131830666D01*
X87144822Y-131839809D01*
X87263201Y-131876684D01*
X87287166Y-131955463D01*
X87283650Y-131978833D01*
X87182588Y-132104838D01*
X87032064Y-132152958D01*
X86877174Y-132202413D01*
X86779125Y-132326886D01*
X86726614Y-132555725D01*
X86708337Y-132918280D01*
X86707822Y-132994833D01*
X86715286Y-133256581D01*
X86749600Y-133390137D01*
X86826000Y-133436244D01*
X86874048Y-133439333D01*
X87037141Y-133505475D01*
X87184418Y-133657561D01*
X87275402Y-133916746D01*
X87230511Y-134153440D01*
X87082868Y-134334538D01*
X86865598Y-134426941D01*
X86611827Y-134397546D01*
X86501276Y-134340231D01*
X86401418Y-134268762D01*
X86340285Y-134188823D01*
X86311639Y-134063676D01*
X86310335Y-133950947D01*
X86621282Y-133950947D01*
X86680208Y-134061986D01*
X86802790Y-134096285D01*
X86902505Y-134012956D01*
X86918333Y-133941437D01*
X86847954Y-133826905D01*
X86770166Y-133794118D01*
X86651311Y-133830450D01*
X86621282Y-133950947D01*
X86310335Y-133950947D01*
X86309242Y-133856585D01*
X86326853Y-133530810D01*
X86337135Y-133373694D01*
X86361781Y-132994208D01*
X86382791Y-132659244D01*
X86397108Y-132418066D01*
X86400920Y-132345523D01*
X86374238Y-132195516D01*
X86247121Y-132104693D01*
X86114000Y-132063143D01*
X85781696Y-131932137D01*
X85592034Y-131737576D01*
X85522743Y-131454352D01*
X85521333Y-131394928D01*
X85559480Y-131123391D01*
X85683149Y-130969049D01*
X85684349Y-130968296D01*
X85790170Y-130880508D01*
X85790845Y-130772030D01*
X85726682Y-130633116D01*
X85617431Y-130314873D01*
X85658902Y-130047507D01*
X85813818Y-129837151D01*
X86088928Y-129663430D01*
X86325191Y-129629333D01*
X86569782Y-129665679D01*
X86856393Y-129757592D01*
X87122300Y-129879388D01*
X87304781Y-130005381D01*
X87335812Y-130043194D01*
X87419009Y-130038232D01*
X87574352Y-129936384D01*
X87659057Y-129862583D01*
X87979122Y-129612945D01*
X88325188Y-129460386D01*
X88747920Y-129387779D01*
X89100323Y-129375333D01*
X89720188Y-129436518D01*
X90229901Y-129618217D01*
X90623481Y-129917641D01*
X90814227Y-130174123D01*
X90938115Y-130408556D01*
X91013787Y-130596145D01*
X91024752Y-130652771D01*
X91093398Y-130756567D01*
X91270502Y-130899446D01*
X91445054Y-131008346D01*
X91682822Y-131149785D01*
X91854735Y-131266707D01*
X91910670Y-131317819D01*
X91865367Y-131392200D01*
X91704144Y-131521896D01*
X91459766Y-131681191D01*
X91410308Y-131710536D01*
X90951716Y-132032547D01*
X90633501Y-132385719D01*
X90612606Y-132417064D01*
X90172421Y-133035889D01*
X89662761Y-133656059D01*
X89111561Y-134249888D01*
X88546755Y-134789690D01*
X87996278Y-135247777D01*
X87488064Y-135596465D01*
X87299333Y-135700903D01*
X87054640Y-135815168D01*
X86834646Y-135885425D01*
X86583967Y-135921917D01*
X86247218Y-135934884D01*
X86029333Y-135935746D01*
X85627439Y-135929272D01*
X85341054Y-135904777D01*
X85116551Y-135852421D01*
X84900304Y-135762365D01*
X84796294Y-135709490D01*
X84267559Y-135337432D01*
X83813666Y-134819078D01*
X83440121Y-134162617D01*
X83152427Y-133376239D01*
X83101581Y-133188103D01*
X83014258Y-132666177D01*
X82982458Y-132050361D01*
X83003357Y-131398984D01*
X83074132Y-130770374D01*
X83191957Y-130222859D01*
X83254383Y-130032215D01*
X83675977Y-129135858D01*
X84227492Y-128345867D01*
X84901228Y-127669939D01*
X85689490Y-127115774D01*
X86584579Y-126691069D01*
X86601548Y-126684686D01*
X86898373Y-126585390D01*
X87195165Y-126517046D01*
X87540970Y-126472074D01*
X87984836Y-126442890D01*
X88230666Y-126432852D01*
X88909007Y-126427097D01*
X89475190Y-126471189D01*
X89475190Y-126471189D01*
G37*
X89475190Y-126471189D02*
X89981854Y-126576045D01*
X90481640Y-126752582D01*
X91027186Y-127011715D01*
X91030662Y-127013519D01*
X91829115Y-127521712D01*
X92521557Y-128156662D01*
X93096054Y-128904336D01*
X93540673Y-129750697D01*
X93688240Y-130139366D01*
X93800823Y-130495210D01*
X93873301Y-130802860D01*
X93914439Y-131121887D01*
X93933004Y-131511864D01*
X93937113Y-131830666D01*
X93932157Y-132326403D01*
X93906188Y-132711668D01*
X93852311Y-133044734D01*
X93763631Y-133383873D01*
X93746758Y-133439333D01*
X93403230Y-134313206D01*
X92936366Y-135086381D01*
X92343918Y-135774585D01*
X91599878Y-136403219D01*
X90775251Y-136883304D01*
X89874925Y-137212468D01*
X89050920Y-137372176D01*
X88741082Y-137429701D01*
X88552416Y-137507470D01*
X88512694Y-137552414D01*
X88389953Y-137640083D01*
X88116061Y-137672535D01*
X88092512Y-137672666D01*
X87849763Y-137658843D01*
X87717997Y-137599036D01*
X87639877Y-137465735D01*
X87635029Y-137453186D01*
X87603367Y-137206655D01*
X87941120Y-137206655D01*
X87967687Y-137334956D01*
X88073018Y-137415431D01*
X88103666Y-137418666D01*
X88226766Y-137350661D01*
X88260243Y-137294378D01*
X88251813Y-137152632D01*
X88129628Y-137091623D01*
X88016372Y-137111625D01*
X87941120Y-137206655D01*
X87603367Y-137206655D01*
X87597479Y-137160815D01*
X87706079Y-136926068D01*
X87939296Y-136782967D01*
X88075056Y-136757868D01*
X88318072Y-136767359D01*
X88472139Y-136864126D01*
X88512620Y-136915829D01*
X88591240Y-137011604D01*
X88685513Y-137056937D01*
X88841242Y-137057458D01*
X89104234Y-137018799D01*
X89206654Y-137001142D01*
X90130787Y-136760429D01*
X90972460Y-136381619D01*
X91719982Y-135877414D01*
X92361660Y-135260513D01*
X92885803Y-134543616D01*
X93280719Y-133739424D01*
X93534715Y-132860635D01*
X93622659Y-132204411D01*
X93604530Y-131328002D01*
X93430311Y-130476187D01*
X93113117Y-129667056D01*
X92666068Y-128918698D01*
X92102280Y-128249201D01*
X91434872Y-127676655D01*
X90676959Y-127219149D01*
X89841661Y-126894772D01*
X89754666Y-126870431D01*
X89025124Y-126742909D01*
X88235329Y-126724815D01*
X87452626Y-126814254D01*
X86911694Y-126950460D01*
X86059667Y-127310500D01*
X85299391Y-127800257D01*
X84643010Y-128403484D01*
X84102670Y-129103937D01*
X83690513Y-129885372D01*
X83418686Y-130731542D01*
X83299332Y-131626203D01*
X83295008Y-131788333D01*
X83324339Y-132511587D01*
X83438801Y-133150658D01*
X83652996Y-133775313D01*
X83762192Y-134020464D01*
X84125649Y-134647852D01*
X84555434Y-135120324D01*
X85054508Y-135439993D01*
X85625829Y-135608972D01*
X86029333Y-135639012D01*
X86550904Y-135580183D01*
X87081353Y-135399447D01*
X87629108Y-135090428D01*
X88202592Y-134646749D01*
X88810234Y-134062034D01*
X89460458Y-133329908D01*
X90039297Y-132604713D01*
X90416858Y-132032610D01*
X90644863Y-131500950D01*
X90667001Y-131365000D01*
X91024666Y-131365000D01*
X91067626Y-131470373D01*
X91115683Y-131475772D01*
X91203157Y-131388363D01*
X91206700Y-131365000D01*
X91140785Y-131265725D01*
X91115683Y-131254227D01*
X91038480Y-131295098D01*
X91024666Y-131365000D01*
X90667001Y-131365000D01*
X90723570Y-131017630D01*
X90653235Y-130590543D01*
X90434113Y-130227583D01*
X90066463Y-129936646D01*
X89950619Y-129875726D01*
X89423465Y-129704132D01*
X88890404Y-129685310D01*
X88385988Y-129818646D01*
X88213223Y-129906604D01*
X87930876Y-130083811D01*
X87784209Y-130215834D01*
X87755547Y-130329298D01*
X87827219Y-130450831D01*
X87841372Y-130466835D01*
X87967320Y-130669157D01*
X87959066Y-130808085D01*
X87847903Y-130856084D01*
X87665121Y-130785619D01*
X87567619Y-130707719D01*
X87131374Y-130343313D01*
X86742558Y-130101031D01*
X86413801Y-129985873D01*
X86157732Y-130002843D01*
X86027252Y-130097507D01*
X85972782Y-130281941D01*
X86048950Y-130502415D01*
X86236930Y-130715385D01*
X86321084Y-130777116D01*
X86467805Y-130915440D01*
X86465896Y-131021595D01*
X86317594Y-131068309D01*
X86297175Y-131068666D01*
X86119417Y-131115481D01*
X85963207Y-131200676D01*
X85835567Y-131351311D01*
X85856451Y-131501780D01*
X86005593Y-131638378D01*
X86262727Y-131747401D01*
X86607585Y-131815143D01*
X86894842Y-131830666D01*
X87144822Y-131839809D01*
X87263201Y-131876684D01*
X87287166Y-131955463D01*
X87283650Y-131978833D01*
X87182588Y-132104838D01*
X87032064Y-132152958D01*
X86877174Y-132202413D01*
X86779125Y-132326886D01*
X86726614Y-132555725D01*
X86708337Y-132918280D01*
X86707822Y-132994833D01*
X86715286Y-133256581D01*
X86749600Y-133390137D01*
X86826000Y-133436244D01*
X86874048Y-133439333D01*
X87037141Y-133505475D01*
X87184418Y-133657561D01*
X87275402Y-133916746D01*
X87230511Y-134153440D01*
X87082868Y-134334538D01*
X86865598Y-134426941D01*
X86611827Y-134397546D01*
X86501276Y-134340231D01*
X86401418Y-134268762D01*
X86340285Y-134188823D01*
X86311639Y-134063676D01*
X86310335Y-133950947D01*
X86621282Y-133950947D01*
X86680208Y-134061986D01*
X86802790Y-134096285D01*
X86902505Y-134012956D01*
X86918333Y-133941437D01*
X86847954Y-133826905D01*
X86770166Y-133794118D01*
X86651311Y-133830450D01*
X86621282Y-133950947D01*
X86310335Y-133950947D01*
X86309242Y-133856585D01*
X86326853Y-133530810D01*
X86337135Y-133373694D01*
X86361781Y-132994208D01*
X86382791Y-132659244D01*
X86397108Y-132418066D01*
X86400920Y-132345523D01*
X86374238Y-132195516D01*
X86247121Y-132104693D01*
X86114000Y-132063143D01*
X85781696Y-131932137D01*
X85592034Y-131737576D01*
X85522743Y-131454352D01*
X85521333Y-131394928D01*
X85559480Y-131123391D01*
X85683149Y-130969049D01*
X85684349Y-130968296D01*
X85790170Y-130880508D01*
X85790845Y-130772030D01*
X85726682Y-130633116D01*
X85617431Y-130314873D01*
X85658902Y-130047507D01*
X85813818Y-129837151D01*
X86088928Y-129663430D01*
X86325191Y-129629333D01*
X86569782Y-129665679D01*
X86856393Y-129757592D01*
X87122300Y-129879388D01*
X87304781Y-130005381D01*
X87335812Y-130043194D01*
X87419009Y-130038232D01*
X87574352Y-129936384D01*
X87659057Y-129862583D01*
X87979122Y-129612945D01*
X88325188Y-129460386D01*
X88747920Y-129387779D01*
X89100323Y-129375333D01*
X89720188Y-129436518D01*
X90229901Y-129618217D01*
X90623481Y-129917641D01*
X90814227Y-130174123D01*
X90938115Y-130408556D01*
X91013787Y-130596145D01*
X91024752Y-130652771D01*
X91093398Y-130756567D01*
X91270502Y-130899446D01*
X91445054Y-131008346D01*
X91682822Y-131149785D01*
X91854735Y-131266707D01*
X91910670Y-131317819D01*
X91865367Y-131392200D01*
X91704144Y-131521896D01*
X91459766Y-131681191D01*
X91410308Y-131710536D01*
X90951716Y-132032547D01*
X90633501Y-132385719D01*
X90612606Y-132417064D01*
X90172421Y-133035889D01*
X89662761Y-133656059D01*
X89111561Y-134249888D01*
X88546755Y-134789690D01*
X87996278Y-135247777D01*
X87488064Y-135596465D01*
X87299333Y-135700903D01*
X87054640Y-135815168D01*
X86834646Y-135885425D01*
X86583967Y-135921917D01*
X86247218Y-135934884D01*
X86029333Y-135935746D01*
X85627439Y-135929272D01*
X85341054Y-135904777D01*
X85116551Y-135852421D01*
X84900304Y-135762365D01*
X84796294Y-135709490D01*
X84267559Y-135337432D01*
X83813666Y-134819078D01*
X83440121Y-134162617D01*
X83152427Y-133376239D01*
X83101581Y-133188103D01*
X83014258Y-132666177D01*
X82982458Y-132050361D01*
X83003357Y-131398984D01*
X83074132Y-130770374D01*
X83191957Y-130222859D01*
X83254383Y-130032215D01*
X83675977Y-129135858D01*
X84227492Y-128345867D01*
X84901228Y-127669939D01*
X85689490Y-127115774D01*
X86584579Y-126691069D01*
X86601548Y-126684686D01*
X86898373Y-126585390D01*
X87195165Y-126517046D01*
X87540970Y-126472074D01*
X87984836Y-126442890D01*
X88230666Y-126432852D01*
X88909007Y-126427097D01*
X89475190Y-126471189D01*
G36*
X89815189Y-130343261D02*
X89989827Y-130438467D01*
X90138248Y-130634042D01*
X90174941Y-130888542D01*
X90094561Y-131129151D01*
X90044952Y-131189619D01*
X89825989Y-131302813D01*
X89561871Y-131304877D01*
X89333115Y-131198173D01*
X89302122Y-131167833D01*
X89175518Y-130918966D01*
X89192859Y-130774528D01*
X89530509Y-130774528D01*
X89538440Y-130891956D01*
X89654625Y-130975872D01*
X89781800Y-130961821D01*
X89839333Y-130861996D01*
X89782922Y-130714697D01*
X89747289Y-130683107D01*
X89620489Y-130679285D01*
X89530509Y-130774528D01*
X89192859Y-130774528D01*
X89207120Y-130655755D01*
X89331333Y-130476000D01*
X89565245Y-130327128D01*
X89815189Y-130343261D01*
X89815189Y-130343261D01*
G37*
X89815189Y-130343261D02*
X89989827Y-130438467D01*
X90138248Y-130634042D01*
X90174941Y-130888542D01*
X90094561Y-131129151D01*
X90044952Y-131189619D01*
X89825989Y-131302813D01*
X89561871Y-131304877D01*
X89333115Y-131198173D01*
X89302122Y-131167833D01*
X89175518Y-130918966D01*
X89192859Y-130774528D01*
X89530509Y-130774528D01*
X89538440Y-130891956D01*
X89654625Y-130975872D01*
X89781800Y-130961821D01*
X89839333Y-130861996D01*
X89782922Y-130714697D01*
X89747289Y-130683107D01*
X89620489Y-130679285D01*
X89530509Y-130774528D01*
X89192859Y-130774528D01*
X89207120Y-130655755D01*
X89331333Y-130476000D01*
X89565245Y-130327128D01*
X89815189Y-130343261D01*
D14*
X144045000Y-143730000D02*
X144045000Y-148810000D01*
X148485000Y-143730000D02*
X148485000Y-148810000D01*
X142145000Y-148810000D02*
X142145000Y-143730000D01*
X142145000Y-148810000D02*
X148485000Y-148810000D01*
X142145000Y-143730000D02*
X148485000Y-143730000D01*
X135220000Y-147841000D02*
X135220000Y-145721000D01*
X132020000Y-147841000D02*
X135220000Y-147841000D01*
X135220000Y-145721000D02*
X132020000Y-145721000D01*
X135220000Y-145428000D02*
X135220000Y-143308000D01*
X132020000Y-145428000D02*
X135220000Y-145428000D01*
X135220000Y-143308000D02*
X132020000Y-143308000D01*
X102722500Y-142009000D02*
X100722500Y-142009000D01*
X100722500Y-139869000D02*
X102722500Y-139869000D01*
X102786000Y-139342000D02*
X100786000Y-139342000D01*
X100786000Y-137202000D02*
X102786000Y-137202000D01*
X140710000Y-138670000D02*
X130490000Y-138670000D01*
X130490000Y-138670000D02*
X130490000Y-141330000D01*
X130490000Y-141330000D02*
X140710000Y-141330000D01*
X140710000Y-141330000D02*
X140710000Y-138670000D01*
X141980000Y-138670000D02*
X143310000Y-138670000D01*
X143310000Y-138670000D02*
X143310000Y-140000000D01*
D12*
X85458381Y-105505905D02*
X86267905Y-105505905D01*
X86363143Y-105458286D01*
X86410762Y-105410667D01*
X86458381Y-105315429D01*
X86458381Y-105124952D01*
X86410762Y-105029714D01*
X86363143Y-104982095D01*
X86267905Y-104934476D01*
X85458381Y-104934476D01*
X85458381Y-104029714D02*
X85458381Y-104220191D01*
X85506000Y-104315429D01*
X85553619Y-104363048D01*
X85696476Y-104458286D01*
X85886952Y-104505905D01*
X86267905Y-104505905D01*
X86363143Y-104458286D01*
X86410762Y-104410667D01*
X86458381Y-104315429D01*
X86458381Y-104124952D01*
X86410762Y-104029714D01*
X86363143Y-103982095D01*
X86267905Y-103934476D01*
X86029810Y-103934476D01*
X85934571Y-103982095D01*
X85886952Y-104029714D01*
X85839333Y-104124952D01*
X85839333Y-104315429D01*
X85886952Y-104410667D01*
X85934571Y-104458286D01*
X86029810Y-104505905D01*
X86982381Y-112443238D02*
X87982381Y-112109905D01*
X86982381Y-111776571D01*
X87982381Y-111443238D02*
X86982381Y-111443238D01*
X87982381Y-110967048D02*
X86982381Y-110967048D01*
X87982381Y-110395619D01*
X86982381Y-110395619D01*
X89570000Y-112109904D02*
X89522381Y-112205142D01*
X89522381Y-112347999D01*
X89570000Y-112490857D01*
X89665238Y-112586095D01*
X89760476Y-112633714D01*
X89950952Y-112681333D01*
X90093810Y-112681333D01*
X90284286Y-112633714D01*
X90379524Y-112586095D01*
X90474762Y-112490857D01*
X90522381Y-112347999D01*
X90522381Y-112252761D01*
X90474762Y-112109904D01*
X90427143Y-112062285D01*
X90093810Y-112062285D01*
X90093810Y-112252761D01*
X90522381Y-111633714D02*
X89522381Y-111633714D01*
X90522381Y-111062285D01*
X89522381Y-111062285D01*
X90522381Y-110586095D02*
X89522381Y-110586095D01*
X89522381Y-110348000D01*
X89570000Y-110205142D01*
X89665238Y-110109904D01*
X89760476Y-110062285D01*
X89950952Y-110014666D01*
X90093810Y-110014666D01*
X90284286Y-110062285D01*
X90379524Y-110109904D01*
X90474762Y-110205142D01*
X90522381Y-110348000D01*
X90522381Y-110586095D01*
X93014762Y-112538476D02*
X93062381Y-112395619D01*
X93062381Y-112157523D01*
X93014762Y-112062285D01*
X92967143Y-112014666D01*
X92871905Y-111967047D01*
X92776667Y-111967047D01*
X92681429Y-112014666D01*
X92633810Y-112062285D01*
X92586190Y-112157523D01*
X92538571Y-112348000D01*
X92490952Y-112443238D01*
X92443333Y-112490857D01*
X92348095Y-112538476D01*
X92252857Y-112538476D01*
X92157619Y-112490857D01*
X92110000Y-112443238D01*
X92062381Y-112348000D01*
X92062381Y-112109904D01*
X92110000Y-111967047D01*
X92967143Y-110967047D02*
X93014762Y-111014666D01*
X93062381Y-111157523D01*
X93062381Y-111252761D01*
X93014762Y-111395619D01*
X92919524Y-111490857D01*
X92824286Y-111538476D01*
X92633810Y-111586095D01*
X92490952Y-111586095D01*
X92300476Y-111538476D01*
X92205238Y-111490857D01*
X92110000Y-111395619D01*
X92062381Y-111252761D01*
X92062381Y-111157523D01*
X92110000Y-111014666D01*
X92157619Y-110967047D01*
X93062381Y-110062285D02*
X93062381Y-110538476D01*
X92062381Y-110538476D01*
X95554762Y-112562286D02*
X95602381Y-112419429D01*
X95602381Y-112181333D01*
X95554762Y-112086095D01*
X95507143Y-112038476D01*
X95411905Y-111990857D01*
X95316667Y-111990857D01*
X95221429Y-112038476D01*
X95173810Y-112086095D01*
X95126190Y-112181333D01*
X95078571Y-112371810D01*
X95030952Y-112467048D01*
X94983333Y-112514667D01*
X94888095Y-112562286D01*
X94792857Y-112562286D01*
X94697619Y-112514667D01*
X94650000Y-112467048D01*
X94602381Y-112371810D01*
X94602381Y-112133714D01*
X94650000Y-111990857D01*
X95602381Y-111562286D02*
X94602381Y-111562286D01*
X94602381Y-111324191D01*
X94650000Y-111181333D01*
X94745238Y-111086095D01*
X94840476Y-111038476D01*
X95030952Y-110990857D01*
X95173810Y-110990857D01*
X95364286Y-111038476D01*
X95459524Y-111086095D01*
X95554762Y-111181333D01*
X95602381Y-111324191D01*
X95602381Y-111562286D01*
X95316667Y-110609905D02*
X95316667Y-110133714D01*
X95602381Y-110705143D02*
X94602381Y-110371810D01*
X95602381Y-110038476D01*
X51072005Y-146423581D02*
X51072005Y-145423581D01*
X51452958Y-145423581D01*
X51548196Y-145471200D01*
X51595815Y-145518819D01*
X51643434Y-145614057D01*
X51643434Y-145756914D01*
X51595815Y-145852152D01*
X51548196Y-145899771D01*
X51452958Y-145947390D01*
X51072005Y-145947390D01*
X51976767Y-145423581D02*
X52595815Y-145423581D01*
X52262481Y-145804533D01*
X52405339Y-145804533D01*
X52500577Y-145852152D01*
X52548196Y-145899771D01*
X52595815Y-145995010D01*
X52595815Y-146233105D01*
X52548196Y-146328343D01*
X52500577Y-146375962D01*
X52405339Y-146423581D01*
X52119624Y-146423581D01*
X52024386Y-146375962D01*
X51976767Y-146328343D01*
X72947671Y-114530580D02*
X72947671Y-114863914D01*
X73471481Y-114863914D02*
X72471481Y-114863914D01*
X72471481Y-114387723D01*
X72471481Y-114149628D02*
X72471481Y-113578199D01*
X73471481Y-113863914D02*
X72471481Y-113863914D01*
X73471481Y-113244866D02*
X72471481Y-113244866D01*
X72471481Y-113006771D01*
X72519100Y-112863913D01*
X72614338Y-112768675D01*
X72709576Y-112721056D01*
X72900052Y-112673437D01*
X73042910Y-112673437D01*
X73233386Y-112721056D01*
X73328624Y-112768675D01*
X73423862Y-112863913D01*
X73471481Y-113006771D01*
X73471481Y-113244866D01*
X73471481Y-112244866D02*
X72471481Y-112244866D01*
X73471481Y-111244866D02*
X73471481Y-111816295D01*
X73471481Y-111530581D02*
X72471481Y-111530581D01*
X72614338Y-111625819D01*
X72709576Y-111721057D01*
X72757195Y-111816295D01*
X71392005Y-124960581D02*
X71392005Y-123960581D01*
X71772958Y-123960581D01*
X71868196Y-124008200D01*
X71915815Y-124055819D01*
X71963434Y-124151057D01*
X71963434Y-124293914D01*
X71915815Y-124389152D01*
X71868196Y-124436771D01*
X71772958Y-124484390D01*
X71392005Y-124484390D01*
X72344386Y-124055819D02*
X72392005Y-124008200D01*
X72487243Y-123960581D01*
X72725339Y-123960581D01*
X72820577Y-124008200D01*
X72868196Y-124055819D01*
X72915815Y-124151057D01*
X72915815Y-124246295D01*
X72868196Y-124389152D01*
X72296767Y-124960581D01*
X72915815Y-124960581D01*
X69336195Y-142248581D02*
X69336195Y-143058105D01*
X69383814Y-143153343D01*
X69431433Y-143200962D01*
X69526671Y-143248581D01*
X69717148Y-143248581D01*
X69812386Y-143200962D01*
X69860005Y-143153343D01*
X69907624Y-143058105D01*
X69907624Y-142248581D01*
X70907624Y-143248581D02*
X70336195Y-143248581D01*
X70621909Y-143248581D02*
X70621909Y-142248581D01*
X70526671Y-142391438D01*
X70431433Y-142486676D01*
X70336195Y-142534295D01*
X67836005Y-122420581D02*
X67836005Y-121420581D01*
X68216958Y-121420581D01*
X68312196Y-121468200D01*
X68359815Y-121515819D01*
X68407434Y-121611057D01*
X68407434Y-121753914D01*
X68359815Y-121849152D01*
X68312196Y-121896771D01*
X68216958Y-121944390D01*
X67836005Y-121944390D01*
X69264577Y-121753914D02*
X69264577Y-122420581D01*
X69026481Y-121372962D02*
X68788386Y-122087248D01*
X69407434Y-122087248D01*
X76446605Y-146423581D02*
X76446605Y-145423581D01*
X76827558Y-145423581D01*
X76922796Y-145471200D01*
X76970415Y-145518819D01*
X77018034Y-145614057D01*
X77018034Y-145756914D01*
X76970415Y-145852152D01*
X76922796Y-145899771D01*
X76827558Y-145947390D01*
X76446605Y-145947390D01*
X77970415Y-146423581D02*
X77398986Y-146423581D01*
X77684700Y-146423581D02*
X77684700Y-145423581D01*
X77589462Y-145566438D01*
X77494224Y-145661676D01*
X77398986Y-145709295D01*
X65930862Y-120253533D02*
X65978481Y-120110676D01*
X65978481Y-119872580D01*
X65930862Y-119777342D01*
X65883243Y-119729723D01*
X65788005Y-119682104D01*
X65692767Y-119682104D01*
X65597529Y-119729723D01*
X65549910Y-119777342D01*
X65502290Y-119872580D01*
X65454671Y-120063057D01*
X65407052Y-120158295D01*
X65359433Y-120205914D01*
X65264195Y-120253533D01*
X65168957Y-120253533D01*
X65073719Y-120205914D01*
X65026100Y-120158295D01*
X64978481Y-120063057D01*
X64978481Y-119824961D01*
X65026100Y-119682104D01*
X64978481Y-119348771D02*
X65978481Y-119110676D01*
X65264195Y-118920199D01*
X65978481Y-118729723D01*
X64978481Y-118491628D01*
X65978481Y-117586866D02*
X65978481Y-118158295D01*
X65978481Y-117872581D02*
X64978481Y-117872581D01*
X65121338Y-117967819D01*
X65216576Y-118063057D01*
X65264195Y-118158295D01*
X54788381Y-55094095D02*
X53788381Y-55094095D01*
X53788381Y-54713142D01*
X53836000Y-54617904D01*
X53883619Y-54570285D01*
X53978857Y-54522666D01*
X54121714Y-54522666D01*
X54216952Y-54570285D01*
X54264571Y-54617904D01*
X54312190Y-54713142D01*
X54312190Y-55094095D01*
X54788381Y-53570285D02*
X54788381Y-54141714D01*
X54788381Y-53856000D02*
X53788381Y-53856000D01*
X53931238Y-53951238D01*
X54026476Y-54046476D01*
X54074095Y-54141714D01*
X64389143Y-53272571D02*
X64389143Y-54272571D01*
X63746286Y-53272571D02*
X63746286Y-54058286D01*
X63817714Y-54201143D01*
X63960572Y-54272571D01*
X64174857Y-54272571D01*
X64317714Y-54201143D01*
X64389143Y-54129714D01*
X65103429Y-54272571D02*
X65103429Y-52772571D01*
X65674857Y-52772571D01*
X65817715Y-52844000D01*
X65889143Y-52915429D01*
X65960572Y-53058286D01*
X65960572Y-53272571D01*
X65889143Y-53415429D01*
X65817715Y-53486857D01*
X65674857Y-53558286D01*
X65103429Y-53558286D01*
X67389143Y-54272571D02*
X66532000Y-54272571D01*
X66960572Y-54272571D02*
X66960572Y-52772571D01*
X66817715Y-52986857D01*
X66674857Y-53129714D01*
X66532000Y-53201143D01*
X56603428Y-51304000D02*
X57317714Y-51304000D01*
X56460571Y-51732571D02*
X56960571Y-50232571D01*
X57460571Y-51732571D01*
X58817714Y-51732571D02*
X58317714Y-51018286D01*
X57960571Y-51732571D02*
X57960571Y-50232571D01*
X58531999Y-50232571D01*
X58674857Y-50304000D01*
X58746285Y-50375429D01*
X58817714Y-50518286D01*
X58817714Y-50732571D01*
X58746285Y-50875429D01*
X58674857Y-50946857D01*
X58531999Y-51018286D01*
X57960571Y-51018286D01*
X59460571Y-51732571D02*
X59460571Y-50232571D01*
X59817714Y-50232571D01*
X60031999Y-50304000D01*
X60174857Y-50446857D01*
X60246285Y-50589714D01*
X60317714Y-50875429D01*
X60317714Y-51089714D01*
X60246285Y-51375429D01*
X60174857Y-51518286D01*
X60031999Y-51661143D01*
X59817714Y-51732571D01*
X59460571Y-51732571D01*
X60960571Y-50232571D02*
X60960571Y-51446857D01*
X61031999Y-51589714D01*
X61103428Y-51661143D01*
X61246285Y-51732571D01*
X61531999Y-51732571D01*
X61674857Y-51661143D01*
X61746285Y-51589714D01*
X61817714Y-51446857D01*
X61817714Y-50232571D01*
X62532000Y-51732571D02*
X62532000Y-50232571D01*
X63103428Y-50232571D01*
X63246286Y-50304000D01*
X63317714Y-50375429D01*
X63389143Y-50518286D01*
X63389143Y-50732571D01*
X63317714Y-50875429D01*
X63246286Y-50946857D01*
X63103428Y-51018286D01*
X62532000Y-51018286D01*
X64889143Y-51732571D02*
X64389143Y-51018286D01*
X64032000Y-51732571D02*
X64032000Y-50232571D01*
X64603428Y-50232571D01*
X64746286Y-50304000D01*
X64817714Y-50375429D01*
X64889143Y-50518286D01*
X64889143Y-50732571D01*
X64817714Y-50875429D01*
X64746286Y-50946857D01*
X64603428Y-51018286D01*
X64032000Y-51018286D01*
X65817714Y-50232571D02*
X66103428Y-50232571D01*
X66246286Y-50304000D01*
X66389143Y-50446857D01*
X66460571Y-50732571D01*
X66460571Y-51232571D01*
X66389143Y-51518286D01*
X66246286Y-51661143D01*
X66103428Y-51732571D01*
X65817714Y-51732571D01*
X65674857Y-51661143D01*
X65532000Y-51518286D01*
X65460571Y-51232571D01*
X65460571Y-50732571D01*
X65532000Y-50446857D01*
X65674857Y-50304000D01*
X65817714Y-50232571D01*
X67103429Y-51732571D02*
X67103429Y-50232571D01*
X67603429Y-51304000D01*
X68103429Y-50232571D01*
X68103429Y-51732571D01*
X68817715Y-51732571D02*
X68817715Y-50232571D01*
X69532001Y-51732571D02*
X69532001Y-50232571D01*
X70389144Y-51732571D01*
X70389144Y-50232571D01*
X71103430Y-51732571D02*
X71103430Y-50232571D01*
X71817716Y-51161143D02*
X72960573Y-51161143D01*
X74317716Y-50232571D02*
X74032002Y-50232571D01*
X73889145Y-50304000D01*
X73817716Y-50375429D01*
X73674859Y-50589714D01*
X73603430Y-50875429D01*
X73603430Y-51446857D01*
X73674859Y-51589714D01*
X73746287Y-51661143D01*
X73889145Y-51732571D01*
X74174859Y-51732571D01*
X74317716Y-51661143D01*
X74389145Y-51589714D01*
X74460573Y-51446857D01*
X74460573Y-51089714D01*
X74389145Y-50946857D01*
X74317716Y-50875429D01*
X74174859Y-50804000D01*
X73889145Y-50804000D01*
X73746287Y-50875429D01*
X73674859Y-50946857D01*
X73603430Y-51089714D01*
X51077905Y-92166381D02*
X51077905Y-91166381D01*
X51458858Y-91166381D01*
X51554096Y-91214000D01*
X51601715Y-91261619D01*
X51649334Y-91356857D01*
X51649334Y-91499714D01*
X51601715Y-91594952D01*
X51554096Y-91642571D01*
X51458858Y-91690190D01*
X51077905Y-91690190D01*
X52030286Y-91261619D02*
X52077905Y-91214000D01*
X52173143Y-91166381D01*
X52411239Y-91166381D01*
X52506477Y-91214000D01*
X52554096Y-91261619D01*
X52601715Y-91356857D01*
X52601715Y-91452095D01*
X52554096Y-91594952D01*
X51982667Y-92166381D01*
X52601715Y-92166381D01*
X76223905Y-61646381D02*
X76223905Y-60646381D01*
X76604858Y-60646381D01*
X76700096Y-60694000D01*
X76747715Y-60741619D01*
X76795334Y-60836857D01*
X76795334Y-60979714D01*
X76747715Y-61074952D01*
X76700096Y-61122571D01*
X76604858Y-61170190D01*
X76223905Y-61170190D01*
X77128667Y-60646381D02*
X77747715Y-60646381D01*
X77414381Y-61027333D01*
X77557239Y-61027333D01*
X77652477Y-61074952D01*
X77700096Y-61122571D01*
X77747715Y-61217810D01*
X77747715Y-61455905D01*
X77700096Y-61551143D01*
X77652477Y-61598762D01*
X77557239Y-61646381D01*
X77271524Y-61646381D01*
X77176286Y-61598762D01*
X77128667Y-61551143D01*
X60650524Y-75446000D02*
X60555286Y-75398381D01*
X60412429Y-75398381D01*
X60269571Y-75446000D01*
X60174333Y-75541238D01*
X60126714Y-75636476D01*
X60079095Y-75826952D01*
X60079095Y-75969810D01*
X60126714Y-76160286D01*
X60174333Y-76255524D01*
X60269571Y-76350762D01*
X60412429Y-76398381D01*
X60507667Y-76398381D01*
X60650524Y-76350762D01*
X60698143Y-76303143D01*
X60698143Y-75969810D01*
X60507667Y-75969810D01*
X61079095Y-76350762D02*
X61221952Y-76398381D01*
X61460048Y-76398381D01*
X61555286Y-76350762D01*
X61602905Y-76303143D01*
X61650524Y-76207905D01*
X61650524Y-76112667D01*
X61602905Y-76017429D01*
X61555286Y-75969810D01*
X61460048Y-75922190D01*
X61269571Y-75874571D01*
X61174333Y-75826952D01*
X61126714Y-75779333D01*
X61079095Y-75684095D01*
X61079095Y-75588857D01*
X61126714Y-75493619D01*
X61174333Y-75446000D01*
X61269571Y-75398381D01*
X61507667Y-75398381D01*
X61650524Y-75446000D01*
X62602905Y-76398381D02*
X62031476Y-76398381D01*
X62317190Y-76398381D02*
X62317190Y-75398381D01*
X62221952Y-75541238D01*
X62126714Y-75636476D01*
X62031476Y-75684095D01*
X60650524Y-72906000D02*
X60555286Y-72858381D01*
X60412429Y-72858381D01*
X60269571Y-72906000D01*
X60174333Y-73001238D01*
X60126714Y-73096476D01*
X60079095Y-73286952D01*
X60079095Y-73429810D01*
X60126714Y-73620286D01*
X60174333Y-73715524D01*
X60269571Y-73810762D01*
X60412429Y-73858381D01*
X60507667Y-73858381D01*
X60650524Y-73810762D01*
X60698143Y-73763143D01*
X60698143Y-73429810D01*
X60507667Y-73429810D01*
X61079095Y-73810762D02*
X61221952Y-73858381D01*
X61460048Y-73858381D01*
X61555286Y-73810762D01*
X61602905Y-73763143D01*
X61650524Y-73667905D01*
X61650524Y-73572667D01*
X61602905Y-73477429D01*
X61555286Y-73429810D01*
X61460048Y-73382190D01*
X61269571Y-73334571D01*
X61174333Y-73286952D01*
X61126714Y-73239333D01*
X61079095Y-73144095D01*
X61079095Y-73048857D01*
X61126714Y-72953619D01*
X61174333Y-72906000D01*
X61269571Y-72858381D01*
X61507667Y-72858381D01*
X61650524Y-72906000D01*
X62031476Y-72953619D02*
X62079095Y-72906000D01*
X62174333Y-72858381D01*
X62412429Y-72858381D01*
X62507667Y-72906000D01*
X62555286Y-72953619D01*
X62602905Y-73048857D01*
X62602905Y-73144095D01*
X62555286Y-73286952D01*
X61983857Y-73858381D01*
X62602905Y-73858381D01*
X83423095Y-69452381D02*
X83423095Y-70261905D01*
X83470714Y-70357143D01*
X83518333Y-70404762D01*
X83613571Y-70452381D01*
X83804048Y-70452381D01*
X83899286Y-70404762D01*
X83946905Y-70357143D01*
X83994524Y-70261905D01*
X83994524Y-69452381D01*
X84375476Y-69452381D02*
X84994524Y-69452381D01*
X84661190Y-69833333D01*
X84804048Y-69833333D01*
X84899286Y-69880952D01*
X84946905Y-69928571D01*
X84994524Y-70023810D01*
X84994524Y-70261905D01*
X84946905Y-70357143D01*
X84899286Y-70404762D01*
X84804048Y-70452381D01*
X84518333Y-70452381D01*
X84423095Y-70404762D01*
X84375476Y-70357143D01*
X121094667Y-59657381D02*
X120761333Y-59181190D01*
X120523238Y-59657381D02*
X120523238Y-58657381D01*
X120904191Y-58657381D01*
X120999429Y-58705000D01*
X121047048Y-58752619D01*
X121094667Y-58847857D01*
X121094667Y-58990714D01*
X121047048Y-59085952D01*
X120999429Y-59133571D01*
X120904191Y-59181190D01*
X120523238Y-59181190D01*
X121523238Y-59133571D02*
X121856572Y-59133571D01*
X121999429Y-59657381D02*
X121523238Y-59657381D01*
X121523238Y-58657381D01*
X121999429Y-58657381D01*
X122761334Y-59133571D02*
X122428000Y-59133571D01*
X122428000Y-59657381D02*
X122428000Y-58657381D01*
X122904191Y-58657381D01*
X123428000Y-58657381D02*
X123428000Y-58895476D01*
X123189905Y-58800238D02*
X123428000Y-58895476D01*
X123666096Y-58800238D01*
X123285143Y-59085952D02*
X123428000Y-58895476D01*
X123570858Y-59085952D01*
X124189905Y-58657381D02*
X124189905Y-58895476D01*
X123951810Y-58800238D02*
X124189905Y-58895476D01*
X124428001Y-58800238D01*
X124047048Y-59085952D02*
X124189905Y-58895476D01*
X124332763Y-59085952D01*
X102068381Y-54505905D02*
X102877905Y-54505905D01*
X102973143Y-54458286D01*
X103020762Y-54410667D01*
X103068381Y-54315429D01*
X103068381Y-54124952D01*
X103020762Y-54029714D01*
X102973143Y-53982095D01*
X102877905Y-53934476D01*
X102068381Y-53934476D01*
X102068381Y-53553524D02*
X102068381Y-52886857D01*
X103068381Y-53315429D01*
X103592381Y-61443238D02*
X104592381Y-61109905D01*
X103592381Y-60776571D01*
X104592381Y-60443238D02*
X103592381Y-60443238D01*
X104592381Y-59967048D02*
X103592381Y-59967048D01*
X104592381Y-59395619D01*
X103592381Y-59395619D01*
X106180000Y-61109904D02*
X106132381Y-61205142D01*
X106132381Y-61347999D01*
X106180000Y-61490857D01*
X106275238Y-61586095D01*
X106370476Y-61633714D01*
X106560952Y-61681333D01*
X106703810Y-61681333D01*
X106894286Y-61633714D01*
X106989524Y-61586095D01*
X107084762Y-61490857D01*
X107132381Y-61347999D01*
X107132381Y-61252761D01*
X107084762Y-61109904D01*
X107037143Y-61062285D01*
X106703810Y-61062285D01*
X106703810Y-61252761D01*
X107132381Y-60633714D02*
X106132381Y-60633714D01*
X107132381Y-60062285D01*
X106132381Y-60062285D01*
X107132381Y-59586095D02*
X106132381Y-59586095D01*
X106132381Y-59348000D01*
X106180000Y-59205142D01*
X106275238Y-59109904D01*
X106370476Y-59062285D01*
X106560952Y-59014666D01*
X106703810Y-59014666D01*
X106894286Y-59062285D01*
X106989524Y-59109904D01*
X107084762Y-59205142D01*
X107132381Y-59348000D01*
X107132381Y-59586095D01*
X109624762Y-61562286D02*
X109672381Y-61419429D01*
X109672381Y-61181333D01*
X109624762Y-61086095D01*
X109577143Y-61038476D01*
X109481905Y-60990857D01*
X109386667Y-60990857D01*
X109291429Y-61038476D01*
X109243810Y-61086095D01*
X109196190Y-61181333D01*
X109148571Y-61371810D01*
X109100952Y-61467048D01*
X109053333Y-61514667D01*
X108958095Y-61562286D01*
X108862857Y-61562286D01*
X108767619Y-61514667D01*
X108720000Y-61467048D01*
X108672381Y-61371810D01*
X108672381Y-61133714D01*
X108720000Y-60990857D01*
X109672381Y-60562286D02*
X108672381Y-60562286D01*
X108672381Y-60324191D01*
X108720000Y-60181333D01*
X108815238Y-60086095D01*
X108910476Y-60038476D01*
X109100952Y-59990857D01*
X109243810Y-59990857D01*
X109434286Y-60038476D01*
X109529524Y-60086095D01*
X109624762Y-60181333D01*
X109672381Y-60324191D01*
X109672381Y-60562286D01*
X109386667Y-59609905D02*
X109386667Y-59133714D01*
X109672381Y-59705143D02*
X108672381Y-59371810D01*
X109672381Y-59038476D01*
X112164762Y-61538476D02*
X112212381Y-61395619D01*
X112212381Y-61157523D01*
X112164762Y-61062285D01*
X112117143Y-61014666D01*
X112021905Y-60967047D01*
X111926667Y-60967047D01*
X111831429Y-61014666D01*
X111783810Y-61062285D01*
X111736190Y-61157523D01*
X111688571Y-61348000D01*
X111640952Y-61443238D01*
X111593333Y-61490857D01*
X111498095Y-61538476D01*
X111402857Y-61538476D01*
X111307619Y-61490857D01*
X111260000Y-61443238D01*
X111212381Y-61348000D01*
X111212381Y-61109904D01*
X111260000Y-60967047D01*
X112117143Y-59967047D02*
X112164762Y-60014666D01*
X112212381Y-60157523D01*
X112212381Y-60252761D01*
X112164762Y-60395619D01*
X112069524Y-60490857D01*
X111974286Y-60538476D01*
X111783810Y-60586095D01*
X111640952Y-60586095D01*
X111450476Y-60538476D01*
X111355238Y-60490857D01*
X111260000Y-60395619D01*
X111212381Y-60252761D01*
X111212381Y-60157523D01*
X111260000Y-60014666D01*
X111307619Y-59967047D01*
X112212381Y-59062285D02*
X112212381Y-59538476D01*
X111212381Y-59538476D01*
X135596334Y-69182381D02*
X135263000Y-68706190D01*
X135024905Y-69182381D02*
X135024905Y-68182381D01*
X135405858Y-68182381D01*
X135501096Y-68230000D01*
X135548715Y-68277619D01*
X135596334Y-68372857D01*
X135596334Y-68515714D01*
X135548715Y-68610952D01*
X135501096Y-68658571D01*
X135405858Y-68706190D01*
X135024905Y-68706190D01*
X135929667Y-68182381D02*
X136548715Y-68182381D01*
X136215381Y-68563333D01*
X136358239Y-68563333D01*
X136453477Y-68610952D01*
X136501096Y-68658571D01*
X136548715Y-68753810D01*
X136548715Y-68991905D01*
X136501096Y-69087143D01*
X136453477Y-69134762D01*
X136358239Y-69182381D01*
X136072524Y-69182381D01*
X135977286Y-69134762D01*
X135929667Y-69087143D01*
X124071334Y-85851143D02*
X124023715Y-85898762D01*
X123880858Y-85946381D01*
X123785620Y-85946381D01*
X123642762Y-85898762D01*
X123547524Y-85803524D01*
X123499905Y-85708286D01*
X123452286Y-85517810D01*
X123452286Y-85374952D01*
X123499905Y-85184476D01*
X123547524Y-85089238D01*
X123642762Y-84994000D01*
X123785620Y-84946381D01*
X123880858Y-84946381D01*
X124023715Y-84994000D01*
X124071334Y-85041619D01*
X125023715Y-85946381D02*
X124452286Y-85946381D01*
X124738000Y-85946381D02*
X124738000Y-84946381D01*
X124642762Y-85089238D01*
X124547524Y-85184476D01*
X124452286Y-85232095D01*
X84177143Y-54894666D02*
X84224762Y-54942285D01*
X84272381Y-55085142D01*
X84272381Y-55180380D01*
X84224762Y-55323238D01*
X84129524Y-55418476D01*
X84034286Y-55466095D01*
X83843810Y-55513714D01*
X83700952Y-55513714D01*
X83510476Y-55466095D01*
X83415238Y-55418476D01*
X83320000Y-55323238D01*
X83272381Y-55180380D01*
X83272381Y-55085142D01*
X83320000Y-54942285D01*
X83367619Y-54894666D01*
X83367619Y-54513714D02*
X83320000Y-54466095D01*
X83272381Y-54370857D01*
X83272381Y-54132761D01*
X83320000Y-54037523D01*
X83367619Y-53989904D01*
X83462857Y-53942285D01*
X83558095Y-53942285D01*
X83700952Y-53989904D01*
X84272381Y-54561333D01*
X84272381Y-53942285D01*
X100090143Y-54646666D02*
X100137762Y-54694285D01*
X100185381Y-54837142D01*
X100185381Y-54932380D01*
X100137762Y-55075238D01*
X100042524Y-55170476D01*
X99947286Y-55218095D01*
X99756810Y-55265714D01*
X99613952Y-55265714D01*
X99423476Y-55218095D01*
X99328238Y-55170476D01*
X99233000Y-55075238D01*
X99185381Y-54932380D01*
X99185381Y-54837142D01*
X99233000Y-54694285D01*
X99280619Y-54646666D01*
X99185381Y-54313333D02*
X99185381Y-53694285D01*
X99566333Y-54027619D01*
X99566333Y-53884761D01*
X99613952Y-53789523D01*
X99661571Y-53741904D01*
X99756810Y-53694285D01*
X99994905Y-53694285D01*
X100090143Y-53741904D01*
X100137762Y-53789523D01*
X100185381Y-53884761D01*
X100185381Y-54170476D01*
X100137762Y-54265714D01*
X100090143Y-54313333D01*
X118992597Y-80691422D02*
X119040216Y-80739041D01*
X119087835Y-80881898D01*
X119087835Y-80977136D01*
X119040216Y-81119994D01*
X118944978Y-81215232D01*
X118849740Y-81262851D01*
X118659264Y-81310470D01*
X118516406Y-81310470D01*
X118325930Y-81262851D01*
X118230692Y-81215232D01*
X118135454Y-81119994D01*
X118087835Y-80977136D01*
X118087835Y-80881898D01*
X118135454Y-80739041D01*
X118183073Y-80691422D01*
X118421168Y-79834279D02*
X119087835Y-79834279D01*
X118040216Y-80072375D02*
X118754502Y-80310470D01*
X118754502Y-79691422D01*
X115590143Y-54291666D02*
X115637762Y-54339285D01*
X115685381Y-54482142D01*
X115685381Y-54577380D01*
X115637762Y-54720238D01*
X115542524Y-54815476D01*
X115447286Y-54863095D01*
X115256810Y-54910714D01*
X115113952Y-54910714D01*
X114923476Y-54863095D01*
X114828238Y-54815476D01*
X114733000Y-54720238D01*
X114685381Y-54577380D01*
X114685381Y-54482142D01*
X114733000Y-54339285D01*
X114780619Y-54291666D01*
X114685381Y-53386904D02*
X114685381Y-53863095D01*
X115161571Y-53910714D01*
X115113952Y-53863095D01*
X115066333Y-53767857D01*
X115066333Y-53529761D01*
X115113952Y-53434523D01*
X115161571Y-53386904D01*
X115256810Y-53339285D01*
X115494905Y-53339285D01*
X115590143Y-53386904D01*
X115637762Y-53434523D01*
X115685381Y-53529761D01*
X115685381Y-53767857D01*
X115637762Y-53863095D01*
X115590143Y-53910714D01*
X131691334Y-73024143D02*
X131643715Y-73071762D01*
X131500858Y-73119381D01*
X131405620Y-73119381D01*
X131262762Y-73071762D01*
X131167524Y-72976524D01*
X131119905Y-72881286D01*
X131072286Y-72690810D01*
X131072286Y-72547952D01*
X131119905Y-72357476D01*
X131167524Y-72262238D01*
X131262762Y-72167000D01*
X131405620Y-72119381D01*
X131500858Y-72119381D01*
X131643715Y-72167000D01*
X131691334Y-72214619D01*
X132548477Y-72119381D02*
X132358000Y-72119381D01*
X132262762Y-72167000D01*
X132215143Y-72214619D01*
X132119905Y-72357476D01*
X132072286Y-72547952D01*
X132072286Y-72928905D01*
X132119905Y-73024143D01*
X132167524Y-73071762D01*
X132262762Y-73119381D01*
X132453239Y-73119381D01*
X132548477Y-73071762D01*
X132596096Y-73024143D01*
X132643715Y-72928905D01*
X132643715Y-72690810D01*
X132596096Y-72595571D01*
X132548477Y-72547952D01*
X132453239Y-72500333D01*
X132262762Y-72500333D01*
X132167524Y-72547952D01*
X132119905Y-72595571D01*
X132072286Y-72690810D01*
X130071905Y-78707381D02*
X130071905Y-77707381D01*
X130310000Y-77707381D01*
X130452858Y-77755000D01*
X130548096Y-77850238D01*
X130595715Y-77945476D01*
X130643334Y-78135952D01*
X130643334Y-78278810D01*
X130595715Y-78469286D01*
X130548096Y-78564524D01*
X130452858Y-78659762D01*
X130310000Y-78707381D01*
X130071905Y-78707381D01*
X131595715Y-78707381D02*
X131024286Y-78707381D01*
X131310000Y-78707381D02*
X131310000Y-77707381D01*
X131214762Y-77850238D01*
X131119524Y-77945476D01*
X131024286Y-77993095D01*
X140111075Y-74972381D02*
X140111075Y-73972381D01*
X140682504Y-74972381D02*
X140253932Y-74400952D01*
X140682504Y-73972381D02*
X140111075Y-74543810D01*
X133634885Y-74736667D02*
X134111076Y-74736667D01*
X133539647Y-75022381D02*
X133872980Y-74022381D01*
X134206314Y-75022381D01*
X142952381Y-85738095D02*
X141952381Y-85738095D01*
X141952381Y-85357142D01*
X142000000Y-85261904D01*
X142047619Y-85214285D01*
X142142857Y-85166666D01*
X142285714Y-85166666D01*
X142380952Y-85214285D01*
X142428571Y-85261904D01*
X142476190Y-85357142D01*
X142476190Y-85738095D01*
X142952381Y-84214285D02*
X142952381Y-84785714D01*
X142952381Y-84500000D02*
X141952381Y-84500000D01*
X142095238Y-84595238D01*
X142190476Y-84690476D01*
X142238095Y-84785714D01*
X137166362Y-81723619D02*
X137071124Y-81676000D01*
X136975886Y-81580762D01*
X136833029Y-81437905D01*
X136737790Y-81390286D01*
X136642552Y-81390286D01*
X136690171Y-81628381D02*
X136594933Y-81580762D01*
X136499695Y-81485524D01*
X136452076Y-81295048D01*
X136452076Y-80961714D01*
X136499695Y-80771238D01*
X136594933Y-80676000D01*
X136690171Y-80628381D01*
X136880648Y-80628381D01*
X136975886Y-80676000D01*
X137071124Y-80771238D01*
X137118743Y-80961714D01*
X137118743Y-81295048D01*
X137071124Y-81485524D01*
X136975886Y-81580762D01*
X136880648Y-81628381D01*
X136690171Y-81628381D01*
X138071124Y-81628381D02*
X137499695Y-81628381D01*
X137785409Y-81628381D02*
X137785409Y-80628381D01*
X137690171Y-80771238D01*
X137594933Y-80866476D01*
X137499695Y-80914095D01*
X124261334Y-82390381D02*
X123928000Y-81914190D01*
X123689905Y-82390381D02*
X123689905Y-81390381D01*
X124070858Y-81390381D01*
X124166096Y-81438000D01*
X124213715Y-81485619D01*
X124261334Y-81580857D01*
X124261334Y-81723714D01*
X124213715Y-81818952D01*
X124166096Y-81866571D01*
X124070858Y-81914190D01*
X123689905Y-81914190D01*
X125213715Y-82390381D02*
X124642286Y-82390381D01*
X124928000Y-82390381D02*
X124928000Y-81390381D01*
X124832762Y-81533238D01*
X124737524Y-81628476D01*
X124642286Y-81676095D01*
X135596334Y-66642381D02*
X135263000Y-66166190D01*
X135024905Y-66642381D02*
X135024905Y-65642381D01*
X135405858Y-65642381D01*
X135501096Y-65690000D01*
X135548715Y-65737619D01*
X135596334Y-65832857D01*
X135596334Y-65975714D01*
X135548715Y-66070952D01*
X135501096Y-66118571D01*
X135405858Y-66166190D01*
X135024905Y-66166190D01*
X135977286Y-65737619D02*
X136024905Y-65690000D01*
X136120143Y-65642381D01*
X136358239Y-65642381D01*
X136453477Y-65690000D01*
X136501096Y-65737619D01*
X136548715Y-65832857D01*
X136548715Y-65928095D01*
X136501096Y-66070952D01*
X135929667Y-66642381D01*
X136548715Y-66642381D01*
X106487835Y-80686661D02*
X107297359Y-80686661D01*
X107392597Y-80639042D01*
X107440216Y-80591423D01*
X107487835Y-80496185D01*
X107487835Y-80305708D01*
X107440216Y-80210470D01*
X107392597Y-80162851D01*
X107297359Y-80115232D01*
X106487835Y-80115232D01*
X106487835Y-79162851D02*
X106487835Y-79639042D01*
X106964025Y-79686661D01*
X106916406Y-79639042D01*
X106868787Y-79543804D01*
X106868787Y-79305708D01*
X106916406Y-79210470D01*
X106964025Y-79162851D01*
X107059264Y-79115232D01*
X107297359Y-79115232D01*
X107392597Y-79162851D01*
X107440216Y-79210470D01*
X107487835Y-79305708D01*
X107487835Y-79543804D01*
X107440216Y-79639042D01*
X107392597Y-79686661D01*
X85558381Y-54505905D02*
X86367905Y-54505905D01*
X86463143Y-54458286D01*
X86510762Y-54410667D01*
X86558381Y-54315429D01*
X86558381Y-54124952D01*
X86510762Y-54029714D01*
X86463143Y-53982095D01*
X86367905Y-53934476D01*
X85558381Y-53934476D01*
X85558381Y-53029714D02*
X85558381Y-53220191D01*
X85606000Y-53315429D01*
X85653619Y-53363048D01*
X85796476Y-53458286D01*
X85986952Y-53505905D01*
X86367905Y-53505905D01*
X86463143Y-53458286D01*
X86510762Y-53410667D01*
X86558381Y-53315429D01*
X86558381Y-53124952D01*
X86510762Y-53029714D01*
X86463143Y-52982095D01*
X86367905Y-52934476D01*
X86129810Y-52934476D01*
X86034571Y-52982095D01*
X85986952Y-53029714D01*
X85939333Y-53124952D01*
X85939333Y-53315429D01*
X85986952Y-53410667D01*
X86034571Y-53458286D01*
X86129810Y-53505905D01*
X87082381Y-61443238D02*
X88082381Y-61109905D01*
X87082381Y-60776571D01*
X88082381Y-60443238D02*
X87082381Y-60443238D01*
X88082381Y-59967048D02*
X87082381Y-59967048D01*
X88082381Y-59395619D01*
X87082381Y-59395619D01*
X89670000Y-61109904D02*
X89622381Y-61205142D01*
X89622381Y-61347999D01*
X89670000Y-61490857D01*
X89765238Y-61586095D01*
X89860476Y-61633714D01*
X90050952Y-61681333D01*
X90193810Y-61681333D01*
X90384286Y-61633714D01*
X90479524Y-61586095D01*
X90574762Y-61490857D01*
X90622381Y-61347999D01*
X90622381Y-61252761D01*
X90574762Y-61109904D01*
X90527143Y-61062285D01*
X90193810Y-61062285D01*
X90193810Y-61252761D01*
X90622381Y-60633714D02*
X89622381Y-60633714D01*
X90622381Y-60062285D01*
X89622381Y-60062285D01*
X90622381Y-59586095D02*
X89622381Y-59586095D01*
X89622381Y-59348000D01*
X89670000Y-59205142D01*
X89765238Y-59109904D01*
X89860476Y-59062285D01*
X90050952Y-59014666D01*
X90193810Y-59014666D01*
X90384286Y-59062285D01*
X90479524Y-59109904D01*
X90574762Y-59205142D01*
X90622381Y-59348000D01*
X90622381Y-59586095D01*
X93114762Y-61538476D02*
X93162381Y-61395619D01*
X93162381Y-61157523D01*
X93114762Y-61062285D01*
X93067143Y-61014666D01*
X92971905Y-60967047D01*
X92876667Y-60967047D01*
X92781429Y-61014666D01*
X92733810Y-61062285D01*
X92686190Y-61157523D01*
X92638571Y-61348000D01*
X92590952Y-61443238D01*
X92543333Y-61490857D01*
X92448095Y-61538476D01*
X92352857Y-61538476D01*
X92257619Y-61490857D01*
X92210000Y-61443238D01*
X92162381Y-61348000D01*
X92162381Y-61109904D01*
X92210000Y-60967047D01*
X93067143Y-59967047D02*
X93114762Y-60014666D01*
X93162381Y-60157523D01*
X93162381Y-60252761D01*
X93114762Y-60395619D01*
X93019524Y-60490857D01*
X92924286Y-60538476D01*
X92733810Y-60586095D01*
X92590952Y-60586095D01*
X92400476Y-60538476D01*
X92305238Y-60490857D01*
X92210000Y-60395619D01*
X92162381Y-60252761D01*
X92162381Y-60157523D01*
X92210000Y-60014666D01*
X92257619Y-59967047D01*
X93162381Y-59062285D02*
X93162381Y-59538476D01*
X92162381Y-59538476D01*
X95654762Y-61562286D02*
X95702381Y-61419429D01*
X95702381Y-61181333D01*
X95654762Y-61086095D01*
X95607143Y-61038476D01*
X95511905Y-60990857D01*
X95416667Y-60990857D01*
X95321429Y-61038476D01*
X95273810Y-61086095D01*
X95226190Y-61181333D01*
X95178571Y-61371810D01*
X95130952Y-61467048D01*
X95083333Y-61514667D01*
X94988095Y-61562286D01*
X94892857Y-61562286D01*
X94797619Y-61514667D01*
X94750000Y-61467048D01*
X94702381Y-61371810D01*
X94702381Y-61133714D01*
X94750000Y-60990857D01*
X95702381Y-60562286D02*
X94702381Y-60562286D01*
X94702381Y-60324191D01*
X94750000Y-60181333D01*
X94845238Y-60086095D01*
X94940476Y-60038476D01*
X95130952Y-59990857D01*
X95273810Y-59990857D01*
X95464286Y-60038476D01*
X95559524Y-60086095D01*
X95654762Y-60181333D01*
X95702381Y-60324191D01*
X95702381Y-60562286D01*
X95416667Y-59609905D02*
X95416667Y-59133714D01*
X95702381Y-59705143D02*
X94702381Y-59371810D01*
X95702381Y-59038476D01*
X142952381Y-74738095D02*
X141952381Y-74738095D01*
X141952381Y-74357142D01*
X142000000Y-74261904D01*
X142047619Y-74214285D01*
X142142857Y-74166666D01*
X142285714Y-74166666D01*
X142380952Y-74214285D01*
X142428571Y-74261904D01*
X142476190Y-74357142D01*
X142476190Y-74738095D01*
X142047619Y-73785714D02*
X142000000Y-73738095D01*
X141952381Y-73642857D01*
X141952381Y-73404761D01*
X142000000Y-73309523D01*
X142047619Y-73261904D01*
X142142857Y-73214285D01*
X142238095Y-73214285D01*
X142380952Y-73261904D01*
X142952381Y-73833333D01*
X142952381Y-73214285D01*
X117292381Y-65423095D02*
X116292381Y-65423095D01*
X116292381Y-65042142D01*
X116340000Y-64946904D01*
X116387619Y-64899285D01*
X116482857Y-64851666D01*
X116625714Y-64851666D01*
X116720952Y-64899285D01*
X116768571Y-64946904D01*
X116816190Y-65042142D01*
X116816190Y-65423095D01*
X116292381Y-64518333D02*
X116292381Y-63899285D01*
X116673333Y-64232619D01*
X116673333Y-64089761D01*
X116720952Y-63994523D01*
X116768571Y-63946904D01*
X116863810Y-63899285D01*
X117101905Y-63899285D01*
X117197143Y-63946904D01*
X117244762Y-63994523D01*
X117292381Y-64089761D01*
X117292381Y-64375476D01*
X117244762Y-64470714D01*
X117197143Y-64518333D01*
X130008334Y-61467143D02*
X129960715Y-61514762D01*
X129817858Y-61562381D01*
X129722620Y-61562381D01*
X129579762Y-61514762D01*
X129484524Y-61419524D01*
X129436905Y-61324286D01*
X129389286Y-61133810D01*
X129389286Y-60990952D01*
X129436905Y-60800476D01*
X129484524Y-60705238D01*
X129579762Y-60610000D01*
X129722620Y-60562381D01*
X129817858Y-60562381D01*
X129960715Y-60610000D01*
X130008334Y-60657619D01*
X130341667Y-60562381D02*
X131008334Y-60562381D01*
X130579762Y-61562381D01*
X127261881Y-95884166D02*
X126785690Y-96217500D01*
X127261881Y-96455595D02*
X126261881Y-96455595D01*
X126261881Y-96074642D01*
X126309500Y-95979404D01*
X126357119Y-95931785D01*
X126452357Y-95884166D01*
X126595214Y-95884166D01*
X126690452Y-95931785D01*
X126738071Y-95979404D01*
X126785690Y-96074642D01*
X126785690Y-96455595D01*
X126595214Y-95027023D02*
X127261881Y-95027023D01*
X126214262Y-95265119D02*
X126928548Y-95503214D01*
X126928548Y-94884166D01*
X148232762Y-69745905D02*
X148280381Y-69603048D01*
X148280381Y-69364952D01*
X148232762Y-69269714D01*
X148185143Y-69222095D01*
X148089905Y-69174476D01*
X147994667Y-69174476D01*
X147899429Y-69222095D01*
X147851810Y-69269714D01*
X147804190Y-69364952D01*
X147756571Y-69555429D01*
X147708952Y-69650667D01*
X147661333Y-69698286D01*
X147566095Y-69745905D01*
X147470857Y-69745905D01*
X147375619Y-69698286D01*
X147328000Y-69650667D01*
X147280381Y-69555429D01*
X147280381Y-69317333D01*
X147328000Y-69174476D01*
X147375619Y-68793524D02*
X147328000Y-68745905D01*
X147280381Y-68650667D01*
X147280381Y-68412571D01*
X147328000Y-68317333D01*
X147375619Y-68269714D01*
X147470857Y-68222095D01*
X147566095Y-68222095D01*
X147708952Y-68269714D01*
X148280381Y-68841143D01*
X148280381Y-68222095D01*
X146752381Y-61209524D02*
X145752381Y-61209524D01*
X145752381Y-60828571D01*
X145800000Y-60733333D01*
X145847619Y-60685714D01*
X145942857Y-60638095D01*
X146085714Y-60638095D01*
X146180952Y-60685714D01*
X146228571Y-60733333D01*
X146276190Y-60828571D01*
X146276190Y-61209524D01*
X146847619Y-60447619D02*
X146847619Y-59685714D01*
X146752381Y-59447619D02*
X145752381Y-59447619D01*
X145847619Y-59019048D02*
X145800000Y-58971429D01*
X145752381Y-58876191D01*
X145752381Y-58638095D01*
X145800000Y-58542857D01*
X145847619Y-58495238D01*
X145942857Y-58447619D01*
X146038095Y-58447619D01*
X146180952Y-58495238D01*
X146752381Y-59066667D01*
X146752381Y-58447619D01*
X146657143Y-57447619D02*
X146704762Y-57495238D01*
X146752381Y-57638095D01*
X146752381Y-57733333D01*
X146704762Y-57876191D01*
X146609524Y-57971429D01*
X146514286Y-58019048D01*
X146323810Y-58066667D01*
X146180952Y-58066667D01*
X145990476Y-58019048D01*
X145895238Y-57971429D01*
X145800000Y-57876191D01*
X145752381Y-57733333D01*
X145752381Y-57638095D01*
X145800000Y-57495238D01*
X145847619Y-57447619D01*
X145800000Y-56495238D02*
X145752381Y-56590476D01*
X145752381Y-56733333D01*
X145800000Y-56876191D01*
X145895238Y-56971429D01*
X145990476Y-57019048D01*
X146180952Y-57066667D01*
X146323810Y-57066667D01*
X146514286Y-57019048D01*
X146609524Y-56971429D01*
X146704762Y-56876191D01*
X146752381Y-56733333D01*
X146752381Y-56638095D01*
X146704762Y-56495238D01*
X146657143Y-56447619D01*
X146323810Y-56447619D01*
X146323810Y-56638095D01*
X146752381Y-56019048D02*
X145752381Y-56019048D01*
X145752381Y-55638095D01*
X145800000Y-55542857D01*
X145847619Y-55495238D01*
X145942857Y-55447619D01*
X146085714Y-55447619D01*
X146180952Y-55495238D01*
X146228571Y-55542857D01*
X146276190Y-55638095D01*
X146276190Y-56019048D01*
X146704762Y-55066667D02*
X146752381Y-54923810D01*
X146752381Y-54685714D01*
X146704762Y-54590476D01*
X146657143Y-54542857D01*
X146561905Y-54495238D01*
X146466667Y-54495238D01*
X146371429Y-54542857D01*
X146323810Y-54590476D01*
X146276190Y-54685714D01*
X146228571Y-54876191D01*
X146180952Y-54971429D01*
X146133333Y-55019048D01*
X146038095Y-55066667D01*
X145942857Y-55066667D01*
X145847619Y-55019048D01*
X145800000Y-54971429D01*
X145752381Y-54876191D01*
X145752381Y-54638095D01*
X145800000Y-54495238D01*
X146752381Y-53542857D02*
X146752381Y-54114286D01*
X146752381Y-53828572D02*
X145752381Y-53828572D01*
X145895238Y-53923810D01*
X145990476Y-54019048D01*
X146038095Y-54114286D01*
X126009524Y-58966667D02*
X126485715Y-58966667D01*
X125914286Y-59252381D02*
X126247619Y-58252381D01*
X126580953Y-59252381D01*
X126676191Y-59347619D02*
X127438096Y-59347619D01*
X127676191Y-59252381D02*
X127676191Y-58252381D01*
X128009525Y-58966667D01*
X128342858Y-58252381D01*
X128342858Y-59252381D01*
X128819048Y-59252381D02*
X128819048Y-58252381D01*
X129200001Y-58252381D01*
X129295239Y-58300000D01*
X129342858Y-58347619D01*
X129390477Y-58442857D01*
X129390477Y-58585714D01*
X129342858Y-58680952D01*
X129295239Y-58728571D01*
X129200001Y-58776190D01*
X128819048Y-58776190D01*
X129819048Y-58252381D02*
X129819048Y-59061905D01*
X129866667Y-59157143D01*
X129914286Y-59204762D01*
X130009524Y-59252381D01*
X130200001Y-59252381D01*
X130295239Y-59204762D01*
X130342858Y-59157143D01*
X130390477Y-59061905D01*
X130390477Y-58252381D01*
X131390477Y-59252381D02*
X130819048Y-59252381D01*
X131104762Y-59252381D02*
X131104762Y-58252381D01*
X131009524Y-58395238D01*
X130914286Y-58490476D01*
X130819048Y-58538095D01*
X96123381Y-77532667D02*
X96599572Y-77532667D01*
X96028143Y-77818381D02*
X96361476Y-76818381D01*
X96694810Y-77818381D01*
X96790048Y-77913619D02*
X97551953Y-77913619D01*
X97790048Y-77818381D02*
X97790048Y-76818381D01*
X98361477Y-77818381D01*
X98361477Y-76818381D01*
X98694810Y-76818381D02*
X99028143Y-77818381D01*
X99361477Y-76818381D01*
X100218620Y-77818381D02*
X99647191Y-77818381D01*
X99932905Y-77818381D02*
X99932905Y-76818381D01*
X99837667Y-76961238D01*
X99742429Y-77056476D01*
X99647191Y-77104095D01*
X95996381Y-80834667D02*
X96472572Y-80834667D01*
X95901143Y-81120381D02*
X96234476Y-80120381D01*
X96567810Y-81120381D01*
X96663048Y-81215619D02*
X97424953Y-81215619D01*
X97663048Y-81120381D02*
X97663048Y-80120381D01*
X98234477Y-81120381D01*
X98234477Y-80120381D01*
X98567810Y-80120381D02*
X98901143Y-81120381D01*
X99234477Y-80120381D01*
X99520191Y-80215619D02*
X99567810Y-80168000D01*
X99663048Y-80120381D01*
X99901144Y-80120381D01*
X99996382Y-80168000D01*
X100044001Y-80215619D01*
X100091620Y-80310857D01*
X100091620Y-80406095D01*
X100044001Y-80548952D01*
X99472572Y-81120381D01*
X100091620Y-81120381D01*
X95869381Y-84390667D02*
X96345572Y-84390667D01*
X95774143Y-84676381D02*
X96107476Y-83676381D01*
X96440810Y-84676381D01*
X96536048Y-84771619D02*
X97297953Y-84771619D01*
X97536048Y-84676381D02*
X97536048Y-83676381D01*
X98107477Y-84676381D01*
X98107477Y-83676381D01*
X98440810Y-83676381D02*
X98774143Y-84676381D01*
X99107477Y-83676381D01*
X99345572Y-83676381D02*
X99964620Y-83676381D01*
X99631286Y-84057333D01*
X99774144Y-84057333D01*
X99869382Y-84104952D01*
X99917001Y-84152571D01*
X99964620Y-84247810D01*
X99964620Y-84485905D01*
X99917001Y-84581143D01*
X99869382Y-84628762D01*
X99774144Y-84676381D01*
X99488429Y-84676381D01*
X99393191Y-84628762D01*
X99345572Y-84581143D01*
X148232762Y-66697905D02*
X148280381Y-66555048D01*
X148280381Y-66316952D01*
X148232762Y-66221714D01*
X148185143Y-66174095D01*
X148089905Y-66126476D01*
X147994667Y-66126476D01*
X147899429Y-66174095D01*
X147851810Y-66221714D01*
X147804190Y-66316952D01*
X147756571Y-66507429D01*
X147708952Y-66602667D01*
X147661333Y-66650286D01*
X147566095Y-66697905D01*
X147470857Y-66697905D01*
X147375619Y-66650286D01*
X147328000Y-66602667D01*
X147280381Y-66507429D01*
X147280381Y-66269333D01*
X147328000Y-66126476D01*
X148280381Y-65174095D02*
X148280381Y-65745524D01*
X148280381Y-65459810D02*
X147280381Y-65459810D01*
X147423238Y-65555048D01*
X147518476Y-65650286D01*
X147566095Y-65745524D01*
X118138095Y-58252381D02*
X118138095Y-59061905D01*
X118185714Y-59157143D01*
X118233333Y-59204762D01*
X118328571Y-59252381D01*
X118519048Y-59252381D01*
X118614286Y-59204762D01*
X118661905Y-59157143D01*
X118709524Y-59061905D01*
X118709524Y-58252381D01*
X119614286Y-58585714D02*
X119614286Y-59252381D01*
X119376190Y-58204762D02*
X119138095Y-58919048D01*
X119757143Y-58919048D01*
X136685381Y-57182762D02*
X135685381Y-57182762D01*
X136685381Y-56706572D02*
X135685381Y-56706572D01*
X136685381Y-56135143D01*
X135685381Y-56135143D01*
X135685381Y-55801810D02*
X135685381Y-55230381D01*
X136685381Y-55516096D02*
X135685381Y-55516096D01*
X133799667Y-57539905D02*
X133799667Y-57063714D01*
X134085381Y-57635143D02*
X133085381Y-57301810D01*
X134085381Y-56968476D01*
X134085381Y-56635143D02*
X133085381Y-56635143D01*
X133085381Y-56397048D01*
X133133000Y-56254190D01*
X133228238Y-56158952D01*
X133323476Y-56111333D01*
X133513952Y-56063714D01*
X133656810Y-56063714D01*
X133847286Y-56111333D01*
X133942524Y-56158952D01*
X134037762Y-56254190D01*
X134085381Y-56397048D01*
X134085381Y-56635143D01*
X133085381Y-55444667D02*
X133085381Y-55254190D01*
X133133000Y-55158952D01*
X133228238Y-55063714D01*
X133418714Y-55016095D01*
X133752048Y-55016095D01*
X133942524Y-55063714D01*
X134037762Y-55158952D01*
X134085381Y-55254190D01*
X134085381Y-55444667D01*
X134037762Y-55539905D01*
X133942524Y-55635143D01*
X133752048Y-55682762D01*
X133418714Y-55682762D01*
X133228238Y-55635143D01*
X133133000Y-55539905D01*
X133085381Y-55444667D01*
X130585381Y-57516095D02*
X131585381Y-56849428D01*
X130585381Y-56849428D02*
X131585381Y-57516095D01*
X131490143Y-55897047D02*
X131537762Y-55944666D01*
X131585381Y-56087523D01*
X131585381Y-56182761D01*
X131537762Y-56325619D01*
X131442524Y-56420857D01*
X131347286Y-56468476D01*
X131156810Y-56516095D01*
X131013952Y-56516095D01*
X130823476Y-56468476D01*
X130728238Y-56420857D01*
X130633000Y-56325619D01*
X130585381Y-56182761D01*
X130585381Y-56087523D01*
X130633000Y-55944666D01*
X130680619Y-55897047D01*
X131585381Y-54992285D02*
X131585381Y-55468476D01*
X130585381Y-55468476D01*
X128085381Y-57539905D02*
X129085381Y-56873238D01*
X128085381Y-56873238D02*
X129085381Y-57539905D01*
X129085381Y-56492286D02*
X128085381Y-56492286D01*
X128085381Y-56254191D01*
X128133000Y-56111333D01*
X128228238Y-56016095D01*
X128323476Y-55968476D01*
X128513952Y-55920857D01*
X128656810Y-55920857D01*
X128847286Y-55968476D01*
X128942524Y-56016095D01*
X129037762Y-56111333D01*
X129085381Y-56254191D01*
X129085381Y-56492286D01*
X128799667Y-55539905D02*
X128799667Y-55063714D01*
X129085381Y-55635143D02*
X128085381Y-55301810D01*
X129085381Y-54968476D01*
X126642762Y-56990286D02*
X126690381Y-56847429D01*
X126690381Y-56609333D01*
X126642762Y-56514095D01*
X126595143Y-56466476D01*
X126499905Y-56418857D01*
X126404667Y-56418857D01*
X126309429Y-56466476D01*
X126261810Y-56514095D01*
X126214190Y-56609333D01*
X126166571Y-56799810D01*
X126118952Y-56895048D01*
X126071333Y-56942667D01*
X125976095Y-56990286D01*
X125880857Y-56990286D01*
X125785619Y-56942667D01*
X125738000Y-56895048D01*
X125690381Y-56799810D01*
X125690381Y-56561714D01*
X125738000Y-56418857D01*
X126690381Y-55990286D02*
X125690381Y-55990286D01*
X125690381Y-55752191D01*
X125738000Y-55609333D01*
X125833238Y-55514095D01*
X125928476Y-55466476D01*
X126118952Y-55418857D01*
X126261810Y-55418857D01*
X126452286Y-55466476D01*
X126547524Y-55514095D01*
X126642762Y-55609333D01*
X126690381Y-55752191D01*
X126690381Y-55990286D01*
X126404667Y-55037905D02*
X126404667Y-54561714D01*
X126690381Y-55133143D02*
X125690381Y-54799810D01*
X126690381Y-54466476D01*
X124102762Y-56966476D02*
X124150381Y-56823619D01*
X124150381Y-56585523D01*
X124102762Y-56490285D01*
X124055143Y-56442666D01*
X123959905Y-56395047D01*
X123864667Y-56395047D01*
X123769429Y-56442666D01*
X123721810Y-56490285D01*
X123674190Y-56585523D01*
X123626571Y-56776000D01*
X123578952Y-56871238D01*
X123531333Y-56918857D01*
X123436095Y-56966476D01*
X123340857Y-56966476D01*
X123245619Y-56918857D01*
X123198000Y-56871238D01*
X123150381Y-56776000D01*
X123150381Y-56537904D01*
X123198000Y-56395047D01*
X124055143Y-55395047D02*
X124102762Y-55442666D01*
X124150381Y-55585523D01*
X124150381Y-55680761D01*
X124102762Y-55823619D01*
X124007524Y-55918857D01*
X123912286Y-55966476D01*
X123721810Y-56014095D01*
X123578952Y-56014095D01*
X123388476Y-55966476D01*
X123293238Y-55918857D01*
X123198000Y-55823619D01*
X123150381Y-55680761D01*
X123150381Y-55585523D01*
X123198000Y-55442666D01*
X123245619Y-55395047D01*
X124150381Y-54490285D02*
X124150381Y-54966476D01*
X123150381Y-54966476D01*
X120277000Y-56664904D02*
X120229381Y-56760142D01*
X120229381Y-56902999D01*
X120277000Y-57045857D01*
X120372238Y-57141095D01*
X120467476Y-57188714D01*
X120657952Y-57236333D01*
X120800810Y-57236333D01*
X120991286Y-57188714D01*
X121086524Y-57141095D01*
X121181762Y-57045857D01*
X121229381Y-56902999D01*
X121229381Y-56807761D01*
X121181762Y-56664904D01*
X121134143Y-56617285D01*
X120800810Y-56617285D01*
X120800810Y-56807761D01*
X121229381Y-56188714D02*
X120229381Y-56188714D01*
X121229381Y-55617285D01*
X120229381Y-55617285D01*
X121229381Y-55141095D02*
X120229381Y-55141095D01*
X120229381Y-54903000D01*
X120277000Y-54760142D01*
X120372238Y-54664904D01*
X120467476Y-54617285D01*
X120657952Y-54569666D01*
X120800810Y-54569666D01*
X120991286Y-54617285D01*
X121086524Y-54664904D01*
X121181762Y-54760142D01*
X121229381Y-54903000D01*
X121229381Y-55141095D01*
X117885381Y-57611333D02*
X118885381Y-57278000D01*
X117885381Y-56944666D01*
X118790143Y-56039904D02*
X118837762Y-56087523D01*
X118885381Y-56230380D01*
X118885381Y-56325618D01*
X118837762Y-56468476D01*
X118742524Y-56563714D01*
X118647286Y-56611333D01*
X118456810Y-56658952D01*
X118313952Y-56658952D01*
X118123476Y-56611333D01*
X118028238Y-56563714D01*
X117933000Y-56468476D01*
X117885381Y-56325618D01*
X117885381Y-56230380D01*
X117933000Y-56087523D01*
X117980619Y-56039904D01*
X118790143Y-55039904D02*
X118837762Y-55087523D01*
X118885381Y-55230380D01*
X118885381Y-55325618D01*
X118837762Y-55468476D01*
X118742524Y-55563714D01*
X118647286Y-55611333D01*
X118456810Y-55658952D01*
X118313952Y-55658952D01*
X118123476Y-55611333D01*
X118028238Y-55563714D01*
X117933000Y-55468476D01*
X117885381Y-55325618D01*
X117885381Y-55230380D01*
X117933000Y-55087523D01*
X117980619Y-55039904D01*
X140967381Y-95936666D02*
X140967381Y-96412857D01*
X141443571Y-96460476D01*
X141395952Y-96412857D01*
X141348333Y-96317619D01*
X141348333Y-96079523D01*
X141395952Y-95984285D01*
X141443571Y-95936666D01*
X141538810Y-95889047D01*
X141776905Y-95889047D01*
X141872143Y-95936666D01*
X141919762Y-95984285D01*
X141967381Y-96079523D01*
X141967381Y-96317619D01*
X141919762Y-96412857D01*
X141872143Y-96460476D01*
X140967381Y-95603333D02*
X141967381Y-95270000D01*
X140967381Y-94936666D01*
X141967381Y-94079523D02*
X141967381Y-94650952D01*
X141967381Y-94365238D02*
X140967381Y-94365238D01*
X141110238Y-94460476D01*
X141205476Y-94555714D01*
X141253095Y-94650952D01*
X135977405Y-96233381D02*
X135977405Y-95233381D01*
X136215500Y-95233381D01*
X136358358Y-95281000D01*
X136453596Y-95376238D01*
X136501215Y-95471476D01*
X136548834Y-95661952D01*
X136548834Y-95804810D01*
X136501215Y-95995286D01*
X136453596Y-96090524D01*
X136358358Y-96185762D01*
X136215500Y-96233381D01*
X135977405Y-96233381D01*
X136929786Y-95328619D02*
X136977405Y-95281000D01*
X137072643Y-95233381D01*
X137310739Y-95233381D01*
X137405977Y-95281000D01*
X137453596Y-95328619D01*
X137501215Y-95423857D01*
X137501215Y-95519095D01*
X137453596Y-95661952D01*
X136882167Y-96233381D01*
X137501215Y-96233381D01*
X135913905Y-93883881D02*
X135913905Y-92883881D01*
X136152000Y-92883881D01*
X136294858Y-92931500D01*
X136390096Y-93026738D01*
X136437715Y-93121976D01*
X136485334Y-93312452D01*
X136485334Y-93455310D01*
X136437715Y-93645786D01*
X136390096Y-93741024D01*
X136294858Y-93836262D01*
X136152000Y-93883881D01*
X135913905Y-93883881D01*
X136818667Y-92883881D02*
X137437715Y-92883881D01*
X137104381Y-93264833D01*
X137247239Y-93264833D01*
X137342477Y-93312452D01*
X137390096Y-93360071D01*
X137437715Y-93455310D01*
X137437715Y-93693405D01*
X137390096Y-93788643D01*
X137342477Y-93836262D01*
X137247239Y-93883881D01*
X136961524Y-93883881D01*
X136866286Y-93836262D01*
X136818667Y-93788643D01*
X105985034Y-90330981D02*
X105651700Y-89854790D01*
X105413605Y-90330981D02*
X105413605Y-89330981D01*
X105794558Y-89330981D01*
X105889796Y-89378600D01*
X105937415Y-89426219D01*
X105985034Y-89521457D01*
X105985034Y-89664314D01*
X105937415Y-89759552D01*
X105889796Y-89807171D01*
X105794558Y-89854790D01*
X105413605Y-89854790D01*
X106889796Y-89330981D02*
X106413605Y-89330981D01*
X106365986Y-89807171D01*
X106413605Y-89759552D01*
X106508843Y-89711933D01*
X106746939Y-89711933D01*
X106842177Y-89759552D01*
X106889796Y-89807171D01*
X106937415Y-89902410D01*
X106937415Y-90140505D01*
X106889796Y-90235743D01*
X106842177Y-90283362D01*
X106746939Y-90330981D01*
X106508843Y-90330981D01*
X106413605Y-90283362D01*
X106365986Y-90235743D01*
X105997734Y-87754781D02*
X105664400Y-87278590D01*
X105426305Y-87754781D02*
X105426305Y-86754781D01*
X105807258Y-86754781D01*
X105902496Y-86802400D01*
X105950115Y-86850019D01*
X105997734Y-86945257D01*
X105997734Y-87088114D01*
X105950115Y-87183352D01*
X105902496Y-87230971D01*
X105807258Y-87278590D01*
X105426305Y-87278590D01*
X106854877Y-86754781D02*
X106664400Y-86754781D01*
X106569162Y-86802400D01*
X106521543Y-86850019D01*
X106426305Y-86992876D01*
X106378686Y-87183352D01*
X106378686Y-87564305D01*
X106426305Y-87659543D01*
X106473924Y-87707162D01*
X106569162Y-87754781D01*
X106759639Y-87754781D01*
X106854877Y-87707162D01*
X106902496Y-87659543D01*
X106950115Y-87564305D01*
X106950115Y-87326210D01*
X106902496Y-87230971D01*
X106854877Y-87183352D01*
X106759639Y-87135733D01*
X106569162Y-87135733D01*
X106473924Y-87183352D01*
X106426305Y-87230971D01*
X106378686Y-87326210D01*
X142452381Y-91452381D02*
X142452381Y-90452381D01*
X142833334Y-90452381D01*
X142928572Y-90500000D01*
X142976191Y-90547619D01*
X143023810Y-90642857D01*
X143023810Y-90785714D01*
X142976191Y-90880952D01*
X142928572Y-90928571D01*
X142833334Y-90976190D01*
X142452381Y-90976190D01*
X143214286Y-91547619D02*
X143976191Y-91547619D01*
X144166667Y-91404762D02*
X144309524Y-91452381D01*
X144547620Y-91452381D01*
X144642858Y-91404762D01*
X144690477Y-91357143D01*
X144738096Y-91261905D01*
X144738096Y-91166667D01*
X144690477Y-91071429D01*
X144642858Y-91023810D01*
X144547620Y-90976190D01*
X144357143Y-90928571D01*
X144261905Y-90880952D01*
X144214286Y-90833333D01*
X144166667Y-90738095D01*
X144166667Y-90642857D01*
X144214286Y-90547619D01*
X144261905Y-90500000D01*
X144357143Y-90452381D01*
X144595239Y-90452381D01*
X144738096Y-90500000D01*
X145166667Y-90928571D02*
X145500001Y-90928571D01*
X145642858Y-91452381D02*
X145166667Y-91452381D01*
X145166667Y-90452381D01*
X145642858Y-90452381D01*
X146071429Y-91452381D02*
X146071429Y-90452381D01*
X146642858Y-91452381D01*
X146642858Y-90452381D01*
X147071429Y-91404762D02*
X147214286Y-91452381D01*
X147452382Y-91452381D01*
X147547620Y-91404762D01*
X147595239Y-91357143D01*
X147642858Y-91261905D01*
X147642858Y-91166667D01*
X147595239Y-91071429D01*
X147547620Y-91023810D01*
X147452382Y-90976190D01*
X147261905Y-90928571D01*
X147166667Y-90880952D01*
X147119048Y-90833333D01*
X147071429Y-90738095D01*
X147071429Y-90642857D01*
X147119048Y-90547619D01*
X147166667Y-90500000D01*
X147261905Y-90452381D01*
X147500001Y-90452381D01*
X147642858Y-90500000D01*
X148595239Y-91452381D02*
X148023810Y-91452381D01*
X148309524Y-91452381D02*
X148309524Y-90452381D01*
X148214286Y-90595238D01*
X148119048Y-90690476D01*
X148023810Y-90738095D01*
X82923095Y-120452381D02*
X82923095Y-121261905D01*
X82970714Y-121357143D01*
X83018333Y-121404762D01*
X83113571Y-121452381D01*
X83304048Y-121452381D01*
X83399286Y-121404762D01*
X83446905Y-121357143D01*
X83494524Y-121261905D01*
X83494524Y-120452381D01*
X83875476Y-120452381D02*
X84494524Y-120452381D01*
X84161190Y-120833333D01*
X84304048Y-120833333D01*
X84399286Y-120880952D01*
X84446905Y-120928571D01*
X84494524Y-121023810D01*
X84494524Y-121261905D01*
X84446905Y-121357143D01*
X84399286Y-121404762D01*
X84304048Y-121452381D01*
X84018333Y-121452381D01*
X83923095Y-121404762D01*
X83875476Y-121357143D01*
X120994667Y-110657381D02*
X120661333Y-110181190D01*
X120423238Y-110657381D02*
X120423238Y-109657381D01*
X120804191Y-109657381D01*
X120899429Y-109705000D01*
X120947048Y-109752619D01*
X120994667Y-109847857D01*
X120994667Y-109990714D01*
X120947048Y-110085952D01*
X120899429Y-110133571D01*
X120804191Y-110181190D01*
X120423238Y-110181190D01*
X121423238Y-110133571D02*
X121756572Y-110133571D01*
X121899429Y-110657381D02*
X121423238Y-110657381D01*
X121423238Y-109657381D01*
X121899429Y-109657381D01*
X122661334Y-110133571D02*
X122328000Y-110133571D01*
X122328000Y-110657381D02*
X122328000Y-109657381D01*
X122804191Y-109657381D01*
X123328000Y-109657381D02*
X123328000Y-109895476D01*
X123089905Y-109800238D02*
X123328000Y-109895476D01*
X123566096Y-109800238D01*
X123185143Y-110085952D02*
X123328000Y-109895476D01*
X123470858Y-110085952D01*
X124089905Y-109657381D02*
X124089905Y-109895476D01*
X123851810Y-109800238D02*
X124089905Y-109895476D01*
X124328001Y-109800238D01*
X123947048Y-110085952D02*
X124089905Y-109895476D01*
X124232763Y-110085952D01*
X101968381Y-105505905D02*
X102777905Y-105505905D01*
X102873143Y-105458286D01*
X102920762Y-105410667D01*
X102968381Y-105315429D01*
X102968381Y-105124952D01*
X102920762Y-105029714D01*
X102873143Y-104982095D01*
X102777905Y-104934476D01*
X101968381Y-104934476D01*
X101968381Y-104553524D02*
X101968381Y-103886857D01*
X102968381Y-104315429D01*
X103492381Y-112443238D02*
X104492381Y-112109905D01*
X103492381Y-111776571D01*
X104492381Y-111443238D02*
X103492381Y-111443238D01*
X104492381Y-110967048D02*
X103492381Y-110967048D01*
X104492381Y-110395619D01*
X103492381Y-110395619D01*
X106080000Y-112109904D02*
X106032381Y-112205142D01*
X106032381Y-112347999D01*
X106080000Y-112490857D01*
X106175238Y-112586095D01*
X106270476Y-112633714D01*
X106460952Y-112681333D01*
X106603810Y-112681333D01*
X106794286Y-112633714D01*
X106889524Y-112586095D01*
X106984762Y-112490857D01*
X107032381Y-112347999D01*
X107032381Y-112252761D01*
X106984762Y-112109904D01*
X106937143Y-112062285D01*
X106603810Y-112062285D01*
X106603810Y-112252761D01*
X107032381Y-111633714D02*
X106032381Y-111633714D01*
X107032381Y-111062285D01*
X106032381Y-111062285D01*
X107032381Y-110586095D02*
X106032381Y-110586095D01*
X106032381Y-110348000D01*
X106080000Y-110205142D01*
X106175238Y-110109904D01*
X106270476Y-110062285D01*
X106460952Y-110014666D01*
X106603810Y-110014666D01*
X106794286Y-110062285D01*
X106889524Y-110109904D01*
X106984762Y-110205142D01*
X107032381Y-110348000D01*
X107032381Y-110586095D01*
X109524762Y-112562286D02*
X109572381Y-112419429D01*
X109572381Y-112181333D01*
X109524762Y-112086095D01*
X109477143Y-112038476D01*
X109381905Y-111990857D01*
X109286667Y-111990857D01*
X109191429Y-112038476D01*
X109143810Y-112086095D01*
X109096190Y-112181333D01*
X109048571Y-112371810D01*
X109000952Y-112467048D01*
X108953333Y-112514667D01*
X108858095Y-112562286D01*
X108762857Y-112562286D01*
X108667619Y-112514667D01*
X108620000Y-112467048D01*
X108572381Y-112371810D01*
X108572381Y-112133714D01*
X108620000Y-111990857D01*
X109572381Y-111562286D02*
X108572381Y-111562286D01*
X108572381Y-111324191D01*
X108620000Y-111181333D01*
X108715238Y-111086095D01*
X108810476Y-111038476D01*
X109000952Y-110990857D01*
X109143810Y-110990857D01*
X109334286Y-111038476D01*
X109429524Y-111086095D01*
X109524762Y-111181333D01*
X109572381Y-111324191D01*
X109572381Y-111562286D01*
X109286667Y-110609905D02*
X109286667Y-110133714D01*
X109572381Y-110705143D02*
X108572381Y-110371810D01*
X109572381Y-110038476D01*
X112064762Y-112538476D02*
X112112381Y-112395619D01*
X112112381Y-112157523D01*
X112064762Y-112062285D01*
X112017143Y-112014666D01*
X111921905Y-111967047D01*
X111826667Y-111967047D01*
X111731429Y-112014666D01*
X111683810Y-112062285D01*
X111636190Y-112157523D01*
X111588571Y-112348000D01*
X111540952Y-112443238D01*
X111493333Y-112490857D01*
X111398095Y-112538476D01*
X111302857Y-112538476D01*
X111207619Y-112490857D01*
X111160000Y-112443238D01*
X111112381Y-112348000D01*
X111112381Y-112109904D01*
X111160000Y-111967047D01*
X112017143Y-110967047D02*
X112064762Y-111014666D01*
X112112381Y-111157523D01*
X112112381Y-111252761D01*
X112064762Y-111395619D01*
X111969524Y-111490857D01*
X111874286Y-111538476D01*
X111683810Y-111586095D01*
X111540952Y-111586095D01*
X111350476Y-111538476D01*
X111255238Y-111490857D01*
X111160000Y-111395619D01*
X111112381Y-111252761D01*
X111112381Y-111157523D01*
X111160000Y-111014666D01*
X111207619Y-110967047D01*
X112112381Y-110062285D02*
X112112381Y-110538476D01*
X111112381Y-110538476D01*
X135496334Y-120182381D02*
X135163000Y-119706190D01*
X134924905Y-120182381D02*
X134924905Y-119182381D01*
X135305858Y-119182381D01*
X135401096Y-119230000D01*
X135448715Y-119277619D01*
X135496334Y-119372857D01*
X135496334Y-119515714D01*
X135448715Y-119610952D01*
X135401096Y-119658571D01*
X135305858Y-119706190D01*
X134924905Y-119706190D01*
X135829667Y-119182381D02*
X136448715Y-119182381D01*
X136115381Y-119563333D01*
X136258239Y-119563333D01*
X136353477Y-119610952D01*
X136401096Y-119658571D01*
X136448715Y-119753810D01*
X136448715Y-119991905D01*
X136401096Y-120087143D01*
X136353477Y-120134762D01*
X136258239Y-120182381D01*
X135972524Y-120182381D01*
X135877286Y-120134762D01*
X135829667Y-120087143D01*
X123971334Y-136851143D02*
X123923715Y-136898762D01*
X123780858Y-136946381D01*
X123685620Y-136946381D01*
X123542762Y-136898762D01*
X123447524Y-136803524D01*
X123399905Y-136708286D01*
X123352286Y-136517810D01*
X123352286Y-136374952D01*
X123399905Y-136184476D01*
X123447524Y-136089238D01*
X123542762Y-135994000D01*
X123685620Y-135946381D01*
X123780858Y-135946381D01*
X123923715Y-135994000D01*
X123971334Y-136041619D01*
X124923715Y-136946381D02*
X124352286Y-136946381D01*
X124638000Y-136946381D02*
X124638000Y-135946381D01*
X124542762Y-136089238D01*
X124447524Y-136184476D01*
X124352286Y-136232095D01*
X84077143Y-105894666D02*
X84124762Y-105942285D01*
X84172381Y-106085142D01*
X84172381Y-106180380D01*
X84124762Y-106323238D01*
X84029524Y-106418476D01*
X83934286Y-106466095D01*
X83743810Y-106513714D01*
X83600952Y-106513714D01*
X83410476Y-106466095D01*
X83315238Y-106418476D01*
X83220000Y-106323238D01*
X83172381Y-106180380D01*
X83172381Y-106085142D01*
X83220000Y-105942285D01*
X83267619Y-105894666D01*
X83267619Y-105513714D02*
X83220000Y-105466095D01*
X83172381Y-105370857D01*
X83172381Y-105132761D01*
X83220000Y-105037523D01*
X83267619Y-104989904D01*
X83362857Y-104942285D01*
X83458095Y-104942285D01*
X83600952Y-104989904D01*
X84172381Y-105561333D01*
X84172381Y-104942285D01*
X99990143Y-105646666D02*
X100037762Y-105694285D01*
X100085381Y-105837142D01*
X100085381Y-105932380D01*
X100037762Y-106075238D01*
X99942524Y-106170476D01*
X99847286Y-106218095D01*
X99656810Y-106265714D01*
X99513952Y-106265714D01*
X99323476Y-106218095D01*
X99228238Y-106170476D01*
X99133000Y-106075238D01*
X99085381Y-105932380D01*
X99085381Y-105837142D01*
X99133000Y-105694285D01*
X99180619Y-105646666D01*
X99085381Y-105313333D02*
X99085381Y-104694285D01*
X99466333Y-105027619D01*
X99466333Y-104884761D01*
X99513952Y-104789523D01*
X99561571Y-104741904D01*
X99656810Y-104694285D01*
X99894905Y-104694285D01*
X99990143Y-104741904D01*
X100037762Y-104789523D01*
X100085381Y-104884761D01*
X100085381Y-105170476D01*
X100037762Y-105265714D01*
X99990143Y-105313333D01*
X118892597Y-131691422D02*
X118940216Y-131739041D01*
X118987835Y-131881898D01*
X118987835Y-131977136D01*
X118940216Y-132119994D01*
X118844978Y-132215232D01*
X118749740Y-132262851D01*
X118559264Y-132310470D01*
X118416406Y-132310470D01*
X118225930Y-132262851D01*
X118130692Y-132215232D01*
X118035454Y-132119994D01*
X117987835Y-131977136D01*
X117987835Y-131881898D01*
X118035454Y-131739041D01*
X118083073Y-131691422D01*
X118321168Y-130834279D02*
X118987835Y-130834279D01*
X117940216Y-131072375D02*
X118654502Y-131310470D01*
X118654502Y-130691422D01*
X115490143Y-105291666D02*
X115537762Y-105339285D01*
X115585381Y-105482142D01*
X115585381Y-105577380D01*
X115537762Y-105720238D01*
X115442524Y-105815476D01*
X115347286Y-105863095D01*
X115156810Y-105910714D01*
X115013952Y-105910714D01*
X114823476Y-105863095D01*
X114728238Y-105815476D01*
X114633000Y-105720238D01*
X114585381Y-105577380D01*
X114585381Y-105482142D01*
X114633000Y-105339285D01*
X114680619Y-105291666D01*
X114585381Y-104386904D02*
X114585381Y-104863095D01*
X115061571Y-104910714D01*
X115013952Y-104863095D01*
X114966333Y-104767857D01*
X114966333Y-104529761D01*
X115013952Y-104434523D01*
X115061571Y-104386904D01*
X115156810Y-104339285D01*
X115394905Y-104339285D01*
X115490143Y-104386904D01*
X115537762Y-104434523D01*
X115585381Y-104529761D01*
X115585381Y-104767857D01*
X115537762Y-104863095D01*
X115490143Y-104910714D01*
X131591334Y-124024143D02*
X131543715Y-124071762D01*
X131400858Y-124119381D01*
X131305620Y-124119381D01*
X131162762Y-124071762D01*
X131067524Y-123976524D01*
X131019905Y-123881286D01*
X130972286Y-123690810D01*
X130972286Y-123547952D01*
X131019905Y-123357476D01*
X131067524Y-123262238D01*
X131162762Y-123167000D01*
X131305620Y-123119381D01*
X131400858Y-123119381D01*
X131543715Y-123167000D01*
X131591334Y-123214619D01*
X132448477Y-123119381D02*
X132258000Y-123119381D01*
X132162762Y-123167000D01*
X132115143Y-123214619D01*
X132019905Y-123357476D01*
X131972286Y-123547952D01*
X131972286Y-123928905D01*
X132019905Y-124024143D01*
X132067524Y-124071762D01*
X132162762Y-124119381D01*
X132353239Y-124119381D01*
X132448477Y-124071762D01*
X132496096Y-124024143D01*
X132543715Y-123928905D01*
X132543715Y-123690810D01*
X132496096Y-123595571D01*
X132448477Y-123547952D01*
X132353239Y-123500333D01*
X132162762Y-123500333D01*
X132067524Y-123547952D01*
X132019905Y-123595571D01*
X131972286Y-123690810D01*
X129971905Y-129707381D02*
X129971905Y-128707381D01*
X130210000Y-128707381D01*
X130352858Y-128755000D01*
X130448096Y-128850238D01*
X130495715Y-128945476D01*
X130543334Y-129135952D01*
X130543334Y-129278810D01*
X130495715Y-129469286D01*
X130448096Y-129564524D01*
X130352858Y-129659762D01*
X130210000Y-129707381D01*
X129971905Y-129707381D01*
X131495715Y-129707381D02*
X130924286Y-129707381D01*
X131210000Y-129707381D02*
X131210000Y-128707381D01*
X131114762Y-128850238D01*
X131019524Y-128945476D01*
X130924286Y-128993095D01*
X140011075Y-125972381D02*
X140011075Y-124972381D01*
X140582504Y-125972381D02*
X140153932Y-125400952D01*
X140582504Y-124972381D02*
X140011075Y-125543810D01*
X133534885Y-125736667D02*
X134011076Y-125736667D01*
X133439647Y-126022381D02*
X133772980Y-125022381D01*
X134106314Y-126022381D01*
X142852381Y-136738095D02*
X141852381Y-136738095D01*
X141852381Y-136357142D01*
X141900000Y-136261904D01*
X141947619Y-136214285D01*
X142042857Y-136166666D01*
X142185714Y-136166666D01*
X142280952Y-136214285D01*
X142328571Y-136261904D01*
X142376190Y-136357142D01*
X142376190Y-136738095D01*
X142852381Y-135214285D02*
X142852381Y-135785714D01*
X142852381Y-135500000D02*
X141852381Y-135500000D01*
X141995238Y-135595238D01*
X142090476Y-135690476D01*
X142138095Y-135785714D01*
X137066362Y-132723619D02*
X136971124Y-132676000D01*
X136875886Y-132580762D01*
X136733029Y-132437905D01*
X136637790Y-132390286D01*
X136542552Y-132390286D01*
X136590171Y-132628381D02*
X136494933Y-132580762D01*
X136399695Y-132485524D01*
X136352076Y-132295048D01*
X136352076Y-131961714D01*
X136399695Y-131771238D01*
X136494933Y-131676000D01*
X136590171Y-131628381D01*
X136780648Y-131628381D01*
X136875886Y-131676000D01*
X136971124Y-131771238D01*
X137018743Y-131961714D01*
X137018743Y-132295048D01*
X136971124Y-132485524D01*
X136875886Y-132580762D01*
X136780648Y-132628381D01*
X136590171Y-132628381D01*
X137971124Y-132628381D02*
X137399695Y-132628381D01*
X137685409Y-132628381D02*
X137685409Y-131628381D01*
X137590171Y-131771238D01*
X137494933Y-131866476D01*
X137399695Y-131914095D01*
X124161334Y-133390381D02*
X123828000Y-132914190D01*
X123589905Y-133390381D02*
X123589905Y-132390381D01*
X123970858Y-132390381D01*
X124066096Y-132438000D01*
X124113715Y-132485619D01*
X124161334Y-132580857D01*
X124161334Y-132723714D01*
X124113715Y-132818952D01*
X124066096Y-132866571D01*
X123970858Y-132914190D01*
X123589905Y-132914190D01*
X125113715Y-133390381D02*
X124542286Y-133390381D01*
X124828000Y-133390381D02*
X124828000Y-132390381D01*
X124732762Y-132533238D01*
X124637524Y-132628476D01*
X124542286Y-132676095D01*
X135496334Y-117642381D02*
X135163000Y-117166190D01*
X134924905Y-117642381D02*
X134924905Y-116642381D01*
X135305858Y-116642381D01*
X135401096Y-116690000D01*
X135448715Y-116737619D01*
X135496334Y-116832857D01*
X135496334Y-116975714D01*
X135448715Y-117070952D01*
X135401096Y-117118571D01*
X135305858Y-117166190D01*
X134924905Y-117166190D01*
X135877286Y-116737619D02*
X135924905Y-116690000D01*
X136020143Y-116642381D01*
X136258239Y-116642381D01*
X136353477Y-116690000D01*
X136401096Y-116737619D01*
X136448715Y-116832857D01*
X136448715Y-116928095D01*
X136401096Y-117070952D01*
X135829667Y-117642381D01*
X136448715Y-117642381D01*
X106387835Y-131686661D02*
X107197359Y-131686661D01*
X107292597Y-131639042D01*
X107340216Y-131591423D01*
X107387835Y-131496185D01*
X107387835Y-131305708D01*
X107340216Y-131210470D01*
X107292597Y-131162851D01*
X107197359Y-131115232D01*
X106387835Y-131115232D01*
X106387835Y-130162851D02*
X106387835Y-130639042D01*
X106864025Y-130686661D01*
X106816406Y-130639042D01*
X106768787Y-130543804D01*
X106768787Y-130305708D01*
X106816406Y-130210470D01*
X106864025Y-130162851D01*
X106959264Y-130115232D01*
X107197359Y-130115232D01*
X107292597Y-130162851D01*
X107340216Y-130210470D01*
X107387835Y-130305708D01*
X107387835Y-130543804D01*
X107340216Y-130639042D01*
X107292597Y-130686661D01*
X142852381Y-125738095D02*
X141852381Y-125738095D01*
X141852381Y-125357142D01*
X141900000Y-125261904D01*
X141947619Y-125214285D01*
X142042857Y-125166666D01*
X142185714Y-125166666D01*
X142280952Y-125214285D01*
X142328571Y-125261904D01*
X142376190Y-125357142D01*
X142376190Y-125738095D01*
X141947619Y-124785714D02*
X141900000Y-124738095D01*
X141852381Y-124642857D01*
X141852381Y-124404761D01*
X141900000Y-124309523D01*
X141947619Y-124261904D01*
X142042857Y-124214285D01*
X142138095Y-124214285D01*
X142280952Y-124261904D01*
X142852381Y-124833333D01*
X142852381Y-124214285D01*
X117192381Y-116423095D02*
X116192381Y-116423095D01*
X116192381Y-116042142D01*
X116240000Y-115946904D01*
X116287619Y-115899285D01*
X116382857Y-115851666D01*
X116525714Y-115851666D01*
X116620952Y-115899285D01*
X116668571Y-115946904D01*
X116716190Y-116042142D01*
X116716190Y-116423095D01*
X116192381Y-115518333D02*
X116192381Y-114899285D01*
X116573333Y-115232619D01*
X116573333Y-115089761D01*
X116620952Y-114994523D01*
X116668571Y-114946904D01*
X116763810Y-114899285D01*
X117001905Y-114899285D01*
X117097143Y-114946904D01*
X117144762Y-114994523D01*
X117192381Y-115089761D01*
X117192381Y-115375476D01*
X117144762Y-115470714D01*
X117097143Y-115518333D01*
X129908334Y-112467143D02*
X129860715Y-112514762D01*
X129717858Y-112562381D01*
X129622620Y-112562381D01*
X129479762Y-112514762D01*
X129384524Y-112419524D01*
X129336905Y-112324286D01*
X129289286Y-112133810D01*
X129289286Y-111990952D01*
X129336905Y-111800476D01*
X129384524Y-111705238D01*
X129479762Y-111610000D01*
X129622620Y-111562381D01*
X129717858Y-111562381D01*
X129860715Y-111610000D01*
X129908334Y-111657619D01*
X130241667Y-111562381D02*
X130908334Y-111562381D01*
X130479762Y-112562381D01*
X127161881Y-146884166D02*
X126685690Y-147217500D01*
X127161881Y-147455595D02*
X126161881Y-147455595D01*
X126161881Y-147074642D01*
X126209500Y-146979404D01*
X126257119Y-146931785D01*
X126352357Y-146884166D01*
X126495214Y-146884166D01*
X126590452Y-146931785D01*
X126638071Y-146979404D01*
X126685690Y-147074642D01*
X126685690Y-147455595D01*
X126495214Y-146027023D02*
X127161881Y-146027023D01*
X126114262Y-146265119D02*
X126828548Y-146503214D01*
X126828548Y-145884166D01*
X148132762Y-120745905D02*
X148180381Y-120603048D01*
X148180381Y-120364952D01*
X148132762Y-120269714D01*
X148085143Y-120222095D01*
X147989905Y-120174476D01*
X147894667Y-120174476D01*
X147799429Y-120222095D01*
X147751810Y-120269714D01*
X147704190Y-120364952D01*
X147656571Y-120555429D01*
X147608952Y-120650667D01*
X147561333Y-120698286D01*
X147466095Y-120745905D01*
X147370857Y-120745905D01*
X147275619Y-120698286D01*
X147228000Y-120650667D01*
X147180381Y-120555429D01*
X147180381Y-120317333D01*
X147228000Y-120174476D01*
X147275619Y-119793524D02*
X147228000Y-119745905D01*
X147180381Y-119650667D01*
X147180381Y-119412571D01*
X147228000Y-119317333D01*
X147275619Y-119269714D01*
X147370857Y-119222095D01*
X147466095Y-119222095D01*
X147608952Y-119269714D01*
X148180381Y-119841143D01*
X148180381Y-119222095D01*
X146652381Y-112209524D02*
X145652381Y-112209524D01*
X145652381Y-111828571D01*
X145700000Y-111733333D01*
X145747619Y-111685714D01*
X145842857Y-111638095D01*
X145985714Y-111638095D01*
X146080952Y-111685714D01*
X146128571Y-111733333D01*
X146176190Y-111828571D01*
X146176190Y-112209524D01*
X146747619Y-111447619D02*
X146747619Y-110685714D01*
X146652381Y-110447619D02*
X145652381Y-110447619D01*
X145747619Y-110019048D02*
X145700000Y-109971429D01*
X145652381Y-109876191D01*
X145652381Y-109638095D01*
X145700000Y-109542857D01*
X145747619Y-109495238D01*
X145842857Y-109447619D01*
X145938095Y-109447619D01*
X146080952Y-109495238D01*
X146652381Y-110066667D01*
X146652381Y-109447619D01*
X146557143Y-108447619D02*
X146604762Y-108495238D01*
X146652381Y-108638095D01*
X146652381Y-108733333D01*
X146604762Y-108876191D01*
X146509524Y-108971429D01*
X146414286Y-109019048D01*
X146223810Y-109066667D01*
X146080952Y-109066667D01*
X145890476Y-109019048D01*
X145795238Y-108971429D01*
X145700000Y-108876191D01*
X145652381Y-108733333D01*
X145652381Y-108638095D01*
X145700000Y-108495238D01*
X145747619Y-108447619D01*
X145700000Y-107495238D02*
X145652381Y-107590476D01*
X145652381Y-107733333D01*
X145700000Y-107876191D01*
X145795238Y-107971429D01*
X145890476Y-108019048D01*
X146080952Y-108066667D01*
X146223810Y-108066667D01*
X146414286Y-108019048D01*
X146509524Y-107971429D01*
X146604762Y-107876191D01*
X146652381Y-107733333D01*
X146652381Y-107638095D01*
X146604762Y-107495238D01*
X146557143Y-107447619D01*
X146223810Y-107447619D01*
X146223810Y-107638095D01*
X146652381Y-107019048D02*
X145652381Y-107019048D01*
X145652381Y-106638095D01*
X145700000Y-106542857D01*
X145747619Y-106495238D01*
X145842857Y-106447619D01*
X145985714Y-106447619D01*
X146080952Y-106495238D01*
X146128571Y-106542857D01*
X146176190Y-106638095D01*
X146176190Y-107019048D01*
X146604762Y-106066667D02*
X146652381Y-105923810D01*
X146652381Y-105685714D01*
X146604762Y-105590476D01*
X146557143Y-105542857D01*
X146461905Y-105495238D01*
X146366667Y-105495238D01*
X146271429Y-105542857D01*
X146223810Y-105590476D01*
X146176190Y-105685714D01*
X146128571Y-105876191D01*
X146080952Y-105971429D01*
X146033333Y-106019048D01*
X145938095Y-106066667D01*
X145842857Y-106066667D01*
X145747619Y-106019048D01*
X145700000Y-105971429D01*
X145652381Y-105876191D01*
X145652381Y-105638095D01*
X145700000Y-105495238D01*
X146652381Y-104542857D02*
X146652381Y-105114286D01*
X146652381Y-104828572D02*
X145652381Y-104828572D01*
X145795238Y-104923810D01*
X145890476Y-105019048D01*
X145938095Y-105114286D01*
X125909524Y-109966667D02*
X126385715Y-109966667D01*
X125814286Y-110252381D02*
X126147619Y-109252381D01*
X126480953Y-110252381D01*
X126576191Y-110347619D02*
X127338096Y-110347619D01*
X127576191Y-110252381D02*
X127576191Y-109252381D01*
X127909525Y-109966667D01*
X128242858Y-109252381D01*
X128242858Y-110252381D01*
X128719048Y-110252381D02*
X128719048Y-109252381D01*
X129100001Y-109252381D01*
X129195239Y-109300000D01*
X129242858Y-109347619D01*
X129290477Y-109442857D01*
X129290477Y-109585714D01*
X129242858Y-109680952D01*
X129195239Y-109728571D01*
X129100001Y-109776190D01*
X128719048Y-109776190D01*
X129719048Y-109252381D02*
X129719048Y-110061905D01*
X129766667Y-110157143D01*
X129814286Y-110204762D01*
X129909524Y-110252381D01*
X130100001Y-110252381D01*
X130195239Y-110204762D01*
X130242858Y-110157143D01*
X130290477Y-110061905D01*
X130290477Y-109252381D01*
X131290477Y-110252381D02*
X130719048Y-110252381D01*
X131004762Y-110252381D02*
X131004762Y-109252381D01*
X130909524Y-109395238D01*
X130814286Y-109490476D01*
X130719048Y-109538095D01*
X96023381Y-128532667D02*
X96499572Y-128532667D01*
X95928143Y-128818381D02*
X96261476Y-127818381D01*
X96594810Y-128818381D01*
X96690048Y-128913619D02*
X97451953Y-128913619D01*
X97690048Y-128818381D02*
X97690048Y-127818381D01*
X98261477Y-128818381D01*
X98261477Y-127818381D01*
X98594810Y-127818381D02*
X98928143Y-128818381D01*
X99261477Y-127818381D01*
X100118620Y-128818381D02*
X99547191Y-128818381D01*
X99832905Y-128818381D02*
X99832905Y-127818381D01*
X99737667Y-127961238D01*
X99642429Y-128056476D01*
X99547191Y-128104095D01*
X95896381Y-131834667D02*
X96372572Y-131834667D01*
X95801143Y-132120381D02*
X96134476Y-131120381D01*
X96467810Y-132120381D01*
X96563048Y-132215619D02*
X97324953Y-132215619D01*
X97563048Y-132120381D02*
X97563048Y-131120381D01*
X98134477Y-132120381D01*
X98134477Y-131120381D01*
X98467810Y-131120381D02*
X98801143Y-132120381D01*
X99134477Y-131120381D01*
X99420191Y-131215619D02*
X99467810Y-131168000D01*
X99563048Y-131120381D01*
X99801144Y-131120381D01*
X99896382Y-131168000D01*
X99944001Y-131215619D01*
X99991620Y-131310857D01*
X99991620Y-131406095D01*
X99944001Y-131548952D01*
X99372572Y-132120381D01*
X99991620Y-132120381D01*
X95769381Y-135390667D02*
X96245572Y-135390667D01*
X95674143Y-135676381D02*
X96007476Y-134676381D01*
X96340810Y-135676381D01*
X96436048Y-135771619D02*
X97197953Y-135771619D01*
X97436048Y-135676381D02*
X97436048Y-134676381D01*
X98007477Y-135676381D01*
X98007477Y-134676381D01*
X98340810Y-134676381D02*
X98674143Y-135676381D01*
X99007477Y-134676381D01*
X99245572Y-134676381D02*
X99864620Y-134676381D01*
X99531286Y-135057333D01*
X99674144Y-135057333D01*
X99769382Y-135104952D01*
X99817001Y-135152571D01*
X99864620Y-135247810D01*
X99864620Y-135485905D01*
X99817001Y-135581143D01*
X99769382Y-135628762D01*
X99674144Y-135676381D01*
X99388429Y-135676381D01*
X99293191Y-135628762D01*
X99245572Y-135581143D01*
X148132762Y-117697905D02*
X148180381Y-117555048D01*
X148180381Y-117316952D01*
X148132762Y-117221714D01*
X148085143Y-117174095D01*
X147989905Y-117126476D01*
X147894667Y-117126476D01*
X147799429Y-117174095D01*
X147751810Y-117221714D01*
X147704190Y-117316952D01*
X147656571Y-117507429D01*
X147608952Y-117602667D01*
X147561333Y-117650286D01*
X147466095Y-117697905D01*
X147370857Y-117697905D01*
X147275619Y-117650286D01*
X147228000Y-117602667D01*
X147180381Y-117507429D01*
X147180381Y-117269333D01*
X147228000Y-117126476D01*
X148180381Y-116174095D02*
X148180381Y-116745524D01*
X148180381Y-116459810D02*
X147180381Y-116459810D01*
X147323238Y-116555048D01*
X147418476Y-116650286D01*
X147466095Y-116745524D01*
X118038095Y-109252381D02*
X118038095Y-110061905D01*
X118085714Y-110157143D01*
X118133333Y-110204762D01*
X118228571Y-110252381D01*
X118419048Y-110252381D01*
X118514286Y-110204762D01*
X118561905Y-110157143D01*
X118609524Y-110061905D01*
X118609524Y-109252381D01*
X119514286Y-109585714D02*
X119514286Y-110252381D01*
X119276190Y-109204762D02*
X119038095Y-109919048D01*
X119657143Y-109919048D01*
X136585381Y-108182762D02*
X135585381Y-108182762D01*
X136585381Y-107706572D02*
X135585381Y-107706572D01*
X136585381Y-107135143D01*
X135585381Y-107135143D01*
X135585381Y-106801810D02*
X135585381Y-106230381D01*
X136585381Y-106516096D02*
X135585381Y-106516096D01*
X133699667Y-108539905D02*
X133699667Y-108063714D01*
X133985381Y-108635143D02*
X132985381Y-108301810D01*
X133985381Y-107968476D01*
X133985381Y-107635143D02*
X132985381Y-107635143D01*
X132985381Y-107397048D01*
X133033000Y-107254190D01*
X133128238Y-107158952D01*
X133223476Y-107111333D01*
X133413952Y-107063714D01*
X133556810Y-107063714D01*
X133747286Y-107111333D01*
X133842524Y-107158952D01*
X133937762Y-107254190D01*
X133985381Y-107397048D01*
X133985381Y-107635143D01*
X132985381Y-106444667D02*
X132985381Y-106254190D01*
X133033000Y-106158952D01*
X133128238Y-106063714D01*
X133318714Y-106016095D01*
X133652048Y-106016095D01*
X133842524Y-106063714D01*
X133937762Y-106158952D01*
X133985381Y-106254190D01*
X133985381Y-106444667D01*
X133937762Y-106539905D01*
X133842524Y-106635143D01*
X133652048Y-106682762D01*
X133318714Y-106682762D01*
X133128238Y-106635143D01*
X133033000Y-106539905D01*
X132985381Y-106444667D01*
X130485381Y-108516095D02*
X131485381Y-107849428D01*
X130485381Y-107849428D02*
X131485381Y-108516095D01*
X131390143Y-106897047D02*
X131437762Y-106944666D01*
X131485381Y-107087523D01*
X131485381Y-107182761D01*
X131437762Y-107325619D01*
X131342524Y-107420857D01*
X131247286Y-107468476D01*
X131056810Y-107516095D01*
X130913952Y-107516095D01*
X130723476Y-107468476D01*
X130628238Y-107420857D01*
X130533000Y-107325619D01*
X130485381Y-107182761D01*
X130485381Y-107087523D01*
X130533000Y-106944666D01*
X130580619Y-106897047D01*
X131485381Y-105992285D02*
X131485381Y-106468476D01*
X130485381Y-106468476D01*
X127985381Y-108539905D02*
X128985381Y-107873238D01*
X127985381Y-107873238D02*
X128985381Y-108539905D01*
X128985381Y-107492286D02*
X127985381Y-107492286D01*
X127985381Y-107254191D01*
X128033000Y-107111333D01*
X128128238Y-107016095D01*
X128223476Y-106968476D01*
X128413952Y-106920857D01*
X128556810Y-106920857D01*
X128747286Y-106968476D01*
X128842524Y-107016095D01*
X128937762Y-107111333D01*
X128985381Y-107254191D01*
X128985381Y-107492286D01*
X128699667Y-106539905D02*
X128699667Y-106063714D01*
X128985381Y-106635143D02*
X127985381Y-106301810D01*
X128985381Y-105968476D01*
X126542762Y-107990286D02*
X126590381Y-107847429D01*
X126590381Y-107609333D01*
X126542762Y-107514095D01*
X126495143Y-107466476D01*
X126399905Y-107418857D01*
X126304667Y-107418857D01*
X126209429Y-107466476D01*
X126161810Y-107514095D01*
X126114190Y-107609333D01*
X126066571Y-107799810D01*
X126018952Y-107895048D01*
X125971333Y-107942667D01*
X125876095Y-107990286D01*
X125780857Y-107990286D01*
X125685619Y-107942667D01*
X125638000Y-107895048D01*
X125590381Y-107799810D01*
X125590381Y-107561714D01*
X125638000Y-107418857D01*
X126590381Y-106990286D02*
X125590381Y-106990286D01*
X125590381Y-106752191D01*
X125638000Y-106609333D01*
X125733238Y-106514095D01*
X125828476Y-106466476D01*
X126018952Y-106418857D01*
X126161810Y-106418857D01*
X126352286Y-106466476D01*
X126447524Y-106514095D01*
X126542762Y-106609333D01*
X126590381Y-106752191D01*
X126590381Y-106990286D01*
X126304667Y-106037905D02*
X126304667Y-105561714D01*
X126590381Y-106133143D02*
X125590381Y-105799810D01*
X126590381Y-105466476D01*
X124002762Y-107966476D02*
X124050381Y-107823619D01*
X124050381Y-107585523D01*
X124002762Y-107490285D01*
X123955143Y-107442666D01*
X123859905Y-107395047D01*
X123764667Y-107395047D01*
X123669429Y-107442666D01*
X123621810Y-107490285D01*
X123574190Y-107585523D01*
X123526571Y-107776000D01*
X123478952Y-107871238D01*
X123431333Y-107918857D01*
X123336095Y-107966476D01*
X123240857Y-107966476D01*
X123145619Y-107918857D01*
X123098000Y-107871238D01*
X123050381Y-107776000D01*
X123050381Y-107537904D01*
X123098000Y-107395047D01*
X123955143Y-106395047D02*
X124002762Y-106442666D01*
X124050381Y-106585523D01*
X124050381Y-106680761D01*
X124002762Y-106823619D01*
X123907524Y-106918857D01*
X123812286Y-106966476D01*
X123621810Y-107014095D01*
X123478952Y-107014095D01*
X123288476Y-106966476D01*
X123193238Y-106918857D01*
X123098000Y-106823619D01*
X123050381Y-106680761D01*
X123050381Y-106585523D01*
X123098000Y-106442666D01*
X123145619Y-106395047D01*
X124050381Y-105490285D02*
X124050381Y-105966476D01*
X123050381Y-105966476D01*
X120177000Y-107664904D02*
X120129381Y-107760142D01*
X120129381Y-107902999D01*
X120177000Y-108045857D01*
X120272238Y-108141095D01*
X120367476Y-108188714D01*
X120557952Y-108236333D01*
X120700810Y-108236333D01*
X120891286Y-108188714D01*
X120986524Y-108141095D01*
X121081762Y-108045857D01*
X121129381Y-107902999D01*
X121129381Y-107807761D01*
X121081762Y-107664904D01*
X121034143Y-107617285D01*
X120700810Y-107617285D01*
X120700810Y-107807761D01*
X121129381Y-107188714D02*
X120129381Y-107188714D01*
X121129381Y-106617285D01*
X120129381Y-106617285D01*
X121129381Y-106141095D02*
X120129381Y-106141095D01*
X120129381Y-105903000D01*
X120177000Y-105760142D01*
X120272238Y-105664904D01*
X120367476Y-105617285D01*
X120557952Y-105569666D01*
X120700810Y-105569666D01*
X120891286Y-105617285D01*
X120986524Y-105664904D01*
X121081762Y-105760142D01*
X121129381Y-105903000D01*
X121129381Y-106141095D01*
X117785381Y-108611333D02*
X118785381Y-108278000D01*
X117785381Y-107944666D01*
X118690143Y-107039904D02*
X118737762Y-107087523D01*
X118785381Y-107230380D01*
X118785381Y-107325618D01*
X118737762Y-107468476D01*
X118642524Y-107563714D01*
X118547286Y-107611333D01*
X118356810Y-107658952D01*
X118213952Y-107658952D01*
X118023476Y-107611333D01*
X117928238Y-107563714D01*
X117833000Y-107468476D01*
X117785381Y-107325618D01*
X117785381Y-107230380D01*
X117833000Y-107087523D01*
X117880619Y-107039904D01*
X118690143Y-106039904D02*
X118737762Y-106087523D01*
X118785381Y-106230380D01*
X118785381Y-106325618D01*
X118737762Y-106468476D01*
X118642524Y-106563714D01*
X118547286Y-106611333D01*
X118356810Y-106658952D01*
X118213952Y-106658952D01*
X118023476Y-106611333D01*
X117928238Y-106563714D01*
X117833000Y-106468476D01*
X117785381Y-106325618D01*
X117785381Y-106230380D01*
X117833000Y-106087523D01*
X117880619Y-106039904D01*
X140867381Y-146936666D02*
X140867381Y-147412857D01*
X141343571Y-147460476D01*
X141295952Y-147412857D01*
X141248333Y-147317619D01*
X141248333Y-147079523D01*
X141295952Y-146984285D01*
X141343571Y-146936666D01*
X141438810Y-146889047D01*
X141676905Y-146889047D01*
X141772143Y-146936666D01*
X141819762Y-146984285D01*
X141867381Y-147079523D01*
X141867381Y-147317619D01*
X141819762Y-147412857D01*
X141772143Y-147460476D01*
X140867381Y-146603333D02*
X141867381Y-146270000D01*
X140867381Y-145936666D01*
X141867381Y-145079523D02*
X141867381Y-145650952D01*
X141867381Y-145365238D02*
X140867381Y-145365238D01*
X141010238Y-145460476D01*
X141105476Y-145555714D01*
X141153095Y-145650952D01*
X135877405Y-147233381D02*
X135877405Y-146233381D01*
X136115500Y-146233381D01*
X136258358Y-146281000D01*
X136353596Y-146376238D01*
X136401215Y-146471476D01*
X136448834Y-146661952D01*
X136448834Y-146804810D01*
X136401215Y-146995286D01*
X136353596Y-147090524D01*
X136258358Y-147185762D01*
X136115500Y-147233381D01*
X135877405Y-147233381D01*
X136829786Y-146328619D02*
X136877405Y-146281000D01*
X136972643Y-146233381D01*
X137210739Y-146233381D01*
X137305977Y-146281000D01*
X137353596Y-146328619D01*
X137401215Y-146423857D01*
X137401215Y-146519095D01*
X137353596Y-146661952D01*
X136782167Y-147233381D01*
X137401215Y-147233381D01*
X135813905Y-144883881D02*
X135813905Y-143883881D01*
X136052000Y-143883881D01*
X136194858Y-143931500D01*
X136290096Y-144026738D01*
X136337715Y-144121976D01*
X136385334Y-144312452D01*
X136385334Y-144455310D01*
X136337715Y-144645786D01*
X136290096Y-144741024D01*
X136194858Y-144836262D01*
X136052000Y-144883881D01*
X135813905Y-144883881D01*
X136718667Y-143883881D02*
X137337715Y-143883881D01*
X137004381Y-144264833D01*
X137147239Y-144264833D01*
X137242477Y-144312452D01*
X137290096Y-144360071D01*
X137337715Y-144455310D01*
X137337715Y-144693405D01*
X137290096Y-144788643D01*
X137242477Y-144836262D01*
X137147239Y-144883881D01*
X136861524Y-144883881D01*
X136766286Y-144836262D01*
X136718667Y-144788643D01*
X105885034Y-141330981D02*
X105551700Y-140854790D01*
X105313605Y-141330981D02*
X105313605Y-140330981D01*
X105694558Y-140330981D01*
X105789796Y-140378600D01*
X105837415Y-140426219D01*
X105885034Y-140521457D01*
X105885034Y-140664314D01*
X105837415Y-140759552D01*
X105789796Y-140807171D01*
X105694558Y-140854790D01*
X105313605Y-140854790D01*
X106789796Y-140330981D02*
X106313605Y-140330981D01*
X106265986Y-140807171D01*
X106313605Y-140759552D01*
X106408843Y-140711933D01*
X106646939Y-140711933D01*
X106742177Y-140759552D01*
X106789796Y-140807171D01*
X106837415Y-140902410D01*
X106837415Y-141140505D01*
X106789796Y-141235743D01*
X106742177Y-141283362D01*
X106646939Y-141330981D01*
X106408843Y-141330981D01*
X106313605Y-141283362D01*
X106265986Y-141235743D01*
X105897734Y-138754781D02*
X105564400Y-138278590D01*
X105326305Y-138754781D02*
X105326305Y-137754781D01*
X105707258Y-137754781D01*
X105802496Y-137802400D01*
X105850115Y-137850019D01*
X105897734Y-137945257D01*
X105897734Y-138088114D01*
X105850115Y-138183352D01*
X105802496Y-138230971D01*
X105707258Y-138278590D01*
X105326305Y-138278590D01*
X106754877Y-137754781D02*
X106564400Y-137754781D01*
X106469162Y-137802400D01*
X106421543Y-137850019D01*
X106326305Y-137992876D01*
X106278686Y-138183352D01*
X106278686Y-138564305D01*
X106326305Y-138659543D01*
X106373924Y-138707162D01*
X106469162Y-138754781D01*
X106659639Y-138754781D01*
X106754877Y-138707162D01*
X106802496Y-138659543D01*
X106850115Y-138564305D01*
X106850115Y-138326210D01*
X106802496Y-138230971D01*
X106754877Y-138183352D01*
X106659639Y-138135733D01*
X106469162Y-138135733D01*
X106373924Y-138183352D01*
X106326305Y-138230971D01*
X106278686Y-138326210D01*
X142352381Y-142452381D02*
X142352381Y-141452381D01*
X142733334Y-141452381D01*
X142828572Y-141500000D01*
X142876191Y-141547619D01*
X142923810Y-141642857D01*
X142923810Y-141785714D01*
X142876191Y-141880952D01*
X142828572Y-141928571D01*
X142733334Y-141976190D01*
X142352381Y-141976190D01*
X143114286Y-142547619D02*
X143876191Y-142547619D01*
X144066667Y-142404762D02*
X144209524Y-142452381D01*
X144447620Y-142452381D01*
X144542858Y-142404762D01*
X144590477Y-142357143D01*
X144638096Y-142261905D01*
X144638096Y-142166667D01*
X144590477Y-142071429D01*
X144542858Y-142023810D01*
X144447620Y-141976190D01*
X144257143Y-141928571D01*
X144161905Y-141880952D01*
X144114286Y-141833333D01*
X144066667Y-141738095D01*
X144066667Y-141642857D01*
X144114286Y-141547619D01*
X144161905Y-141500000D01*
X144257143Y-141452381D01*
X144495239Y-141452381D01*
X144638096Y-141500000D01*
X145066667Y-141928571D02*
X145400001Y-141928571D01*
X145542858Y-142452381D02*
X145066667Y-142452381D01*
X145066667Y-141452381D01*
X145542858Y-141452381D01*
X145971429Y-142452381D02*
X145971429Y-141452381D01*
X146542858Y-142452381D01*
X146542858Y-141452381D01*
X146971429Y-142404762D02*
X147114286Y-142452381D01*
X147352382Y-142452381D01*
X147447620Y-142404762D01*
X147495239Y-142357143D01*
X147542858Y-142261905D01*
X147542858Y-142166667D01*
X147495239Y-142071429D01*
X147447620Y-142023810D01*
X147352382Y-141976190D01*
X147161905Y-141928571D01*
X147066667Y-141880952D01*
X147019048Y-141833333D01*
X146971429Y-141738095D01*
X146971429Y-141642857D01*
X147019048Y-141547619D01*
X147066667Y-141500000D01*
X147161905Y-141452381D01*
X147400001Y-141452381D01*
X147542858Y-141500000D01*
X148495239Y-142452381D02*
X147923810Y-142452381D01*
X148209524Y-142452381D02*
X148209524Y-141452381D01*
X148114286Y-141595238D01*
X148019048Y-141690476D01*
X147923810Y-141738095D01*
M02*
