%FSLAX45Y45*%
G04 Gerber Fmt 4.5, Leading zero omitted, Abs format (unit mm)*
G04 Created by KiCad (PCBNEW 4.0.3-stable) date 07/17/17 20:12:45*
%MOMM*%
%LPD*%
G01*
G04 APERTURE LIST*
%ADD10C,0.127000*%
%ADD11C,0.150000*%
%ADD12C,0.200000*%
%ADD13C,0.300000*%
G04 APERTURE END LIST*
D10*
D11*
X15000000Y-15000000D02*
X15000000Y-5000000D01*
X5000000Y-15000000D02*
X5000000Y-5000000D01*
X15000000Y-15000000D02*
X5000000Y-15000000D01*
X5000000Y-5000000D02*
X15000000Y-5000000D01*
D12*
X8904300Y-12077000D02*
X9204300Y-12377000D01*
X9204300Y-12077000D02*
X8904300Y-12377000D01*
X8904300Y-14109000D02*
X9204300Y-14409000D01*
X9204300Y-14109000D02*
X8904300Y-14409000D01*
X8954300Y-6977000D02*
X9254300Y-7277000D01*
X9254300Y-6977000D02*
X8954300Y-7277000D01*
X8954300Y-9009000D02*
X9254300Y-9309000D01*
X9254300Y-9009000D02*
X8954300Y-9309000D01*
X12079300Y-12077000D02*
X12379300Y-12377000D01*
X12379300Y-12077000D02*
X12079300Y-12377000D01*
X12079300Y-14109000D02*
X12379300Y-14409000D01*
X12379300Y-14109000D02*
X12079300Y-14409000D01*
X12129300Y-6977000D02*
X12429300Y-7277000D01*
X12429300Y-6977000D02*
X12129300Y-7277000D01*
X12129300Y-9009000D02*
X12429300Y-9309000D01*
X12429300Y-9009000D02*
X12129300Y-9309000D01*
X5683800Y-9652000D02*
G75*
G03X5683800Y-9652000I-200000J0D01*
G01*
X7743800Y-9652000D02*
G75*
G03X7743800Y-9652000I-200000J0D01*
G01*
X12232800Y-10792800D02*
X12232800Y-11222800D01*
X12017800Y-11007800D02*
X12447800Y-11007800D01*
X12242800Y-5692800D02*
X12242800Y-6122800D01*
X12027800Y-5907800D02*
X12457800Y-5907800D01*
D13*
X5263929Y-15473214D02*
X5263929Y-15173214D01*
X5335357Y-15173214D01*
X5378214Y-15187500D01*
X5406786Y-15216071D01*
X5421071Y-15244643D01*
X5435357Y-15301786D01*
X5435357Y-15344643D01*
X5421071Y-15401786D01*
X5406786Y-15430357D01*
X5378214Y-15458929D01*
X5335357Y-15473214D01*
X5263929Y-15473214D01*
X5563929Y-15473214D02*
X5563929Y-15273214D01*
X5563929Y-15330357D02*
X5578214Y-15301786D01*
X5592500Y-15287500D01*
X5621071Y-15273214D01*
X5649643Y-15273214D01*
X5749643Y-15473214D02*
X5749643Y-15273214D01*
X5749643Y-15173214D02*
X5735357Y-15187500D01*
X5749643Y-15201786D01*
X5763928Y-15187500D01*
X5749643Y-15173214D01*
X5749643Y-15201786D01*
X5935357Y-15473214D02*
X5906786Y-15458929D01*
X5892500Y-15430357D01*
X5892500Y-15173214D01*
X6092500Y-15473214D02*
X6063928Y-15458929D01*
X6049643Y-15430357D01*
X6049643Y-15173214D01*
X6435357Y-15473214D02*
X6435357Y-15173214D01*
X6535357Y-15387500D01*
X6635357Y-15173214D01*
X6635357Y-15473214D01*
X6906786Y-15473214D02*
X6906786Y-15316071D01*
X6892500Y-15287500D01*
X6863928Y-15273214D01*
X6806786Y-15273214D01*
X6778214Y-15287500D01*
X6906786Y-15458929D02*
X6878214Y-15473214D01*
X6806786Y-15473214D01*
X6778214Y-15458929D01*
X6763928Y-15430357D01*
X6763928Y-15401786D01*
X6778214Y-15373214D01*
X6806786Y-15358929D01*
X6878214Y-15358929D01*
X6906786Y-15344643D01*
X7049643Y-15273214D02*
X7049643Y-15573214D01*
X7049643Y-15287500D02*
X7078214Y-15273214D01*
X7135357Y-15273214D01*
X7163928Y-15287500D01*
X7178214Y-15301786D01*
X7192500Y-15330357D01*
X7192500Y-15416071D01*
X7178214Y-15444643D01*
X7163928Y-15458929D01*
X7135357Y-15473214D01*
X7078214Y-15473214D01*
X7049643Y-15458929D01*
X7321071Y-15444643D02*
X7335357Y-15458929D01*
X7321071Y-15473214D01*
X7306786Y-15458929D01*
X7321071Y-15444643D01*
X7321071Y-15473214D01*
X7321071Y-15287500D02*
X7335357Y-15301786D01*
X7321071Y-15316071D01*
X7306786Y-15301786D01*
X7321071Y-15287500D01*
X7321071Y-15316071D01*
X4692500Y-15817500D02*
X4992500Y-16117500D01*
X4992500Y-15817500D02*
X4692500Y-16117500D01*
X5235357Y-15803214D02*
X5421071Y-15803214D01*
X5321071Y-15917500D01*
X5363929Y-15917500D01*
X5392500Y-15931786D01*
X5406786Y-15946071D01*
X5421071Y-15974643D01*
X5421071Y-16046071D01*
X5406786Y-16074643D01*
X5392500Y-16088929D01*
X5363929Y-16103214D01*
X5278214Y-16103214D01*
X5249643Y-16088929D01*
X5235357Y-16074643D01*
X5549643Y-16074643D02*
X5563929Y-16088929D01*
X5549643Y-16103214D01*
X5535357Y-16088929D01*
X5549643Y-16074643D01*
X5549643Y-16103214D01*
X5749643Y-15803214D02*
X5778214Y-15803214D01*
X5806786Y-15817500D01*
X5821071Y-15831786D01*
X5835357Y-15860357D01*
X5849643Y-15917500D01*
X5849643Y-15988929D01*
X5835357Y-16046071D01*
X5821071Y-16074643D01*
X5806786Y-16088929D01*
X5778214Y-16103214D01*
X5749643Y-16103214D01*
X5721071Y-16088929D01*
X5706786Y-16074643D01*
X5692500Y-16046071D01*
X5678214Y-15988929D01*
X5678214Y-15917500D01*
X5692500Y-15860357D01*
X5706786Y-15831786D01*
X5721071Y-15817500D01*
X5749643Y-15803214D01*
X6035357Y-15803214D02*
X6063928Y-15803214D01*
X6092500Y-15817500D01*
X6106786Y-15831786D01*
X6121071Y-15860357D01*
X6135357Y-15917500D01*
X6135357Y-15988929D01*
X6121071Y-16046071D01*
X6106786Y-16074643D01*
X6092500Y-16088929D01*
X6063928Y-16103214D01*
X6035357Y-16103214D01*
X6006786Y-16088929D01*
X5992500Y-16074643D01*
X5978214Y-16046071D01*
X5963928Y-15988929D01*
X5963928Y-15917500D01*
X5978214Y-15860357D01*
X5992500Y-15831786D01*
X6006786Y-15817500D01*
X6035357Y-15803214D01*
X6263928Y-16103214D02*
X6263928Y-15903214D01*
X6263928Y-15931786D02*
X6278214Y-15917500D01*
X6306786Y-15903214D01*
X6349643Y-15903214D01*
X6378214Y-15917500D01*
X6392500Y-15946071D01*
X6392500Y-16103214D01*
X6392500Y-15946071D02*
X6406786Y-15917500D01*
X6435357Y-15903214D01*
X6478214Y-15903214D01*
X6506786Y-15917500D01*
X6521071Y-15946071D01*
X6521071Y-16103214D01*
X6663928Y-16103214D02*
X6663928Y-15903214D01*
X6663928Y-15931786D02*
X6678214Y-15917500D01*
X6706786Y-15903214D01*
X6749643Y-15903214D01*
X6778214Y-15917500D01*
X6792500Y-15946071D01*
X6792500Y-16103214D01*
X6792500Y-15946071D02*
X6806786Y-15917500D01*
X6835357Y-15903214D01*
X6878214Y-15903214D01*
X6906786Y-15917500D01*
X6921071Y-15946071D01*
X6921071Y-16103214D01*
X7506786Y-15788929D02*
X7249643Y-16174643D01*
X7892500Y-15803214D02*
X7921071Y-15803214D01*
X7949643Y-15817500D01*
X7963928Y-15831786D01*
X7978214Y-15860357D01*
X7992500Y-15917500D01*
X7992500Y-15988929D01*
X7978214Y-16046071D01*
X7963928Y-16074643D01*
X7949643Y-16088929D01*
X7921071Y-16103214D01*
X7892500Y-16103214D01*
X7863928Y-16088929D01*
X7849643Y-16074643D01*
X7835357Y-16046071D01*
X7821071Y-15988929D01*
X7821071Y-15917500D01*
X7835357Y-15860357D01*
X7849643Y-15831786D01*
X7863928Y-15817500D01*
X7892500Y-15803214D01*
X8121071Y-16074643D02*
X8135357Y-16088929D01*
X8121071Y-16103214D01*
X8106786Y-16088929D01*
X8121071Y-16074643D01*
X8121071Y-16103214D01*
X8421071Y-16103214D02*
X8249643Y-16103214D01*
X8335357Y-16103214D02*
X8335357Y-15803214D01*
X8306785Y-15846071D01*
X8278214Y-15874643D01*
X8249643Y-15888929D01*
X8706786Y-16103214D02*
X8535357Y-16103214D01*
X8621071Y-16103214D02*
X8621071Y-15803214D01*
X8592500Y-15846071D01*
X8563928Y-15874643D01*
X8535357Y-15888929D01*
X8878214Y-15931786D02*
X8849643Y-15917500D01*
X8835357Y-15903214D01*
X8821071Y-15874643D01*
X8821071Y-15860357D01*
X8835357Y-15831786D01*
X8849643Y-15817500D01*
X8878214Y-15803214D01*
X8935357Y-15803214D01*
X8963928Y-15817500D01*
X8978214Y-15831786D01*
X8992500Y-15860357D01*
X8992500Y-15874643D01*
X8978214Y-15903214D01*
X8963928Y-15917500D01*
X8935357Y-15931786D01*
X8878214Y-15931786D01*
X8849643Y-15946071D01*
X8835357Y-15960357D01*
X8821071Y-15988929D01*
X8821071Y-16046071D01*
X8835357Y-16074643D01*
X8849643Y-16088929D01*
X8878214Y-16103214D01*
X8935357Y-16103214D01*
X8963928Y-16088929D01*
X8978214Y-16074643D01*
X8992500Y-16046071D01*
X8992500Y-15988929D01*
X8978214Y-15960357D01*
X8963928Y-15946071D01*
X8935357Y-15931786D01*
X9106786Y-15803214D02*
X9106786Y-15860357D01*
X9221071Y-15803214D02*
X9221071Y-15860357D01*
X9663928Y-16217500D02*
X9649643Y-16203214D01*
X9621071Y-16160357D01*
X9606786Y-16131786D01*
X9592500Y-16088929D01*
X9578214Y-16017500D01*
X9578214Y-15960357D01*
X9592500Y-15888929D01*
X9606786Y-15846071D01*
X9621071Y-15817500D01*
X9649643Y-15774643D01*
X9663928Y-15760357D01*
X9821071Y-15931786D02*
X9792500Y-15917500D01*
X9778214Y-15903214D01*
X9763928Y-15874643D01*
X9763928Y-15860357D01*
X9778214Y-15831786D01*
X9792500Y-15817500D01*
X9821071Y-15803214D01*
X9878214Y-15803214D01*
X9906786Y-15817500D01*
X9921071Y-15831786D01*
X9935357Y-15860357D01*
X9935357Y-15874643D01*
X9921071Y-15903214D01*
X9906786Y-15917500D01*
X9878214Y-15931786D01*
X9821071Y-15931786D01*
X9792500Y-15946071D01*
X9778214Y-15960357D01*
X9763928Y-15988929D01*
X9763928Y-16046071D01*
X9778214Y-16074643D01*
X9792500Y-16088929D01*
X9821071Y-16103214D01*
X9878214Y-16103214D01*
X9906786Y-16088929D01*
X9921071Y-16074643D01*
X9935357Y-16046071D01*
X9935357Y-15988929D01*
X9921071Y-15960357D01*
X9906786Y-15946071D01*
X9878214Y-15931786D01*
X10292500Y-16103214D02*
X10292500Y-15803214D01*
X10421071Y-16103214D02*
X10421071Y-15946071D01*
X10406786Y-15917500D01*
X10378214Y-15903214D01*
X10335357Y-15903214D01*
X10306786Y-15917500D01*
X10292500Y-15931786D01*
X10606786Y-16103214D02*
X10578214Y-16088929D01*
X10563928Y-16074643D01*
X10549643Y-16046071D01*
X10549643Y-15960357D01*
X10563928Y-15931786D01*
X10578214Y-15917500D01*
X10606786Y-15903214D01*
X10649643Y-15903214D01*
X10678214Y-15917500D01*
X10692500Y-15931786D01*
X10706786Y-15960357D01*
X10706786Y-16046071D01*
X10692500Y-16074643D01*
X10678214Y-16088929D01*
X10649643Y-16103214D01*
X10606786Y-16103214D01*
X10878214Y-16103214D02*
X10849643Y-16088929D01*
X10835357Y-16060357D01*
X10835357Y-15803214D01*
X11106786Y-16088929D02*
X11078214Y-16103214D01*
X11021071Y-16103214D01*
X10992500Y-16088929D01*
X10978214Y-16060357D01*
X10978214Y-15946071D01*
X10992500Y-15917500D01*
X11021071Y-15903214D01*
X11078214Y-15903214D01*
X11106786Y-15917500D01*
X11121071Y-15946071D01*
X11121071Y-15974643D01*
X10978214Y-16003214D01*
X11235357Y-16088929D02*
X11263928Y-16103214D01*
X11321071Y-16103214D01*
X11349643Y-16088929D01*
X11363928Y-16060357D01*
X11363928Y-16046071D01*
X11349643Y-16017500D01*
X11321071Y-16003214D01*
X11278214Y-16003214D01*
X11249643Y-15988929D01*
X11235357Y-15960357D01*
X11235357Y-15946071D01*
X11249643Y-15917500D01*
X11278214Y-15903214D01*
X11321071Y-15903214D01*
X11349643Y-15917500D01*
X11463928Y-16217500D02*
X11478214Y-16203214D01*
X11506786Y-16160357D01*
X11521071Y-16131786D01*
X11535357Y-16088929D01*
X11549643Y-16017500D01*
X11549643Y-15960357D01*
X11535357Y-15888929D01*
X11521071Y-15846071D01*
X11506786Y-15817500D01*
X11478214Y-15774643D01*
X11463928Y-15760357D01*
X12006786Y-16217500D02*
X11992500Y-16203214D01*
X11963928Y-16160357D01*
X11949643Y-16131786D01*
X11935357Y-16088929D01*
X11921071Y-16017500D01*
X11921071Y-15960357D01*
X11935357Y-15888929D01*
X11949643Y-15846071D01*
X11963928Y-15817500D01*
X11992500Y-15774643D01*
X12006786Y-15760357D01*
X12121071Y-15903214D02*
X12121071Y-16103214D01*
X12121071Y-15931786D02*
X12135357Y-15917500D01*
X12163928Y-15903214D01*
X12206786Y-15903214D01*
X12235357Y-15917500D01*
X12249643Y-15946071D01*
X12249643Y-16103214D01*
X12435357Y-16103214D02*
X12406786Y-16088929D01*
X12392500Y-16074643D01*
X12378214Y-16046071D01*
X12378214Y-15960357D01*
X12392500Y-15931786D01*
X12406786Y-15917500D01*
X12435357Y-15903214D01*
X12478214Y-15903214D01*
X12506786Y-15917500D01*
X12521071Y-15931786D01*
X12535357Y-15960357D01*
X12535357Y-16046071D01*
X12521071Y-16074643D01*
X12506786Y-16088929D01*
X12478214Y-16103214D01*
X12435357Y-16103214D01*
X12621071Y-15903214D02*
X12735357Y-15903214D01*
X12663928Y-15803214D02*
X12663928Y-16060357D01*
X12678214Y-16088929D01*
X12706786Y-16103214D01*
X12735357Y-16103214D01*
X13063928Y-15903214D02*
X13063928Y-16203214D01*
X13063928Y-15917500D02*
X13092500Y-15903214D01*
X13149643Y-15903214D01*
X13178214Y-15917500D01*
X13192500Y-15931786D01*
X13206786Y-15960357D01*
X13206786Y-16046071D01*
X13192500Y-16074643D01*
X13178214Y-16088929D01*
X13149643Y-16103214D01*
X13092500Y-16103214D01*
X13063928Y-16088929D01*
X13378214Y-16103214D02*
X13349643Y-16088929D01*
X13335357Y-16060357D01*
X13335357Y-15803214D01*
X13621071Y-16103214D02*
X13621071Y-15946071D01*
X13606786Y-15917500D01*
X13578214Y-15903214D01*
X13521071Y-15903214D01*
X13492500Y-15917500D01*
X13621071Y-16088929D02*
X13592500Y-16103214D01*
X13521071Y-16103214D01*
X13492500Y-16088929D01*
X13478214Y-16060357D01*
X13478214Y-16031786D01*
X13492500Y-16003214D01*
X13521071Y-15988929D01*
X13592500Y-15988929D01*
X13621071Y-15974643D01*
X13721071Y-15903214D02*
X13835357Y-15903214D01*
X13763929Y-15803214D02*
X13763929Y-16060357D01*
X13778214Y-16088929D01*
X13806786Y-16103214D01*
X13835357Y-16103214D01*
X14049643Y-16088929D02*
X14021071Y-16103214D01*
X13963929Y-16103214D01*
X13935357Y-16088929D01*
X13921071Y-16060357D01*
X13921071Y-15946071D01*
X13935357Y-15917500D01*
X13963929Y-15903214D01*
X14021071Y-15903214D01*
X14049643Y-15917500D01*
X14063929Y-15946071D01*
X14063929Y-15974643D01*
X13921071Y-16003214D01*
X14321071Y-16103214D02*
X14321071Y-15803214D01*
X14321071Y-16088929D02*
X14292500Y-16103214D01*
X14235357Y-16103214D01*
X14206786Y-16088929D01*
X14192500Y-16074643D01*
X14178214Y-16046071D01*
X14178214Y-15960357D01*
X14192500Y-15931786D01*
X14206786Y-15917500D01*
X14235357Y-15903214D01*
X14292500Y-15903214D01*
X14321071Y-15917500D01*
X14435357Y-16217500D02*
X14449643Y-16203214D01*
X14478214Y-16160357D01*
X14492500Y-16131786D01*
X14506786Y-16088929D01*
X14521071Y-16017500D01*
X14521071Y-15960357D01*
X14506786Y-15888929D01*
X14492500Y-15846071D01*
X14478214Y-15817500D01*
X14449643Y-15774643D01*
X14435357Y-15760357D01*
X4992500Y-16397500D02*
G75*
G03X4992500Y-16397500I-200000J0D01*
G01*
X5392500Y-16333214D02*
X5392500Y-16533214D01*
X5321071Y-16218929D02*
X5249643Y-16433214D01*
X5435357Y-16433214D01*
X5549643Y-16504643D02*
X5563929Y-16518929D01*
X5549643Y-16533214D01*
X5535357Y-16518929D01*
X5549643Y-16504643D01*
X5549643Y-16533214D01*
X5749643Y-16233214D02*
X5778214Y-16233214D01*
X5806786Y-16247500D01*
X5821071Y-16261786D01*
X5835357Y-16290357D01*
X5849643Y-16347500D01*
X5849643Y-16418929D01*
X5835357Y-16476071D01*
X5821071Y-16504643D01*
X5806786Y-16518929D01*
X5778214Y-16533214D01*
X5749643Y-16533214D01*
X5721071Y-16518929D01*
X5706786Y-16504643D01*
X5692500Y-16476071D01*
X5678214Y-16418929D01*
X5678214Y-16347500D01*
X5692500Y-16290357D01*
X5706786Y-16261786D01*
X5721071Y-16247500D01*
X5749643Y-16233214D01*
X6035357Y-16233214D02*
X6063928Y-16233214D01*
X6092500Y-16247500D01*
X6106786Y-16261786D01*
X6121071Y-16290357D01*
X6135357Y-16347500D01*
X6135357Y-16418929D01*
X6121071Y-16476071D01*
X6106786Y-16504643D01*
X6092500Y-16518929D01*
X6063928Y-16533214D01*
X6035357Y-16533214D01*
X6006786Y-16518929D01*
X5992500Y-16504643D01*
X5978214Y-16476071D01*
X5963928Y-16418929D01*
X5963928Y-16347500D01*
X5978214Y-16290357D01*
X5992500Y-16261786D01*
X6006786Y-16247500D01*
X6035357Y-16233214D01*
X6263928Y-16533214D02*
X6263928Y-16333214D01*
X6263928Y-16361786D02*
X6278214Y-16347500D01*
X6306786Y-16333214D01*
X6349643Y-16333214D01*
X6378214Y-16347500D01*
X6392500Y-16376071D01*
X6392500Y-16533214D01*
X6392500Y-16376071D02*
X6406786Y-16347500D01*
X6435357Y-16333214D01*
X6478214Y-16333214D01*
X6506786Y-16347500D01*
X6521071Y-16376071D01*
X6521071Y-16533214D01*
X6663928Y-16533214D02*
X6663928Y-16333214D01*
X6663928Y-16361786D02*
X6678214Y-16347500D01*
X6706786Y-16333214D01*
X6749643Y-16333214D01*
X6778214Y-16347500D01*
X6792500Y-16376071D01*
X6792500Y-16533214D01*
X6792500Y-16376071D02*
X6806786Y-16347500D01*
X6835357Y-16333214D01*
X6878214Y-16333214D01*
X6906786Y-16347500D01*
X6921071Y-16376071D01*
X6921071Y-16533214D01*
X7506786Y-16218929D02*
X7249643Y-16604643D01*
X7892500Y-16233214D02*
X7921071Y-16233214D01*
X7949643Y-16247500D01*
X7963928Y-16261786D01*
X7978214Y-16290357D01*
X7992500Y-16347500D01*
X7992500Y-16418929D01*
X7978214Y-16476071D01*
X7963928Y-16504643D01*
X7949643Y-16518929D01*
X7921071Y-16533214D01*
X7892500Y-16533214D01*
X7863928Y-16518929D01*
X7849643Y-16504643D01*
X7835357Y-16476071D01*
X7821071Y-16418929D01*
X7821071Y-16347500D01*
X7835357Y-16290357D01*
X7849643Y-16261786D01*
X7863928Y-16247500D01*
X7892500Y-16233214D01*
X8121071Y-16504643D02*
X8135357Y-16518929D01*
X8121071Y-16533214D01*
X8106786Y-16518929D01*
X8121071Y-16504643D01*
X8121071Y-16533214D01*
X8421071Y-16533214D02*
X8249643Y-16533214D01*
X8335357Y-16533214D02*
X8335357Y-16233214D01*
X8306785Y-16276071D01*
X8278214Y-16304643D01*
X8249643Y-16318929D01*
X8692500Y-16233214D02*
X8549643Y-16233214D01*
X8535357Y-16376071D01*
X8549643Y-16361786D01*
X8578214Y-16347500D01*
X8649643Y-16347500D01*
X8678214Y-16361786D01*
X8692500Y-16376071D01*
X8706786Y-16404643D01*
X8706786Y-16476071D01*
X8692500Y-16504643D01*
X8678214Y-16518929D01*
X8649643Y-16533214D01*
X8578214Y-16533214D01*
X8549643Y-16518929D01*
X8535357Y-16504643D01*
X8806786Y-16233214D02*
X9006786Y-16233214D01*
X8878214Y-16533214D01*
X9106786Y-16233214D02*
X9106786Y-16290357D01*
X9221071Y-16233214D02*
X9221071Y-16290357D01*
X9663928Y-16647500D02*
X9649643Y-16633214D01*
X9621071Y-16590357D01*
X9606786Y-16561786D01*
X9592500Y-16518929D01*
X9578214Y-16447500D01*
X9578214Y-16390357D01*
X9592500Y-16318929D01*
X9606786Y-16276071D01*
X9621071Y-16247500D01*
X9649643Y-16204643D01*
X9663928Y-16190357D01*
X9763928Y-16261786D02*
X9778214Y-16247500D01*
X9806786Y-16233214D01*
X9878214Y-16233214D01*
X9906786Y-16247500D01*
X9921071Y-16261786D01*
X9935357Y-16290357D01*
X9935357Y-16318929D01*
X9921071Y-16361786D01*
X9749643Y-16533214D01*
X9935357Y-16533214D01*
X10292500Y-16533214D02*
X10292500Y-16233214D01*
X10421071Y-16533214D02*
X10421071Y-16376071D01*
X10406786Y-16347500D01*
X10378214Y-16333214D01*
X10335357Y-16333214D01*
X10306786Y-16347500D01*
X10292500Y-16361786D01*
X10606786Y-16533214D02*
X10578214Y-16518929D01*
X10563928Y-16504643D01*
X10549643Y-16476071D01*
X10549643Y-16390357D01*
X10563928Y-16361786D01*
X10578214Y-16347500D01*
X10606786Y-16333214D01*
X10649643Y-16333214D01*
X10678214Y-16347500D01*
X10692500Y-16361786D01*
X10706786Y-16390357D01*
X10706786Y-16476071D01*
X10692500Y-16504643D01*
X10678214Y-16518929D01*
X10649643Y-16533214D01*
X10606786Y-16533214D01*
X10878214Y-16533214D02*
X10849643Y-16518929D01*
X10835357Y-16490357D01*
X10835357Y-16233214D01*
X11106786Y-16518929D02*
X11078214Y-16533214D01*
X11021071Y-16533214D01*
X10992500Y-16518929D01*
X10978214Y-16490357D01*
X10978214Y-16376071D01*
X10992500Y-16347500D01*
X11021071Y-16333214D01*
X11078214Y-16333214D01*
X11106786Y-16347500D01*
X11121071Y-16376071D01*
X11121071Y-16404643D01*
X10978214Y-16433214D01*
X11235357Y-16518929D02*
X11263928Y-16533214D01*
X11321071Y-16533214D01*
X11349643Y-16518929D01*
X11363928Y-16490357D01*
X11363928Y-16476071D01*
X11349643Y-16447500D01*
X11321071Y-16433214D01*
X11278214Y-16433214D01*
X11249643Y-16418929D01*
X11235357Y-16390357D01*
X11235357Y-16376071D01*
X11249643Y-16347500D01*
X11278214Y-16333214D01*
X11321071Y-16333214D01*
X11349643Y-16347500D01*
X11463928Y-16647500D02*
X11478214Y-16633214D01*
X11506786Y-16590357D01*
X11521071Y-16561786D01*
X11535357Y-16518929D01*
X11549643Y-16447500D01*
X11549643Y-16390357D01*
X11535357Y-16318929D01*
X11521071Y-16276071D01*
X11506786Y-16247500D01*
X11478214Y-16204643D01*
X11463928Y-16190357D01*
X12006786Y-16647500D02*
X11992500Y-16633214D01*
X11963928Y-16590357D01*
X11949643Y-16561786D01*
X11935357Y-16518929D01*
X11921071Y-16447500D01*
X11921071Y-16390357D01*
X11935357Y-16318929D01*
X11949643Y-16276071D01*
X11963928Y-16247500D01*
X11992500Y-16204643D01*
X12006786Y-16190357D01*
X12121071Y-16333214D02*
X12121071Y-16533214D01*
X12121071Y-16361786D02*
X12135357Y-16347500D01*
X12163928Y-16333214D01*
X12206786Y-16333214D01*
X12235357Y-16347500D01*
X12249643Y-16376071D01*
X12249643Y-16533214D01*
X12435357Y-16533214D02*
X12406786Y-16518929D01*
X12392500Y-16504643D01*
X12378214Y-16476071D01*
X12378214Y-16390357D01*
X12392500Y-16361786D01*
X12406786Y-16347500D01*
X12435357Y-16333214D01*
X12478214Y-16333214D01*
X12506786Y-16347500D01*
X12521071Y-16361786D01*
X12535357Y-16390357D01*
X12535357Y-16476071D01*
X12521071Y-16504643D01*
X12506786Y-16518929D01*
X12478214Y-16533214D01*
X12435357Y-16533214D01*
X12621071Y-16333214D02*
X12735357Y-16333214D01*
X12663928Y-16233214D02*
X12663928Y-16490357D01*
X12678214Y-16518929D01*
X12706786Y-16533214D01*
X12735357Y-16533214D01*
X13063928Y-16333214D02*
X13063928Y-16633214D01*
X13063928Y-16347500D02*
X13092500Y-16333214D01*
X13149643Y-16333214D01*
X13178214Y-16347500D01*
X13192500Y-16361786D01*
X13206786Y-16390357D01*
X13206786Y-16476071D01*
X13192500Y-16504643D01*
X13178214Y-16518929D01*
X13149643Y-16533214D01*
X13092500Y-16533214D01*
X13063928Y-16518929D01*
X13378214Y-16533214D02*
X13349643Y-16518929D01*
X13335357Y-16490357D01*
X13335357Y-16233214D01*
X13621071Y-16533214D02*
X13621071Y-16376071D01*
X13606786Y-16347500D01*
X13578214Y-16333214D01*
X13521071Y-16333214D01*
X13492500Y-16347500D01*
X13621071Y-16518929D02*
X13592500Y-16533214D01*
X13521071Y-16533214D01*
X13492500Y-16518929D01*
X13478214Y-16490357D01*
X13478214Y-16461786D01*
X13492500Y-16433214D01*
X13521071Y-16418929D01*
X13592500Y-16418929D01*
X13621071Y-16404643D01*
X13721071Y-16333214D02*
X13835357Y-16333214D01*
X13763929Y-16233214D02*
X13763929Y-16490357D01*
X13778214Y-16518929D01*
X13806786Y-16533214D01*
X13835357Y-16533214D01*
X14049643Y-16518929D02*
X14021071Y-16533214D01*
X13963929Y-16533214D01*
X13935357Y-16518929D01*
X13921071Y-16490357D01*
X13921071Y-16376071D01*
X13935357Y-16347500D01*
X13963929Y-16333214D01*
X14021071Y-16333214D01*
X14049643Y-16347500D01*
X14063929Y-16376071D01*
X14063929Y-16404643D01*
X13921071Y-16433214D01*
X14321071Y-16533214D02*
X14321071Y-16233214D01*
X14321071Y-16518929D02*
X14292500Y-16533214D01*
X14235357Y-16533214D01*
X14206786Y-16518929D01*
X14192500Y-16504643D01*
X14178214Y-16476071D01*
X14178214Y-16390357D01*
X14192500Y-16361786D01*
X14206786Y-16347500D01*
X14235357Y-16333214D01*
X14292500Y-16333214D01*
X14321071Y-16347500D01*
X14435357Y-16647500D02*
X14449643Y-16633214D01*
X14478214Y-16590357D01*
X14492500Y-16561786D01*
X14506786Y-16518929D01*
X14521071Y-16447500D01*
X14521071Y-16390357D01*
X14506786Y-16318929D01*
X14492500Y-16276071D01*
X14478214Y-16247500D01*
X14449643Y-16204643D01*
X14435357Y-16190357D01*
X4777500Y-16712500D02*
X4777500Y-17142500D01*
X4562500Y-16927500D02*
X4992500Y-16927500D01*
X5392500Y-16863214D02*
X5392500Y-17063214D01*
X5321071Y-16748929D02*
X5249643Y-16963214D01*
X5435357Y-16963214D01*
X5549643Y-17034643D02*
X5563929Y-17048929D01*
X5549643Y-17063214D01*
X5535357Y-17048929D01*
X5549643Y-17034643D01*
X5549643Y-17063214D01*
X5663928Y-16763214D02*
X5849643Y-16763214D01*
X5749643Y-16877500D01*
X5792500Y-16877500D01*
X5821071Y-16891786D01*
X5835357Y-16906072D01*
X5849643Y-16934643D01*
X5849643Y-17006072D01*
X5835357Y-17034643D01*
X5821071Y-17048929D01*
X5792500Y-17063214D01*
X5706786Y-17063214D01*
X5678214Y-17048929D01*
X5663928Y-17034643D01*
X6035357Y-16763214D02*
X6063928Y-16763214D01*
X6092500Y-16777500D01*
X6106786Y-16791786D01*
X6121071Y-16820357D01*
X6135357Y-16877500D01*
X6135357Y-16948929D01*
X6121071Y-17006072D01*
X6106786Y-17034643D01*
X6092500Y-17048929D01*
X6063928Y-17063214D01*
X6035357Y-17063214D01*
X6006786Y-17048929D01*
X5992500Y-17034643D01*
X5978214Y-17006072D01*
X5963928Y-16948929D01*
X5963928Y-16877500D01*
X5978214Y-16820357D01*
X5992500Y-16791786D01*
X6006786Y-16777500D01*
X6035357Y-16763214D01*
X6263928Y-17063214D02*
X6263928Y-16863214D01*
X6263928Y-16891786D02*
X6278214Y-16877500D01*
X6306786Y-16863214D01*
X6349643Y-16863214D01*
X6378214Y-16877500D01*
X6392500Y-16906072D01*
X6392500Y-17063214D01*
X6392500Y-16906072D02*
X6406786Y-16877500D01*
X6435357Y-16863214D01*
X6478214Y-16863214D01*
X6506786Y-16877500D01*
X6521071Y-16906072D01*
X6521071Y-17063214D01*
X6663928Y-17063214D02*
X6663928Y-16863214D01*
X6663928Y-16891786D02*
X6678214Y-16877500D01*
X6706786Y-16863214D01*
X6749643Y-16863214D01*
X6778214Y-16877500D01*
X6792500Y-16906072D01*
X6792500Y-17063214D01*
X6792500Y-16906072D02*
X6806786Y-16877500D01*
X6835357Y-16863214D01*
X6878214Y-16863214D01*
X6906786Y-16877500D01*
X6921071Y-16906072D01*
X6921071Y-17063214D01*
X7506786Y-16748929D02*
X7249643Y-17134643D01*
X7892500Y-16763214D02*
X7921071Y-16763214D01*
X7949643Y-16777500D01*
X7963928Y-16791786D01*
X7978214Y-16820357D01*
X7992500Y-16877500D01*
X7992500Y-16948929D01*
X7978214Y-17006072D01*
X7963928Y-17034643D01*
X7949643Y-17048929D01*
X7921071Y-17063214D01*
X7892500Y-17063214D01*
X7863928Y-17048929D01*
X7849643Y-17034643D01*
X7835357Y-17006072D01*
X7821071Y-16948929D01*
X7821071Y-16877500D01*
X7835357Y-16820357D01*
X7849643Y-16791786D01*
X7863928Y-16777500D01*
X7892500Y-16763214D01*
X8121071Y-17034643D02*
X8135357Y-17048929D01*
X8121071Y-17063214D01*
X8106786Y-17048929D01*
X8121071Y-17034643D01*
X8121071Y-17063214D01*
X8421071Y-17063214D02*
X8249643Y-17063214D01*
X8335357Y-17063214D02*
X8335357Y-16763214D01*
X8306785Y-16806072D01*
X8278214Y-16834643D01*
X8249643Y-16848929D01*
X8678214Y-16763214D02*
X8621071Y-16763214D01*
X8592500Y-16777500D01*
X8578214Y-16791786D01*
X8549643Y-16834643D01*
X8535357Y-16891786D01*
X8535357Y-17006072D01*
X8549643Y-17034643D01*
X8563928Y-17048929D01*
X8592500Y-17063214D01*
X8649643Y-17063214D01*
X8678214Y-17048929D01*
X8692500Y-17034643D01*
X8706786Y-17006072D01*
X8706786Y-16934643D01*
X8692500Y-16906072D01*
X8678214Y-16891786D01*
X8649643Y-16877500D01*
X8592500Y-16877500D01*
X8563928Y-16891786D01*
X8549643Y-16906072D01*
X8535357Y-16934643D01*
X8849643Y-17063214D02*
X8906786Y-17063214D01*
X8935357Y-17048929D01*
X8949643Y-17034643D01*
X8978214Y-16991786D01*
X8992500Y-16934643D01*
X8992500Y-16820357D01*
X8978214Y-16791786D01*
X8963928Y-16777500D01*
X8935357Y-16763214D01*
X8878214Y-16763214D01*
X8849643Y-16777500D01*
X8835357Y-16791786D01*
X8821071Y-16820357D01*
X8821071Y-16891786D01*
X8835357Y-16920357D01*
X8849643Y-16934643D01*
X8878214Y-16948929D01*
X8935357Y-16948929D01*
X8963928Y-16934643D01*
X8978214Y-16920357D01*
X8992500Y-16891786D01*
X9106786Y-16763214D02*
X9106786Y-16820357D01*
X9221071Y-16763214D02*
X9221071Y-16820357D01*
X9663928Y-17177500D02*
X9649643Y-17163214D01*
X9621071Y-17120357D01*
X9606786Y-17091786D01*
X9592500Y-17048929D01*
X9578214Y-16977500D01*
X9578214Y-16920357D01*
X9592500Y-16848929D01*
X9606786Y-16806072D01*
X9621071Y-16777500D01*
X9649643Y-16734643D01*
X9663928Y-16720357D01*
X9763928Y-16791786D02*
X9778214Y-16777500D01*
X9806786Y-16763214D01*
X9878214Y-16763214D01*
X9906786Y-16777500D01*
X9921071Y-16791786D01*
X9935357Y-16820357D01*
X9935357Y-16848929D01*
X9921071Y-16891786D01*
X9749643Y-17063214D01*
X9935357Y-17063214D01*
X10292500Y-17063214D02*
X10292500Y-16763214D01*
X10421071Y-17063214D02*
X10421071Y-16906072D01*
X10406786Y-16877500D01*
X10378214Y-16863214D01*
X10335357Y-16863214D01*
X10306786Y-16877500D01*
X10292500Y-16891786D01*
X10606786Y-17063214D02*
X10578214Y-17048929D01*
X10563928Y-17034643D01*
X10549643Y-17006072D01*
X10549643Y-16920357D01*
X10563928Y-16891786D01*
X10578214Y-16877500D01*
X10606786Y-16863214D01*
X10649643Y-16863214D01*
X10678214Y-16877500D01*
X10692500Y-16891786D01*
X10706786Y-16920357D01*
X10706786Y-17006072D01*
X10692500Y-17034643D01*
X10678214Y-17048929D01*
X10649643Y-17063214D01*
X10606786Y-17063214D01*
X10878214Y-17063214D02*
X10849643Y-17048929D01*
X10835357Y-17020357D01*
X10835357Y-16763214D01*
X11106786Y-17048929D02*
X11078214Y-17063214D01*
X11021071Y-17063214D01*
X10992500Y-17048929D01*
X10978214Y-17020357D01*
X10978214Y-16906072D01*
X10992500Y-16877500D01*
X11021071Y-16863214D01*
X11078214Y-16863214D01*
X11106786Y-16877500D01*
X11121071Y-16906072D01*
X11121071Y-16934643D01*
X10978214Y-16963214D01*
X11235357Y-17048929D02*
X11263928Y-17063214D01*
X11321071Y-17063214D01*
X11349643Y-17048929D01*
X11363928Y-17020357D01*
X11363928Y-17006072D01*
X11349643Y-16977500D01*
X11321071Y-16963214D01*
X11278214Y-16963214D01*
X11249643Y-16948929D01*
X11235357Y-16920357D01*
X11235357Y-16906072D01*
X11249643Y-16877500D01*
X11278214Y-16863214D01*
X11321071Y-16863214D01*
X11349643Y-16877500D01*
X11463928Y-17177500D02*
X11478214Y-17163214D01*
X11506786Y-17120357D01*
X11521071Y-17091786D01*
X11535357Y-17048929D01*
X11549643Y-16977500D01*
X11549643Y-16920357D01*
X11535357Y-16848929D01*
X11521071Y-16806072D01*
X11506786Y-16777500D01*
X11478214Y-16734643D01*
X11463928Y-16720357D01*
X12006786Y-17177500D02*
X11992500Y-17163214D01*
X11963928Y-17120357D01*
X11949643Y-17091786D01*
X11935357Y-17048929D01*
X11921071Y-16977500D01*
X11921071Y-16920357D01*
X11935357Y-16848929D01*
X11949643Y-16806072D01*
X11963928Y-16777500D01*
X11992500Y-16734643D01*
X12006786Y-16720357D01*
X12121071Y-16863214D02*
X12121071Y-17063214D01*
X12121071Y-16891786D02*
X12135357Y-16877500D01*
X12163928Y-16863214D01*
X12206786Y-16863214D01*
X12235357Y-16877500D01*
X12249643Y-16906072D01*
X12249643Y-17063214D01*
X12435357Y-17063214D02*
X12406786Y-17048929D01*
X12392500Y-17034643D01*
X12378214Y-17006072D01*
X12378214Y-16920357D01*
X12392500Y-16891786D01*
X12406786Y-16877500D01*
X12435357Y-16863214D01*
X12478214Y-16863214D01*
X12506786Y-16877500D01*
X12521071Y-16891786D01*
X12535357Y-16920357D01*
X12535357Y-17006072D01*
X12521071Y-17034643D01*
X12506786Y-17048929D01*
X12478214Y-17063214D01*
X12435357Y-17063214D01*
X12621071Y-16863214D02*
X12735357Y-16863214D01*
X12663928Y-16763214D02*
X12663928Y-17020357D01*
X12678214Y-17048929D01*
X12706786Y-17063214D01*
X12735357Y-17063214D01*
X13063928Y-16863214D02*
X13063928Y-17163214D01*
X13063928Y-16877500D02*
X13092500Y-16863214D01*
X13149643Y-16863214D01*
X13178214Y-16877500D01*
X13192500Y-16891786D01*
X13206786Y-16920357D01*
X13206786Y-17006072D01*
X13192500Y-17034643D01*
X13178214Y-17048929D01*
X13149643Y-17063214D01*
X13092500Y-17063214D01*
X13063928Y-17048929D01*
X13378214Y-17063214D02*
X13349643Y-17048929D01*
X13335357Y-17020357D01*
X13335357Y-16763214D01*
X13621071Y-17063214D02*
X13621071Y-16906072D01*
X13606786Y-16877500D01*
X13578214Y-16863214D01*
X13521071Y-16863214D01*
X13492500Y-16877500D01*
X13621071Y-17048929D02*
X13592500Y-17063214D01*
X13521071Y-17063214D01*
X13492500Y-17048929D01*
X13478214Y-17020357D01*
X13478214Y-16991786D01*
X13492500Y-16963214D01*
X13521071Y-16948929D01*
X13592500Y-16948929D01*
X13621071Y-16934643D01*
X13721071Y-16863214D02*
X13835357Y-16863214D01*
X13763929Y-16763214D02*
X13763929Y-17020357D01*
X13778214Y-17048929D01*
X13806786Y-17063214D01*
X13835357Y-17063214D01*
X14049643Y-17048929D02*
X14021071Y-17063214D01*
X13963929Y-17063214D01*
X13935357Y-17048929D01*
X13921071Y-17020357D01*
X13921071Y-16906072D01*
X13935357Y-16877500D01*
X13963929Y-16863214D01*
X14021071Y-16863214D01*
X14049643Y-16877500D01*
X14063929Y-16906072D01*
X14063929Y-16934643D01*
X13921071Y-16963214D01*
X14321071Y-17063214D02*
X14321071Y-16763214D01*
X14321071Y-17048929D02*
X14292500Y-17063214D01*
X14235357Y-17063214D01*
X14206786Y-17048929D01*
X14192500Y-17034643D01*
X14178214Y-17006072D01*
X14178214Y-16920357D01*
X14192500Y-16891786D01*
X14206786Y-16877500D01*
X14235357Y-16863214D01*
X14292500Y-16863214D01*
X14321071Y-16877500D01*
X14435357Y-17177500D02*
X14449643Y-17163214D01*
X14478214Y-17120357D01*
X14492500Y-17091786D01*
X14506786Y-17048929D01*
X14521071Y-16977500D01*
X14521071Y-16920357D01*
X14506786Y-16848929D01*
X14492500Y-16806072D01*
X14478214Y-16777500D01*
X14449643Y-16734643D01*
X14435357Y-16720357D01*
M02*
