G04 #@! TF.FileFunction,Legend,Top*
%FSLAX46Y46*%
G04 Gerber Fmt 4.6, Leading zero omitted, Abs format (unit mm)*
G04 Created by KiCad (PCBNEW 4.0.3-stable) date 06/29/17 20:57:41*
%MOMM*%
%LPD*%
G01*
G04 APERTURE LIST*
%ADD10C,0.100000*%
%ADD11C,0.200000*%
%ADD12C,0.150000*%
%ADD13C,0.010000*%
G04 APERTURE END LIST*
D10*
D11*
X80115000Y-109587000D02*
X50016000Y-109587000D01*
X80115000Y-149973000D02*
X80115000Y-50024000D01*
X50016000Y-100062000D02*
X149965000Y-100062000D01*
D12*
X53850100Y-112959057D02*
X53802481Y-113054295D01*
X53802481Y-113197152D01*
X53850100Y-113340010D01*
X53945338Y-113435248D01*
X54040576Y-113482867D01*
X54231052Y-113530486D01*
X54373910Y-113530486D01*
X54564386Y-113482867D01*
X54659624Y-113435248D01*
X54754862Y-113340010D01*
X54802481Y-113197152D01*
X54802481Y-113101914D01*
X54754862Y-112959057D01*
X54707243Y-112911438D01*
X54373910Y-112911438D01*
X54373910Y-113101914D01*
X54135814Y-112482867D02*
X54802481Y-112482867D01*
X54231052Y-112482867D02*
X54183433Y-112435248D01*
X54135814Y-112340010D01*
X54135814Y-112197152D01*
X54183433Y-112101914D01*
X54278671Y-112054295D01*
X54802481Y-112054295D01*
X54802481Y-111149533D02*
X53802481Y-111149533D01*
X54754862Y-111149533D02*
X54802481Y-111244771D01*
X54802481Y-111435248D01*
X54754862Y-111530486D01*
X54707243Y-111578105D01*
X54612005Y-111625724D01*
X54326290Y-111625724D01*
X54231052Y-111578105D01*
X54183433Y-111530486D01*
X54135814Y-111435248D01*
X54135814Y-111244771D01*
X54183433Y-111149533D01*
X54707243Y-115530866D02*
X54754862Y-115578485D01*
X54802481Y-115721342D01*
X54802481Y-115816580D01*
X54754862Y-115959438D01*
X54659624Y-116054676D01*
X54564386Y-116102295D01*
X54373910Y-116149914D01*
X54231052Y-116149914D01*
X54040576Y-116102295D01*
X53945338Y-116054676D01*
X53850100Y-115959438D01*
X53802481Y-115816580D01*
X53802481Y-115721342D01*
X53850100Y-115578485D01*
X53897719Y-115530866D01*
X54754862Y-115149914D02*
X54802481Y-115007057D01*
X54802481Y-114768961D01*
X54754862Y-114673723D01*
X54707243Y-114626104D01*
X54612005Y-114578485D01*
X54516767Y-114578485D01*
X54421529Y-114626104D01*
X54373910Y-114673723D01*
X54326290Y-114768961D01*
X54278671Y-114959438D01*
X54231052Y-115054676D01*
X54183433Y-115102295D01*
X54088195Y-115149914D01*
X53992957Y-115149914D01*
X53897719Y-115102295D01*
X53850100Y-115054676D01*
X53802481Y-114959438D01*
X53802481Y-114721342D01*
X53850100Y-114578485D01*
X54802481Y-118221628D02*
X53802481Y-118221628D01*
X54516767Y-117888294D01*
X53802481Y-117554961D01*
X54802481Y-117554961D01*
X54802481Y-117078771D02*
X53802481Y-117078771D01*
X54802481Y-120793343D02*
X53802481Y-120793343D01*
X54516767Y-120460009D01*
X53802481Y-120126676D01*
X54802481Y-120126676D01*
X53802481Y-119460010D02*
X53802481Y-119269533D01*
X53850100Y-119174295D01*
X53945338Y-119079057D01*
X54135814Y-119031438D01*
X54469148Y-119031438D01*
X54659624Y-119079057D01*
X54754862Y-119174295D01*
X54802481Y-119269533D01*
X54802481Y-119460010D01*
X54754862Y-119555248D01*
X54659624Y-119650486D01*
X54469148Y-119698105D01*
X54135814Y-119698105D01*
X53945338Y-119650486D01*
X53850100Y-119555248D01*
X53802481Y-119460010D01*
X54707243Y-123325438D02*
X54754862Y-123373057D01*
X54802481Y-123515914D01*
X54802481Y-123611152D01*
X54754862Y-123754010D01*
X54659624Y-123849248D01*
X54564386Y-123896867D01*
X54373910Y-123944486D01*
X54231052Y-123944486D01*
X54040576Y-123896867D01*
X53945338Y-123849248D01*
X53850100Y-123754010D01*
X53802481Y-123611152D01*
X53802481Y-123515914D01*
X53850100Y-123373057D01*
X53897719Y-123325438D01*
X54802481Y-122420676D02*
X54802481Y-122896867D01*
X53802481Y-122896867D01*
X54802481Y-122087343D02*
X53802481Y-122087343D01*
X54802481Y-121515914D02*
X54231052Y-121944486D01*
X53802481Y-121515914D02*
X54373910Y-122087343D01*
X53850100Y-126167057D02*
X53802481Y-126262295D01*
X53802481Y-126405152D01*
X53850100Y-126548010D01*
X53945338Y-126643248D01*
X54040576Y-126690867D01*
X54231052Y-126738486D01*
X54373910Y-126738486D01*
X54564386Y-126690867D01*
X54659624Y-126643248D01*
X54754862Y-126548010D01*
X54802481Y-126405152D01*
X54802481Y-126309914D01*
X54754862Y-126167057D01*
X54707243Y-126119438D01*
X54373910Y-126119438D01*
X54373910Y-126309914D01*
X54135814Y-125690867D02*
X54802481Y-125690867D01*
X54231052Y-125690867D02*
X54183433Y-125643248D01*
X54135814Y-125548010D01*
X54135814Y-125405152D01*
X54183433Y-125309914D01*
X54278671Y-125262295D01*
X54802481Y-125262295D01*
X54802481Y-124357533D02*
X53802481Y-124357533D01*
X54754862Y-124357533D02*
X54802481Y-124452771D01*
X54802481Y-124643248D01*
X54754862Y-124738486D01*
X54707243Y-124786105D01*
X54612005Y-124833724D01*
X54326290Y-124833724D01*
X54231052Y-124786105D01*
X54183433Y-124738486D01*
X54135814Y-124643248D01*
X54135814Y-124452771D01*
X54183433Y-124357533D01*
X54802481Y-129016581D02*
X53802481Y-129016581D01*
X54802481Y-128016581D02*
X54802481Y-128588010D01*
X54802481Y-128302296D02*
X53802481Y-128302296D01*
X53945338Y-128397534D01*
X54040576Y-128492772D01*
X54088195Y-128588010D01*
X53802481Y-127111819D02*
X53802481Y-127588010D01*
X54278671Y-127635629D01*
X54231052Y-127588010D01*
X54183433Y-127492772D01*
X54183433Y-127254676D01*
X54231052Y-127159438D01*
X54278671Y-127111819D01*
X54373910Y-127064200D01*
X54612005Y-127064200D01*
X54707243Y-127111819D01*
X54754862Y-127159438D01*
X54802481Y-127254676D01*
X54802481Y-127492772D01*
X54754862Y-127588010D01*
X54707243Y-127635629D01*
X54802481Y-131556581D02*
X53802481Y-131556581D01*
X53802481Y-130889915D02*
X53802481Y-130794676D01*
X53850100Y-130699438D01*
X53897719Y-130651819D01*
X53992957Y-130604200D01*
X54183433Y-130556581D01*
X54421529Y-130556581D01*
X54612005Y-130604200D01*
X54707243Y-130651819D01*
X54754862Y-130699438D01*
X54802481Y-130794676D01*
X54802481Y-130889915D01*
X54754862Y-130985153D01*
X54707243Y-131032772D01*
X54612005Y-131080391D01*
X54421529Y-131128010D01*
X54183433Y-131128010D01*
X53992957Y-131080391D01*
X53897719Y-131032772D01*
X53850100Y-130985153D01*
X53802481Y-130889915D01*
X53897719Y-130175629D02*
X53850100Y-130128010D01*
X53802481Y-130032772D01*
X53802481Y-129794676D01*
X53850100Y-129699438D01*
X53897719Y-129651819D01*
X53992957Y-129604200D01*
X54088195Y-129604200D01*
X54231052Y-129651819D01*
X54802481Y-130223248D01*
X54802481Y-129604200D01*
X54802481Y-134096581D02*
X53802481Y-134096581D01*
X53802481Y-133429915D02*
X53802481Y-133334676D01*
X53850100Y-133239438D01*
X53897719Y-133191819D01*
X53992957Y-133144200D01*
X54183433Y-133096581D01*
X54421529Y-133096581D01*
X54612005Y-133144200D01*
X54707243Y-133191819D01*
X54754862Y-133239438D01*
X54802481Y-133334676D01*
X54802481Y-133429915D01*
X54754862Y-133525153D01*
X54707243Y-133572772D01*
X54612005Y-133620391D01*
X54421529Y-133668010D01*
X54183433Y-133668010D01*
X53992957Y-133620391D01*
X53897719Y-133572772D01*
X53850100Y-133525153D01*
X53802481Y-133429915D01*
X53802481Y-132477534D02*
X53802481Y-132382295D01*
X53850100Y-132287057D01*
X53897719Y-132239438D01*
X53992957Y-132191819D01*
X54183433Y-132144200D01*
X54421529Y-132144200D01*
X54612005Y-132191819D01*
X54707243Y-132239438D01*
X54754862Y-132287057D01*
X54802481Y-132382295D01*
X54802481Y-132477534D01*
X54754862Y-132572772D01*
X54707243Y-132620391D01*
X54612005Y-132668010D01*
X54421529Y-132715629D01*
X54183433Y-132715629D01*
X53992957Y-132668010D01*
X53897719Y-132620391D01*
X53850100Y-132572772D01*
X53802481Y-132477534D01*
X54802481Y-136636581D02*
X53802481Y-136636581D01*
X53802481Y-135969915D02*
X53802481Y-135874676D01*
X53850100Y-135779438D01*
X53897719Y-135731819D01*
X53992957Y-135684200D01*
X54183433Y-135636581D01*
X54421529Y-135636581D01*
X54612005Y-135684200D01*
X54707243Y-135731819D01*
X54754862Y-135779438D01*
X54802481Y-135874676D01*
X54802481Y-135969915D01*
X54754862Y-136065153D01*
X54707243Y-136112772D01*
X54612005Y-136160391D01*
X54421529Y-136208010D01*
X54183433Y-136208010D01*
X53992957Y-136160391D01*
X53897719Y-136112772D01*
X53850100Y-136065153D01*
X53802481Y-135969915D01*
X54135814Y-134779438D02*
X54802481Y-134779438D01*
X53754862Y-135017534D02*
X54469148Y-135255629D01*
X54469148Y-134636581D01*
D10*
X54802481Y-139176581D02*
X53802481Y-139176581D01*
X53802481Y-138509915D02*
X53802481Y-138414676D01*
X53850100Y-138319438D01*
X53897719Y-138271819D01*
X53992957Y-138224200D01*
X54183433Y-138176581D01*
X54421529Y-138176581D01*
X54612005Y-138224200D01*
X54707243Y-138271819D01*
X54754862Y-138319438D01*
X54802481Y-138414676D01*
X54802481Y-138509915D01*
X54754862Y-138605153D01*
X54707243Y-138652772D01*
X54612005Y-138700391D01*
X54421529Y-138748010D01*
X54183433Y-138748010D01*
X53992957Y-138700391D01*
X53897719Y-138652772D01*
X53850100Y-138605153D01*
X53802481Y-138509915D01*
X53802481Y-137271819D02*
X53802481Y-137748010D01*
X54278671Y-137795629D01*
X54231052Y-137748010D01*
X54183433Y-137652772D01*
X54183433Y-137414676D01*
X54231052Y-137319438D01*
X54278671Y-137271819D01*
X54373910Y-137224200D01*
X54612005Y-137224200D01*
X54707243Y-137271819D01*
X54754862Y-137319438D01*
X54802481Y-137414676D01*
X54802481Y-137652772D01*
X54754862Y-137748010D01*
X54707243Y-137795629D01*
D12*
X54802481Y-140930866D02*
X54326290Y-141264200D01*
X54802481Y-141502295D02*
X53802481Y-141502295D01*
X53802481Y-141121342D01*
X53850100Y-141026104D01*
X53897719Y-140978485D01*
X53992957Y-140930866D01*
X54135814Y-140930866D01*
X54231052Y-140978485D01*
X54278671Y-141026104D01*
X54326290Y-141121342D01*
X54326290Y-141502295D01*
X53802481Y-140597533D02*
X54802481Y-139930866D01*
X53802481Y-139930866D02*
X54802481Y-140597533D01*
X53802481Y-144066105D02*
X53802481Y-143494676D01*
X54802481Y-143780391D02*
X53802481Y-143780391D01*
X53802481Y-143256581D02*
X54802481Y-142589914D01*
X53802481Y-142589914D02*
X54802481Y-143256581D01*
X74471719Y-126857819D02*
X75471719Y-126857819D01*
X74471719Y-127857819D02*
X74471719Y-127286390D01*
X74471719Y-127572104D02*
X75471719Y-127572104D01*
X75328862Y-127476866D01*
X75233624Y-127381628D01*
X75186005Y-127286390D01*
X75471719Y-128191152D02*
X75471719Y-128810200D01*
X75090767Y-128476866D01*
X75090767Y-128619724D01*
X75043148Y-128714962D01*
X74995529Y-128762581D01*
X74900290Y-128810200D01*
X74662195Y-128810200D01*
X74566957Y-128762581D01*
X74519338Y-128714962D01*
X74471719Y-128619724D01*
X74471719Y-128334009D01*
X74519338Y-128238771D01*
X74566957Y-128191152D01*
X74471719Y-129397819D02*
X75471719Y-129397819D01*
X74471719Y-130397819D02*
X74471719Y-129826390D01*
X74471719Y-130112104D02*
X75471719Y-130112104D01*
X75328862Y-130016866D01*
X75233624Y-129921628D01*
X75186005Y-129826390D01*
X75376481Y-130778771D02*
X75424100Y-130826390D01*
X75471719Y-130921628D01*
X75471719Y-131159724D01*
X75424100Y-131254962D01*
X75376481Y-131302581D01*
X75281243Y-131350200D01*
X75186005Y-131350200D01*
X75043148Y-131302581D01*
X74471719Y-130731152D01*
X74471719Y-131350200D01*
X74471719Y-132191819D02*
X75471719Y-132191819D01*
X74471719Y-133191819D02*
X74471719Y-132620390D01*
X74471719Y-132906104D02*
X75471719Y-132906104D01*
X75328862Y-132810866D01*
X75233624Y-132715628D01*
X75186005Y-132620390D01*
X75138386Y-134048962D02*
X74471719Y-134048962D01*
X75519338Y-133810866D02*
X74805052Y-133572771D01*
X74805052Y-134191819D01*
X74471719Y-134731819D02*
X75471719Y-134731819D01*
X74471719Y-135731819D02*
X74471719Y-135160390D01*
X74471719Y-135446104D02*
X75471719Y-135446104D01*
X75328862Y-135350866D01*
X75233624Y-135255628D01*
X75186005Y-135160390D01*
X75471719Y-136588962D02*
X75471719Y-136398485D01*
X75424100Y-136303247D01*
X75376481Y-136255628D01*
X75233624Y-136160390D01*
X75043148Y-136112771D01*
X74662195Y-136112771D01*
X74566957Y-136160390D01*
X74519338Y-136208009D01*
X74471719Y-136303247D01*
X74471719Y-136493724D01*
X74519338Y-136588962D01*
X74566957Y-136636581D01*
X74662195Y-136684200D01*
X74900290Y-136684200D01*
X74995529Y-136636581D01*
X75043148Y-136588962D01*
X75090767Y-136493724D01*
X75090767Y-136303247D01*
X75043148Y-136208009D01*
X74995529Y-136160390D01*
X74900290Y-136112771D01*
X74995529Y-137486105D02*
X74995529Y-137819439D01*
X74471719Y-137962296D02*
X74471719Y-137486105D01*
X75471719Y-137486105D01*
X75471719Y-137962296D01*
X74471719Y-138390867D02*
X75471719Y-138390867D01*
X74471719Y-138962296D01*
X75471719Y-138962296D01*
X74757433Y-139526105D02*
X74757433Y-140002296D01*
X74471719Y-139430867D02*
X75471719Y-139764200D01*
X74471719Y-140097534D01*
X74471719Y-140430867D02*
X75471719Y-140430867D01*
X75471719Y-140668962D01*
X75424100Y-140811820D01*
X75328862Y-140907058D01*
X75233624Y-140954677D01*
X75043148Y-141002296D01*
X74900290Y-141002296D01*
X74709814Y-140954677D01*
X74614576Y-140907058D01*
X74519338Y-140811820D01*
X74471719Y-140668962D01*
X74471719Y-140430867D01*
X74566957Y-142002296D02*
X74519338Y-141954677D01*
X74471719Y-141811820D01*
X74471719Y-141716582D01*
X74519338Y-141573724D01*
X74614576Y-141478486D01*
X74709814Y-141430867D01*
X74900290Y-141383248D01*
X75043148Y-141383248D01*
X75233624Y-141430867D01*
X75328862Y-141478486D01*
X75424100Y-141573724D01*
X75471719Y-141716582D01*
X75471719Y-141811820D01*
X75424100Y-141954677D01*
X75376481Y-142002296D01*
X74217719Y-143264581D02*
X74693910Y-142931247D01*
X74217719Y-142693152D02*
X75217719Y-142693152D01*
X75217719Y-143074105D01*
X75170100Y-143169343D01*
X75122481Y-143216962D01*
X75027243Y-143264581D01*
X74884386Y-143264581D01*
X74789148Y-143216962D01*
X74741529Y-143169343D01*
X74693910Y-143074105D01*
X74693910Y-142693152D01*
X74265338Y-143645533D02*
X74217719Y-143788390D01*
X74217719Y-144026486D01*
X74265338Y-144121724D01*
X74312957Y-144169343D01*
X74408195Y-144216962D01*
X74503433Y-144216962D01*
X74598671Y-144169343D01*
X74646290Y-144121724D01*
X74693910Y-144026486D01*
X74741529Y-143836009D01*
X74789148Y-143740771D01*
X74836767Y-143693152D01*
X74932005Y-143645533D01*
X75027243Y-143645533D01*
X75122481Y-143693152D01*
X75170100Y-143740771D01*
X75217719Y-143836009D01*
X75217719Y-144074105D01*
X75170100Y-144216962D01*
X75217719Y-144502676D02*
X75217719Y-145074105D01*
X74217719Y-144788390D02*
X75217719Y-144788390D01*
X74471719Y-124317819D02*
X75471719Y-124317819D01*
X75471719Y-124984485D02*
X75471719Y-125079724D01*
X75424100Y-125174962D01*
X75376481Y-125222581D01*
X75281243Y-125270200D01*
X75090767Y-125317819D01*
X74852671Y-125317819D01*
X74662195Y-125270200D01*
X74566957Y-125222581D01*
X74519338Y-125174962D01*
X74471719Y-125079724D01*
X74471719Y-124984485D01*
X74519338Y-124889247D01*
X74566957Y-124841628D01*
X74662195Y-124794009D01*
X74852671Y-124746390D01*
X75090767Y-124746390D01*
X75281243Y-124794009D01*
X75376481Y-124841628D01*
X75424100Y-124889247D01*
X75471719Y-124984485D01*
X74471719Y-125794009D02*
X74471719Y-125984485D01*
X74519338Y-126079724D01*
X74566957Y-126127343D01*
X74709814Y-126222581D01*
X74900290Y-126270200D01*
X75281243Y-126270200D01*
X75376481Y-126222581D01*
X75424100Y-126174962D01*
X75471719Y-126079724D01*
X75471719Y-125889247D01*
X75424100Y-125794009D01*
X75376481Y-125746390D01*
X75281243Y-125698771D01*
X75043148Y-125698771D01*
X74947910Y-125746390D01*
X74900290Y-125794009D01*
X74852671Y-125889247D01*
X74852671Y-126079724D01*
X74900290Y-126174962D01*
X74947910Y-126222581D01*
X75043148Y-126270200D01*
X74471719Y-121777819D02*
X75471719Y-121777819D01*
X74471719Y-122777819D02*
X74471719Y-122206390D01*
X74471719Y-122492104D02*
X75471719Y-122492104D01*
X75328862Y-122396866D01*
X75233624Y-122301628D01*
X75186005Y-122206390D01*
X75471719Y-123396866D02*
X75471719Y-123492105D01*
X75424100Y-123587343D01*
X75376481Y-123634962D01*
X75281243Y-123682581D01*
X75090767Y-123730200D01*
X74852671Y-123730200D01*
X74662195Y-123682581D01*
X74566957Y-123634962D01*
X74519338Y-123587343D01*
X74471719Y-123492105D01*
X74471719Y-123396866D01*
X74519338Y-123301628D01*
X74566957Y-123254009D01*
X74662195Y-123206390D01*
X74852671Y-123158771D01*
X75090767Y-123158771D01*
X75281243Y-123206390D01*
X75376481Y-123254009D01*
X75424100Y-123301628D01*
X75471719Y-123396866D01*
X75471719Y-117729724D02*
X75471719Y-118348772D01*
X75090767Y-118015438D01*
X75090767Y-118158296D01*
X75043148Y-118253534D01*
X74995529Y-118301153D01*
X74900290Y-118348772D01*
X74662195Y-118348772D01*
X74566957Y-118301153D01*
X74519338Y-118253534D01*
X74471719Y-118158296D01*
X74471719Y-117872581D01*
X74519338Y-117777343D01*
X74566957Y-117729724D01*
X75138386Y-118682105D02*
X74471719Y-118920200D01*
X75138386Y-119158296D01*
X75471719Y-119444010D02*
X75471719Y-120063058D01*
X75090767Y-119729724D01*
X75090767Y-119872582D01*
X75043148Y-119967820D01*
X74995529Y-120015439D01*
X74900290Y-120063058D01*
X74662195Y-120063058D01*
X74566957Y-120015439D01*
X74519338Y-119967820D01*
X74471719Y-119872582D01*
X74471719Y-119586867D01*
X74519338Y-119491629D01*
X74566957Y-119444010D01*
X75424100Y-114975343D02*
X75471719Y-114880105D01*
X75471719Y-114737248D01*
X75424100Y-114594390D01*
X75328862Y-114499152D01*
X75233624Y-114451533D01*
X75043148Y-114403914D01*
X74900290Y-114403914D01*
X74709814Y-114451533D01*
X74614576Y-114499152D01*
X74519338Y-114594390D01*
X74471719Y-114737248D01*
X74471719Y-114832486D01*
X74519338Y-114975343D01*
X74566957Y-115022962D01*
X74900290Y-115022962D01*
X74900290Y-114832486D01*
X75138386Y-115451533D02*
X74471719Y-115451533D01*
X75043148Y-115451533D02*
X75090767Y-115499152D01*
X75138386Y-115594390D01*
X75138386Y-115737248D01*
X75090767Y-115832486D01*
X74995529Y-115880105D01*
X74471719Y-115880105D01*
X74471719Y-116784867D02*
X75471719Y-116784867D01*
X74519338Y-116784867D02*
X74471719Y-116689629D01*
X74471719Y-116499152D01*
X74519338Y-116403914D01*
X74566957Y-116356295D01*
X74662195Y-116308676D01*
X74947910Y-116308676D01*
X75043148Y-116356295D01*
X75090767Y-116403914D01*
X75138386Y-116499152D01*
X75138386Y-116689629D01*
X75090767Y-116784867D01*
X75471719Y-111800391D02*
X74471719Y-112133724D01*
X75471719Y-112467058D01*
X74471719Y-112800391D02*
X75138386Y-112800391D01*
X75471719Y-112800391D02*
X75424100Y-112752772D01*
X75376481Y-112800391D01*
X75424100Y-112848010D01*
X75471719Y-112800391D01*
X75376481Y-112800391D01*
X75138386Y-113276581D02*
X74471719Y-113276581D01*
X75043148Y-113276581D02*
X75090767Y-113324200D01*
X75138386Y-113419438D01*
X75138386Y-113562296D01*
X75090767Y-113657534D01*
X74995529Y-113705153D01*
X74471719Y-113705153D01*
X102006400Y-50965100D02*
X102006400Y-64935100D01*
X102006400Y-50965100D02*
X102006400Y-64965100D01*
X102006400Y-64965100D02*
X114006400Y-64965100D01*
X114006400Y-64965100D02*
X114006400Y-50965100D01*
X114006400Y-50965100D02*
X102006400Y-50965100D01*
X92245451Y-71285100D02*
G75*
G03X92245451Y-71285100I-1796051J0D01*
G01*
X92245451Y-91605100D02*
G75*
G03X92245451Y-91605100I-1796051J0D01*
G01*
X123995451Y-91605100D02*
G75*
G03X123995451Y-91605100I-1796051J0D01*
G01*
X123995451Y-71285100D02*
G75*
G03X123995451Y-71285100I-1796051J0D01*
G01*
X139709400Y-67670100D02*
X141709400Y-67670100D01*
X141709400Y-69820100D02*
X139709400Y-69820100D01*
X145304400Y-89335100D02*
X145304400Y-91335100D01*
X147354400Y-91335100D02*
X147354400Y-89335100D01*
X83201400Y-58315100D02*
X83201400Y-60315100D01*
X85251400Y-60315100D02*
X85251400Y-58315100D01*
X99114400Y-58035100D02*
X99114400Y-60035100D01*
X101164400Y-60035100D02*
X101164400Y-58035100D01*
X117766854Y-81539856D02*
X117766854Y-79539856D01*
X115716854Y-79539856D02*
X115716854Y-81539856D01*
X116664400Y-60035100D02*
X116664400Y-58035100D01*
X114614400Y-58035100D02*
X114614400Y-60035100D01*
X135709400Y-73580100D02*
X137709400Y-73580100D01*
X137709400Y-71530100D02*
X135709400Y-71530100D01*
X137728960Y-77635100D02*
X136880600Y-78635860D01*
X136880600Y-78635860D02*
X136880600Y-76634340D01*
X136880600Y-76634340D02*
X137728960Y-77635100D01*
X137728960Y-77635100D02*
X137728960Y-76634340D01*
X137728960Y-77635100D02*
X137728960Y-78635860D01*
X139585700Y-75835100D02*
X139585700Y-76034900D01*
X139128660Y-75835100D02*
X139128660Y-76034100D01*
X134978140Y-75835100D02*
X134978140Y-75984100D01*
X139580620Y-79435100D02*
X139580620Y-79286100D01*
X139128660Y-79435100D02*
X139128660Y-79286100D01*
X134978140Y-79435100D02*
X134978140Y-79286100D01*
X139128660Y-75686120D02*
X139128660Y-75884240D01*
X139128660Y-79634080D02*
X139128660Y-79435960D01*
X134983220Y-75638660D02*
X134983220Y-75836780D01*
X139585700Y-75638660D02*
X134983220Y-75638660D01*
X139585700Y-75638660D02*
X139585700Y-75836780D01*
X139580620Y-79634080D02*
X139580620Y-79435960D01*
X139580620Y-79634080D02*
X134978140Y-79634080D01*
X134978140Y-79634080D02*
X134978140Y-79435960D01*
X143869400Y-81445100D02*
X143869400Y-86525100D01*
X148314400Y-81445100D02*
X148314400Y-86525100D01*
X141964400Y-86525100D02*
X141964400Y-81445100D01*
X141964400Y-86525100D02*
X148314400Y-86525100D01*
X141964400Y-81445100D02*
X148314400Y-81445100D01*
X139627095Y-84618110D02*
G75*
G03X139139400Y-83915100I-2187695J-996990D01*
G01*
X135251705Y-84618110D02*
G75*
G02X135739400Y-83915100I2187695J-996990D01*
G01*
X139139400Y-83915100D02*
X135739400Y-83915100D01*
X139624279Y-86608227D02*
G75*
G02X137439400Y-88015100I-2184879J993127D01*
G01*
X135254521Y-86608227D02*
G75*
G03X137439400Y-88015100I2184879J993127D01*
G01*
X130089400Y-83790100D02*
X128089400Y-83790100D01*
X128089400Y-81640100D02*
X130089400Y-81640100D01*
X141709400Y-67280100D02*
X139709400Y-67280100D01*
X139709400Y-65130100D02*
X141709400Y-65130100D01*
X108366854Y-82014856D02*
X108511854Y-82014856D01*
X108366854Y-77864856D02*
X108511854Y-77864856D01*
X113516854Y-77864856D02*
X113371854Y-77864856D01*
X113516854Y-82014856D02*
X113371854Y-82014856D01*
X108366854Y-82014856D02*
X108366854Y-77864856D01*
X113516854Y-82014856D02*
X113516854Y-77864856D01*
X108511854Y-82014856D02*
X108511854Y-83414856D01*
X144069400Y-89035100D02*
X142519400Y-89035100D01*
X144069400Y-90335100D02*
X144069400Y-89035100D01*
X142646400Y-94526100D02*
X142646400Y-100368100D01*
X142646400Y-100368100D02*
X142392400Y-100368100D01*
X142392400Y-100368100D02*
X142392400Y-94526100D01*
X142392400Y-94526100D02*
X142519400Y-94526100D01*
X142519400Y-94526100D02*
X142519400Y-100368100D01*
X142773400Y-91859100D02*
X142773400Y-91478100D01*
X142265400Y-91859100D02*
X142265400Y-91478100D01*
X140233400Y-91859100D02*
X140233400Y-91478100D01*
X139725400Y-91859100D02*
X139725400Y-91478100D01*
X137693400Y-91859100D02*
X137693400Y-91478100D01*
X137185400Y-91859100D02*
X137185400Y-91478100D01*
X135153400Y-91859100D02*
X135153400Y-91478100D01*
X134645400Y-91859100D02*
X134645400Y-91478100D01*
X132105400Y-91859100D02*
X132105400Y-91478100D01*
X132613400Y-91859100D02*
X132613400Y-91478100D01*
X141249400Y-94399100D02*
X143789400Y-94399100D01*
X142265400Y-100495100D02*
X142265400Y-94399100D01*
X142773400Y-100495100D02*
X142265400Y-100495100D01*
X142773400Y-94399100D02*
X142773400Y-100495100D01*
X141249400Y-91859100D02*
X141249400Y-94399100D01*
X143789400Y-91859100D02*
X141249400Y-91859100D01*
X143789400Y-91859100D02*
X143789400Y-94399100D01*
X138709400Y-91859100D02*
X138709400Y-94399100D01*
X138709400Y-91859100D02*
X136169400Y-91859100D01*
X136169400Y-91859100D02*
X136169400Y-94399100D01*
X137693400Y-94399100D02*
X137693400Y-100495100D01*
X137693400Y-100495100D02*
X137185400Y-100495100D01*
X137185400Y-100495100D02*
X137185400Y-94399100D01*
X136169400Y-94399100D02*
X138709400Y-94399100D01*
X138709400Y-94399100D02*
X141249400Y-94399100D01*
X139725400Y-100495100D02*
X139725400Y-94399100D01*
X140233400Y-100495100D02*
X139725400Y-100495100D01*
X140233400Y-94399100D02*
X140233400Y-100495100D01*
X138709400Y-91859100D02*
X138709400Y-94399100D01*
X141249400Y-91859100D02*
X138709400Y-91859100D01*
X141249400Y-91859100D02*
X141249400Y-94399100D01*
X133629400Y-91859100D02*
X133629400Y-94399100D01*
X133629400Y-91859100D02*
X131089400Y-91859100D01*
X131089400Y-91859100D02*
X131089400Y-94399100D01*
X132613400Y-94399100D02*
X132613400Y-100495100D01*
X132613400Y-100495100D02*
X132105400Y-100495100D01*
X132105400Y-100495100D02*
X132105400Y-94399100D01*
X131089400Y-94399100D02*
X133629400Y-94399100D01*
X133629400Y-94399100D02*
X136169400Y-94399100D01*
X134645400Y-100495100D02*
X134645400Y-94399100D01*
X135153400Y-100495100D02*
X134645400Y-100495100D01*
X135153400Y-94399100D02*
X135153400Y-100495100D01*
X133629400Y-91859100D02*
X133629400Y-94399100D01*
X136169400Y-91859100D02*
X133629400Y-91859100D01*
X136169400Y-91859100D02*
X136169400Y-94399100D01*
X85496400Y-50965100D02*
X85496400Y-64935100D01*
X85496400Y-50965100D02*
X85496400Y-64965100D01*
X85496400Y-64965100D02*
X97496400Y-64965100D01*
X97496400Y-64965100D02*
X97496400Y-50965100D01*
X97496400Y-50965100D02*
X85496400Y-50965100D01*
X141964400Y-78905100D02*
X148314400Y-78905100D01*
X141964400Y-71285100D02*
X148314400Y-71285100D01*
X143869400Y-71285100D02*
X143869400Y-78905100D01*
X141964400Y-78905100D02*
X141964400Y-71285100D01*
X148314400Y-71285100D02*
X148314400Y-78905100D01*
X126009400Y-63265100D02*
X118389400Y-63265100D01*
X126009400Y-65805100D02*
X118389400Y-65805100D01*
X128829400Y-66085100D02*
X127279400Y-66085100D01*
X118389400Y-63265100D02*
X118389400Y-65805100D01*
X126009400Y-65805100D02*
X126009400Y-63265100D01*
X127279400Y-62985100D02*
X128829400Y-62985100D01*
X128829400Y-62985100D02*
X128829400Y-66085100D01*
X134630160Y-65864740D02*
X134630160Y-64863980D01*
X135130540Y-65364360D02*
X134129780Y-65364360D01*
X136779000Y-63665100D02*
G75*
G03X136779000Y-63665100I-3149600J0D01*
G01*
X105959400Y-97760100D02*
X103959400Y-97760100D01*
X103959400Y-95610100D02*
X105959400Y-95610100D01*
X147091400Y-67856100D02*
X144551400Y-67856100D01*
X144551400Y-69634100D02*
X147091400Y-69634100D01*
X144551400Y-69634100D02*
X144551400Y-67856100D01*
X147091400Y-67856100D02*
X147091400Y-69634100D01*
X138839400Y-50685100D02*
X138839400Y-52235100D01*
X140139400Y-50685100D02*
X138839400Y-50685100D01*
X144330400Y-52108100D02*
X150172400Y-52108100D01*
X150172400Y-52108100D02*
X150172400Y-52362100D01*
X150172400Y-52362100D02*
X144330400Y-52362100D01*
X144330400Y-52362100D02*
X144330400Y-52235100D01*
X144330400Y-52235100D02*
X150172400Y-52235100D01*
X141663400Y-51981100D02*
X141282400Y-51981100D01*
X141663400Y-52489100D02*
X141282400Y-52489100D01*
X141663400Y-54521100D02*
X141282400Y-54521100D01*
X141663400Y-55029100D02*
X141282400Y-55029100D01*
X141663400Y-57061100D02*
X141282400Y-57061100D01*
X141663400Y-57569100D02*
X141282400Y-57569100D01*
X141663400Y-59601100D02*
X141282400Y-59601100D01*
X141663400Y-60109100D02*
X141282400Y-60109100D01*
X141663400Y-62649100D02*
X141282400Y-62649100D01*
X141663400Y-62141100D02*
X141282400Y-62141100D01*
X144203400Y-53505100D02*
X144203400Y-50965100D01*
X150299400Y-52489100D02*
X144203400Y-52489100D01*
X150299400Y-51981100D02*
X150299400Y-52489100D01*
X144203400Y-51981100D02*
X150299400Y-51981100D01*
X141663400Y-53505100D02*
X144203400Y-53505100D01*
X141663400Y-50965100D02*
X141663400Y-53505100D01*
X141663400Y-50965100D02*
X144203400Y-50965100D01*
X141663400Y-56045100D02*
X144203400Y-56045100D01*
X141663400Y-56045100D02*
X141663400Y-58585100D01*
X141663400Y-58585100D02*
X144203400Y-58585100D01*
X144203400Y-57061100D02*
X150299400Y-57061100D01*
X150299400Y-57061100D02*
X150299400Y-57569100D01*
X150299400Y-57569100D02*
X144203400Y-57569100D01*
X144203400Y-58585100D02*
X144203400Y-56045100D01*
X144203400Y-56045100D02*
X144203400Y-53505100D01*
X150299400Y-55029100D02*
X144203400Y-55029100D01*
X150299400Y-54521100D02*
X150299400Y-55029100D01*
X144203400Y-54521100D02*
X150299400Y-54521100D01*
X141663400Y-56045100D02*
X144203400Y-56045100D01*
X141663400Y-53505100D02*
X141663400Y-56045100D01*
X141663400Y-53505100D02*
X144203400Y-53505100D01*
X141663400Y-61125100D02*
X144203400Y-61125100D01*
X141663400Y-61125100D02*
X141663400Y-63665100D01*
X141663400Y-63665100D02*
X144203400Y-63665100D01*
X144203400Y-62141100D02*
X150299400Y-62141100D01*
X150299400Y-62141100D02*
X150299400Y-62649100D01*
X150299400Y-62649100D02*
X144203400Y-62649100D01*
X144203400Y-63665100D02*
X144203400Y-61125100D01*
X144203400Y-61125100D02*
X144203400Y-58585100D01*
X150299400Y-60109100D02*
X144203400Y-60109100D01*
X150299400Y-59601100D02*
X150299400Y-60109100D01*
X144203400Y-59601100D02*
X150299400Y-59601100D01*
X141663400Y-61125100D02*
X144203400Y-61125100D01*
X141663400Y-58585100D02*
X141663400Y-61125100D01*
X141663400Y-58585100D02*
X144203400Y-58585100D01*
X135915400Y-57950100D02*
X132105400Y-57950100D01*
X132105400Y-57950100D02*
X132105400Y-59728100D01*
X132105400Y-59728100D02*
X135915400Y-59728100D01*
X135915400Y-57950100D02*
X135915400Y-59728100D01*
X101236854Y-78228856D02*
X105046854Y-78228856D01*
X105046854Y-78228856D02*
X105046854Y-76450856D01*
X105046854Y-76450856D02*
X101236854Y-76450856D01*
X101236854Y-78228856D02*
X101236854Y-76450856D01*
X101117400Y-81572100D02*
X104927400Y-81572100D01*
X104927400Y-81572100D02*
X104927400Y-79794100D01*
X104927400Y-79794100D02*
X101117400Y-79794100D01*
X101117400Y-81572100D02*
X101117400Y-79794100D01*
X101117400Y-85128100D02*
X104927400Y-85128100D01*
X104927400Y-85128100D02*
X104927400Y-83350100D01*
X104927400Y-83350100D02*
X101117400Y-83350100D01*
X101117400Y-85128100D02*
X101117400Y-83350100D01*
X144551400Y-67094100D02*
X147091400Y-67094100D01*
X147091400Y-65316100D02*
X144551400Y-65316100D01*
X147091400Y-65316100D02*
X147091400Y-67094100D01*
X144551400Y-67094100D02*
X144551400Y-65316100D01*
X137639400Y-59650100D02*
X117639400Y-59650100D01*
X117639400Y-59650100D02*
X117700400Y-51268100D01*
X117639400Y-51268100D02*
X137639400Y-51268100D01*
X137639400Y-51268100D02*
X137639400Y-59650100D01*
D13*
G36*
X89981590Y-75486289D02*
X90488254Y-75591145D01*
X90988040Y-75767682D01*
X91533586Y-76026815D01*
X91537062Y-76028619D01*
X92335515Y-76536812D01*
X93027957Y-77171762D01*
X93602454Y-77919436D01*
X94047073Y-78765797D01*
X94194640Y-79154466D01*
X94307223Y-79510310D01*
X94379701Y-79817960D01*
X94420839Y-80136987D01*
X94439404Y-80526964D01*
X94443513Y-80845766D01*
X94438557Y-81341503D01*
X94412588Y-81726768D01*
X94358711Y-82059834D01*
X94270031Y-82398973D01*
X94253158Y-82454433D01*
X93909630Y-83328306D01*
X93442766Y-84101481D01*
X92850318Y-84789685D01*
X92106278Y-85418319D01*
X91281651Y-85898404D01*
X90381325Y-86227568D01*
X89557320Y-86387276D01*
X89247482Y-86444801D01*
X89058816Y-86522570D01*
X89019094Y-86567514D01*
X88896353Y-86655183D01*
X88622461Y-86687635D01*
X88598912Y-86687766D01*
X88356163Y-86673943D01*
X88224397Y-86614136D01*
X88146277Y-86480835D01*
X88141429Y-86468286D01*
X88109767Y-86221755D01*
X88447520Y-86221755D01*
X88474087Y-86350056D01*
X88579418Y-86430531D01*
X88610066Y-86433766D01*
X88733166Y-86365761D01*
X88766643Y-86309478D01*
X88758213Y-86167732D01*
X88636028Y-86106723D01*
X88522772Y-86126725D01*
X88447520Y-86221755D01*
X88109767Y-86221755D01*
X88103879Y-86175915D01*
X88212479Y-85941168D01*
X88445696Y-85798067D01*
X88581456Y-85772968D01*
X88824472Y-85782459D01*
X88978539Y-85879226D01*
X89019020Y-85930929D01*
X89097640Y-86026704D01*
X89191913Y-86072037D01*
X89347642Y-86072558D01*
X89610634Y-86033899D01*
X89713054Y-86016242D01*
X90637187Y-85775529D01*
X91478860Y-85396719D01*
X92226382Y-84892514D01*
X92868060Y-84275613D01*
X93392203Y-83558716D01*
X93787119Y-82754524D01*
X94041115Y-81875735D01*
X94129059Y-81219511D01*
X94110930Y-80343102D01*
X93936711Y-79491287D01*
X93619517Y-78682156D01*
X93172468Y-77933798D01*
X92608680Y-77264301D01*
X91941272Y-76691755D01*
X91183359Y-76234249D01*
X90348061Y-75909872D01*
X90261066Y-75885531D01*
X89531524Y-75758009D01*
X88741729Y-75739915D01*
X87959026Y-75829354D01*
X87418094Y-75965560D01*
X86566067Y-76325600D01*
X85805791Y-76815357D01*
X85149410Y-77418584D01*
X84609070Y-78119037D01*
X84196913Y-78900472D01*
X83925086Y-79746642D01*
X83805732Y-80641303D01*
X83801408Y-80803433D01*
X83830739Y-81526687D01*
X83945201Y-82165758D01*
X84159396Y-82790413D01*
X84268592Y-83035564D01*
X84632049Y-83662952D01*
X85061834Y-84135424D01*
X85560908Y-84455093D01*
X86132229Y-84624072D01*
X86535733Y-84654112D01*
X87057304Y-84595283D01*
X87587753Y-84414547D01*
X88135508Y-84105528D01*
X88708992Y-83661849D01*
X89316634Y-83077134D01*
X89966858Y-82345008D01*
X90545697Y-81619813D01*
X90923258Y-81047710D01*
X91151263Y-80516050D01*
X91173401Y-80380100D01*
X91531066Y-80380100D01*
X91574026Y-80485473D01*
X91622083Y-80490872D01*
X91709557Y-80403463D01*
X91713100Y-80380100D01*
X91647185Y-80280825D01*
X91622083Y-80269327D01*
X91544880Y-80310198D01*
X91531066Y-80380100D01*
X91173401Y-80380100D01*
X91229970Y-80032730D01*
X91159635Y-79605643D01*
X90940513Y-79242683D01*
X90572863Y-78951746D01*
X90457019Y-78890826D01*
X89929865Y-78719232D01*
X89396804Y-78700410D01*
X88892388Y-78833746D01*
X88719623Y-78921704D01*
X88437276Y-79098911D01*
X88290609Y-79230934D01*
X88261947Y-79344398D01*
X88333619Y-79465931D01*
X88347772Y-79481935D01*
X88473720Y-79684257D01*
X88465466Y-79823185D01*
X88354303Y-79871184D01*
X88171521Y-79800719D01*
X88074019Y-79722819D01*
X87637774Y-79358413D01*
X87248958Y-79116131D01*
X86920201Y-79000973D01*
X86664132Y-79017943D01*
X86533652Y-79112607D01*
X86479182Y-79297041D01*
X86555350Y-79517515D01*
X86743330Y-79730485D01*
X86827484Y-79792216D01*
X86974205Y-79930540D01*
X86972296Y-80036695D01*
X86823994Y-80083409D01*
X86803575Y-80083766D01*
X86625817Y-80130581D01*
X86469607Y-80215776D01*
X86341967Y-80366411D01*
X86362851Y-80516880D01*
X86511993Y-80653478D01*
X86769127Y-80762501D01*
X87113985Y-80830243D01*
X87401242Y-80845766D01*
X87651222Y-80854909D01*
X87769601Y-80891784D01*
X87793566Y-80970563D01*
X87790050Y-80993933D01*
X87688988Y-81119938D01*
X87538464Y-81168058D01*
X87383574Y-81217513D01*
X87285525Y-81341986D01*
X87233014Y-81570825D01*
X87214737Y-81933380D01*
X87214222Y-82009933D01*
X87221686Y-82271681D01*
X87256000Y-82405237D01*
X87332400Y-82451344D01*
X87380448Y-82454433D01*
X87543541Y-82520575D01*
X87690818Y-82672661D01*
X87781802Y-82931846D01*
X87736911Y-83168540D01*
X87589268Y-83349638D01*
X87371998Y-83442041D01*
X87118227Y-83412646D01*
X87007676Y-83355331D01*
X86907818Y-83283862D01*
X86846685Y-83203923D01*
X86818039Y-83078776D01*
X86816735Y-82966047D01*
X87127682Y-82966047D01*
X87186608Y-83077086D01*
X87309190Y-83111385D01*
X87408905Y-83028056D01*
X87424733Y-82956537D01*
X87354354Y-82842005D01*
X87276566Y-82809218D01*
X87157711Y-82845550D01*
X87127682Y-82966047D01*
X86816735Y-82966047D01*
X86815642Y-82871685D01*
X86833253Y-82545910D01*
X86843535Y-82388794D01*
X86868181Y-82009308D01*
X86889191Y-81674344D01*
X86903508Y-81433166D01*
X86907320Y-81360623D01*
X86880638Y-81210616D01*
X86753521Y-81119793D01*
X86620400Y-81078243D01*
X86288096Y-80947237D01*
X86098434Y-80752676D01*
X86029143Y-80469452D01*
X86027733Y-80410028D01*
X86065880Y-80138491D01*
X86189549Y-79984149D01*
X86190749Y-79983396D01*
X86296570Y-79895608D01*
X86297245Y-79787130D01*
X86233082Y-79648216D01*
X86123831Y-79329973D01*
X86165302Y-79062607D01*
X86320218Y-78852251D01*
X86595328Y-78678530D01*
X86831591Y-78644433D01*
X87076182Y-78680779D01*
X87362793Y-78772692D01*
X87628700Y-78894488D01*
X87811181Y-79020481D01*
X87842212Y-79058294D01*
X87925409Y-79053332D01*
X88080752Y-78951484D01*
X88165457Y-78877683D01*
X88485522Y-78628045D01*
X88831588Y-78475486D01*
X89254320Y-78402879D01*
X89606723Y-78390433D01*
X90226588Y-78451618D01*
X90736301Y-78633317D01*
X91129881Y-78932741D01*
X91320627Y-79189223D01*
X91444515Y-79423656D01*
X91520187Y-79611245D01*
X91531152Y-79667871D01*
X91599798Y-79771667D01*
X91776902Y-79914546D01*
X91951454Y-80023446D01*
X92189222Y-80164885D01*
X92361135Y-80281807D01*
X92417070Y-80332919D01*
X92371767Y-80407300D01*
X92210544Y-80536996D01*
X91966166Y-80696291D01*
X91916708Y-80725636D01*
X91458116Y-81047647D01*
X91139901Y-81400819D01*
X91119006Y-81432164D01*
X90678821Y-82050989D01*
X90169161Y-82671159D01*
X89617961Y-83264988D01*
X89053155Y-83804790D01*
X88502678Y-84262877D01*
X87994464Y-84611565D01*
X87805733Y-84716003D01*
X87561040Y-84830268D01*
X87341046Y-84900525D01*
X87090367Y-84937017D01*
X86753618Y-84949984D01*
X86535733Y-84950846D01*
X86133839Y-84944372D01*
X85847454Y-84919877D01*
X85622951Y-84867521D01*
X85406704Y-84777465D01*
X85302694Y-84724590D01*
X84773959Y-84352532D01*
X84320066Y-83834178D01*
X83946521Y-83177717D01*
X83658827Y-82391339D01*
X83607981Y-82203203D01*
X83520658Y-81681277D01*
X83488858Y-81065461D01*
X83509757Y-80414084D01*
X83580532Y-79785474D01*
X83698357Y-79237959D01*
X83760783Y-79047315D01*
X84182377Y-78150958D01*
X84733892Y-77360967D01*
X85407628Y-76685039D01*
X86195890Y-76130874D01*
X87090979Y-75706169D01*
X87107948Y-75699786D01*
X87404773Y-75600490D01*
X87701565Y-75532146D01*
X88047370Y-75487174D01*
X88491236Y-75457990D01*
X88737066Y-75447952D01*
X89415407Y-75442197D01*
X89981590Y-75486289D01*
X89981590Y-75486289D01*
G37*
X89981590Y-75486289D02*
X90488254Y-75591145D01*
X90988040Y-75767682D01*
X91533586Y-76026815D01*
X91537062Y-76028619D01*
X92335515Y-76536812D01*
X93027957Y-77171762D01*
X93602454Y-77919436D01*
X94047073Y-78765797D01*
X94194640Y-79154466D01*
X94307223Y-79510310D01*
X94379701Y-79817960D01*
X94420839Y-80136987D01*
X94439404Y-80526964D01*
X94443513Y-80845766D01*
X94438557Y-81341503D01*
X94412588Y-81726768D01*
X94358711Y-82059834D01*
X94270031Y-82398973D01*
X94253158Y-82454433D01*
X93909630Y-83328306D01*
X93442766Y-84101481D01*
X92850318Y-84789685D01*
X92106278Y-85418319D01*
X91281651Y-85898404D01*
X90381325Y-86227568D01*
X89557320Y-86387276D01*
X89247482Y-86444801D01*
X89058816Y-86522570D01*
X89019094Y-86567514D01*
X88896353Y-86655183D01*
X88622461Y-86687635D01*
X88598912Y-86687766D01*
X88356163Y-86673943D01*
X88224397Y-86614136D01*
X88146277Y-86480835D01*
X88141429Y-86468286D01*
X88109767Y-86221755D01*
X88447520Y-86221755D01*
X88474087Y-86350056D01*
X88579418Y-86430531D01*
X88610066Y-86433766D01*
X88733166Y-86365761D01*
X88766643Y-86309478D01*
X88758213Y-86167732D01*
X88636028Y-86106723D01*
X88522772Y-86126725D01*
X88447520Y-86221755D01*
X88109767Y-86221755D01*
X88103879Y-86175915D01*
X88212479Y-85941168D01*
X88445696Y-85798067D01*
X88581456Y-85772968D01*
X88824472Y-85782459D01*
X88978539Y-85879226D01*
X89019020Y-85930929D01*
X89097640Y-86026704D01*
X89191913Y-86072037D01*
X89347642Y-86072558D01*
X89610634Y-86033899D01*
X89713054Y-86016242D01*
X90637187Y-85775529D01*
X91478860Y-85396719D01*
X92226382Y-84892514D01*
X92868060Y-84275613D01*
X93392203Y-83558716D01*
X93787119Y-82754524D01*
X94041115Y-81875735D01*
X94129059Y-81219511D01*
X94110930Y-80343102D01*
X93936711Y-79491287D01*
X93619517Y-78682156D01*
X93172468Y-77933798D01*
X92608680Y-77264301D01*
X91941272Y-76691755D01*
X91183359Y-76234249D01*
X90348061Y-75909872D01*
X90261066Y-75885531D01*
X89531524Y-75758009D01*
X88741729Y-75739915D01*
X87959026Y-75829354D01*
X87418094Y-75965560D01*
X86566067Y-76325600D01*
X85805791Y-76815357D01*
X85149410Y-77418584D01*
X84609070Y-78119037D01*
X84196913Y-78900472D01*
X83925086Y-79746642D01*
X83805732Y-80641303D01*
X83801408Y-80803433D01*
X83830739Y-81526687D01*
X83945201Y-82165758D01*
X84159396Y-82790413D01*
X84268592Y-83035564D01*
X84632049Y-83662952D01*
X85061834Y-84135424D01*
X85560908Y-84455093D01*
X86132229Y-84624072D01*
X86535733Y-84654112D01*
X87057304Y-84595283D01*
X87587753Y-84414547D01*
X88135508Y-84105528D01*
X88708992Y-83661849D01*
X89316634Y-83077134D01*
X89966858Y-82345008D01*
X90545697Y-81619813D01*
X90923258Y-81047710D01*
X91151263Y-80516050D01*
X91173401Y-80380100D01*
X91531066Y-80380100D01*
X91574026Y-80485473D01*
X91622083Y-80490872D01*
X91709557Y-80403463D01*
X91713100Y-80380100D01*
X91647185Y-80280825D01*
X91622083Y-80269327D01*
X91544880Y-80310198D01*
X91531066Y-80380100D01*
X91173401Y-80380100D01*
X91229970Y-80032730D01*
X91159635Y-79605643D01*
X90940513Y-79242683D01*
X90572863Y-78951746D01*
X90457019Y-78890826D01*
X89929865Y-78719232D01*
X89396804Y-78700410D01*
X88892388Y-78833746D01*
X88719623Y-78921704D01*
X88437276Y-79098911D01*
X88290609Y-79230934D01*
X88261947Y-79344398D01*
X88333619Y-79465931D01*
X88347772Y-79481935D01*
X88473720Y-79684257D01*
X88465466Y-79823185D01*
X88354303Y-79871184D01*
X88171521Y-79800719D01*
X88074019Y-79722819D01*
X87637774Y-79358413D01*
X87248958Y-79116131D01*
X86920201Y-79000973D01*
X86664132Y-79017943D01*
X86533652Y-79112607D01*
X86479182Y-79297041D01*
X86555350Y-79517515D01*
X86743330Y-79730485D01*
X86827484Y-79792216D01*
X86974205Y-79930540D01*
X86972296Y-80036695D01*
X86823994Y-80083409D01*
X86803575Y-80083766D01*
X86625817Y-80130581D01*
X86469607Y-80215776D01*
X86341967Y-80366411D01*
X86362851Y-80516880D01*
X86511993Y-80653478D01*
X86769127Y-80762501D01*
X87113985Y-80830243D01*
X87401242Y-80845766D01*
X87651222Y-80854909D01*
X87769601Y-80891784D01*
X87793566Y-80970563D01*
X87790050Y-80993933D01*
X87688988Y-81119938D01*
X87538464Y-81168058D01*
X87383574Y-81217513D01*
X87285525Y-81341986D01*
X87233014Y-81570825D01*
X87214737Y-81933380D01*
X87214222Y-82009933D01*
X87221686Y-82271681D01*
X87256000Y-82405237D01*
X87332400Y-82451344D01*
X87380448Y-82454433D01*
X87543541Y-82520575D01*
X87690818Y-82672661D01*
X87781802Y-82931846D01*
X87736911Y-83168540D01*
X87589268Y-83349638D01*
X87371998Y-83442041D01*
X87118227Y-83412646D01*
X87007676Y-83355331D01*
X86907818Y-83283862D01*
X86846685Y-83203923D01*
X86818039Y-83078776D01*
X86816735Y-82966047D01*
X87127682Y-82966047D01*
X87186608Y-83077086D01*
X87309190Y-83111385D01*
X87408905Y-83028056D01*
X87424733Y-82956537D01*
X87354354Y-82842005D01*
X87276566Y-82809218D01*
X87157711Y-82845550D01*
X87127682Y-82966047D01*
X86816735Y-82966047D01*
X86815642Y-82871685D01*
X86833253Y-82545910D01*
X86843535Y-82388794D01*
X86868181Y-82009308D01*
X86889191Y-81674344D01*
X86903508Y-81433166D01*
X86907320Y-81360623D01*
X86880638Y-81210616D01*
X86753521Y-81119793D01*
X86620400Y-81078243D01*
X86288096Y-80947237D01*
X86098434Y-80752676D01*
X86029143Y-80469452D01*
X86027733Y-80410028D01*
X86065880Y-80138491D01*
X86189549Y-79984149D01*
X86190749Y-79983396D01*
X86296570Y-79895608D01*
X86297245Y-79787130D01*
X86233082Y-79648216D01*
X86123831Y-79329973D01*
X86165302Y-79062607D01*
X86320218Y-78852251D01*
X86595328Y-78678530D01*
X86831591Y-78644433D01*
X87076182Y-78680779D01*
X87362793Y-78772692D01*
X87628700Y-78894488D01*
X87811181Y-79020481D01*
X87842212Y-79058294D01*
X87925409Y-79053332D01*
X88080752Y-78951484D01*
X88165457Y-78877683D01*
X88485522Y-78628045D01*
X88831588Y-78475486D01*
X89254320Y-78402879D01*
X89606723Y-78390433D01*
X90226588Y-78451618D01*
X90736301Y-78633317D01*
X91129881Y-78932741D01*
X91320627Y-79189223D01*
X91444515Y-79423656D01*
X91520187Y-79611245D01*
X91531152Y-79667871D01*
X91599798Y-79771667D01*
X91776902Y-79914546D01*
X91951454Y-80023446D01*
X92189222Y-80164885D01*
X92361135Y-80281807D01*
X92417070Y-80332919D01*
X92371767Y-80407300D01*
X92210544Y-80536996D01*
X91966166Y-80696291D01*
X91916708Y-80725636D01*
X91458116Y-81047647D01*
X91139901Y-81400819D01*
X91119006Y-81432164D01*
X90678821Y-82050989D01*
X90169161Y-82671159D01*
X89617961Y-83264988D01*
X89053155Y-83804790D01*
X88502678Y-84262877D01*
X87994464Y-84611565D01*
X87805733Y-84716003D01*
X87561040Y-84830268D01*
X87341046Y-84900525D01*
X87090367Y-84937017D01*
X86753618Y-84949984D01*
X86535733Y-84950846D01*
X86133839Y-84944372D01*
X85847454Y-84919877D01*
X85622951Y-84867521D01*
X85406704Y-84777465D01*
X85302694Y-84724590D01*
X84773959Y-84352532D01*
X84320066Y-83834178D01*
X83946521Y-83177717D01*
X83658827Y-82391339D01*
X83607981Y-82203203D01*
X83520658Y-81681277D01*
X83488858Y-81065461D01*
X83509757Y-80414084D01*
X83580532Y-79785474D01*
X83698357Y-79237959D01*
X83760783Y-79047315D01*
X84182377Y-78150958D01*
X84733892Y-77360967D01*
X85407628Y-76685039D01*
X86195890Y-76130874D01*
X87090979Y-75706169D01*
X87107948Y-75699786D01*
X87404773Y-75600490D01*
X87701565Y-75532146D01*
X88047370Y-75487174D01*
X88491236Y-75457990D01*
X88737066Y-75447952D01*
X89415407Y-75442197D01*
X89981590Y-75486289D01*
G36*
X90321589Y-79358361D02*
X90496227Y-79453567D01*
X90644648Y-79649142D01*
X90681341Y-79903642D01*
X90600961Y-80144251D01*
X90551352Y-80204719D01*
X90332389Y-80317913D01*
X90068271Y-80319977D01*
X89839515Y-80213273D01*
X89808522Y-80182933D01*
X89681918Y-79934066D01*
X89699259Y-79789628D01*
X90036909Y-79789628D01*
X90044840Y-79907056D01*
X90161025Y-79990972D01*
X90288200Y-79976921D01*
X90345733Y-79877096D01*
X90289322Y-79729797D01*
X90253689Y-79698207D01*
X90126889Y-79694385D01*
X90036909Y-79789628D01*
X89699259Y-79789628D01*
X89713520Y-79670855D01*
X89837733Y-79491100D01*
X90071645Y-79342228D01*
X90321589Y-79358361D01*
X90321589Y-79358361D01*
G37*
X90321589Y-79358361D02*
X90496227Y-79453567D01*
X90644648Y-79649142D01*
X90681341Y-79903642D01*
X90600961Y-80144251D01*
X90551352Y-80204719D01*
X90332389Y-80317913D01*
X90068271Y-80319977D01*
X89839515Y-80213273D01*
X89808522Y-80182933D01*
X89681918Y-79934066D01*
X89699259Y-79789628D01*
X90036909Y-79789628D01*
X90044840Y-79907056D01*
X90161025Y-79990972D01*
X90288200Y-79976921D01*
X90345733Y-79877096D01*
X90289322Y-79729797D01*
X90253689Y-79698207D01*
X90126889Y-79694385D01*
X90036909Y-79789628D01*
X89699259Y-79789628D01*
X89713520Y-79670855D01*
X89837733Y-79491100D01*
X90071645Y-79342228D01*
X90321589Y-79358361D01*
D12*
X102082600Y-101917500D02*
X102082600Y-115887500D01*
X102082600Y-101917500D02*
X102082600Y-115917500D01*
X102082600Y-115917500D02*
X114082600Y-115917500D01*
X114082600Y-115917500D02*
X114082600Y-101917500D01*
X114082600Y-101917500D02*
X102082600Y-101917500D01*
X92321651Y-122237500D02*
G75*
G03X92321651Y-122237500I-1796051J0D01*
G01*
X92321651Y-142557500D02*
G75*
G03X92321651Y-142557500I-1796051J0D01*
G01*
X124071651Y-142557500D02*
G75*
G03X124071651Y-142557500I-1796051J0D01*
G01*
X124071651Y-122237500D02*
G75*
G03X124071651Y-122237500I-1796051J0D01*
G01*
X139785600Y-118622500D02*
X141785600Y-118622500D01*
X141785600Y-120772500D02*
X139785600Y-120772500D01*
X145380600Y-140287500D02*
X145380600Y-142287500D01*
X147430600Y-142287500D02*
X147430600Y-140287500D01*
X83277600Y-109267500D02*
X83277600Y-111267500D01*
X85327600Y-111267500D02*
X85327600Y-109267500D01*
X99190600Y-108987500D02*
X99190600Y-110987500D01*
X101240600Y-110987500D02*
X101240600Y-108987500D01*
X117843054Y-132492256D02*
X117843054Y-130492256D01*
X115793054Y-130492256D02*
X115793054Y-132492256D01*
X116740600Y-110987500D02*
X116740600Y-108987500D01*
X114690600Y-108987500D02*
X114690600Y-110987500D01*
X135785600Y-124532500D02*
X137785600Y-124532500D01*
X137785600Y-122482500D02*
X135785600Y-122482500D01*
X137805160Y-128587500D02*
X136956800Y-129588260D01*
X136956800Y-129588260D02*
X136956800Y-127586740D01*
X136956800Y-127586740D02*
X137805160Y-128587500D01*
X137805160Y-128587500D02*
X137805160Y-127586740D01*
X137805160Y-128587500D02*
X137805160Y-129588260D01*
X139661900Y-126787500D02*
X139661900Y-126987300D01*
X139204860Y-126787500D02*
X139204860Y-126986500D01*
X135054340Y-126787500D02*
X135054340Y-126936500D01*
X139656820Y-130387500D02*
X139656820Y-130238500D01*
X139204860Y-130387500D02*
X139204860Y-130238500D01*
X135054340Y-130387500D02*
X135054340Y-130238500D01*
X139204860Y-126638520D02*
X139204860Y-126836640D01*
X139204860Y-130586480D02*
X139204860Y-130388360D01*
X135059420Y-126591060D02*
X135059420Y-126789180D01*
X139661900Y-126591060D02*
X135059420Y-126591060D01*
X139661900Y-126591060D02*
X139661900Y-126789180D01*
X139656820Y-130586480D02*
X139656820Y-130388360D01*
X139656820Y-130586480D02*
X135054340Y-130586480D01*
X135054340Y-130586480D02*
X135054340Y-130388360D01*
X143945600Y-132397500D02*
X143945600Y-137477500D01*
X148390600Y-132397500D02*
X148390600Y-137477500D01*
X142040600Y-137477500D02*
X142040600Y-132397500D01*
X142040600Y-137477500D02*
X148390600Y-137477500D01*
X142040600Y-132397500D02*
X148390600Y-132397500D01*
X139703295Y-135570510D02*
G75*
G03X139215600Y-134867500I-2187695J-996990D01*
G01*
X135327905Y-135570510D02*
G75*
G02X135815600Y-134867500I2187695J-996990D01*
G01*
X139215600Y-134867500D02*
X135815600Y-134867500D01*
X139700479Y-137560627D02*
G75*
G02X137515600Y-138967500I-2184879J993127D01*
G01*
X135330721Y-137560627D02*
G75*
G03X137515600Y-138967500I2184879J993127D01*
G01*
X130165600Y-134742500D02*
X128165600Y-134742500D01*
X128165600Y-132592500D02*
X130165600Y-132592500D01*
X141785600Y-118232500D02*
X139785600Y-118232500D01*
X139785600Y-116082500D02*
X141785600Y-116082500D01*
X108443054Y-132967256D02*
X108588054Y-132967256D01*
X108443054Y-128817256D02*
X108588054Y-128817256D01*
X113593054Y-128817256D02*
X113448054Y-128817256D01*
X113593054Y-132967256D02*
X113448054Y-132967256D01*
X108443054Y-132967256D02*
X108443054Y-128817256D01*
X113593054Y-132967256D02*
X113593054Y-128817256D01*
X108588054Y-132967256D02*
X108588054Y-134367256D01*
X144145600Y-139987500D02*
X142595600Y-139987500D01*
X144145600Y-141287500D02*
X144145600Y-139987500D01*
X142722600Y-145478500D02*
X142722600Y-151320500D01*
X142722600Y-151320500D02*
X142468600Y-151320500D01*
X142468600Y-151320500D02*
X142468600Y-145478500D01*
X142468600Y-145478500D02*
X142595600Y-145478500D01*
X142595600Y-145478500D02*
X142595600Y-151320500D01*
X142849600Y-142811500D02*
X142849600Y-142430500D01*
X142341600Y-142811500D02*
X142341600Y-142430500D01*
X140309600Y-142811500D02*
X140309600Y-142430500D01*
X139801600Y-142811500D02*
X139801600Y-142430500D01*
X137769600Y-142811500D02*
X137769600Y-142430500D01*
X137261600Y-142811500D02*
X137261600Y-142430500D01*
X135229600Y-142811500D02*
X135229600Y-142430500D01*
X134721600Y-142811500D02*
X134721600Y-142430500D01*
X132181600Y-142811500D02*
X132181600Y-142430500D01*
X132689600Y-142811500D02*
X132689600Y-142430500D01*
X141325600Y-145351500D02*
X143865600Y-145351500D01*
X142341600Y-151447500D02*
X142341600Y-145351500D01*
X142849600Y-151447500D02*
X142341600Y-151447500D01*
X142849600Y-145351500D02*
X142849600Y-151447500D01*
X141325600Y-142811500D02*
X141325600Y-145351500D01*
X143865600Y-142811500D02*
X141325600Y-142811500D01*
X143865600Y-142811500D02*
X143865600Y-145351500D01*
X138785600Y-142811500D02*
X138785600Y-145351500D01*
X138785600Y-142811500D02*
X136245600Y-142811500D01*
X136245600Y-142811500D02*
X136245600Y-145351500D01*
X137769600Y-145351500D02*
X137769600Y-151447500D01*
X137769600Y-151447500D02*
X137261600Y-151447500D01*
X137261600Y-151447500D02*
X137261600Y-145351500D01*
X136245600Y-145351500D02*
X138785600Y-145351500D01*
X138785600Y-145351500D02*
X141325600Y-145351500D01*
X139801600Y-151447500D02*
X139801600Y-145351500D01*
X140309600Y-151447500D02*
X139801600Y-151447500D01*
X140309600Y-145351500D02*
X140309600Y-151447500D01*
X138785600Y-142811500D02*
X138785600Y-145351500D01*
X141325600Y-142811500D02*
X138785600Y-142811500D01*
X141325600Y-142811500D02*
X141325600Y-145351500D01*
X133705600Y-142811500D02*
X133705600Y-145351500D01*
X133705600Y-142811500D02*
X131165600Y-142811500D01*
X131165600Y-142811500D02*
X131165600Y-145351500D01*
X132689600Y-145351500D02*
X132689600Y-151447500D01*
X132689600Y-151447500D02*
X132181600Y-151447500D01*
X132181600Y-151447500D02*
X132181600Y-145351500D01*
X131165600Y-145351500D02*
X133705600Y-145351500D01*
X133705600Y-145351500D02*
X136245600Y-145351500D01*
X134721600Y-151447500D02*
X134721600Y-145351500D01*
X135229600Y-151447500D02*
X134721600Y-151447500D01*
X135229600Y-145351500D02*
X135229600Y-151447500D01*
X133705600Y-142811500D02*
X133705600Y-145351500D01*
X136245600Y-142811500D02*
X133705600Y-142811500D01*
X136245600Y-142811500D02*
X136245600Y-145351500D01*
X85572600Y-101917500D02*
X85572600Y-115887500D01*
X85572600Y-101917500D02*
X85572600Y-115917500D01*
X85572600Y-115917500D02*
X97572600Y-115917500D01*
X97572600Y-115917500D02*
X97572600Y-101917500D01*
X97572600Y-101917500D02*
X85572600Y-101917500D01*
X142040600Y-129857500D02*
X148390600Y-129857500D01*
X142040600Y-122237500D02*
X148390600Y-122237500D01*
X143945600Y-122237500D02*
X143945600Y-129857500D01*
X142040600Y-129857500D02*
X142040600Y-122237500D01*
X148390600Y-122237500D02*
X148390600Y-129857500D01*
X126085600Y-114217500D02*
X118465600Y-114217500D01*
X126085600Y-116757500D02*
X118465600Y-116757500D01*
X128905600Y-117037500D02*
X127355600Y-117037500D01*
X118465600Y-114217500D02*
X118465600Y-116757500D01*
X126085600Y-116757500D02*
X126085600Y-114217500D01*
X127355600Y-113937500D02*
X128905600Y-113937500D01*
X128905600Y-113937500D02*
X128905600Y-117037500D01*
X134706360Y-116817140D02*
X134706360Y-115816380D01*
X135206740Y-116316760D02*
X134205980Y-116316760D01*
X136855200Y-114617500D02*
G75*
G03X136855200Y-114617500I-3149600J0D01*
G01*
X106035600Y-148712500D02*
X104035600Y-148712500D01*
X104035600Y-146562500D02*
X106035600Y-146562500D01*
X147167600Y-118808500D02*
X144627600Y-118808500D01*
X144627600Y-120586500D02*
X147167600Y-120586500D01*
X144627600Y-120586500D02*
X144627600Y-118808500D01*
X147167600Y-118808500D02*
X147167600Y-120586500D01*
X138915600Y-101637500D02*
X138915600Y-103187500D01*
X140215600Y-101637500D02*
X138915600Y-101637500D01*
X144406600Y-103060500D02*
X150248600Y-103060500D01*
X150248600Y-103060500D02*
X150248600Y-103314500D01*
X150248600Y-103314500D02*
X144406600Y-103314500D01*
X144406600Y-103314500D02*
X144406600Y-103187500D01*
X144406600Y-103187500D02*
X150248600Y-103187500D01*
X141739600Y-102933500D02*
X141358600Y-102933500D01*
X141739600Y-103441500D02*
X141358600Y-103441500D01*
X141739600Y-105473500D02*
X141358600Y-105473500D01*
X141739600Y-105981500D02*
X141358600Y-105981500D01*
X141739600Y-108013500D02*
X141358600Y-108013500D01*
X141739600Y-108521500D02*
X141358600Y-108521500D01*
X141739600Y-110553500D02*
X141358600Y-110553500D01*
X141739600Y-111061500D02*
X141358600Y-111061500D01*
X141739600Y-113601500D02*
X141358600Y-113601500D01*
X141739600Y-113093500D02*
X141358600Y-113093500D01*
X144279600Y-104457500D02*
X144279600Y-101917500D01*
X150375600Y-103441500D02*
X144279600Y-103441500D01*
X150375600Y-102933500D02*
X150375600Y-103441500D01*
X144279600Y-102933500D02*
X150375600Y-102933500D01*
X141739600Y-104457500D02*
X144279600Y-104457500D01*
X141739600Y-101917500D02*
X141739600Y-104457500D01*
X141739600Y-101917500D02*
X144279600Y-101917500D01*
X141739600Y-106997500D02*
X144279600Y-106997500D01*
X141739600Y-106997500D02*
X141739600Y-109537500D01*
X141739600Y-109537500D02*
X144279600Y-109537500D01*
X144279600Y-108013500D02*
X150375600Y-108013500D01*
X150375600Y-108013500D02*
X150375600Y-108521500D01*
X150375600Y-108521500D02*
X144279600Y-108521500D01*
X144279600Y-109537500D02*
X144279600Y-106997500D01*
X144279600Y-106997500D02*
X144279600Y-104457500D01*
X150375600Y-105981500D02*
X144279600Y-105981500D01*
X150375600Y-105473500D02*
X150375600Y-105981500D01*
X144279600Y-105473500D02*
X150375600Y-105473500D01*
X141739600Y-106997500D02*
X144279600Y-106997500D01*
X141739600Y-104457500D02*
X141739600Y-106997500D01*
X141739600Y-104457500D02*
X144279600Y-104457500D01*
X141739600Y-112077500D02*
X144279600Y-112077500D01*
X141739600Y-112077500D02*
X141739600Y-114617500D01*
X141739600Y-114617500D02*
X144279600Y-114617500D01*
X144279600Y-113093500D02*
X150375600Y-113093500D01*
X150375600Y-113093500D02*
X150375600Y-113601500D01*
X150375600Y-113601500D02*
X144279600Y-113601500D01*
X144279600Y-114617500D02*
X144279600Y-112077500D01*
X144279600Y-112077500D02*
X144279600Y-109537500D01*
X150375600Y-111061500D02*
X144279600Y-111061500D01*
X150375600Y-110553500D02*
X150375600Y-111061500D01*
X144279600Y-110553500D02*
X150375600Y-110553500D01*
X141739600Y-112077500D02*
X144279600Y-112077500D01*
X141739600Y-109537500D02*
X141739600Y-112077500D01*
X141739600Y-109537500D02*
X144279600Y-109537500D01*
X135991600Y-108902500D02*
X132181600Y-108902500D01*
X132181600Y-108902500D02*
X132181600Y-110680500D01*
X132181600Y-110680500D02*
X135991600Y-110680500D01*
X135991600Y-108902500D02*
X135991600Y-110680500D01*
X101313054Y-129181256D02*
X105123054Y-129181256D01*
X105123054Y-129181256D02*
X105123054Y-127403256D01*
X105123054Y-127403256D02*
X101313054Y-127403256D01*
X101313054Y-129181256D02*
X101313054Y-127403256D01*
X101193600Y-132524500D02*
X105003600Y-132524500D01*
X105003600Y-132524500D02*
X105003600Y-130746500D01*
X105003600Y-130746500D02*
X101193600Y-130746500D01*
X101193600Y-132524500D02*
X101193600Y-130746500D01*
X101193600Y-136080500D02*
X105003600Y-136080500D01*
X105003600Y-136080500D02*
X105003600Y-134302500D01*
X105003600Y-134302500D02*
X101193600Y-134302500D01*
X101193600Y-136080500D02*
X101193600Y-134302500D01*
X144627600Y-118046500D02*
X147167600Y-118046500D01*
X147167600Y-116268500D02*
X144627600Y-116268500D01*
X147167600Y-116268500D02*
X147167600Y-118046500D01*
X144627600Y-118046500D02*
X144627600Y-116268500D01*
X137715600Y-110602500D02*
X117715600Y-110602500D01*
X117715600Y-110602500D02*
X117776600Y-102220500D01*
X117715600Y-102220500D02*
X137715600Y-102220500D01*
X137715600Y-102220500D02*
X137715600Y-110602500D01*
D13*
G36*
X90057790Y-126438689D02*
X90564454Y-126543545D01*
X91064240Y-126720082D01*
X91609786Y-126979215D01*
X91613262Y-126981019D01*
X92411715Y-127489212D01*
X93104157Y-128124162D01*
X93678654Y-128871836D01*
X94123273Y-129718197D01*
X94270840Y-130106866D01*
X94383423Y-130462710D01*
X94455901Y-130770360D01*
X94497039Y-131089387D01*
X94515604Y-131479364D01*
X94519713Y-131798166D01*
X94514757Y-132293903D01*
X94488788Y-132679168D01*
X94434911Y-133012234D01*
X94346231Y-133351373D01*
X94329358Y-133406833D01*
X93985830Y-134280706D01*
X93518966Y-135053881D01*
X92926518Y-135742085D01*
X92182478Y-136370719D01*
X91357851Y-136850804D01*
X90457525Y-137179968D01*
X89633520Y-137339676D01*
X89323682Y-137397201D01*
X89135016Y-137474970D01*
X89095294Y-137519914D01*
X88972553Y-137607583D01*
X88698661Y-137640035D01*
X88675112Y-137640166D01*
X88432363Y-137626343D01*
X88300597Y-137566536D01*
X88222477Y-137433235D01*
X88217629Y-137420686D01*
X88185967Y-137174155D01*
X88523720Y-137174155D01*
X88550287Y-137302456D01*
X88655618Y-137382931D01*
X88686266Y-137386166D01*
X88809366Y-137318161D01*
X88842843Y-137261878D01*
X88834413Y-137120132D01*
X88712228Y-137059123D01*
X88598972Y-137079125D01*
X88523720Y-137174155D01*
X88185967Y-137174155D01*
X88180079Y-137128315D01*
X88288679Y-136893568D01*
X88521896Y-136750467D01*
X88657656Y-136725368D01*
X88900672Y-136734859D01*
X89054739Y-136831626D01*
X89095220Y-136883329D01*
X89173840Y-136979104D01*
X89268113Y-137024437D01*
X89423842Y-137024958D01*
X89686834Y-136986299D01*
X89789254Y-136968642D01*
X90713387Y-136727929D01*
X91555060Y-136349119D01*
X92302582Y-135844914D01*
X92944260Y-135228013D01*
X93468403Y-134511116D01*
X93863319Y-133706924D01*
X94117315Y-132828135D01*
X94205259Y-132171911D01*
X94187130Y-131295502D01*
X94012911Y-130443687D01*
X93695717Y-129634556D01*
X93248668Y-128886198D01*
X92684880Y-128216701D01*
X92017472Y-127644155D01*
X91259559Y-127186649D01*
X90424261Y-126862272D01*
X90337266Y-126837931D01*
X89607724Y-126710409D01*
X88817929Y-126692315D01*
X88035226Y-126781754D01*
X87494294Y-126917960D01*
X86642267Y-127278000D01*
X85881991Y-127767757D01*
X85225610Y-128370984D01*
X84685270Y-129071437D01*
X84273113Y-129852872D01*
X84001286Y-130699042D01*
X83881932Y-131593703D01*
X83877608Y-131755833D01*
X83906939Y-132479087D01*
X84021401Y-133118158D01*
X84235596Y-133742813D01*
X84344792Y-133987964D01*
X84708249Y-134615352D01*
X85138034Y-135087824D01*
X85637108Y-135407493D01*
X86208429Y-135576472D01*
X86611933Y-135606512D01*
X87133504Y-135547683D01*
X87663953Y-135366947D01*
X88211708Y-135057928D01*
X88785192Y-134614249D01*
X89392834Y-134029534D01*
X90043058Y-133297408D01*
X90621897Y-132572213D01*
X90999458Y-132000110D01*
X91227463Y-131468450D01*
X91249601Y-131332500D01*
X91607266Y-131332500D01*
X91650226Y-131437873D01*
X91698283Y-131443272D01*
X91785757Y-131355863D01*
X91789300Y-131332500D01*
X91723385Y-131233225D01*
X91698283Y-131221727D01*
X91621080Y-131262598D01*
X91607266Y-131332500D01*
X91249601Y-131332500D01*
X91306170Y-130985130D01*
X91235835Y-130558043D01*
X91016713Y-130195083D01*
X90649063Y-129904146D01*
X90533219Y-129843226D01*
X90006065Y-129671632D01*
X89473004Y-129652810D01*
X88968588Y-129786146D01*
X88795823Y-129874104D01*
X88513476Y-130051311D01*
X88366809Y-130183334D01*
X88338147Y-130296798D01*
X88409819Y-130418331D01*
X88423972Y-130434335D01*
X88549920Y-130636657D01*
X88541666Y-130775585D01*
X88430503Y-130823584D01*
X88247721Y-130753119D01*
X88150219Y-130675219D01*
X87713974Y-130310813D01*
X87325158Y-130068531D01*
X86996401Y-129953373D01*
X86740332Y-129970343D01*
X86609852Y-130065007D01*
X86555382Y-130249441D01*
X86631550Y-130469915D01*
X86819530Y-130682885D01*
X86903684Y-130744616D01*
X87050405Y-130882940D01*
X87048496Y-130989095D01*
X86900194Y-131035809D01*
X86879775Y-131036166D01*
X86702017Y-131082981D01*
X86545807Y-131168176D01*
X86418167Y-131318811D01*
X86439051Y-131469280D01*
X86588193Y-131605878D01*
X86845327Y-131714901D01*
X87190185Y-131782643D01*
X87477442Y-131798166D01*
X87727422Y-131807309D01*
X87845801Y-131844184D01*
X87869766Y-131922963D01*
X87866250Y-131946333D01*
X87765188Y-132072338D01*
X87614664Y-132120458D01*
X87459774Y-132169913D01*
X87361725Y-132294386D01*
X87309214Y-132523225D01*
X87290937Y-132885780D01*
X87290422Y-132962333D01*
X87297886Y-133224081D01*
X87332200Y-133357637D01*
X87408600Y-133403744D01*
X87456648Y-133406833D01*
X87619741Y-133472975D01*
X87767018Y-133625061D01*
X87858002Y-133884246D01*
X87813111Y-134120940D01*
X87665468Y-134302038D01*
X87448198Y-134394441D01*
X87194427Y-134365046D01*
X87083876Y-134307731D01*
X86984018Y-134236262D01*
X86922885Y-134156323D01*
X86894239Y-134031176D01*
X86892935Y-133918447D01*
X87203882Y-133918447D01*
X87262808Y-134029486D01*
X87385390Y-134063785D01*
X87485105Y-133980456D01*
X87500933Y-133908937D01*
X87430554Y-133794405D01*
X87352766Y-133761618D01*
X87233911Y-133797950D01*
X87203882Y-133918447D01*
X86892935Y-133918447D01*
X86891842Y-133824085D01*
X86909453Y-133498310D01*
X86919735Y-133341194D01*
X86944381Y-132961708D01*
X86965391Y-132626744D01*
X86979708Y-132385566D01*
X86983520Y-132313023D01*
X86956838Y-132163016D01*
X86829721Y-132072193D01*
X86696600Y-132030643D01*
X86364296Y-131899637D01*
X86174634Y-131705076D01*
X86105343Y-131421852D01*
X86103933Y-131362428D01*
X86142080Y-131090891D01*
X86265749Y-130936549D01*
X86266949Y-130935796D01*
X86372770Y-130848008D01*
X86373445Y-130739530D01*
X86309282Y-130600616D01*
X86200031Y-130282373D01*
X86241502Y-130015007D01*
X86396418Y-129804651D01*
X86671528Y-129630930D01*
X86907791Y-129596833D01*
X87152382Y-129633179D01*
X87438993Y-129725092D01*
X87704900Y-129846888D01*
X87887381Y-129972881D01*
X87918412Y-130010694D01*
X88001609Y-130005732D01*
X88156952Y-129903884D01*
X88241657Y-129830083D01*
X88561722Y-129580445D01*
X88907788Y-129427886D01*
X89330520Y-129355279D01*
X89682923Y-129342833D01*
X90302788Y-129404018D01*
X90812501Y-129585717D01*
X91206081Y-129885141D01*
X91396827Y-130141623D01*
X91520715Y-130376056D01*
X91596387Y-130563645D01*
X91607352Y-130620271D01*
X91675998Y-130724067D01*
X91853102Y-130866946D01*
X92027654Y-130975846D01*
X92265422Y-131117285D01*
X92437335Y-131234207D01*
X92493270Y-131285319D01*
X92447967Y-131359700D01*
X92286744Y-131489396D01*
X92042366Y-131648691D01*
X91992908Y-131678036D01*
X91534316Y-132000047D01*
X91216101Y-132353219D01*
X91195206Y-132384564D01*
X90755021Y-133003389D01*
X90245361Y-133623559D01*
X89694161Y-134217388D01*
X89129355Y-134757190D01*
X88578878Y-135215277D01*
X88070664Y-135563965D01*
X87881933Y-135668403D01*
X87637240Y-135782668D01*
X87417246Y-135852925D01*
X87166567Y-135889417D01*
X86829818Y-135902384D01*
X86611933Y-135903246D01*
X86210039Y-135896772D01*
X85923654Y-135872277D01*
X85699151Y-135819921D01*
X85482904Y-135729865D01*
X85378894Y-135676990D01*
X84850159Y-135304932D01*
X84396266Y-134786578D01*
X84022721Y-134130117D01*
X83735027Y-133343739D01*
X83684181Y-133155603D01*
X83596858Y-132633677D01*
X83565058Y-132017861D01*
X83585957Y-131366484D01*
X83656732Y-130737874D01*
X83774557Y-130190359D01*
X83836983Y-129999715D01*
X84258577Y-129103358D01*
X84810092Y-128313367D01*
X85483828Y-127637439D01*
X86272090Y-127083274D01*
X87167179Y-126658569D01*
X87184148Y-126652186D01*
X87480973Y-126552890D01*
X87777765Y-126484546D01*
X88123570Y-126439574D01*
X88567436Y-126410390D01*
X88813266Y-126400352D01*
X89491607Y-126394597D01*
X90057790Y-126438689D01*
X90057790Y-126438689D01*
G37*
X90057790Y-126438689D02*
X90564454Y-126543545D01*
X91064240Y-126720082D01*
X91609786Y-126979215D01*
X91613262Y-126981019D01*
X92411715Y-127489212D01*
X93104157Y-128124162D01*
X93678654Y-128871836D01*
X94123273Y-129718197D01*
X94270840Y-130106866D01*
X94383423Y-130462710D01*
X94455901Y-130770360D01*
X94497039Y-131089387D01*
X94515604Y-131479364D01*
X94519713Y-131798166D01*
X94514757Y-132293903D01*
X94488788Y-132679168D01*
X94434911Y-133012234D01*
X94346231Y-133351373D01*
X94329358Y-133406833D01*
X93985830Y-134280706D01*
X93518966Y-135053881D01*
X92926518Y-135742085D01*
X92182478Y-136370719D01*
X91357851Y-136850804D01*
X90457525Y-137179968D01*
X89633520Y-137339676D01*
X89323682Y-137397201D01*
X89135016Y-137474970D01*
X89095294Y-137519914D01*
X88972553Y-137607583D01*
X88698661Y-137640035D01*
X88675112Y-137640166D01*
X88432363Y-137626343D01*
X88300597Y-137566536D01*
X88222477Y-137433235D01*
X88217629Y-137420686D01*
X88185967Y-137174155D01*
X88523720Y-137174155D01*
X88550287Y-137302456D01*
X88655618Y-137382931D01*
X88686266Y-137386166D01*
X88809366Y-137318161D01*
X88842843Y-137261878D01*
X88834413Y-137120132D01*
X88712228Y-137059123D01*
X88598972Y-137079125D01*
X88523720Y-137174155D01*
X88185967Y-137174155D01*
X88180079Y-137128315D01*
X88288679Y-136893568D01*
X88521896Y-136750467D01*
X88657656Y-136725368D01*
X88900672Y-136734859D01*
X89054739Y-136831626D01*
X89095220Y-136883329D01*
X89173840Y-136979104D01*
X89268113Y-137024437D01*
X89423842Y-137024958D01*
X89686834Y-136986299D01*
X89789254Y-136968642D01*
X90713387Y-136727929D01*
X91555060Y-136349119D01*
X92302582Y-135844914D01*
X92944260Y-135228013D01*
X93468403Y-134511116D01*
X93863319Y-133706924D01*
X94117315Y-132828135D01*
X94205259Y-132171911D01*
X94187130Y-131295502D01*
X94012911Y-130443687D01*
X93695717Y-129634556D01*
X93248668Y-128886198D01*
X92684880Y-128216701D01*
X92017472Y-127644155D01*
X91259559Y-127186649D01*
X90424261Y-126862272D01*
X90337266Y-126837931D01*
X89607724Y-126710409D01*
X88817929Y-126692315D01*
X88035226Y-126781754D01*
X87494294Y-126917960D01*
X86642267Y-127278000D01*
X85881991Y-127767757D01*
X85225610Y-128370984D01*
X84685270Y-129071437D01*
X84273113Y-129852872D01*
X84001286Y-130699042D01*
X83881932Y-131593703D01*
X83877608Y-131755833D01*
X83906939Y-132479087D01*
X84021401Y-133118158D01*
X84235596Y-133742813D01*
X84344792Y-133987964D01*
X84708249Y-134615352D01*
X85138034Y-135087824D01*
X85637108Y-135407493D01*
X86208429Y-135576472D01*
X86611933Y-135606512D01*
X87133504Y-135547683D01*
X87663953Y-135366947D01*
X88211708Y-135057928D01*
X88785192Y-134614249D01*
X89392834Y-134029534D01*
X90043058Y-133297408D01*
X90621897Y-132572213D01*
X90999458Y-132000110D01*
X91227463Y-131468450D01*
X91249601Y-131332500D01*
X91607266Y-131332500D01*
X91650226Y-131437873D01*
X91698283Y-131443272D01*
X91785757Y-131355863D01*
X91789300Y-131332500D01*
X91723385Y-131233225D01*
X91698283Y-131221727D01*
X91621080Y-131262598D01*
X91607266Y-131332500D01*
X91249601Y-131332500D01*
X91306170Y-130985130D01*
X91235835Y-130558043D01*
X91016713Y-130195083D01*
X90649063Y-129904146D01*
X90533219Y-129843226D01*
X90006065Y-129671632D01*
X89473004Y-129652810D01*
X88968588Y-129786146D01*
X88795823Y-129874104D01*
X88513476Y-130051311D01*
X88366809Y-130183334D01*
X88338147Y-130296798D01*
X88409819Y-130418331D01*
X88423972Y-130434335D01*
X88549920Y-130636657D01*
X88541666Y-130775585D01*
X88430503Y-130823584D01*
X88247721Y-130753119D01*
X88150219Y-130675219D01*
X87713974Y-130310813D01*
X87325158Y-130068531D01*
X86996401Y-129953373D01*
X86740332Y-129970343D01*
X86609852Y-130065007D01*
X86555382Y-130249441D01*
X86631550Y-130469915D01*
X86819530Y-130682885D01*
X86903684Y-130744616D01*
X87050405Y-130882940D01*
X87048496Y-130989095D01*
X86900194Y-131035809D01*
X86879775Y-131036166D01*
X86702017Y-131082981D01*
X86545807Y-131168176D01*
X86418167Y-131318811D01*
X86439051Y-131469280D01*
X86588193Y-131605878D01*
X86845327Y-131714901D01*
X87190185Y-131782643D01*
X87477442Y-131798166D01*
X87727422Y-131807309D01*
X87845801Y-131844184D01*
X87869766Y-131922963D01*
X87866250Y-131946333D01*
X87765188Y-132072338D01*
X87614664Y-132120458D01*
X87459774Y-132169913D01*
X87361725Y-132294386D01*
X87309214Y-132523225D01*
X87290937Y-132885780D01*
X87290422Y-132962333D01*
X87297886Y-133224081D01*
X87332200Y-133357637D01*
X87408600Y-133403744D01*
X87456648Y-133406833D01*
X87619741Y-133472975D01*
X87767018Y-133625061D01*
X87858002Y-133884246D01*
X87813111Y-134120940D01*
X87665468Y-134302038D01*
X87448198Y-134394441D01*
X87194427Y-134365046D01*
X87083876Y-134307731D01*
X86984018Y-134236262D01*
X86922885Y-134156323D01*
X86894239Y-134031176D01*
X86892935Y-133918447D01*
X87203882Y-133918447D01*
X87262808Y-134029486D01*
X87385390Y-134063785D01*
X87485105Y-133980456D01*
X87500933Y-133908937D01*
X87430554Y-133794405D01*
X87352766Y-133761618D01*
X87233911Y-133797950D01*
X87203882Y-133918447D01*
X86892935Y-133918447D01*
X86891842Y-133824085D01*
X86909453Y-133498310D01*
X86919735Y-133341194D01*
X86944381Y-132961708D01*
X86965391Y-132626744D01*
X86979708Y-132385566D01*
X86983520Y-132313023D01*
X86956838Y-132163016D01*
X86829721Y-132072193D01*
X86696600Y-132030643D01*
X86364296Y-131899637D01*
X86174634Y-131705076D01*
X86105343Y-131421852D01*
X86103933Y-131362428D01*
X86142080Y-131090891D01*
X86265749Y-130936549D01*
X86266949Y-130935796D01*
X86372770Y-130848008D01*
X86373445Y-130739530D01*
X86309282Y-130600616D01*
X86200031Y-130282373D01*
X86241502Y-130015007D01*
X86396418Y-129804651D01*
X86671528Y-129630930D01*
X86907791Y-129596833D01*
X87152382Y-129633179D01*
X87438993Y-129725092D01*
X87704900Y-129846888D01*
X87887381Y-129972881D01*
X87918412Y-130010694D01*
X88001609Y-130005732D01*
X88156952Y-129903884D01*
X88241657Y-129830083D01*
X88561722Y-129580445D01*
X88907788Y-129427886D01*
X89330520Y-129355279D01*
X89682923Y-129342833D01*
X90302788Y-129404018D01*
X90812501Y-129585717D01*
X91206081Y-129885141D01*
X91396827Y-130141623D01*
X91520715Y-130376056D01*
X91596387Y-130563645D01*
X91607352Y-130620271D01*
X91675998Y-130724067D01*
X91853102Y-130866946D01*
X92027654Y-130975846D01*
X92265422Y-131117285D01*
X92437335Y-131234207D01*
X92493270Y-131285319D01*
X92447967Y-131359700D01*
X92286744Y-131489396D01*
X92042366Y-131648691D01*
X91992908Y-131678036D01*
X91534316Y-132000047D01*
X91216101Y-132353219D01*
X91195206Y-132384564D01*
X90755021Y-133003389D01*
X90245361Y-133623559D01*
X89694161Y-134217388D01*
X89129355Y-134757190D01*
X88578878Y-135215277D01*
X88070664Y-135563965D01*
X87881933Y-135668403D01*
X87637240Y-135782668D01*
X87417246Y-135852925D01*
X87166567Y-135889417D01*
X86829818Y-135902384D01*
X86611933Y-135903246D01*
X86210039Y-135896772D01*
X85923654Y-135872277D01*
X85699151Y-135819921D01*
X85482904Y-135729865D01*
X85378894Y-135676990D01*
X84850159Y-135304932D01*
X84396266Y-134786578D01*
X84022721Y-134130117D01*
X83735027Y-133343739D01*
X83684181Y-133155603D01*
X83596858Y-132633677D01*
X83565058Y-132017861D01*
X83585957Y-131366484D01*
X83656732Y-130737874D01*
X83774557Y-130190359D01*
X83836983Y-129999715D01*
X84258577Y-129103358D01*
X84810092Y-128313367D01*
X85483828Y-127637439D01*
X86272090Y-127083274D01*
X87167179Y-126658569D01*
X87184148Y-126652186D01*
X87480973Y-126552890D01*
X87777765Y-126484546D01*
X88123570Y-126439574D01*
X88567436Y-126410390D01*
X88813266Y-126400352D01*
X89491607Y-126394597D01*
X90057790Y-126438689D01*
G36*
X90397789Y-130310761D02*
X90572427Y-130405967D01*
X90720848Y-130601542D01*
X90757541Y-130856042D01*
X90677161Y-131096651D01*
X90627552Y-131157119D01*
X90408589Y-131270313D01*
X90144471Y-131272377D01*
X89915715Y-131165673D01*
X89884722Y-131135333D01*
X89758118Y-130886466D01*
X89775459Y-130742028D01*
X90113109Y-130742028D01*
X90121040Y-130859456D01*
X90237225Y-130943372D01*
X90364400Y-130929321D01*
X90421933Y-130829496D01*
X90365522Y-130682197D01*
X90329889Y-130650607D01*
X90203089Y-130646785D01*
X90113109Y-130742028D01*
X89775459Y-130742028D01*
X89789720Y-130623255D01*
X89913933Y-130443500D01*
X90147845Y-130294628D01*
X90397789Y-130310761D01*
X90397789Y-130310761D01*
G37*
X90397789Y-130310761D02*
X90572427Y-130405967D01*
X90720848Y-130601542D01*
X90757541Y-130856042D01*
X90677161Y-131096651D01*
X90627552Y-131157119D01*
X90408589Y-131270313D01*
X90144471Y-131272377D01*
X89915715Y-131165673D01*
X89884722Y-131135333D01*
X89758118Y-130886466D01*
X89775459Y-130742028D01*
X90113109Y-130742028D01*
X90121040Y-130859456D01*
X90237225Y-130943372D01*
X90364400Y-130929321D01*
X90421933Y-130829496D01*
X90365522Y-130682197D01*
X90329889Y-130650607D01*
X90203089Y-130646785D01*
X90113109Y-130742028D01*
X89775459Y-130742028D01*
X89789720Y-130623255D01*
X89913933Y-130443500D01*
X90147845Y-130294628D01*
X90397789Y-130310761D01*
D12*
X50540100Y-114094200D02*
X50540100Y-144574200D01*
X50540100Y-144574200D02*
X53080100Y-144574200D01*
X53080100Y-144574200D02*
X53080100Y-114094200D01*
X53360100Y-111274200D02*
X53360100Y-112824200D01*
X53080100Y-114094200D02*
X50540100Y-114094200D01*
X50260100Y-112824200D02*
X50260100Y-111274200D01*
X50260100Y-111274200D02*
X53360100Y-111274200D01*
X69236100Y-114135200D02*
X56536100Y-114135200D01*
X56536100Y-114135200D02*
X56536100Y-111595200D01*
X56536100Y-111595200D02*
X69236100Y-111595200D01*
X72056100Y-114415200D02*
X70506100Y-114415200D01*
X69236100Y-114135200D02*
X69236100Y-111595200D01*
X70506100Y-111315200D02*
X72056100Y-111315200D01*
X72056100Y-111315200D02*
X72056100Y-114415200D01*
X70936100Y-118535200D02*
X70936100Y-123615200D01*
X70936100Y-123615200D02*
X73476100Y-123615200D01*
X73476100Y-123615200D02*
X73476100Y-118535200D01*
X73756100Y-115715200D02*
X73756100Y-117265200D01*
X73476100Y-118535200D02*
X70936100Y-118535200D01*
X70656100Y-117265200D02*
X70656100Y-115715200D01*
X70656100Y-115715200D02*
X73756100Y-115715200D01*
X66923100Y-118539200D02*
X66923100Y-115999200D01*
X66643100Y-121359200D02*
X66643100Y-119809200D01*
X66923100Y-118539200D02*
X69463100Y-118539200D01*
X69743100Y-119809200D02*
X69743100Y-121359200D01*
X69743100Y-121359200D02*
X66643100Y-121359200D01*
X69463100Y-118539200D02*
X69463100Y-115999200D01*
X69463100Y-115999200D02*
X66923100Y-115999200D01*
X78480100Y-142034200D02*
X78480100Y-111554200D01*
X78480100Y-111554200D02*
X75940100Y-111554200D01*
X75940100Y-111554200D02*
X75940100Y-142034200D01*
X75660100Y-144854200D02*
X75660100Y-143304200D01*
X75940100Y-142034200D02*
X78480100Y-142034200D01*
X78760100Y-143304200D02*
X78760100Y-144854200D01*
X78760100Y-144854200D02*
X75660100Y-144854200D01*
X64444600Y-115799800D02*
X64444600Y-115999800D01*
X64444600Y-121799800D02*
X64444600Y-121599800D01*
X58444600Y-121799800D02*
X58444600Y-121599800D01*
X58444600Y-115799800D02*
X58444600Y-115999800D01*
X58444600Y-117599800D02*
X58444600Y-119999800D01*
X64444600Y-117599800D02*
X64444600Y-119999800D01*
X64444600Y-115799800D02*
X58444600Y-115799800D01*
X58444600Y-121799800D02*
X64444600Y-121799800D01*
X63144600Y-118799800D02*
G75*
G03X63144600Y-118799800I-1700000J0D01*
G01*
X57886000Y-55656000D02*
X59436000Y-55656000D01*
X57886000Y-54356000D02*
X57886000Y-55656000D01*
X59309000Y-50165000D02*
X59309000Y-44323000D01*
X59309000Y-44323000D02*
X59563000Y-44323000D01*
X59563000Y-44323000D02*
X59563000Y-50165000D01*
X59563000Y-50165000D02*
X59436000Y-50165000D01*
X59436000Y-50165000D02*
X59436000Y-44323000D01*
X59182000Y-52832000D02*
X59182000Y-53213000D01*
X59690000Y-52832000D02*
X59690000Y-53213000D01*
X61722000Y-52832000D02*
X61722000Y-53213000D01*
X62230000Y-52832000D02*
X62230000Y-53213000D01*
X64262000Y-52832000D02*
X64262000Y-53213000D01*
X64770000Y-52832000D02*
X64770000Y-53213000D01*
X66802000Y-52832000D02*
X66802000Y-53213000D01*
X67310000Y-52832000D02*
X67310000Y-53213000D01*
X69850000Y-52832000D02*
X69850000Y-53213000D01*
X69342000Y-52832000D02*
X69342000Y-53213000D01*
X60706000Y-50292000D02*
X58166000Y-50292000D01*
X59690000Y-44196000D02*
X59690000Y-50292000D01*
X59182000Y-44196000D02*
X59690000Y-44196000D01*
X59182000Y-50292000D02*
X59182000Y-44196000D01*
X60706000Y-52832000D02*
X60706000Y-50292000D01*
X58166000Y-52832000D02*
X60706000Y-52832000D01*
X58166000Y-52832000D02*
X58166000Y-50292000D01*
X63246000Y-52832000D02*
X63246000Y-50292000D01*
X63246000Y-52832000D02*
X65786000Y-52832000D01*
X65786000Y-52832000D02*
X65786000Y-50292000D01*
X64262000Y-50292000D02*
X64262000Y-44196000D01*
X64262000Y-44196000D02*
X64770000Y-44196000D01*
X64770000Y-44196000D02*
X64770000Y-50292000D01*
X65786000Y-50292000D02*
X63246000Y-50292000D01*
X63246000Y-50292000D02*
X60706000Y-50292000D01*
X62230000Y-44196000D02*
X62230000Y-50292000D01*
X61722000Y-44196000D02*
X62230000Y-44196000D01*
X61722000Y-50292000D02*
X61722000Y-44196000D01*
X63246000Y-52832000D02*
X63246000Y-50292000D01*
X60706000Y-52832000D02*
X63246000Y-52832000D01*
X60706000Y-52832000D02*
X60706000Y-50292000D01*
X68326000Y-52832000D02*
X68326000Y-50292000D01*
X68326000Y-52832000D02*
X70866000Y-52832000D01*
X70866000Y-52832000D02*
X70866000Y-50292000D01*
X69342000Y-50292000D02*
X69342000Y-44196000D01*
X69342000Y-44196000D02*
X69850000Y-44196000D01*
X69850000Y-44196000D02*
X69850000Y-50292000D01*
X70866000Y-50292000D02*
X68326000Y-50292000D01*
X68326000Y-50292000D02*
X65786000Y-50292000D01*
X67310000Y-44196000D02*
X67310000Y-50292000D01*
X66802000Y-44196000D02*
X67310000Y-44196000D01*
X66802000Y-50292000D02*
X66802000Y-44196000D01*
X68326000Y-52832000D02*
X68326000Y-50292000D01*
X65786000Y-52832000D02*
X68326000Y-52832000D01*
X65786000Y-52832000D02*
X65786000Y-50292000D01*
X50546000Y-85344000D02*
X50546000Y-65024000D01*
X50546000Y-65024000D02*
X53086000Y-65024000D01*
X53086000Y-65024000D02*
X53086000Y-85344000D01*
X50266000Y-88164000D02*
X50266000Y-86614000D01*
X50546000Y-85344000D02*
X53086000Y-85344000D01*
X53366000Y-86614000D02*
X53366000Y-88164000D01*
X53366000Y-88164000D02*
X50266000Y-88164000D01*
X78232000Y-67564000D02*
X78232000Y-87884000D01*
X78232000Y-87884000D02*
X75692000Y-87884000D01*
X75692000Y-87884000D02*
X75692000Y-67564000D01*
X78512000Y-64744000D02*
X78512000Y-66294000D01*
X78232000Y-67564000D02*
X75692000Y-67564000D01*
X75412000Y-66294000D02*
X75412000Y-64744000D01*
X75412000Y-64744000D02*
X78512000Y-64744000D01*
X59436000Y-78359000D02*
X63246000Y-78359000D01*
X63246000Y-78359000D02*
X63246000Y-76581000D01*
X63246000Y-76581000D02*
X59436000Y-76581000D01*
X59436000Y-78359000D02*
X59436000Y-76581000D01*
X59436000Y-75819000D02*
X63246000Y-75819000D01*
X63246000Y-75819000D02*
X63246000Y-74041000D01*
X63246000Y-74041000D02*
X59436000Y-74041000D01*
X59436000Y-75819000D02*
X59436000Y-74041000D01*
X102474781Y-54521005D02*
X103284305Y-54521005D01*
X103379543Y-54473386D01*
X103427162Y-54425767D01*
X103474781Y-54330529D01*
X103474781Y-54140052D01*
X103427162Y-54044814D01*
X103379543Y-53997195D01*
X103284305Y-53949576D01*
X102474781Y-53949576D01*
X102474781Y-53568624D02*
X102474781Y-52901957D01*
X103474781Y-53330529D01*
X103998781Y-61458338D02*
X104998781Y-61125005D01*
X103998781Y-60791671D01*
X104998781Y-60458338D02*
X103998781Y-60458338D01*
X104998781Y-59982148D02*
X103998781Y-59982148D01*
X104998781Y-59410719D01*
X103998781Y-59410719D01*
X106586400Y-61125004D02*
X106538781Y-61220242D01*
X106538781Y-61363099D01*
X106586400Y-61505957D01*
X106681638Y-61601195D01*
X106776876Y-61648814D01*
X106967352Y-61696433D01*
X107110210Y-61696433D01*
X107300686Y-61648814D01*
X107395924Y-61601195D01*
X107491162Y-61505957D01*
X107538781Y-61363099D01*
X107538781Y-61267861D01*
X107491162Y-61125004D01*
X107443543Y-61077385D01*
X107110210Y-61077385D01*
X107110210Y-61267861D01*
X107538781Y-60648814D02*
X106538781Y-60648814D01*
X107538781Y-60077385D01*
X106538781Y-60077385D01*
X107538781Y-59601195D02*
X106538781Y-59601195D01*
X106538781Y-59363100D01*
X106586400Y-59220242D01*
X106681638Y-59125004D01*
X106776876Y-59077385D01*
X106967352Y-59029766D01*
X107110210Y-59029766D01*
X107300686Y-59077385D01*
X107395924Y-59125004D01*
X107491162Y-59220242D01*
X107538781Y-59363100D01*
X107538781Y-59601195D01*
X110031162Y-61577386D02*
X110078781Y-61434529D01*
X110078781Y-61196433D01*
X110031162Y-61101195D01*
X109983543Y-61053576D01*
X109888305Y-61005957D01*
X109793067Y-61005957D01*
X109697829Y-61053576D01*
X109650210Y-61101195D01*
X109602590Y-61196433D01*
X109554971Y-61386910D01*
X109507352Y-61482148D01*
X109459733Y-61529767D01*
X109364495Y-61577386D01*
X109269257Y-61577386D01*
X109174019Y-61529767D01*
X109126400Y-61482148D01*
X109078781Y-61386910D01*
X109078781Y-61148814D01*
X109126400Y-61005957D01*
X110078781Y-60577386D02*
X109078781Y-60577386D01*
X109078781Y-60339291D01*
X109126400Y-60196433D01*
X109221638Y-60101195D01*
X109316876Y-60053576D01*
X109507352Y-60005957D01*
X109650210Y-60005957D01*
X109840686Y-60053576D01*
X109935924Y-60101195D01*
X110031162Y-60196433D01*
X110078781Y-60339291D01*
X110078781Y-60577386D01*
X109793067Y-59625005D02*
X109793067Y-59148814D01*
X110078781Y-59720243D02*
X109078781Y-59386910D01*
X110078781Y-59053576D01*
X112571162Y-61553576D02*
X112618781Y-61410719D01*
X112618781Y-61172623D01*
X112571162Y-61077385D01*
X112523543Y-61029766D01*
X112428305Y-60982147D01*
X112333067Y-60982147D01*
X112237829Y-61029766D01*
X112190210Y-61077385D01*
X112142590Y-61172623D01*
X112094971Y-61363100D01*
X112047352Y-61458338D01*
X111999733Y-61505957D01*
X111904495Y-61553576D01*
X111809257Y-61553576D01*
X111714019Y-61505957D01*
X111666400Y-61458338D01*
X111618781Y-61363100D01*
X111618781Y-61125004D01*
X111666400Y-60982147D01*
X112523543Y-59982147D02*
X112571162Y-60029766D01*
X112618781Y-60172623D01*
X112618781Y-60267861D01*
X112571162Y-60410719D01*
X112475924Y-60505957D01*
X112380686Y-60553576D01*
X112190210Y-60601195D01*
X112047352Y-60601195D01*
X111856876Y-60553576D01*
X111761638Y-60505957D01*
X111666400Y-60410719D01*
X111618781Y-60267861D01*
X111618781Y-60172623D01*
X111666400Y-60029766D01*
X111714019Y-59982147D01*
X112618781Y-59077385D02*
X112618781Y-59553576D01*
X111618781Y-59553576D01*
X82829495Y-69467481D02*
X82829495Y-70277005D01*
X82877114Y-70372243D01*
X82924733Y-70419862D01*
X83019971Y-70467481D01*
X83210448Y-70467481D01*
X83305686Y-70419862D01*
X83353305Y-70372243D01*
X83400924Y-70277005D01*
X83400924Y-69467481D01*
X83781876Y-69467481D02*
X84400924Y-69467481D01*
X84067590Y-69848433D01*
X84210448Y-69848433D01*
X84305686Y-69896052D01*
X84353305Y-69943671D01*
X84400924Y-70038910D01*
X84400924Y-70277005D01*
X84353305Y-70372243D01*
X84305686Y-70419862D01*
X84210448Y-70467481D01*
X83924733Y-70467481D01*
X83829495Y-70419862D01*
X83781876Y-70372243D01*
X136002734Y-69197481D02*
X135669400Y-68721290D01*
X135431305Y-69197481D02*
X135431305Y-68197481D01*
X135812258Y-68197481D01*
X135907496Y-68245100D01*
X135955115Y-68292719D01*
X136002734Y-68387957D01*
X136002734Y-68530814D01*
X135955115Y-68626052D01*
X135907496Y-68673671D01*
X135812258Y-68721290D01*
X135431305Y-68721290D01*
X136336067Y-68197481D02*
X136955115Y-68197481D01*
X136621781Y-68578433D01*
X136764639Y-68578433D01*
X136859877Y-68626052D01*
X136907496Y-68673671D01*
X136955115Y-68768910D01*
X136955115Y-69007005D01*
X136907496Y-69102243D01*
X136859877Y-69149862D01*
X136764639Y-69197481D01*
X136478924Y-69197481D01*
X136383686Y-69149862D01*
X136336067Y-69102243D01*
X149353543Y-90501766D02*
X149401162Y-90549385D01*
X149448781Y-90692242D01*
X149448781Y-90787480D01*
X149401162Y-90930338D01*
X149305924Y-91025576D01*
X149210686Y-91073195D01*
X149020210Y-91120814D01*
X148877352Y-91120814D01*
X148686876Y-91073195D01*
X148591638Y-91025576D01*
X148496400Y-90930338D01*
X148448781Y-90787480D01*
X148448781Y-90692242D01*
X148496400Y-90549385D01*
X148544019Y-90501766D01*
X149448781Y-89549385D02*
X149448781Y-90120814D01*
X149448781Y-89835100D02*
X148448781Y-89835100D01*
X148591638Y-89930338D01*
X148686876Y-90025576D01*
X148734495Y-90120814D01*
X84583543Y-54909766D02*
X84631162Y-54957385D01*
X84678781Y-55100242D01*
X84678781Y-55195480D01*
X84631162Y-55338338D01*
X84535924Y-55433576D01*
X84440686Y-55481195D01*
X84250210Y-55528814D01*
X84107352Y-55528814D01*
X83916876Y-55481195D01*
X83821638Y-55433576D01*
X83726400Y-55338338D01*
X83678781Y-55195480D01*
X83678781Y-55100242D01*
X83726400Y-54957385D01*
X83774019Y-54909766D01*
X83774019Y-54528814D02*
X83726400Y-54481195D01*
X83678781Y-54385957D01*
X83678781Y-54147861D01*
X83726400Y-54052623D01*
X83774019Y-54005004D01*
X83869257Y-53957385D01*
X83964495Y-53957385D01*
X84107352Y-54005004D01*
X84678781Y-54576433D01*
X84678781Y-53957385D01*
X100496543Y-54661766D02*
X100544162Y-54709385D01*
X100591781Y-54852242D01*
X100591781Y-54947480D01*
X100544162Y-55090338D01*
X100448924Y-55185576D01*
X100353686Y-55233195D01*
X100163210Y-55280814D01*
X100020352Y-55280814D01*
X99829876Y-55233195D01*
X99734638Y-55185576D01*
X99639400Y-55090338D01*
X99591781Y-54947480D01*
X99591781Y-54852242D01*
X99639400Y-54709385D01*
X99687019Y-54661766D01*
X99591781Y-54328433D02*
X99591781Y-53709385D01*
X99972733Y-54042719D01*
X99972733Y-53899861D01*
X100020352Y-53804623D01*
X100067971Y-53757004D01*
X100163210Y-53709385D01*
X100401305Y-53709385D01*
X100496543Y-53757004D01*
X100544162Y-53804623D01*
X100591781Y-53899861D01*
X100591781Y-54185576D01*
X100544162Y-54280814D01*
X100496543Y-54328433D01*
X119398997Y-80706522D02*
X119446616Y-80754141D01*
X119494235Y-80896998D01*
X119494235Y-80992236D01*
X119446616Y-81135094D01*
X119351378Y-81230332D01*
X119256140Y-81277951D01*
X119065664Y-81325570D01*
X118922806Y-81325570D01*
X118732330Y-81277951D01*
X118637092Y-81230332D01*
X118541854Y-81135094D01*
X118494235Y-80992236D01*
X118494235Y-80896998D01*
X118541854Y-80754141D01*
X118589473Y-80706522D01*
X118827568Y-79849379D02*
X119494235Y-79849379D01*
X118446616Y-80087475D02*
X119160902Y-80325570D01*
X119160902Y-79706522D01*
X115996543Y-54306766D02*
X116044162Y-54354385D01*
X116091781Y-54497242D01*
X116091781Y-54592480D01*
X116044162Y-54735338D01*
X115948924Y-54830576D01*
X115853686Y-54878195D01*
X115663210Y-54925814D01*
X115520352Y-54925814D01*
X115329876Y-54878195D01*
X115234638Y-54830576D01*
X115139400Y-54735338D01*
X115091781Y-54592480D01*
X115091781Y-54497242D01*
X115139400Y-54354385D01*
X115187019Y-54306766D01*
X115091781Y-53402004D02*
X115091781Y-53878195D01*
X115567971Y-53925814D01*
X115520352Y-53878195D01*
X115472733Y-53782957D01*
X115472733Y-53544861D01*
X115520352Y-53449623D01*
X115567971Y-53402004D01*
X115663210Y-53354385D01*
X115901305Y-53354385D01*
X115996543Y-53402004D01*
X116044162Y-53449623D01*
X116091781Y-53544861D01*
X116091781Y-53782957D01*
X116044162Y-53878195D01*
X115996543Y-53925814D01*
X132097734Y-73039243D02*
X132050115Y-73086862D01*
X131907258Y-73134481D01*
X131812020Y-73134481D01*
X131669162Y-73086862D01*
X131573924Y-72991624D01*
X131526305Y-72896386D01*
X131478686Y-72705910D01*
X131478686Y-72563052D01*
X131526305Y-72372576D01*
X131573924Y-72277338D01*
X131669162Y-72182100D01*
X131812020Y-72134481D01*
X131907258Y-72134481D01*
X132050115Y-72182100D01*
X132097734Y-72229719D01*
X132954877Y-72134481D02*
X132764400Y-72134481D01*
X132669162Y-72182100D01*
X132621543Y-72229719D01*
X132526305Y-72372576D01*
X132478686Y-72563052D01*
X132478686Y-72944005D01*
X132526305Y-73039243D01*
X132573924Y-73086862D01*
X132669162Y-73134481D01*
X132859639Y-73134481D01*
X132954877Y-73086862D01*
X133002496Y-73039243D01*
X133050115Y-72944005D01*
X133050115Y-72705910D01*
X133002496Y-72610671D01*
X132954877Y-72563052D01*
X132859639Y-72515433D01*
X132669162Y-72515433D01*
X132573924Y-72563052D01*
X132526305Y-72610671D01*
X132478686Y-72705910D01*
X130478305Y-78722481D02*
X130478305Y-77722481D01*
X130716400Y-77722481D01*
X130859258Y-77770100D01*
X130954496Y-77865338D01*
X131002115Y-77960576D01*
X131049734Y-78151052D01*
X131049734Y-78293910D01*
X131002115Y-78484386D01*
X130954496Y-78579624D01*
X130859258Y-78674862D01*
X130716400Y-78722481D01*
X130478305Y-78722481D01*
X132002115Y-78722481D02*
X131430686Y-78722481D01*
X131716400Y-78722481D02*
X131716400Y-77722481D01*
X131621162Y-77865338D01*
X131525924Y-77960576D01*
X131430686Y-78008195D01*
X140517475Y-74987481D02*
X140517475Y-73987481D01*
X141088904Y-74987481D02*
X140660332Y-74416052D01*
X141088904Y-73987481D02*
X140517475Y-74558910D01*
X134041285Y-74751767D02*
X134517476Y-74751767D01*
X133946047Y-75037481D02*
X134279380Y-74037481D01*
X134612714Y-75037481D01*
X149866203Y-84723195D02*
X148866203Y-84723195D01*
X148866203Y-84342242D01*
X148913822Y-84247004D01*
X148961441Y-84199385D01*
X149056679Y-84151766D01*
X149199536Y-84151766D01*
X149294774Y-84199385D01*
X149342393Y-84247004D01*
X149390012Y-84342242D01*
X149390012Y-84723195D01*
X149866203Y-83199385D02*
X149866203Y-83770814D01*
X149866203Y-83485100D02*
X148866203Y-83485100D01*
X149009060Y-83580338D01*
X149104298Y-83675576D01*
X149151917Y-83770814D01*
X137598162Y-83368719D02*
X137502924Y-83321100D01*
X137407686Y-83225862D01*
X137264829Y-83083005D01*
X137169590Y-83035386D01*
X137074352Y-83035386D01*
X137121971Y-83273481D02*
X137026733Y-83225862D01*
X136931495Y-83130624D01*
X136883876Y-82940148D01*
X136883876Y-82606814D01*
X136931495Y-82416338D01*
X137026733Y-82321100D01*
X137121971Y-82273481D01*
X137312448Y-82273481D01*
X137407686Y-82321100D01*
X137502924Y-82416338D01*
X137550543Y-82606814D01*
X137550543Y-82940148D01*
X137502924Y-83130624D01*
X137407686Y-83225862D01*
X137312448Y-83273481D01*
X137121971Y-83273481D01*
X138502924Y-83273481D02*
X137931495Y-83273481D01*
X138217209Y-83273481D02*
X138217209Y-82273481D01*
X138121971Y-82416338D01*
X138026733Y-82511576D01*
X137931495Y-82559195D01*
X124604734Y-83167481D02*
X124271400Y-82691290D01*
X124033305Y-83167481D02*
X124033305Y-82167481D01*
X124414258Y-82167481D01*
X124509496Y-82215100D01*
X124557115Y-82262719D01*
X124604734Y-82357957D01*
X124604734Y-82500814D01*
X124557115Y-82596052D01*
X124509496Y-82643671D01*
X124414258Y-82691290D01*
X124033305Y-82691290D01*
X125557115Y-83167481D02*
X124985686Y-83167481D01*
X125271400Y-83167481D02*
X125271400Y-82167481D01*
X125176162Y-82310338D01*
X125080924Y-82405576D01*
X124985686Y-82453195D01*
X136002734Y-66657481D02*
X135669400Y-66181290D01*
X135431305Y-66657481D02*
X135431305Y-65657481D01*
X135812258Y-65657481D01*
X135907496Y-65705100D01*
X135955115Y-65752719D01*
X136002734Y-65847957D01*
X136002734Y-65990814D01*
X135955115Y-66086052D01*
X135907496Y-66133671D01*
X135812258Y-66181290D01*
X135431305Y-66181290D01*
X136383686Y-65752719D02*
X136431305Y-65705100D01*
X136526543Y-65657481D01*
X136764639Y-65657481D01*
X136859877Y-65705100D01*
X136907496Y-65752719D01*
X136955115Y-65847957D01*
X136955115Y-65943195D01*
X136907496Y-66086052D01*
X136336067Y-66657481D01*
X136955115Y-66657481D01*
X106894235Y-80701761D02*
X107703759Y-80701761D01*
X107798997Y-80654142D01*
X107846616Y-80606523D01*
X107894235Y-80511285D01*
X107894235Y-80320808D01*
X107846616Y-80225570D01*
X107798997Y-80177951D01*
X107703759Y-80130332D01*
X106894235Y-80130332D01*
X106894235Y-79177951D02*
X106894235Y-79654142D01*
X107370425Y-79701761D01*
X107322806Y-79654142D01*
X107275187Y-79558904D01*
X107275187Y-79320808D01*
X107322806Y-79225570D01*
X107370425Y-79177951D01*
X107465664Y-79130332D01*
X107703759Y-79130332D01*
X107798997Y-79177951D01*
X107846616Y-79225570D01*
X107894235Y-79320808D01*
X107894235Y-79558904D01*
X107846616Y-79654142D01*
X107798997Y-79701761D01*
X134658781Y-97067481D02*
X134658781Y-96067481D01*
X135039734Y-96067481D01*
X135134972Y-96115100D01*
X135182591Y-96162719D01*
X135230210Y-96257957D01*
X135230210Y-96400814D01*
X135182591Y-96496052D01*
X135134972Y-96543671D01*
X135039734Y-96591290D01*
X134658781Y-96591290D01*
X135420686Y-97162719D02*
X136182591Y-97162719D01*
X136373067Y-97019862D02*
X136515924Y-97067481D01*
X136754020Y-97067481D01*
X136849258Y-97019862D01*
X136896877Y-96972243D01*
X136944496Y-96877005D01*
X136944496Y-96781767D01*
X136896877Y-96686529D01*
X136849258Y-96638910D01*
X136754020Y-96591290D01*
X136563543Y-96543671D01*
X136468305Y-96496052D01*
X136420686Y-96448433D01*
X136373067Y-96353195D01*
X136373067Y-96257957D01*
X136420686Y-96162719D01*
X136468305Y-96115100D01*
X136563543Y-96067481D01*
X136801639Y-96067481D01*
X136944496Y-96115100D01*
X137373067Y-96543671D02*
X137706401Y-96543671D01*
X137849258Y-97067481D02*
X137373067Y-97067481D01*
X137373067Y-96067481D01*
X137849258Y-96067481D01*
X138277829Y-97067481D02*
X138277829Y-96067481D01*
X138849258Y-97067481D01*
X138849258Y-96067481D01*
X139277829Y-97019862D02*
X139420686Y-97067481D01*
X139658782Y-97067481D01*
X139754020Y-97019862D01*
X139801639Y-96972243D01*
X139849258Y-96877005D01*
X139849258Y-96781767D01*
X139801639Y-96686529D01*
X139754020Y-96638910D01*
X139658782Y-96591290D01*
X139468305Y-96543671D01*
X139373067Y-96496052D01*
X139325448Y-96448433D01*
X139277829Y-96353195D01*
X139277829Y-96257957D01*
X139325448Y-96162719D01*
X139373067Y-96115100D01*
X139468305Y-96067481D01*
X139706401Y-96067481D01*
X139849258Y-96115100D01*
X140801639Y-97067481D02*
X140230210Y-97067481D01*
X140515924Y-97067481D02*
X140515924Y-96067481D01*
X140420686Y-96210338D01*
X140325448Y-96305576D01*
X140230210Y-96353195D01*
X85964781Y-54521005D02*
X86774305Y-54521005D01*
X86869543Y-54473386D01*
X86917162Y-54425767D01*
X86964781Y-54330529D01*
X86964781Y-54140052D01*
X86917162Y-54044814D01*
X86869543Y-53997195D01*
X86774305Y-53949576D01*
X85964781Y-53949576D01*
X85964781Y-53044814D02*
X85964781Y-53235291D01*
X86012400Y-53330529D01*
X86060019Y-53378148D01*
X86202876Y-53473386D01*
X86393352Y-53521005D01*
X86774305Y-53521005D01*
X86869543Y-53473386D01*
X86917162Y-53425767D01*
X86964781Y-53330529D01*
X86964781Y-53140052D01*
X86917162Y-53044814D01*
X86869543Y-52997195D01*
X86774305Y-52949576D01*
X86536210Y-52949576D01*
X86440971Y-52997195D01*
X86393352Y-53044814D01*
X86345733Y-53140052D01*
X86345733Y-53330529D01*
X86393352Y-53425767D01*
X86440971Y-53473386D01*
X86536210Y-53521005D01*
X87488781Y-61458338D02*
X88488781Y-61125005D01*
X87488781Y-60791671D01*
X88488781Y-60458338D02*
X87488781Y-60458338D01*
X88488781Y-59982148D02*
X87488781Y-59982148D01*
X88488781Y-59410719D01*
X87488781Y-59410719D01*
X90076400Y-61125004D02*
X90028781Y-61220242D01*
X90028781Y-61363099D01*
X90076400Y-61505957D01*
X90171638Y-61601195D01*
X90266876Y-61648814D01*
X90457352Y-61696433D01*
X90600210Y-61696433D01*
X90790686Y-61648814D01*
X90885924Y-61601195D01*
X90981162Y-61505957D01*
X91028781Y-61363099D01*
X91028781Y-61267861D01*
X90981162Y-61125004D01*
X90933543Y-61077385D01*
X90600210Y-61077385D01*
X90600210Y-61267861D01*
X91028781Y-60648814D02*
X90028781Y-60648814D01*
X91028781Y-60077385D01*
X90028781Y-60077385D01*
X91028781Y-59601195D02*
X90028781Y-59601195D01*
X90028781Y-59363100D01*
X90076400Y-59220242D01*
X90171638Y-59125004D01*
X90266876Y-59077385D01*
X90457352Y-59029766D01*
X90600210Y-59029766D01*
X90790686Y-59077385D01*
X90885924Y-59125004D01*
X90981162Y-59220242D01*
X91028781Y-59363100D01*
X91028781Y-59601195D01*
X93521162Y-61553576D02*
X93568781Y-61410719D01*
X93568781Y-61172623D01*
X93521162Y-61077385D01*
X93473543Y-61029766D01*
X93378305Y-60982147D01*
X93283067Y-60982147D01*
X93187829Y-61029766D01*
X93140210Y-61077385D01*
X93092590Y-61172623D01*
X93044971Y-61363100D01*
X92997352Y-61458338D01*
X92949733Y-61505957D01*
X92854495Y-61553576D01*
X92759257Y-61553576D01*
X92664019Y-61505957D01*
X92616400Y-61458338D01*
X92568781Y-61363100D01*
X92568781Y-61125004D01*
X92616400Y-60982147D01*
X93473543Y-59982147D02*
X93521162Y-60029766D01*
X93568781Y-60172623D01*
X93568781Y-60267861D01*
X93521162Y-60410719D01*
X93425924Y-60505957D01*
X93330686Y-60553576D01*
X93140210Y-60601195D01*
X92997352Y-60601195D01*
X92806876Y-60553576D01*
X92711638Y-60505957D01*
X92616400Y-60410719D01*
X92568781Y-60267861D01*
X92568781Y-60172623D01*
X92616400Y-60029766D01*
X92664019Y-59982147D01*
X93568781Y-59077385D02*
X93568781Y-59553576D01*
X92568781Y-59553576D01*
X96061162Y-61577386D02*
X96108781Y-61434529D01*
X96108781Y-61196433D01*
X96061162Y-61101195D01*
X96013543Y-61053576D01*
X95918305Y-61005957D01*
X95823067Y-61005957D01*
X95727829Y-61053576D01*
X95680210Y-61101195D01*
X95632590Y-61196433D01*
X95584971Y-61386910D01*
X95537352Y-61482148D01*
X95489733Y-61529767D01*
X95394495Y-61577386D01*
X95299257Y-61577386D01*
X95204019Y-61529767D01*
X95156400Y-61482148D01*
X95108781Y-61386910D01*
X95108781Y-61148814D01*
X95156400Y-61005957D01*
X96108781Y-60577386D02*
X95108781Y-60577386D01*
X95108781Y-60339291D01*
X95156400Y-60196433D01*
X95251638Y-60101195D01*
X95346876Y-60053576D01*
X95537352Y-60005957D01*
X95680210Y-60005957D01*
X95870686Y-60053576D01*
X95965924Y-60101195D01*
X96061162Y-60196433D01*
X96108781Y-60339291D01*
X96108781Y-60577386D01*
X95823067Y-59625005D02*
X95823067Y-59148814D01*
X96108781Y-59720243D02*
X95108781Y-59386910D01*
X96108781Y-59053576D01*
X149776203Y-75783195D02*
X148776203Y-75783195D01*
X148776203Y-75402242D01*
X148823822Y-75307004D01*
X148871441Y-75259385D01*
X148966679Y-75211766D01*
X149109536Y-75211766D01*
X149204774Y-75259385D01*
X149252393Y-75307004D01*
X149300012Y-75402242D01*
X149300012Y-75783195D01*
X148871441Y-74830814D02*
X148823822Y-74783195D01*
X148776203Y-74687957D01*
X148776203Y-74449861D01*
X148823822Y-74354623D01*
X148871441Y-74307004D01*
X148966679Y-74259385D01*
X149061917Y-74259385D01*
X149204774Y-74307004D01*
X149776203Y-74878433D01*
X149776203Y-74259385D01*
X117698781Y-65038195D02*
X116698781Y-65038195D01*
X116698781Y-64657242D01*
X116746400Y-64562004D01*
X116794019Y-64514385D01*
X116889257Y-64466766D01*
X117032114Y-64466766D01*
X117127352Y-64514385D01*
X117174971Y-64562004D01*
X117222590Y-64657242D01*
X117222590Y-65038195D01*
X116698781Y-64133433D02*
X116698781Y-63514385D01*
X117079733Y-63847719D01*
X117079733Y-63704861D01*
X117127352Y-63609623D01*
X117174971Y-63562004D01*
X117270210Y-63514385D01*
X117508305Y-63514385D01*
X117603543Y-63562004D01*
X117651162Y-63609623D01*
X117698781Y-63704861D01*
X117698781Y-63990576D01*
X117651162Y-64085814D01*
X117603543Y-64133433D01*
X130414734Y-61482243D02*
X130367115Y-61529862D01*
X130224258Y-61577481D01*
X130129020Y-61577481D01*
X129986162Y-61529862D01*
X129890924Y-61434624D01*
X129843305Y-61339386D01*
X129795686Y-61148910D01*
X129795686Y-61006052D01*
X129843305Y-60815576D01*
X129890924Y-60720338D01*
X129986162Y-60625100D01*
X130129020Y-60577481D01*
X130224258Y-60577481D01*
X130367115Y-60625100D01*
X130414734Y-60672719D01*
X130748067Y-60577481D02*
X131414734Y-60577481D01*
X130986162Y-61577481D01*
X99934734Y-97137481D02*
X99601400Y-96661290D01*
X99363305Y-97137481D02*
X99363305Y-96137481D01*
X99744258Y-96137481D01*
X99839496Y-96185100D01*
X99887115Y-96232719D01*
X99934734Y-96327957D01*
X99934734Y-96470814D01*
X99887115Y-96566052D01*
X99839496Y-96613671D01*
X99744258Y-96661290D01*
X99363305Y-96661290D01*
X100791877Y-96470814D02*
X100791877Y-97137481D01*
X100553781Y-96089862D02*
X100315686Y-96804148D01*
X100934734Y-96804148D01*
X148639162Y-69761005D02*
X148686781Y-69618148D01*
X148686781Y-69380052D01*
X148639162Y-69284814D01*
X148591543Y-69237195D01*
X148496305Y-69189576D01*
X148401067Y-69189576D01*
X148305829Y-69237195D01*
X148258210Y-69284814D01*
X148210590Y-69380052D01*
X148162971Y-69570529D01*
X148115352Y-69665767D01*
X148067733Y-69713386D01*
X147972495Y-69761005D01*
X147877257Y-69761005D01*
X147782019Y-69713386D01*
X147734400Y-69665767D01*
X147686781Y-69570529D01*
X147686781Y-69332433D01*
X147734400Y-69189576D01*
X147782019Y-68808624D02*
X147734400Y-68761005D01*
X147686781Y-68665767D01*
X147686781Y-68427671D01*
X147734400Y-68332433D01*
X147782019Y-68284814D01*
X147877257Y-68237195D01*
X147972495Y-68237195D01*
X148115352Y-68284814D01*
X148686781Y-68856243D01*
X148686781Y-68237195D01*
X147158781Y-61224624D02*
X146158781Y-61224624D01*
X146158781Y-60843671D01*
X146206400Y-60748433D01*
X146254019Y-60700814D01*
X146349257Y-60653195D01*
X146492114Y-60653195D01*
X146587352Y-60700814D01*
X146634971Y-60748433D01*
X146682590Y-60843671D01*
X146682590Y-61224624D01*
X147254019Y-60462719D02*
X147254019Y-59700814D01*
X147158781Y-59462719D02*
X146158781Y-59462719D01*
X146254019Y-59034148D02*
X146206400Y-58986529D01*
X146158781Y-58891291D01*
X146158781Y-58653195D01*
X146206400Y-58557957D01*
X146254019Y-58510338D01*
X146349257Y-58462719D01*
X146444495Y-58462719D01*
X146587352Y-58510338D01*
X147158781Y-59081767D01*
X147158781Y-58462719D01*
X147063543Y-57462719D02*
X147111162Y-57510338D01*
X147158781Y-57653195D01*
X147158781Y-57748433D01*
X147111162Y-57891291D01*
X147015924Y-57986529D01*
X146920686Y-58034148D01*
X146730210Y-58081767D01*
X146587352Y-58081767D01*
X146396876Y-58034148D01*
X146301638Y-57986529D01*
X146206400Y-57891291D01*
X146158781Y-57748433D01*
X146158781Y-57653195D01*
X146206400Y-57510338D01*
X146254019Y-57462719D01*
X146206400Y-56510338D02*
X146158781Y-56605576D01*
X146158781Y-56748433D01*
X146206400Y-56891291D01*
X146301638Y-56986529D01*
X146396876Y-57034148D01*
X146587352Y-57081767D01*
X146730210Y-57081767D01*
X146920686Y-57034148D01*
X147015924Y-56986529D01*
X147111162Y-56891291D01*
X147158781Y-56748433D01*
X147158781Y-56653195D01*
X147111162Y-56510338D01*
X147063543Y-56462719D01*
X146730210Y-56462719D01*
X146730210Y-56653195D01*
X147158781Y-56034148D02*
X146158781Y-56034148D01*
X146158781Y-55653195D01*
X146206400Y-55557957D01*
X146254019Y-55510338D01*
X146349257Y-55462719D01*
X146492114Y-55462719D01*
X146587352Y-55510338D01*
X146634971Y-55557957D01*
X146682590Y-55653195D01*
X146682590Y-56034148D01*
X147111162Y-55081767D02*
X147158781Y-54938910D01*
X147158781Y-54700814D01*
X147111162Y-54605576D01*
X147063543Y-54557957D01*
X146968305Y-54510338D01*
X146873067Y-54510338D01*
X146777829Y-54557957D01*
X146730210Y-54605576D01*
X146682590Y-54700814D01*
X146634971Y-54891291D01*
X146587352Y-54986529D01*
X146539733Y-55034148D01*
X146444495Y-55081767D01*
X146349257Y-55081767D01*
X146254019Y-55034148D01*
X146206400Y-54986529D01*
X146158781Y-54891291D01*
X146158781Y-54653195D01*
X146206400Y-54510338D01*
X147158781Y-53557957D02*
X147158781Y-54129386D01*
X147158781Y-53843672D02*
X146158781Y-53843672D01*
X146301638Y-53938910D01*
X146396876Y-54034148D01*
X146444495Y-54129386D01*
X126415924Y-58981767D02*
X126892115Y-58981767D01*
X126320686Y-59267481D02*
X126654019Y-58267481D01*
X126987353Y-59267481D01*
X127082591Y-59362719D02*
X127844496Y-59362719D01*
X128082591Y-59267481D02*
X128082591Y-58267481D01*
X128415925Y-58981767D01*
X128749258Y-58267481D01*
X128749258Y-59267481D01*
X129225448Y-59267481D02*
X129225448Y-58267481D01*
X129606401Y-58267481D01*
X129701639Y-58315100D01*
X129749258Y-58362719D01*
X129796877Y-58457957D01*
X129796877Y-58600814D01*
X129749258Y-58696052D01*
X129701639Y-58743671D01*
X129606401Y-58791290D01*
X129225448Y-58791290D01*
X130225448Y-58267481D02*
X130225448Y-59077005D01*
X130273067Y-59172243D01*
X130320686Y-59219862D01*
X130415924Y-59267481D01*
X130606401Y-59267481D01*
X130701639Y-59219862D01*
X130749258Y-59172243D01*
X130796877Y-59077005D01*
X130796877Y-58267481D01*
X131796877Y-59267481D02*
X131225448Y-59267481D01*
X131511162Y-59267481D02*
X131511162Y-58267481D01*
X131415924Y-58410338D01*
X131320686Y-58505576D01*
X131225448Y-58553195D01*
X96858781Y-77211279D02*
X97334972Y-77211279D01*
X96763543Y-77496993D02*
X97096876Y-76496993D01*
X97430210Y-77496993D01*
X97525448Y-77592231D02*
X98287353Y-77592231D01*
X98525448Y-77496993D02*
X98525448Y-76496993D01*
X99096877Y-77496993D01*
X99096877Y-76496993D01*
X99430210Y-76496993D02*
X99763543Y-77496993D01*
X100096877Y-76496993D01*
X100954020Y-77496993D02*
X100382591Y-77496993D01*
X100668305Y-77496993D02*
X100668305Y-76496993D01*
X100573067Y-76639850D01*
X100477829Y-76735088D01*
X100382591Y-76782707D01*
X96858781Y-80849767D02*
X97334972Y-80849767D01*
X96763543Y-81135481D02*
X97096876Y-80135481D01*
X97430210Y-81135481D01*
X97525448Y-81230719D02*
X98287353Y-81230719D01*
X98525448Y-81135481D02*
X98525448Y-80135481D01*
X99096877Y-81135481D01*
X99096877Y-80135481D01*
X99430210Y-80135481D02*
X99763543Y-81135481D01*
X100096877Y-80135481D01*
X100382591Y-80230719D02*
X100430210Y-80183100D01*
X100525448Y-80135481D01*
X100763544Y-80135481D01*
X100858782Y-80183100D01*
X100906401Y-80230719D01*
X100954020Y-80325957D01*
X100954020Y-80421195D01*
X100906401Y-80564052D01*
X100334972Y-81135481D01*
X100954020Y-81135481D01*
X96858781Y-84405767D02*
X97334972Y-84405767D01*
X96763543Y-84691481D02*
X97096876Y-83691481D01*
X97430210Y-84691481D01*
X97525448Y-84786719D02*
X98287353Y-84786719D01*
X98525448Y-84691481D02*
X98525448Y-83691481D01*
X99096877Y-84691481D01*
X99096877Y-83691481D01*
X99430210Y-83691481D02*
X99763543Y-84691481D01*
X100096877Y-83691481D01*
X100334972Y-83691481D02*
X100954020Y-83691481D01*
X100620686Y-84072433D01*
X100763544Y-84072433D01*
X100858782Y-84120052D01*
X100906401Y-84167671D01*
X100954020Y-84262910D01*
X100954020Y-84501005D01*
X100906401Y-84596243D01*
X100858782Y-84643862D01*
X100763544Y-84691481D01*
X100477829Y-84691481D01*
X100382591Y-84643862D01*
X100334972Y-84596243D01*
X148639162Y-66713005D02*
X148686781Y-66570148D01*
X148686781Y-66332052D01*
X148639162Y-66236814D01*
X148591543Y-66189195D01*
X148496305Y-66141576D01*
X148401067Y-66141576D01*
X148305829Y-66189195D01*
X148258210Y-66236814D01*
X148210590Y-66332052D01*
X148162971Y-66522529D01*
X148115352Y-66617767D01*
X148067733Y-66665386D01*
X147972495Y-66713005D01*
X147877257Y-66713005D01*
X147782019Y-66665386D01*
X147734400Y-66617767D01*
X147686781Y-66522529D01*
X147686781Y-66284433D01*
X147734400Y-66141576D01*
X148686781Y-65189195D02*
X148686781Y-65760624D01*
X148686781Y-65474910D02*
X147686781Y-65474910D01*
X147829638Y-65570148D01*
X147924876Y-65665386D01*
X147972495Y-65760624D01*
X118544495Y-58267481D02*
X118544495Y-59077005D01*
X118592114Y-59172243D01*
X118639733Y-59219862D01*
X118734971Y-59267481D01*
X118925448Y-59267481D01*
X119020686Y-59219862D01*
X119068305Y-59172243D01*
X119115924Y-59077005D01*
X119115924Y-58267481D01*
X120020686Y-58600814D02*
X120020686Y-59267481D01*
X119782590Y-58219862D02*
X119544495Y-58934148D01*
X120163543Y-58934148D01*
X137091781Y-57197862D02*
X136091781Y-57197862D01*
X137091781Y-56721672D02*
X136091781Y-56721672D01*
X137091781Y-56150243D01*
X136091781Y-56150243D01*
X136091781Y-55816910D02*
X136091781Y-55245481D01*
X137091781Y-55531196D02*
X136091781Y-55531196D01*
X134206067Y-57555005D02*
X134206067Y-57078814D01*
X134491781Y-57650243D02*
X133491781Y-57316910D01*
X134491781Y-56983576D01*
X134491781Y-56650243D02*
X133491781Y-56650243D01*
X133491781Y-56412148D01*
X133539400Y-56269290D01*
X133634638Y-56174052D01*
X133729876Y-56126433D01*
X133920352Y-56078814D01*
X134063210Y-56078814D01*
X134253686Y-56126433D01*
X134348924Y-56174052D01*
X134444162Y-56269290D01*
X134491781Y-56412148D01*
X134491781Y-56650243D01*
X133491781Y-55459767D02*
X133491781Y-55269290D01*
X133539400Y-55174052D01*
X133634638Y-55078814D01*
X133825114Y-55031195D01*
X134158448Y-55031195D01*
X134348924Y-55078814D01*
X134444162Y-55174052D01*
X134491781Y-55269290D01*
X134491781Y-55459767D01*
X134444162Y-55555005D01*
X134348924Y-55650243D01*
X134158448Y-55697862D01*
X133825114Y-55697862D01*
X133634638Y-55650243D01*
X133539400Y-55555005D01*
X133491781Y-55459767D01*
X130991781Y-57531195D02*
X131991781Y-56864528D01*
X130991781Y-56864528D02*
X131991781Y-57531195D01*
X131896543Y-55912147D02*
X131944162Y-55959766D01*
X131991781Y-56102623D01*
X131991781Y-56197861D01*
X131944162Y-56340719D01*
X131848924Y-56435957D01*
X131753686Y-56483576D01*
X131563210Y-56531195D01*
X131420352Y-56531195D01*
X131229876Y-56483576D01*
X131134638Y-56435957D01*
X131039400Y-56340719D01*
X130991781Y-56197861D01*
X130991781Y-56102623D01*
X131039400Y-55959766D01*
X131087019Y-55912147D01*
X131991781Y-55007385D02*
X131991781Y-55483576D01*
X130991781Y-55483576D01*
X128491781Y-57555005D02*
X129491781Y-56888338D01*
X128491781Y-56888338D02*
X129491781Y-57555005D01*
X129491781Y-56507386D02*
X128491781Y-56507386D01*
X128491781Y-56269291D01*
X128539400Y-56126433D01*
X128634638Y-56031195D01*
X128729876Y-55983576D01*
X128920352Y-55935957D01*
X129063210Y-55935957D01*
X129253686Y-55983576D01*
X129348924Y-56031195D01*
X129444162Y-56126433D01*
X129491781Y-56269291D01*
X129491781Y-56507386D01*
X129206067Y-55555005D02*
X129206067Y-55078814D01*
X129491781Y-55650243D02*
X128491781Y-55316910D01*
X129491781Y-54983576D01*
X126844162Y-57607386D02*
X126891781Y-57464529D01*
X126891781Y-57226433D01*
X126844162Y-57131195D01*
X126796543Y-57083576D01*
X126701305Y-57035957D01*
X126606067Y-57035957D01*
X126510829Y-57083576D01*
X126463210Y-57131195D01*
X126415590Y-57226433D01*
X126367971Y-57416910D01*
X126320352Y-57512148D01*
X126272733Y-57559767D01*
X126177495Y-57607386D01*
X126082257Y-57607386D01*
X125987019Y-57559767D01*
X125939400Y-57512148D01*
X125891781Y-57416910D01*
X125891781Y-57178814D01*
X125939400Y-57035957D01*
X126891781Y-56607386D02*
X125891781Y-56607386D01*
X125891781Y-56369291D01*
X125939400Y-56226433D01*
X126034638Y-56131195D01*
X126129876Y-56083576D01*
X126320352Y-56035957D01*
X126463210Y-56035957D01*
X126653686Y-56083576D01*
X126748924Y-56131195D01*
X126844162Y-56226433D01*
X126891781Y-56369291D01*
X126891781Y-56607386D01*
X126606067Y-55655005D02*
X126606067Y-55178814D01*
X126891781Y-55750243D02*
X125891781Y-55416910D01*
X126891781Y-55083576D01*
X124255162Y-57489576D02*
X124302781Y-57346719D01*
X124302781Y-57108623D01*
X124255162Y-57013385D01*
X124207543Y-56965766D01*
X124112305Y-56918147D01*
X124017067Y-56918147D01*
X123921829Y-56965766D01*
X123874210Y-57013385D01*
X123826590Y-57108623D01*
X123778971Y-57299100D01*
X123731352Y-57394338D01*
X123683733Y-57441957D01*
X123588495Y-57489576D01*
X123493257Y-57489576D01*
X123398019Y-57441957D01*
X123350400Y-57394338D01*
X123302781Y-57299100D01*
X123302781Y-57061004D01*
X123350400Y-56918147D01*
X124207543Y-55918147D02*
X124255162Y-55965766D01*
X124302781Y-56108623D01*
X124302781Y-56203861D01*
X124255162Y-56346719D01*
X124159924Y-56441957D01*
X124064686Y-56489576D01*
X123874210Y-56537195D01*
X123731352Y-56537195D01*
X123540876Y-56489576D01*
X123445638Y-56441957D01*
X123350400Y-56346719D01*
X123302781Y-56203861D01*
X123302781Y-56108623D01*
X123350400Y-55965766D01*
X123398019Y-55918147D01*
X124302781Y-55013385D02*
X124302781Y-55489576D01*
X123302781Y-55489576D01*
X120939400Y-56955004D02*
X120891781Y-57050242D01*
X120891781Y-57193099D01*
X120939400Y-57335957D01*
X121034638Y-57431195D01*
X121129876Y-57478814D01*
X121320352Y-57526433D01*
X121463210Y-57526433D01*
X121653686Y-57478814D01*
X121748924Y-57431195D01*
X121844162Y-57335957D01*
X121891781Y-57193099D01*
X121891781Y-57097861D01*
X121844162Y-56955004D01*
X121796543Y-56907385D01*
X121463210Y-56907385D01*
X121463210Y-57097861D01*
X121891781Y-56478814D02*
X120891781Y-56478814D01*
X121891781Y-55907385D01*
X120891781Y-55907385D01*
X121891781Y-55431195D02*
X120891781Y-55431195D01*
X120891781Y-55193100D01*
X120939400Y-55050242D01*
X121034638Y-54955004D01*
X121129876Y-54907385D01*
X121320352Y-54859766D01*
X121463210Y-54859766D01*
X121653686Y-54907385D01*
X121748924Y-54955004D01*
X121844162Y-55050242D01*
X121891781Y-55193100D01*
X121891781Y-55431195D01*
X118291781Y-57626433D02*
X119291781Y-57293100D01*
X118291781Y-56959766D01*
X119196543Y-56055004D02*
X119244162Y-56102623D01*
X119291781Y-56245480D01*
X119291781Y-56340718D01*
X119244162Y-56483576D01*
X119148924Y-56578814D01*
X119053686Y-56626433D01*
X118863210Y-56674052D01*
X118720352Y-56674052D01*
X118529876Y-56626433D01*
X118434638Y-56578814D01*
X118339400Y-56483576D01*
X118291781Y-56340718D01*
X118291781Y-56245480D01*
X118339400Y-56102623D01*
X118387019Y-56055004D01*
X119196543Y-55055004D02*
X119244162Y-55102623D01*
X119291781Y-55245480D01*
X119291781Y-55340718D01*
X119244162Y-55483576D01*
X119148924Y-55578814D01*
X119053686Y-55626433D01*
X118863210Y-55674052D01*
X118720352Y-55674052D01*
X118529876Y-55626433D01*
X118434638Y-55578814D01*
X118339400Y-55483576D01*
X118291781Y-55340718D01*
X118291781Y-55245480D01*
X118339400Y-55102623D01*
X118387019Y-55055004D01*
X102550981Y-105473405D02*
X103360505Y-105473405D01*
X103455743Y-105425786D01*
X103503362Y-105378167D01*
X103550981Y-105282929D01*
X103550981Y-105092452D01*
X103503362Y-104997214D01*
X103455743Y-104949595D01*
X103360505Y-104901976D01*
X102550981Y-104901976D01*
X102550981Y-104521024D02*
X102550981Y-103854357D01*
X103550981Y-104282929D01*
X104074981Y-112410738D02*
X105074981Y-112077405D01*
X104074981Y-111744071D01*
X105074981Y-111410738D02*
X104074981Y-111410738D01*
X105074981Y-110934548D02*
X104074981Y-110934548D01*
X105074981Y-110363119D01*
X104074981Y-110363119D01*
X106662600Y-112077404D02*
X106614981Y-112172642D01*
X106614981Y-112315499D01*
X106662600Y-112458357D01*
X106757838Y-112553595D01*
X106853076Y-112601214D01*
X107043552Y-112648833D01*
X107186410Y-112648833D01*
X107376886Y-112601214D01*
X107472124Y-112553595D01*
X107567362Y-112458357D01*
X107614981Y-112315499D01*
X107614981Y-112220261D01*
X107567362Y-112077404D01*
X107519743Y-112029785D01*
X107186410Y-112029785D01*
X107186410Y-112220261D01*
X107614981Y-111601214D02*
X106614981Y-111601214D01*
X107614981Y-111029785D01*
X106614981Y-111029785D01*
X107614981Y-110553595D02*
X106614981Y-110553595D01*
X106614981Y-110315500D01*
X106662600Y-110172642D01*
X106757838Y-110077404D01*
X106853076Y-110029785D01*
X107043552Y-109982166D01*
X107186410Y-109982166D01*
X107376886Y-110029785D01*
X107472124Y-110077404D01*
X107567362Y-110172642D01*
X107614981Y-110315500D01*
X107614981Y-110553595D01*
X110107362Y-112529786D02*
X110154981Y-112386929D01*
X110154981Y-112148833D01*
X110107362Y-112053595D01*
X110059743Y-112005976D01*
X109964505Y-111958357D01*
X109869267Y-111958357D01*
X109774029Y-112005976D01*
X109726410Y-112053595D01*
X109678790Y-112148833D01*
X109631171Y-112339310D01*
X109583552Y-112434548D01*
X109535933Y-112482167D01*
X109440695Y-112529786D01*
X109345457Y-112529786D01*
X109250219Y-112482167D01*
X109202600Y-112434548D01*
X109154981Y-112339310D01*
X109154981Y-112101214D01*
X109202600Y-111958357D01*
X110154981Y-111529786D02*
X109154981Y-111529786D01*
X109154981Y-111291691D01*
X109202600Y-111148833D01*
X109297838Y-111053595D01*
X109393076Y-111005976D01*
X109583552Y-110958357D01*
X109726410Y-110958357D01*
X109916886Y-111005976D01*
X110012124Y-111053595D01*
X110107362Y-111148833D01*
X110154981Y-111291691D01*
X110154981Y-111529786D01*
X109869267Y-110577405D02*
X109869267Y-110101214D01*
X110154981Y-110672643D02*
X109154981Y-110339310D01*
X110154981Y-110005976D01*
X112647362Y-112505976D02*
X112694981Y-112363119D01*
X112694981Y-112125023D01*
X112647362Y-112029785D01*
X112599743Y-111982166D01*
X112504505Y-111934547D01*
X112409267Y-111934547D01*
X112314029Y-111982166D01*
X112266410Y-112029785D01*
X112218790Y-112125023D01*
X112171171Y-112315500D01*
X112123552Y-112410738D01*
X112075933Y-112458357D01*
X111980695Y-112505976D01*
X111885457Y-112505976D01*
X111790219Y-112458357D01*
X111742600Y-112410738D01*
X111694981Y-112315500D01*
X111694981Y-112077404D01*
X111742600Y-111934547D01*
X112599743Y-110934547D02*
X112647362Y-110982166D01*
X112694981Y-111125023D01*
X112694981Y-111220261D01*
X112647362Y-111363119D01*
X112552124Y-111458357D01*
X112456886Y-111505976D01*
X112266410Y-111553595D01*
X112123552Y-111553595D01*
X111933076Y-111505976D01*
X111837838Y-111458357D01*
X111742600Y-111363119D01*
X111694981Y-111220261D01*
X111694981Y-111125023D01*
X111742600Y-110982166D01*
X111790219Y-110934547D01*
X112694981Y-110029785D02*
X112694981Y-110505976D01*
X111694981Y-110505976D01*
X82905695Y-120419881D02*
X82905695Y-121229405D01*
X82953314Y-121324643D01*
X83000933Y-121372262D01*
X83096171Y-121419881D01*
X83286648Y-121419881D01*
X83381886Y-121372262D01*
X83429505Y-121324643D01*
X83477124Y-121229405D01*
X83477124Y-120419881D01*
X83858076Y-120419881D02*
X84477124Y-120419881D01*
X84143790Y-120800833D01*
X84286648Y-120800833D01*
X84381886Y-120848452D01*
X84429505Y-120896071D01*
X84477124Y-120991310D01*
X84477124Y-121229405D01*
X84429505Y-121324643D01*
X84381886Y-121372262D01*
X84286648Y-121419881D01*
X84000933Y-121419881D01*
X83905695Y-121372262D01*
X83858076Y-121324643D01*
X136078934Y-120149881D02*
X135745600Y-119673690D01*
X135507505Y-120149881D02*
X135507505Y-119149881D01*
X135888458Y-119149881D01*
X135983696Y-119197500D01*
X136031315Y-119245119D01*
X136078934Y-119340357D01*
X136078934Y-119483214D01*
X136031315Y-119578452D01*
X135983696Y-119626071D01*
X135888458Y-119673690D01*
X135507505Y-119673690D01*
X136412267Y-119149881D02*
X137031315Y-119149881D01*
X136697981Y-119530833D01*
X136840839Y-119530833D01*
X136936077Y-119578452D01*
X136983696Y-119626071D01*
X137031315Y-119721310D01*
X137031315Y-119959405D01*
X136983696Y-120054643D01*
X136936077Y-120102262D01*
X136840839Y-120149881D01*
X136555124Y-120149881D01*
X136459886Y-120102262D01*
X136412267Y-120054643D01*
X149429743Y-141454166D02*
X149477362Y-141501785D01*
X149524981Y-141644642D01*
X149524981Y-141739880D01*
X149477362Y-141882738D01*
X149382124Y-141977976D01*
X149286886Y-142025595D01*
X149096410Y-142073214D01*
X148953552Y-142073214D01*
X148763076Y-142025595D01*
X148667838Y-141977976D01*
X148572600Y-141882738D01*
X148524981Y-141739880D01*
X148524981Y-141644642D01*
X148572600Y-141501785D01*
X148620219Y-141454166D01*
X149524981Y-140501785D02*
X149524981Y-141073214D01*
X149524981Y-140787500D02*
X148524981Y-140787500D01*
X148667838Y-140882738D01*
X148763076Y-140977976D01*
X148810695Y-141073214D01*
X84659743Y-105862166D02*
X84707362Y-105909785D01*
X84754981Y-106052642D01*
X84754981Y-106147880D01*
X84707362Y-106290738D01*
X84612124Y-106385976D01*
X84516886Y-106433595D01*
X84326410Y-106481214D01*
X84183552Y-106481214D01*
X83993076Y-106433595D01*
X83897838Y-106385976D01*
X83802600Y-106290738D01*
X83754981Y-106147880D01*
X83754981Y-106052642D01*
X83802600Y-105909785D01*
X83850219Y-105862166D01*
X83850219Y-105481214D02*
X83802600Y-105433595D01*
X83754981Y-105338357D01*
X83754981Y-105100261D01*
X83802600Y-105005023D01*
X83850219Y-104957404D01*
X83945457Y-104909785D01*
X84040695Y-104909785D01*
X84183552Y-104957404D01*
X84754981Y-105528833D01*
X84754981Y-104909785D01*
X100572743Y-105614166D02*
X100620362Y-105661785D01*
X100667981Y-105804642D01*
X100667981Y-105899880D01*
X100620362Y-106042738D01*
X100525124Y-106137976D01*
X100429886Y-106185595D01*
X100239410Y-106233214D01*
X100096552Y-106233214D01*
X99906076Y-106185595D01*
X99810838Y-106137976D01*
X99715600Y-106042738D01*
X99667981Y-105899880D01*
X99667981Y-105804642D01*
X99715600Y-105661785D01*
X99763219Y-105614166D01*
X99667981Y-105280833D02*
X99667981Y-104661785D01*
X100048933Y-104995119D01*
X100048933Y-104852261D01*
X100096552Y-104757023D01*
X100144171Y-104709404D01*
X100239410Y-104661785D01*
X100477505Y-104661785D01*
X100572743Y-104709404D01*
X100620362Y-104757023D01*
X100667981Y-104852261D01*
X100667981Y-105137976D01*
X100620362Y-105233214D01*
X100572743Y-105280833D01*
X119475197Y-131658922D02*
X119522816Y-131706541D01*
X119570435Y-131849398D01*
X119570435Y-131944636D01*
X119522816Y-132087494D01*
X119427578Y-132182732D01*
X119332340Y-132230351D01*
X119141864Y-132277970D01*
X118999006Y-132277970D01*
X118808530Y-132230351D01*
X118713292Y-132182732D01*
X118618054Y-132087494D01*
X118570435Y-131944636D01*
X118570435Y-131849398D01*
X118618054Y-131706541D01*
X118665673Y-131658922D01*
X118903768Y-130801779D02*
X119570435Y-130801779D01*
X118522816Y-131039875D02*
X119237102Y-131277970D01*
X119237102Y-130658922D01*
X116072743Y-105259166D02*
X116120362Y-105306785D01*
X116167981Y-105449642D01*
X116167981Y-105544880D01*
X116120362Y-105687738D01*
X116025124Y-105782976D01*
X115929886Y-105830595D01*
X115739410Y-105878214D01*
X115596552Y-105878214D01*
X115406076Y-105830595D01*
X115310838Y-105782976D01*
X115215600Y-105687738D01*
X115167981Y-105544880D01*
X115167981Y-105449642D01*
X115215600Y-105306785D01*
X115263219Y-105259166D01*
X115167981Y-104354404D02*
X115167981Y-104830595D01*
X115644171Y-104878214D01*
X115596552Y-104830595D01*
X115548933Y-104735357D01*
X115548933Y-104497261D01*
X115596552Y-104402023D01*
X115644171Y-104354404D01*
X115739410Y-104306785D01*
X115977505Y-104306785D01*
X116072743Y-104354404D01*
X116120362Y-104402023D01*
X116167981Y-104497261D01*
X116167981Y-104735357D01*
X116120362Y-104830595D01*
X116072743Y-104878214D01*
X132173934Y-123991643D02*
X132126315Y-124039262D01*
X131983458Y-124086881D01*
X131888220Y-124086881D01*
X131745362Y-124039262D01*
X131650124Y-123944024D01*
X131602505Y-123848786D01*
X131554886Y-123658310D01*
X131554886Y-123515452D01*
X131602505Y-123324976D01*
X131650124Y-123229738D01*
X131745362Y-123134500D01*
X131888220Y-123086881D01*
X131983458Y-123086881D01*
X132126315Y-123134500D01*
X132173934Y-123182119D01*
X133031077Y-123086881D02*
X132840600Y-123086881D01*
X132745362Y-123134500D01*
X132697743Y-123182119D01*
X132602505Y-123324976D01*
X132554886Y-123515452D01*
X132554886Y-123896405D01*
X132602505Y-123991643D01*
X132650124Y-124039262D01*
X132745362Y-124086881D01*
X132935839Y-124086881D01*
X133031077Y-124039262D01*
X133078696Y-123991643D01*
X133126315Y-123896405D01*
X133126315Y-123658310D01*
X133078696Y-123563071D01*
X133031077Y-123515452D01*
X132935839Y-123467833D01*
X132745362Y-123467833D01*
X132650124Y-123515452D01*
X132602505Y-123563071D01*
X132554886Y-123658310D01*
X130554505Y-129674881D02*
X130554505Y-128674881D01*
X130792600Y-128674881D01*
X130935458Y-128722500D01*
X131030696Y-128817738D01*
X131078315Y-128912976D01*
X131125934Y-129103452D01*
X131125934Y-129246310D01*
X131078315Y-129436786D01*
X131030696Y-129532024D01*
X130935458Y-129627262D01*
X130792600Y-129674881D01*
X130554505Y-129674881D01*
X132078315Y-129674881D02*
X131506886Y-129674881D01*
X131792600Y-129674881D02*
X131792600Y-128674881D01*
X131697362Y-128817738D01*
X131602124Y-128912976D01*
X131506886Y-128960595D01*
X140593675Y-125939881D02*
X140593675Y-124939881D01*
X141165104Y-125939881D02*
X140736532Y-125368452D01*
X141165104Y-124939881D02*
X140593675Y-125511310D01*
X134117485Y-125704167D02*
X134593676Y-125704167D01*
X134022247Y-125989881D02*
X134355580Y-124989881D01*
X134688914Y-125989881D01*
X149942403Y-135675595D02*
X148942403Y-135675595D01*
X148942403Y-135294642D01*
X148990022Y-135199404D01*
X149037641Y-135151785D01*
X149132879Y-135104166D01*
X149275736Y-135104166D01*
X149370974Y-135151785D01*
X149418593Y-135199404D01*
X149466212Y-135294642D01*
X149466212Y-135675595D01*
X149942403Y-134151785D02*
X149942403Y-134723214D01*
X149942403Y-134437500D02*
X148942403Y-134437500D01*
X149085260Y-134532738D01*
X149180498Y-134627976D01*
X149228117Y-134723214D01*
X137674362Y-134321119D02*
X137579124Y-134273500D01*
X137483886Y-134178262D01*
X137341029Y-134035405D01*
X137245790Y-133987786D01*
X137150552Y-133987786D01*
X137198171Y-134225881D02*
X137102933Y-134178262D01*
X137007695Y-134083024D01*
X136960076Y-133892548D01*
X136960076Y-133559214D01*
X137007695Y-133368738D01*
X137102933Y-133273500D01*
X137198171Y-133225881D01*
X137388648Y-133225881D01*
X137483886Y-133273500D01*
X137579124Y-133368738D01*
X137626743Y-133559214D01*
X137626743Y-133892548D01*
X137579124Y-134083024D01*
X137483886Y-134178262D01*
X137388648Y-134225881D01*
X137198171Y-134225881D01*
X138579124Y-134225881D02*
X138007695Y-134225881D01*
X138293409Y-134225881D02*
X138293409Y-133225881D01*
X138198171Y-133368738D01*
X138102933Y-133463976D01*
X138007695Y-133511595D01*
X124680934Y-134119881D02*
X124347600Y-133643690D01*
X124109505Y-134119881D02*
X124109505Y-133119881D01*
X124490458Y-133119881D01*
X124585696Y-133167500D01*
X124633315Y-133215119D01*
X124680934Y-133310357D01*
X124680934Y-133453214D01*
X124633315Y-133548452D01*
X124585696Y-133596071D01*
X124490458Y-133643690D01*
X124109505Y-133643690D01*
X125633315Y-134119881D02*
X125061886Y-134119881D01*
X125347600Y-134119881D02*
X125347600Y-133119881D01*
X125252362Y-133262738D01*
X125157124Y-133357976D01*
X125061886Y-133405595D01*
X136078934Y-117609881D02*
X135745600Y-117133690D01*
X135507505Y-117609881D02*
X135507505Y-116609881D01*
X135888458Y-116609881D01*
X135983696Y-116657500D01*
X136031315Y-116705119D01*
X136078934Y-116800357D01*
X136078934Y-116943214D01*
X136031315Y-117038452D01*
X135983696Y-117086071D01*
X135888458Y-117133690D01*
X135507505Y-117133690D01*
X136459886Y-116705119D02*
X136507505Y-116657500D01*
X136602743Y-116609881D01*
X136840839Y-116609881D01*
X136936077Y-116657500D01*
X136983696Y-116705119D01*
X137031315Y-116800357D01*
X137031315Y-116895595D01*
X136983696Y-117038452D01*
X136412267Y-117609881D01*
X137031315Y-117609881D01*
X106970435Y-131654161D02*
X107779959Y-131654161D01*
X107875197Y-131606542D01*
X107922816Y-131558923D01*
X107970435Y-131463685D01*
X107970435Y-131273208D01*
X107922816Y-131177970D01*
X107875197Y-131130351D01*
X107779959Y-131082732D01*
X106970435Y-131082732D01*
X106970435Y-130130351D02*
X106970435Y-130606542D01*
X107446625Y-130654161D01*
X107399006Y-130606542D01*
X107351387Y-130511304D01*
X107351387Y-130273208D01*
X107399006Y-130177970D01*
X107446625Y-130130351D01*
X107541864Y-130082732D01*
X107779959Y-130082732D01*
X107875197Y-130130351D01*
X107922816Y-130177970D01*
X107970435Y-130273208D01*
X107970435Y-130511304D01*
X107922816Y-130606542D01*
X107875197Y-130654161D01*
X134734981Y-148019881D02*
X134734981Y-147019881D01*
X135115934Y-147019881D01*
X135211172Y-147067500D01*
X135258791Y-147115119D01*
X135306410Y-147210357D01*
X135306410Y-147353214D01*
X135258791Y-147448452D01*
X135211172Y-147496071D01*
X135115934Y-147543690D01*
X134734981Y-147543690D01*
X135496886Y-148115119D02*
X136258791Y-148115119D01*
X136449267Y-147972262D02*
X136592124Y-148019881D01*
X136830220Y-148019881D01*
X136925458Y-147972262D01*
X136973077Y-147924643D01*
X137020696Y-147829405D01*
X137020696Y-147734167D01*
X136973077Y-147638929D01*
X136925458Y-147591310D01*
X136830220Y-147543690D01*
X136639743Y-147496071D01*
X136544505Y-147448452D01*
X136496886Y-147400833D01*
X136449267Y-147305595D01*
X136449267Y-147210357D01*
X136496886Y-147115119D01*
X136544505Y-147067500D01*
X136639743Y-147019881D01*
X136877839Y-147019881D01*
X137020696Y-147067500D01*
X137449267Y-147496071D02*
X137782601Y-147496071D01*
X137925458Y-148019881D02*
X137449267Y-148019881D01*
X137449267Y-147019881D01*
X137925458Y-147019881D01*
X138354029Y-148019881D02*
X138354029Y-147019881D01*
X138925458Y-148019881D01*
X138925458Y-147019881D01*
X139354029Y-147972262D02*
X139496886Y-148019881D01*
X139734982Y-148019881D01*
X139830220Y-147972262D01*
X139877839Y-147924643D01*
X139925458Y-147829405D01*
X139925458Y-147734167D01*
X139877839Y-147638929D01*
X139830220Y-147591310D01*
X139734982Y-147543690D01*
X139544505Y-147496071D01*
X139449267Y-147448452D01*
X139401648Y-147400833D01*
X139354029Y-147305595D01*
X139354029Y-147210357D01*
X139401648Y-147115119D01*
X139449267Y-147067500D01*
X139544505Y-147019881D01*
X139782601Y-147019881D01*
X139925458Y-147067500D01*
X140877839Y-148019881D02*
X140306410Y-148019881D01*
X140592124Y-148019881D02*
X140592124Y-147019881D01*
X140496886Y-147162738D01*
X140401648Y-147257976D01*
X140306410Y-147305595D01*
X86040981Y-105473405D02*
X86850505Y-105473405D01*
X86945743Y-105425786D01*
X86993362Y-105378167D01*
X87040981Y-105282929D01*
X87040981Y-105092452D01*
X86993362Y-104997214D01*
X86945743Y-104949595D01*
X86850505Y-104901976D01*
X86040981Y-104901976D01*
X86040981Y-103997214D02*
X86040981Y-104187691D01*
X86088600Y-104282929D01*
X86136219Y-104330548D01*
X86279076Y-104425786D01*
X86469552Y-104473405D01*
X86850505Y-104473405D01*
X86945743Y-104425786D01*
X86993362Y-104378167D01*
X87040981Y-104282929D01*
X87040981Y-104092452D01*
X86993362Y-103997214D01*
X86945743Y-103949595D01*
X86850505Y-103901976D01*
X86612410Y-103901976D01*
X86517171Y-103949595D01*
X86469552Y-103997214D01*
X86421933Y-104092452D01*
X86421933Y-104282929D01*
X86469552Y-104378167D01*
X86517171Y-104425786D01*
X86612410Y-104473405D01*
X87564981Y-112410738D02*
X88564981Y-112077405D01*
X87564981Y-111744071D01*
X88564981Y-111410738D02*
X87564981Y-111410738D01*
X88564981Y-110934548D02*
X87564981Y-110934548D01*
X88564981Y-110363119D01*
X87564981Y-110363119D01*
X90152600Y-112077404D02*
X90104981Y-112172642D01*
X90104981Y-112315499D01*
X90152600Y-112458357D01*
X90247838Y-112553595D01*
X90343076Y-112601214D01*
X90533552Y-112648833D01*
X90676410Y-112648833D01*
X90866886Y-112601214D01*
X90962124Y-112553595D01*
X91057362Y-112458357D01*
X91104981Y-112315499D01*
X91104981Y-112220261D01*
X91057362Y-112077404D01*
X91009743Y-112029785D01*
X90676410Y-112029785D01*
X90676410Y-112220261D01*
X91104981Y-111601214D02*
X90104981Y-111601214D01*
X91104981Y-111029785D01*
X90104981Y-111029785D01*
X91104981Y-110553595D02*
X90104981Y-110553595D01*
X90104981Y-110315500D01*
X90152600Y-110172642D01*
X90247838Y-110077404D01*
X90343076Y-110029785D01*
X90533552Y-109982166D01*
X90676410Y-109982166D01*
X90866886Y-110029785D01*
X90962124Y-110077404D01*
X91057362Y-110172642D01*
X91104981Y-110315500D01*
X91104981Y-110553595D01*
X93597362Y-112505976D02*
X93644981Y-112363119D01*
X93644981Y-112125023D01*
X93597362Y-112029785D01*
X93549743Y-111982166D01*
X93454505Y-111934547D01*
X93359267Y-111934547D01*
X93264029Y-111982166D01*
X93216410Y-112029785D01*
X93168790Y-112125023D01*
X93121171Y-112315500D01*
X93073552Y-112410738D01*
X93025933Y-112458357D01*
X92930695Y-112505976D01*
X92835457Y-112505976D01*
X92740219Y-112458357D01*
X92692600Y-112410738D01*
X92644981Y-112315500D01*
X92644981Y-112077404D01*
X92692600Y-111934547D01*
X93549743Y-110934547D02*
X93597362Y-110982166D01*
X93644981Y-111125023D01*
X93644981Y-111220261D01*
X93597362Y-111363119D01*
X93502124Y-111458357D01*
X93406886Y-111505976D01*
X93216410Y-111553595D01*
X93073552Y-111553595D01*
X92883076Y-111505976D01*
X92787838Y-111458357D01*
X92692600Y-111363119D01*
X92644981Y-111220261D01*
X92644981Y-111125023D01*
X92692600Y-110982166D01*
X92740219Y-110934547D01*
X93644981Y-110029785D02*
X93644981Y-110505976D01*
X92644981Y-110505976D01*
X96137362Y-112529786D02*
X96184981Y-112386929D01*
X96184981Y-112148833D01*
X96137362Y-112053595D01*
X96089743Y-112005976D01*
X95994505Y-111958357D01*
X95899267Y-111958357D01*
X95804029Y-112005976D01*
X95756410Y-112053595D01*
X95708790Y-112148833D01*
X95661171Y-112339310D01*
X95613552Y-112434548D01*
X95565933Y-112482167D01*
X95470695Y-112529786D01*
X95375457Y-112529786D01*
X95280219Y-112482167D01*
X95232600Y-112434548D01*
X95184981Y-112339310D01*
X95184981Y-112101214D01*
X95232600Y-111958357D01*
X96184981Y-111529786D02*
X95184981Y-111529786D01*
X95184981Y-111291691D01*
X95232600Y-111148833D01*
X95327838Y-111053595D01*
X95423076Y-111005976D01*
X95613552Y-110958357D01*
X95756410Y-110958357D01*
X95946886Y-111005976D01*
X96042124Y-111053595D01*
X96137362Y-111148833D01*
X96184981Y-111291691D01*
X96184981Y-111529786D01*
X95899267Y-110577405D02*
X95899267Y-110101214D01*
X96184981Y-110672643D02*
X95184981Y-110339310D01*
X96184981Y-110005976D01*
X149852403Y-126735595D02*
X148852403Y-126735595D01*
X148852403Y-126354642D01*
X148900022Y-126259404D01*
X148947641Y-126211785D01*
X149042879Y-126164166D01*
X149185736Y-126164166D01*
X149280974Y-126211785D01*
X149328593Y-126259404D01*
X149376212Y-126354642D01*
X149376212Y-126735595D01*
X148947641Y-125783214D02*
X148900022Y-125735595D01*
X148852403Y-125640357D01*
X148852403Y-125402261D01*
X148900022Y-125307023D01*
X148947641Y-125259404D01*
X149042879Y-125211785D01*
X149138117Y-125211785D01*
X149280974Y-125259404D01*
X149852403Y-125830833D01*
X149852403Y-125211785D01*
X117774981Y-115990595D02*
X116774981Y-115990595D01*
X116774981Y-115609642D01*
X116822600Y-115514404D01*
X116870219Y-115466785D01*
X116965457Y-115419166D01*
X117108314Y-115419166D01*
X117203552Y-115466785D01*
X117251171Y-115514404D01*
X117298790Y-115609642D01*
X117298790Y-115990595D01*
X116774981Y-115085833D02*
X116774981Y-114466785D01*
X117155933Y-114800119D01*
X117155933Y-114657261D01*
X117203552Y-114562023D01*
X117251171Y-114514404D01*
X117346410Y-114466785D01*
X117584505Y-114466785D01*
X117679743Y-114514404D01*
X117727362Y-114562023D01*
X117774981Y-114657261D01*
X117774981Y-114942976D01*
X117727362Y-115038214D01*
X117679743Y-115085833D01*
X130490934Y-112434643D02*
X130443315Y-112482262D01*
X130300458Y-112529881D01*
X130205220Y-112529881D01*
X130062362Y-112482262D01*
X129967124Y-112387024D01*
X129919505Y-112291786D01*
X129871886Y-112101310D01*
X129871886Y-111958452D01*
X129919505Y-111767976D01*
X129967124Y-111672738D01*
X130062362Y-111577500D01*
X130205220Y-111529881D01*
X130300458Y-111529881D01*
X130443315Y-111577500D01*
X130490934Y-111625119D01*
X130824267Y-111529881D02*
X131490934Y-111529881D01*
X131062362Y-112529881D01*
X100010934Y-148089881D02*
X99677600Y-147613690D01*
X99439505Y-148089881D02*
X99439505Y-147089881D01*
X99820458Y-147089881D01*
X99915696Y-147137500D01*
X99963315Y-147185119D01*
X100010934Y-147280357D01*
X100010934Y-147423214D01*
X99963315Y-147518452D01*
X99915696Y-147566071D01*
X99820458Y-147613690D01*
X99439505Y-147613690D01*
X100868077Y-147423214D02*
X100868077Y-148089881D01*
X100629981Y-147042262D02*
X100391886Y-147756548D01*
X101010934Y-147756548D01*
X148715362Y-120713405D02*
X148762981Y-120570548D01*
X148762981Y-120332452D01*
X148715362Y-120237214D01*
X148667743Y-120189595D01*
X148572505Y-120141976D01*
X148477267Y-120141976D01*
X148382029Y-120189595D01*
X148334410Y-120237214D01*
X148286790Y-120332452D01*
X148239171Y-120522929D01*
X148191552Y-120618167D01*
X148143933Y-120665786D01*
X148048695Y-120713405D01*
X147953457Y-120713405D01*
X147858219Y-120665786D01*
X147810600Y-120618167D01*
X147762981Y-120522929D01*
X147762981Y-120284833D01*
X147810600Y-120141976D01*
X147858219Y-119761024D02*
X147810600Y-119713405D01*
X147762981Y-119618167D01*
X147762981Y-119380071D01*
X147810600Y-119284833D01*
X147858219Y-119237214D01*
X147953457Y-119189595D01*
X148048695Y-119189595D01*
X148191552Y-119237214D01*
X148762981Y-119808643D01*
X148762981Y-119189595D01*
X147234981Y-112177024D02*
X146234981Y-112177024D01*
X146234981Y-111796071D01*
X146282600Y-111700833D01*
X146330219Y-111653214D01*
X146425457Y-111605595D01*
X146568314Y-111605595D01*
X146663552Y-111653214D01*
X146711171Y-111700833D01*
X146758790Y-111796071D01*
X146758790Y-112177024D01*
X147330219Y-111415119D02*
X147330219Y-110653214D01*
X147234981Y-110415119D02*
X146234981Y-110415119D01*
X146330219Y-109986548D02*
X146282600Y-109938929D01*
X146234981Y-109843691D01*
X146234981Y-109605595D01*
X146282600Y-109510357D01*
X146330219Y-109462738D01*
X146425457Y-109415119D01*
X146520695Y-109415119D01*
X146663552Y-109462738D01*
X147234981Y-110034167D01*
X147234981Y-109415119D01*
X147139743Y-108415119D02*
X147187362Y-108462738D01*
X147234981Y-108605595D01*
X147234981Y-108700833D01*
X147187362Y-108843691D01*
X147092124Y-108938929D01*
X146996886Y-108986548D01*
X146806410Y-109034167D01*
X146663552Y-109034167D01*
X146473076Y-108986548D01*
X146377838Y-108938929D01*
X146282600Y-108843691D01*
X146234981Y-108700833D01*
X146234981Y-108605595D01*
X146282600Y-108462738D01*
X146330219Y-108415119D01*
X146282600Y-107462738D02*
X146234981Y-107557976D01*
X146234981Y-107700833D01*
X146282600Y-107843691D01*
X146377838Y-107938929D01*
X146473076Y-107986548D01*
X146663552Y-108034167D01*
X146806410Y-108034167D01*
X146996886Y-107986548D01*
X147092124Y-107938929D01*
X147187362Y-107843691D01*
X147234981Y-107700833D01*
X147234981Y-107605595D01*
X147187362Y-107462738D01*
X147139743Y-107415119D01*
X146806410Y-107415119D01*
X146806410Y-107605595D01*
X147234981Y-106986548D02*
X146234981Y-106986548D01*
X146234981Y-106605595D01*
X146282600Y-106510357D01*
X146330219Y-106462738D01*
X146425457Y-106415119D01*
X146568314Y-106415119D01*
X146663552Y-106462738D01*
X146711171Y-106510357D01*
X146758790Y-106605595D01*
X146758790Y-106986548D01*
X147187362Y-106034167D02*
X147234981Y-105891310D01*
X147234981Y-105653214D01*
X147187362Y-105557976D01*
X147139743Y-105510357D01*
X147044505Y-105462738D01*
X146949267Y-105462738D01*
X146854029Y-105510357D01*
X146806410Y-105557976D01*
X146758790Y-105653214D01*
X146711171Y-105843691D01*
X146663552Y-105938929D01*
X146615933Y-105986548D01*
X146520695Y-106034167D01*
X146425457Y-106034167D01*
X146330219Y-105986548D01*
X146282600Y-105938929D01*
X146234981Y-105843691D01*
X146234981Y-105605595D01*
X146282600Y-105462738D01*
X147234981Y-104510357D02*
X147234981Y-105081786D01*
X147234981Y-104796072D02*
X146234981Y-104796072D01*
X146377838Y-104891310D01*
X146473076Y-104986548D01*
X146520695Y-105081786D01*
X126492124Y-109934167D02*
X126968315Y-109934167D01*
X126396886Y-110219881D02*
X126730219Y-109219881D01*
X127063553Y-110219881D01*
X127158791Y-110315119D02*
X127920696Y-110315119D01*
X128158791Y-110219881D02*
X128158791Y-109219881D01*
X128492125Y-109934167D01*
X128825458Y-109219881D01*
X128825458Y-110219881D01*
X129301648Y-110219881D02*
X129301648Y-109219881D01*
X129682601Y-109219881D01*
X129777839Y-109267500D01*
X129825458Y-109315119D01*
X129873077Y-109410357D01*
X129873077Y-109553214D01*
X129825458Y-109648452D01*
X129777839Y-109696071D01*
X129682601Y-109743690D01*
X129301648Y-109743690D01*
X130301648Y-109219881D02*
X130301648Y-110029405D01*
X130349267Y-110124643D01*
X130396886Y-110172262D01*
X130492124Y-110219881D01*
X130682601Y-110219881D01*
X130777839Y-110172262D01*
X130825458Y-110124643D01*
X130873077Y-110029405D01*
X130873077Y-109219881D01*
X131873077Y-110219881D02*
X131301648Y-110219881D01*
X131587362Y-110219881D02*
X131587362Y-109219881D01*
X131492124Y-109362738D01*
X131396886Y-109457976D01*
X131301648Y-109505595D01*
X96934981Y-128163679D02*
X97411172Y-128163679D01*
X96839743Y-128449393D02*
X97173076Y-127449393D01*
X97506410Y-128449393D01*
X97601648Y-128544631D02*
X98363553Y-128544631D01*
X98601648Y-128449393D02*
X98601648Y-127449393D01*
X99173077Y-128449393D01*
X99173077Y-127449393D01*
X99506410Y-127449393D02*
X99839743Y-128449393D01*
X100173077Y-127449393D01*
X101030220Y-128449393D02*
X100458791Y-128449393D01*
X100744505Y-128449393D02*
X100744505Y-127449393D01*
X100649267Y-127592250D01*
X100554029Y-127687488D01*
X100458791Y-127735107D01*
X96934981Y-131802167D02*
X97411172Y-131802167D01*
X96839743Y-132087881D02*
X97173076Y-131087881D01*
X97506410Y-132087881D01*
X97601648Y-132183119D02*
X98363553Y-132183119D01*
X98601648Y-132087881D02*
X98601648Y-131087881D01*
X99173077Y-132087881D01*
X99173077Y-131087881D01*
X99506410Y-131087881D02*
X99839743Y-132087881D01*
X100173077Y-131087881D01*
X100458791Y-131183119D02*
X100506410Y-131135500D01*
X100601648Y-131087881D01*
X100839744Y-131087881D01*
X100934982Y-131135500D01*
X100982601Y-131183119D01*
X101030220Y-131278357D01*
X101030220Y-131373595D01*
X100982601Y-131516452D01*
X100411172Y-132087881D01*
X101030220Y-132087881D01*
X96934981Y-135358167D02*
X97411172Y-135358167D01*
X96839743Y-135643881D02*
X97173076Y-134643881D01*
X97506410Y-135643881D01*
X97601648Y-135739119D02*
X98363553Y-135739119D01*
X98601648Y-135643881D02*
X98601648Y-134643881D01*
X99173077Y-135643881D01*
X99173077Y-134643881D01*
X99506410Y-134643881D02*
X99839743Y-135643881D01*
X100173077Y-134643881D01*
X100411172Y-134643881D02*
X101030220Y-134643881D01*
X100696886Y-135024833D01*
X100839744Y-135024833D01*
X100934982Y-135072452D01*
X100982601Y-135120071D01*
X101030220Y-135215310D01*
X101030220Y-135453405D01*
X100982601Y-135548643D01*
X100934982Y-135596262D01*
X100839744Y-135643881D01*
X100554029Y-135643881D01*
X100458791Y-135596262D01*
X100411172Y-135548643D01*
X148715362Y-117665405D02*
X148762981Y-117522548D01*
X148762981Y-117284452D01*
X148715362Y-117189214D01*
X148667743Y-117141595D01*
X148572505Y-117093976D01*
X148477267Y-117093976D01*
X148382029Y-117141595D01*
X148334410Y-117189214D01*
X148286790Y-117284452D01*
X148239171Y-117474929D01*
X148191552Y-117570167D01*
X148143933Y-117617786D01*
X148048695Y-117665405D01*
X147953457Y-117665405D01*
X147858219Y-117617786D01*
X147810600Y-117570167D01*
X147762981Y-117474929D01*
X147762981Y-117236833D01*
X147810600Y-117093976D01*
X148762981Y-116141595D02*
X148762981Y-116713024D01*
X148762981Y-116427310D02*
X147762981Y-116427310D01*
X147905838Y-116522548D01*
X148001076Y-116617786D01*
X148048695Y-116713024D01*
X118620695Y-109219881D02*
X118620695Y-110029405D01*
X118668314Y-110124643D01*
X118715933Y-110172262D01*
X118811171Y-110219881D01*
X119001648Y-110219881D01*
X119096886Y-110172262D01*
X119144505Y-110124643D01*
X119192124Y-110029405D01*
X119192124Y-109219881D01*
X120096886Y-109553214D02*
X120096886Y-110219881D01*
X119858790Y-109172262D02*
X119620695Y-109886548D01*
X120239743Y-109886548D01*
X137167981Y-108150262D02*
X136167981Y-108150262D01*
X137167981Y-107674072D02*
X136167981Y-107674072D01*
X137167981Y-107102643D01*
X136167981Y-107102643D01*
X136167981Y-106769310D02*
X136167981Y-106197881D01*
X137167981Y-106483596D02*
X136167981Y-106483596D01*
X134282267Y-108507405D02*
X134282267Y-108031214D01*
X134567981Y-108602643D02*
X133567981Y-108269310D01*
X134567981Y-107935976D01*
X134567981Y-107602643D02*
X133567981Y-107602643D01*
X133567981Y-107364548D01*
X133615600Y-107221690D01*
X133710838Y-107126452D01*
X133806076Y-107078833D01*
X133996552Y-107031214D01*
X134139410Y-107031214D01*
X134329886Y-107078833D01*
X134425124Y-107126452D01*
X134520362Y-107221690D01*
X134567981Y-107364548D01*
X134567981Y-107602643D01*
X133567981Y-106412167D02*
X133567981Y-106221690D01*
X133615600Y-106126452D01*
X133710838Y-106031214D01*
X133901314Y-105983595D01*
X134234648Y-105983595D01*
X134425124Y-106031214D01*
X134520362Y-106126452D01*
X134567981Y-106221690D01*
X134567981Y-106412167D01*
X134520362Y-106507405D01*
X134425124Y-106602643D01*
X134234648Y-106650262D01*
X133901314Y-106650262D01*
X133710838Y-106602643D01*
X133615600Y-106507405D01*
X133567981Y-106412167D01*
X131067981Y-108483595D02*
X132067981Y-107816928D01*
X131067981Y-107816928D02*
X132067981Y-108483595D01*
X131972743Y-106864547D02*
X132020362Y-106912166D01*
X132067981Y-107055023D01*
X132067981Y-107150261D01*
X132020362Y-107293119D01*
X131925124Y-107388357D01*
X131829886Y-107435976D01*
X131639410Y-107483595D01*
X131496552Y-107483595D01*
X131306076Y-107435976D01*
X131210838Y-107388357D01*
X131115600Y-107293119D01*
X131067981Y-107150261D01*
X131067981Y-107055023D01*
X131115600Y-106912166D01*
X131163219Y-106864547D01*
X132067981Y-105959785D02*
X132067981Y-106435976D01*
X131067981Y-106435976D01*
X128567981Y-108507405D02*
X129567981Y-107840738D01*
X128567981Y-107840738D02*
X129567981Y-108507405D01*
X129567981Y-107459786D02*
X128567981Y-107459786D01*
X128567981Y-107221691D01*
X128615600Y-107078833D01*
X128710838Y-106983595D01*
X128806076Y-106935976D01*
X128996552Y-106888357D01*
X129139410Y-106888357D01*
X129329886Y-106935976D01*
X129425124Y-106983595D01*
X129520362Y-107078833D01*
X129567981Y-107221691D01*
X129567981Y-107459786D01*
X129282267Y-106507405D02*
X129282267Y-106031214D01*
X129567981Y-106602643D02*
X128567981Y-106269310D01*
X129567981Y-105935976D01*
X126920362Y-108559786D02*
X126967981Y-108416929D01*
X126967981Y-108178833D01*
X126920362Y-108083595D01*
X126872743Y-108035976D01*
X126777505Y-107988357D01*
X126682267Y-107988357D01*
X126587029Y-108035976D01*
X126539410Y-108083595D01*
X126491790Y-108178833D01*
X126444171Y-108369310D01*
X126396552Y-108464548D01*
X126348933Y-108512167D01*
X126253695Y-108559786D01*
X126158457Y-108559786D01*
X126063219Y-108512167D01*
X126015600Y-108464548D01*
X125967981Y-108369310D01*
X125967981Y-108131214D01*
X126015600Y-107988357D01*
X126967981Y-107559786D02*
X125967981Y-107559786D01*
X125967981Y-107321691D01*
X126015600Y-107178833D01*
X126110838Y-107083595D01*
X126206076Y-107035976D01*
X126396552Y-106988357D01*
X126539410Y-106988357D01*
X126729886Y-107035976D01*
X126825124Y-107083595D01*
X126920362Y-107178833D01*
X126967981Y-107321691D01*
X126967981Y-107559786D01*
X126682267Y-106607405D02*
X126682267Y-106131214D01*
X126967981Y-106702643D02*
X125967981Y-106369310D01*
X126967981Y-106035976D01*
X124331362Y-108441976D02*
X124378981Y-108299119D01*
X124378981Y-108061023D01*
X124331362Y-107965785D01*
X124283743Y-107918166D01*
X124188505Y-107870547D01*
X124093267Y-107870547D01*
X123998029Y-107918166D01*
X123950410Y-107965785D01*
X123902790Y-108061023D01*
X123855171Y-108251500D01*
X123807552Y-108346738D01*
X123759933Y-108394357D01*
X123664695Y-108441976D01*
X123569457Y-108441976D01*
X123474219Y-108394357D01*
X123426600Y-108346738D01*
X123378981Y-108251500D01*
X123378981Y-108013404D01*
X123426600Y-107870547D01*
X124283743Y-106870547D02*
X124331362Y-106918166D01*
X124378981Y-107061023D01*
X124378981Y-107156261D01*
X124331362Y-107299119D01*
X124236124Y-107394357D01*
X124140886Y-107441976D01*
X123950410Y-107489595D01*
X123807552Y-107489595D01*
X123617076Y-107441976D01*
X123521838Y-107394357D01*
X123426600Y-107299119D01*
X123378981Y-107156261D01*
X123378981Y-107061023D01*
X123426600Y-106918166D01*
X123474219Y-106870547D01*
X124378981Y-105965785D02*
X124378981Y-106441976D01*
X123378981Y-106441976D01*
X121015600Y-107907404D02*
X120967981Y-108002642D01*
X120967981Y-108145499D01*
X121015600Y-108288357D01*
X121110838Y-108383595D01*
X121206076Y-108431214D01*
X121396552Y-108478833D01*
X121539410Y-108478833D01*
X121729886Y-108431214D01*
X121825124Y-108383595D01*
X121920362Y-108288357D01*
X121967981Y-108145499D01*
X121967981Y-108050261D01*
X121920362Y-107907404D01*
X121872743Y-107859785D01*
X121539410Y-107859785D01*
X121539410Y-108050261D01*
X121967981Y-107431214D02*
X120967981Y-107431214D01*
X121967981Y-106859785D01*
X120967981Y-106859785D01*
X121967981Y-106383595D02*
X120967981Y-106383595D01*
X120967981Y-106145500D01*
X121015600Y-106002642D01*
X121110838Y-105907404D01*
X121206076Y-105859785D01*
X121396552Y-105812166D01*
X121539410Y-105812166D01*
X121729886Y-105859785D01*
X121825124Y-105907404D01*
X121920362Y-106002642D01*
X121967981Y-106145500D01*
X121967981Y-106383595D01*
X118367981Y-108578833D02*
X119367981Y-108245500D01*
X118367981Y-107912166D01*
X119272743Y-107007404D02*
X119320362Y-107055023D01*
X119367981Y-107197880D01*
X119367981Y-107293118D01*
X119320362Y-107435976D01*
X119225124Y-107531214D01*
X119129886Y-107578833D01*
X118939410Y-107626452D01*
X118796552Y-107626452D01*
X118606076Y-107578833D01*
X118510838Y-107531214D01*
X118415600Y-107435976D01*
X118367981Y-107293118D01*
X118367981Y-107197880D01*
X118415600Y-107055023D01*
X118463219Y-107007404D01*
X119272743Y-106007404D02*
X119320362Y-106055023D01*
X119367981Y-106197880D01*
X119367981Y-106293118D01*
X119320362Y-106435976D01*
X119225124Y-106531214D01*
X119129886Y-106578833D01*
X118939410Y-106626452D01*
X118796552Y-106626452D01*
X118606076Y-106578833D01*
X118510838Y-106531214D01*
X118415600Y-106435976D01*
X118367981Y-106293118D01*
X118367981Y-106197880D01*
X118415600Y-106055023D01*
X118463219Y-106007404D01*
X51072005Y-146423581D02*
X51072005Y-145423581D01*
X51452958Y-145423581D01*
X51548196Y-145471200D01*
X51595815Y-145518819D01*
X51643434Y-145614057D01*
X51643434Y-145756914D01*
X51595815Y-145852152D01*
X51548196Y-145899771D01*
X51452958Y-145947390D01*
X51072005Y-145947390D01*
X51976767Y-145423581D02*
X52595815Y-145423581D01*
X52262481Y-145804533D01*
X52405339Y-145804533D01*
X52500577Y-145852152D01*
X52548196Y-145899771D01*
X52595815Y-145995010D01*
X52595815Y-146233105D01*
X52548196Y-146328343D01*
X52500577Y-146375962D01*
X52405339Y-146423581D01*
X52119624Y-146423581D01*
X52024386Y-146375962D01*
X51976767Y-146328343D01*
X72947671Y-114530580D02*
X72947671Y-114863914D01*
X73471481Y-114863914D02*
X72471481Y-114863914D01*
X72471481Y-114387723D01*
X72471481Y-114149628D02*
X72471481Y-113578199D01*
X73471481Y-113863914D02*
X72471481Y-113863914D01*
X73471481Y-113244866D02*
X72471481Y-113244866D01*
X72471481Y-113006771D01*
X72519100Y-112863913D01*
X72614338Y-112768675D01*
X72709576Y-112721056D01*
X72900052Y-112673437D01*
X73042910Y-112673437D01*
X73233386Y-112721056D01*
X73328624Y-112768675D01*
X73423862Y-112863913D01*
X73471481Y-113006771D01*
X73471481Y-113244866D01*
X73471481Y-112244866D02*
X72471481Y-112244866D01*
X73471481Y-111244866D02*
X73471481Y-111816295D01*
X73471481Y-111530581D02*
X72471481Y-111530581D01*
X72614338Y-111625819D01*
X72709576Y-111721057D01*
X72757195Y-111816295D01*
X71392005Y-124960581D02*
X71392005Y-123960581D01*
X71772958Y-123960581D01*
X71868196Y-124008200D01*
X71915815Y-124055819D01*
X71963434Y-124151057D01*
X71963434Y-124293914D01*
X71915815Y-124389152D01*
X71868196Y-124436771D01*
X71772958Y-124484390D01*
X71392005Y-124484390D01*
X72344386Y-124055819D02*
X72392005Y-124008200D01*
X72487243Y-123960581D01*
X72725339Y-123960581D01*
X72820577Y-124008200D01*
X72868196Y-124055819D01*
X72915815Y-124151057D01*
X72915815Y-124246295D01*
X72868196Y-124389152D01*
X72296767Y-124960581D01*
X72915815Y-124960581D01*
X69336195Y-142248581D02*
X69336195Y-143058105D01*
X69383814Y-143153343D01*
X69431433Y-143200962D01*
X69526671Y-143248581D01*
X69717148Y-143248581D01*
X69812386Y-143200962D01*
X69860005Y-143153343D01*
X69907624Y-143058105D01*
X69907624Y-142248581D01*
X70907624Y-143248581D02*
X70336195Y-143248581D01*
X70621909Y-143248581D02*
X70621909Y-142248581D01*
X70526671Y-142391438D01*
X70431433Y-142486676D01*
X70336195Y-142534295D01*
X67836005Y-122420581D02*
X67836005Y-121420581D01*
X68216958Y-121420581D01*
X68312196Y-121468200D01*
X68359815Y-121515819D01*
X68407434Y-121611057D01*
X68407434Y-121753914D01*
X68359815Y-121849152D01*
X68312196Y-121896771D01*
X68216958Y-121944390D01*
X67836005Y-121944390D01*
X69264577Y-121753914D02*
X69264577Y-122420581D01*
X69026481Y-121372962D02*
X68788386Y-122087248D01*
X69407434Y-122087248D01*
X76446605Y-146423581D02*
X76446605Y-145423581D01*
X76827558Y-145423581D01*
X76922796Y-145471200D01*
X76970415Y-145518819D01*
X77018034Y-145614057D01*
X77018034Y-145756914D01*
X76970415Y-145852152D01*
X76922796Y-145899771D01*
X76827558Y-145947390D01*
X76446605Y-145947390D01*
X77970415Y-146423581D02*
X77398986Y-146423581D01*
X77684700Y-146423581D02*
X77684700Y-145423581D01*
X77589462Y-145566438D01*
X77494224Y-145661676D01*
X77398986Y-145709295D01*
X65930862Y-120253533D02*
X65978481Y-120110676D01*
X65978481Y-119872580D01*
X65930862Y-119777342D01*
X65883243Y-119729723D01*
X65788005Y-119682104D01*
X65692767Y-119682104D01*
X65597529Y-119729723D01*
X65549910Y-119777342D01*
X65502290Y-119872580D01*
X65454671Y-120063057D01*
X65407052Y-120158295D01*
X65359433Y-120205914D01*
X65264195Y-120253533D01*
X65168957Y-120253533D01*
X65073719Y-120205914D01*
X65026100Y-120158295D01*
X64978481Y-120063057D01*
X64978481Y-119824961D01*
X65026100Y-119682104D01*
X64978481Y-119348771D02*
X65978481Y-119110676D01*
X65264195Y-118920199D01*
X65978481Y-118729723D01*
X64978481Y-118491628D01*
X65978481Y-117586866D02*
X65978481Y-118158295D01*
X65978481Y-117872581D02*
X64978481Y-117872581D01*
X65121338Y-117967819D01*
X65216576Y-118063057D01*
X65264195Y-118158295D01*
X54788381Y-55094095D02*
X53788381Y-55094095D01*
X53788381Y-54713142D01*
X53836000Y-54617904D01*
X53883619Y-54570285D01*
X53978857Y-54522666D01*
X54121714Y-54522666D01*
X54216952Y-54570285D01*
X54264571Y-54617904D01*
X54312190Y-54713142D01*
X54312190Y-55094095D01*
X54788381Y-53570285D02*
X54788381Y-54141714D01*
X54788381Y-53856000D02*
X53788381Y-53856000D01*
X53931238Y-53951238D01*
X54026476Y-54046476D01*
X54074095Y-54141714D01*
X64389143Y-53272571D02*
X64389143Y-54272571D01*
X63746286Y-53272571D02*
X63746286Y-54058286D01*
X63817714Y-54201143D01*
X63960572Y-54272571D01*
X64174857Y-54272571D01*
X64317714Y-54201143D01*
X64389143Y-54129714D01*
X65103429Y-54272571D02*
X65103429Y-52772571D01*
X65674857Y-52772571D01*
X65817715Y-52844000D01*
X65889143Y-52915429D01*
X65960572Y-53058286D01*
X65960572Y-53272571D01*
X65889143Y-53415429D01*
X65817715Y-53486857D01*
X65674857Y-53558286D01*
X65103429Y-53558286D01*
X67389143Y-54272571D02*
X66532000Y-54272571D01*
X66960572Y-54272571D02*
X66960572Y-52772571D01*
X66817715Y-52986857D01*
X66674857Y-53129714D01*
X66532000Y-53201143D01*
X56603428Y-51304000D02*
X57317714Y-51304000D01*
X56460571Y-51732571D02*
X56960571Y-50232571D01*
X57460571Y-51732571D01*
X58817714Y-51732571D02*
X58317714Y-51018286D01*
X57960571Y-51732571D02*
X57960571Y-50232571D01*
X58531999Y-50232571D01*
X58674857Y-50304000D01*
X58746285Y-50375429D01*
X58817714Y-50518286D01*
X58817714Y-50732571D01*
X58746285Y-50875429D01*
X58674857Y-50946857D01*
X58531999Y-51018286D01*
X57960571Y-51018286D01*
X59460571Y-51732571D02*
X59460571Y-50232571D01*
X59817714Y-50232571D01*
X60031999Y-50304000D01*
X60174857Y-50446857D01*
X60246285Y-50589714D01*
X60317714Y-50875429D01*
X60317714Y-51089714D01*
X60246285Y-51375429D01*
X60174857Y-51518286D01*
X60031999Y-51661143D01*
X59817714Y-51732571D01*
X59460571Y-51732571D01*
X60960571Y-50232571D02*
X60960571Y-51446857D01*
X61031999Y-51589714D01*
X61103428Y-51661143D01*
X61246285Y-51732571D01*
X61531999Y-51732571D01*
X61674857Y-51661143D01*
X61746285Y-51589714D01*
X61817714Y-51446857D01*
X61817714Y-50232571D01*
X62532000Y-51732571D02*
X62532000Y-50232571D01*
X63103428Y-50232571D01*
X63246286Y-50304000D01*
X63317714Y-50375429D01*
X63389143Y-50518286D01*
X63389143Y-50732571D01*
X63317714Y-50875429D01*
X63246286Y-50946857D01*
X63103428Y-51018286D01*
X62532000Y-51018286D01*
X64889143Y-51732571D02*
X64389143Y-51018286D01*
X64032000Y-51732571D02*
X64032000Y-50232571D01*
X64603428Y-50232571D01*
X64746286Y-50304000D01*
X64817714Y-50375429D01*
X64889143Y-50518286D01*
X64889143Y-50732571D01*
X64817714Y-50875429D01*
X64746286Y-50946857D01*
X64603428Y-51018286D01*
X64032000Y-51018286D01*
X65817714Y-50232571D02*
X66103428Y-50232571D01*
X66246286Y-50304000D01*
X66389143Y-50446857D01*
X66460571Y-50732571D01*
X66460571Y-51232571D01*
X66389143Y-51518286D01*
X66246286Y-51661143D01*
X66103428Y-51732571D01*
X65817714Y-51732571D01*
X65674857Y-51661143D01*
X65532000Y-51518286D01*
X65460571Y-51232571D01*
X65460571Y-50732571D01*
X65532000Y-50446857D01*
X65674857Y-50304000D01*
X65817714Y-50232571D01*
X67103429Y-51732571D02*
X67103429Y-50232571D01*
X67603429Y-51304000D01*
X68103429Y-50232571D01*
X68103429Y-51732571D01*
X68817715Y-51732571D02*
X68817715Y-50232571D01*
X69532001Y-51732571D02*
X69532001Y-50232571D01*
X70389144Y-51732571D01*
X70389144Y-50232571D01*
X71103430Y-51732571D02*
X71103430Y-50232571D01*
X71817716Y-51161143D02*
X72960573Y-51161143D01*
X74317716Y-50232571D02*
X74032002Y-50232571D01*
X73889145Y-50304000D01*
X73817716Y-50375429D01*
X73674859Y-50589714D01*
X73603430Y-50875429D01*
X73603430Y-51446857D01*
X73674859Y-51589714D01*
X73746287Y-51661143D01*
X73889145Y-51732571D01*
X74174859Y-51732571D01*
X74317716Y-51661143D01*
X74389145Y-51589714D01*
X74460573Y-51446857D01*
X74460573Y-51089714D01*
X74389145Y-50946857D01*
X74317716Y-50875429D01*
X74174859Y-50804000D01*
X73889145Y-50804000D01*
X73746287Y-50875429D01*
X73674859Y-50946857D01*
X73603430Y-51089714D01*
X51077905Y-92166381D02*
X51077905Y-91166381D01*
X51458858Y-91166381D01*
X51554096Y-91214000D01*
X51601715Y-91261619D01*
X51649334Y-91356857D01*
X51649334Y-91499714D01*
X51601715Y-91594952D01*
X51554096Y-91642571D01*
X51458858Y-91690190D01*
X51077905Y-91690190D01*
X52030286Y-91261619D02*
X52077905Y-91214000D01*
X52173143Y-91166381D01*
X52411239Y-91166381D01*
X52506477Y-91214000D01*
X52554096Y-91261619D01*
X52601715Y-91356857D01*
X52601715Y-91452095D01*
X52554096Y-91594952D01*
X51982667Y-92166381D01*
X52601715Y-92166381D01*
X76223905Y-61646381D02*
X76223905Y-60646381D01*
X76604858Y-60646381D01*
X76700096Y-60694000D01*
X76747715Y-60741619D01*
X76795334Y-60836857D01*
X76795334Y-60979714D01*
X76747715Y-61074952D01*
X76700096Y-61122571D01*
X76604858Y-61170190D01*
X76223905Y-61170190D01*
X77128667Y-60646381D02*
X77747715Y-60646381D01*
X77414381Y-61027333D01*
X77557239Y-61027333D01*
X77652477Y-61074952D01*
X77700096Y-61122571D01*
X77747715Y-61217810D01*
X77747715Y-61455905D01*
X77700096Y-61551143D01*
X77652477Y-61598762D01*
X77557239Y-61646381D01*
X77271524Y-61646381D01*
X77176286Y-61598762D01*
X77128667Y-61551143D01*
X60650524Y-75446000D02*
X60555286Y-75398381D01*
X60412429Y-75398381D01*
X60269571Y-75446000D01*
X60174333Y-75541238D01*
X60126714Y-75636476D01*
X60079095Y-75826952D01*
X60079095Y-75969810D01*
X60126714Y-76160286D01*
X60174333Y-76255524D01*
X60269571Y-76350762D01*
X60412429Y-76398381D01*
X60507667Y-76398381D01*
X60650524Y-76350762D01*
X60698143Y-76303143D01*
X60698143Y-75969810D01*
X60507667Y-75969810D01*
X61079095Y-76350762D02*
X61221952Y-76398381D01*
X61460048Y-76398381D01*
X61555286Y-76350762D01*
X61602905Y-76303143D01*
X61650524Y-76207905D01*
X61650524Y-76112667D01*
X61602905Y-76017429D01*
X61555286Y-75969810D01*
X61460048Y-75922190D01*
X61269571Y-75874571D01*
X61174333Y-75826952D01*
X61126714Y-75779333D01*
X61079095Y-75684095D01*
X61079095Y-75588857D01*
X61126714Y-75493619D01*
X61174333Y-75446000D01*
X61269571Y-75398381D01*
X61507667Y-75398381D01*
X61650524Y-75446000D01*
X62602905Y-76398381D02*
X62031476Y-76398381D01*
X62317190Y-76398381D02*
X62317190Y-75398381D01*
X62221952Y-75541238D01*
X62126714Y-75636476D01*
X62031476Y-75684095D01*
X60650524Y-72906000D02*
X60555286Y-72858381D01*
X60412429Y-72858381D01*
X60269571Y-72906000D01*
X60174333Y-73001238D01*
X60126714Y-73096476D01*
X60079095Y-73286952D01*
X60079095Y-73429810D01*
X60126714Y-73620286D01*
X60174333Y-73715524D01*
X60269571Y-73810762D01*
X60412429Y-73858381D01*
X60507667Y-73858381D01*
X60650524Y-73810762D01*
X60698143Y-73763143D01*
X60698143Y-73429810D01*
X60507667Y-73429810D01*
X61079095Y-73810762D02*
X61221952Y-73858381D01*
X61460048Y-73858381D01*
X61555286Y-73810762D01*
X61602905Y-73763143D01*
X61650524Y-73667905D01*
X61650524Y-73572667D01*
X61602905Y-73477429D01*
X61555286Y-73429810D01*
X61460048Y-73382190D01*
X61269571Y-73334571D01*
X61174333Y-73286952D01*
X61126714Y-73239333D01*
X61079095Y-73144095D01*
X61079095Y-73048857D01*
X61126714Y-72953619D01*
X61174333Y-72906000D01*
X61269571Y-72858381D01*
X61507667Y-72858381D01*
X61650524Y-72906000D01*
X62031476Y-72953619D02*
X62079095Y-72906000D01*
X62174333Y-72858381D01*
X62412429Y-72858381D01*
X62507667Y-72906000D01*
X62555286Y-72953619D01*
X62602905Y-73048857D01*
X62602905Y-73144095D01*
X62555286Y-73286952D01*
X61983857Y-73858381D01*
X62602905Y-73858381D01*
M02*
