M48
;DRILL file {KiCad 4.0.3-stable} date 06/29/17 20:47:14
;FORMAT={-:-/ absolute / inch / decimal}
FMAT,2
INCH,TZ
T1C0.016
T2C0.024
T3C0.030
T4C0.031
T5C0.032
T6C0.039
T7C0.040
%
G90
G05
M72
T1
X2.0987Y-5.487
X2.1198Y-4.3919
X2.1198Y-4.4419
X2.1267Y-5.6025
X2.1528Y-4.9399
X2.1528Y-4.9899
X2.1538Y-5.0564
X2.1768Y-4.6794
X2.1776Y-4.81
X2.1798Y-4.3919
X2.1798Y-4.4419
X2.1823Y-5.129
X2.1834Y-5.2827
X2.1878Y-4.9399
X2.2256Y-4.9399
X2.2468Y-4.5429
X2.2477Y-4.7044
X2.2499Y-4.6585
X2.2578Y-4.9399
X2.3056Y-5.3124
X2.3185Y-5.5017
X2.3185Y-5.551
X2.3185Y-5.6002
X2.3579Y-5.5017
X2.3579Y-5.551
X2.3579Y-5.6002
X2.385Y-3.125
X2.3966Y-5.6004
X2.415Y-2.995
X2.4642Y-5.6002
X2.5325Y-5.1807
X2.5565Y-5.0106
X2.5674Y-5.5853
X2.5698Y-5.4919
X2.6336Y-5.0092
X2.7648Y-5.5669
X2.803Y-4.5415
X2.8493Y-4.5415
X2.8498Y-4.3919
X2.8498Y-4.4419
X2.8498Y-4.4919
X2.8998Y-4.3919
X2.8998Y-4.4419
X2.8998Y-4.4919
X2.9198Y-4.6119
X2.9374Y-5.4094
X2.9483Y-5.0409
X2.9493Y-4.9889
X2.9498Y-4.3919
X2.9498Y-4.4419
X2.9498Y-4.6519
X2.9649Y-4.5879
X4.1062Y-2.2455
X4.1092Y-4.2515
X4.1473Y-3.3677
X4.1503Y-5.3737
X4.1631Y-3.1787
X4.1661Y-5.1847
X4.1709Y-3.0449
X4.1739Y-5.0509
X4.411Y-2.3065
X4.414Y-4.3125
X5.121Y-2.7602
X5.124Y-4.7662
X5.1306Y-2.3503
X5.1336Y-4.3563
T2
X2.715Y-2.655
X2.715Y-2.755
X2.715Y-3.065
X2.715Y-3.165
T3
X2.23Y-2.31
X2.23Y-2.41
X2.23Y-2.51
X2.23Y-2.61
X2.23Y-2.71
X2.23Y-2.81
X2.23Y-2.91
X2.23Y-3.01
X2.23Y-3.11
X2.23Y-3.21
X2.23Y-3.31
X2.23Y-3.41
X2.83Y-2.31
X2.83Y-2.41
X2.83Y-2.51
X2.83Y-2.61
X2.83Y-2.71
X2.83Y-2.81
X2.83Y-2.91
X2.83Y-3.01
X2.83Y-3.11
X2.83Y-3.21
X2.83Y-3.31
X2.83Y-3.41
T4
X2.3854Y-3.8
X2.4854Y-3.8
X2.5854Y-3.8
X2.6854Y-3.8
X3.466Y-2.5065
X3.469Y-4.5125
X3.566Y-2.5065
X3.569Y-4.5125
X3.666Y-2.5065
X3.669Y-4.5125
X3.711Y-2.7565
X3.711Y-3.6565
X3.714Y-4.7625
X3.714Y-5.6625
X3.766Y-2.5065
X3.769Y-4.5125
X3.811Y-2.7565
X3.811Y-3.6565
X3.814Y-4.7625
X3.814Y-5.6625
X3.911Y-2.7565
X3.911Y-3.6565
X3.914Y-4.7625
X3.914Y-5.6625
X4.011Y-2.7565
X4.011Y-3.6565
X4.014Y-4.7625
X4.014Y-5.6625
X4.111Y-2.7565
X4.111Y-3.6565
X4.114Y-4.7625
X4.114Y-5.6625
X4.116Y-2.5065
X4.119Y-4.5125
X4.211Y-2.7565
X4.211Y-3.6565
X4.214Y-4.7625
X4.214Y-5.6625
X4.216Y-2.5065
X4.219Y-4.5125
X4.311Y-2.7565
X4.311Y-3.6565
X4.314Y-4.7625
X4.314Y-5.6625
X4.316Y-2.5065
X4.319Y-4.5125
X4.411Y-2.7565
X4.411Y-3.6565
X4.414Y-4.7625
X4.414Y-5.6625
X4.416Y-2.5065
X4.419Y-4.5125
X4.511Y-2.7565
X4.511Y-3.6565
X4.514Y-4.7625
X4.514Y-5.6625
X4.611Y-2.7565
X4.611Y-3.6565
X4.614Y-4.7625
X4.614Y-5.6625
X4.6787Y-2.0815
X4.6817Y-4.0875
X4.7787Y-2.0815
X4.7817Y-4.0875
X4.8787Y-2.0815
X4.8817Y-4.0875
X4.9787Y-2.0815
X4.9817Y-4.0875
X5.0787Y-2.0815
X5.0817Y-4.0875
X5.1787Y-2.0815
X5.1817Y-4.0875
X5.2787Y-2.0815
X5.2817Y-4.0875
X5.311Y-3.3707
X5.314Y-5.3767
X5.3787Y-2.0815
X5.3817Y-4.0875
X5.411Y-3.3707
X5.414Y-5.3767
X5.511Y-3.3707
X5.514Y-5.3767
T5
X5.211Y-2.5065
X5.214Y-4.5125
X5.311Y-2.5065
X5.314Y-4.5125
T6
X5.7141Y-2.8565
X5.7141Y-2.9565
X5.7141Y-3.0565
X5.7141Y-3.2565
X5.7141Y-3.3565
X5.7171Y-4.8625
X5.7171Y-4.9625
X5.7171Y-5.0625
X5.7171Y-5.2625
X5.7171Y-5.3625
T7
X2.0398Y-4.4419
X2.0398Y-4.5419
X2.0398Y-4.6419
X2.0398Y-4.7419
X2.0398Y-4.8419
X2.0398Y-4.9419
X2.0398Y-5.0419
X2.0398Y-5.1419
X2.0398Y-5.2419
X2.0398Y-5.3419
X2.0398Y-5.4419
X2.0398Y-5.5419
X2.0398Y-5.6419
X2.04Y-2.61
X2.04Y-2.71
X2.04Y-2.81
X2.04Y-2.91
X2.04Y-3.01
X2.04Y-3.11
X2.04Y-3.21
X2.04Y-3.31
X2.04Y-3.41
X2.2758Y-4.4435
X2.34Y-2.14
X2.3758Y-4.4435
X2.44Y-2.14
X2.4758Y-4.4435
X2.54Y-2.14
X2.5758Y-4.4435
X2.64Y-2.14
X2.6758Y-4.4435
X2.6848Y-4.6169
X2.6848Y-4.7169
X2.74Y-2.14
X2.7758Y-4.4435
X2.8428Y-4.6167
X2.8428Y-4.7167
X2.8428Y-4.8167
X3.03Y-2.61
X3.03Y-2.71
X3.03Y-2.81
X3.03Y-2.91
X3.03Y-3.01
X3.03Y-3.11
X3.03Y-3.21
X3.03Y-3.31
X3.03Y-3.41
X3.0398Y-4.4419
X3.0398Y-4.5419
X3.0398Y-4.6419
X3.0398Y-4.7419
X3.0398Y-4.8419
X3.0398Y-4.9419
X3.0398Y-5.0419
X3.0398Y-5.1419
X3.0398Y-5.2419
X3.0398Y-5.3419
X3.0398Y-5.4419
X3.0398Y-5.5419
X3.0398Y-5.6419
X4.711Y-2.5408
X4.714Y-4.5468
X4.811Y-2.5408
X4.814Y-4.5468
X4.911Y-2.5408
X4.914Y-4.5468
X5.011Y-2.5408
X5.014Y-4.5468
X5.211Y-3.5565
X5.214Y-5.5625
X5.311Y-3.5565
X5.314Y-5.5625
X5.411Y-3.5565
X5.414Y-5.5625
X5.511Y-3.5565
X5.514Y-5.5625
X5.5173Y-2.0565
X5.5173Y-2.1565
X5.5173Y-2.2565
X5.5173Y-2.3565
X5.5173Y-2.4565
X5.5203Y-4.0625
X5.5203Y-4.1625
X5.5203Y-4.2625
X5.5203Y-4.3625
X5.5203Y-4.4625
X5.611Y-3.5565
X5.614Y-5.5625
T0
M30
